<svg xmlns="http://www.w3.org/2000/svg" viewBox="0 0 440 650"><defs><style>.cls-1,.cls-11,.cls-2{fill:#fff;}.cls-1{opacity:0.05;}.cls-10,.cls-24,.cls-3,.cls-4,.cls-5,.cls-6,.cls-7,.cls-8,.cls-9{fill:none;}.cls-10,.cls-24,.cls-4,.cls-5,.cls-6,.cls-7,.cls-8,.cls-9{stroke:#fff;stroke-miterlimit:10;}.cls-4{stroke-width:1.02px;}.cls-5{stroke-width:0.92px;}.cls-6{stroke-width:0.73px;}.cls-7{stroke-width:0.76px;}.cls-8{stroke-width:0.8px;}.cls-9{stroke-width:1.16px;}.cls-10{stroke-width:0.93px;}.cls-11{font-size:12px;font-family:Epilogue-Medium, Epilogue;font-weight:500;}.cls-12{letter-spacing:-0.02em;}.cls-13{letter-spacing:0em;}.cls-14{letter-spacing:-0.02em;}.cls-15{letter-spacing:-0.03em;}.cls-16{letter-spacing:0em;}.cls-17{letter-spacing:0em;}.cls-18{letter-spacing:-0.01em;}.cls-19{letter-spacing:0em;}.cls-20{letter-spacing:-0.01em;}.cls-21{letter-spacing:0em;}.cls-22{letter-spacing:0em;}.cls-23{fill:#ed1e79;}</style></defs><g id="Layer_2" data-name="Layer 2"><g id="Layer_1-2" data-name="Layer 1"><rect class="cls-1" width="440" height="650" rx="21.66"/><path class="cls-2" d="M93.89,102.42,89.66,74.34h5.18l3.24,26.77-.72,0,5.17-26.73h6.32L114,101.07l-.72,0,3.24-26.77h5.2l-4.27,28.08h-7.69L105.43,78H106l-4.34,24.44Z"/><path class="cls-2" d="M126.22,93.93V90.37h14.15l-.58.95v-.49a5.26,5.26,0,0,0-.59-2.47,4.5,4.5,0,0,0-1.79-1.86,5.82,5.82,0,0,0-3-.72,6.28,6.28,0,0,0-3.17.77,5.25,5.25,0,0,0-2.08,2.22,7.6,7.6,0,0,0-.73,3.47,8.33,8.33,0,0,0,.7,3.57,5.1,5.1,0,0,0,2.07,2.28,6.48,6.48,0,0,0,3.32.79,9.23,9.23,0,0,0,2.31-.25,5.08,5.08,0,0,0,1.59-.67,3.42,3.42,0,0,0,.93-.93,2.36,2.36,0,0,0,.37-1h5a5.83,5.83,0,0,1-.85,2.49,7.94,7.94,0,0,1-2,2.19,10.43,10.43,0,0,1-3.19,1.56,14.32,14.32,0,0,1-4.27.58,11.64,11.64,0,0,1-5.69-1.33,9.58,9.58,0,0,1-3.8-3.72,11.61,11.61,0,0,1,0-10.94,9.67,9.67,0,0,1,3.84-3.69,11.67,11.67,0,0,1,5.63-1.32A11.42,11.42,0,0,1,140,83.19a9.15,9.15,0,0,1,3.69,3.71A11.33,11.33,0,0,1,145,92.41c0,.26,0,.55,0,.85a6.42,6.42,0,0,1-.05.67Z"/><path class="cls-2" d="M158.61,102.42V72.66h5v29.76Zm14.31,0v-11a6.44,6.44,0,0,0-1-3.86,3.87,3.87,0,0,0-3.34-1.34,5.49,5.49,0,0,0-2.69.62,4.17,4.17,0,0,0-1.71,1.72,5.39,5.39,0,0,0-.59,2.55l-1.83-1a8.35,8.35,0,0,1,1.1-4.29,7.75,7.75,0,0,1,3-2.94,9.1,9.1,0,0,1,4.45-1.07A7.15,7.15,0,0,1,176,84a8.8,8.8,0,0,1,1.94,6.06v12.32Z"/><path class="cls-2" d="M189.7,102.84a10.4,10.4,0,0,1-4-.71,6.14,6.14,0,0,1-2.69-2.07,5.46,5.46,0,0,1-1-3.25,5.13,5.13,0,0,1,1.13-3.42,7.33,7.33,0,0,1,3.06-2.08,15.83,15.83,0,0,1,4.26-.94,45.55,45.55,0,0,0,4.85-.66q1.38-.31,1.38-1v0a2.28,2.28,0,0,0-1.2-2.06,6.62,6.62,0,0,0-3.39-.72,6.42,6.42,0,0,0-3.53.81,2.84,2.84,0,0,0-1.23,2.56h-4.95a6.38,6.38,0,0,1,1.27-4,7.78,7.78,0,0,1,3.47-2.5,13.78,13.78,0,0,1,5-.86,14.06,14.06,0,0,1,4.78.78A7.85,7.85,0,0,1,200.45,85a5.94,5.94,0,0,1,1.32,3.94v9.22c0,.48,0,1,0,1.42a7,7,0,0,0,.2,1.24,4.3,4.3,0,0,0,.46,1,3.79,3.79,0,0,0,.42.57h-4.95a3.13,3.13,0,0,1-.37-.52,5.15,5.15,0,0,1-.43-.91,7.5,7.5,0,0,1-.29-1.22,10.89,10.89,0,0,1-.09-1.46l1,.68a5.49,5.49,0,0,1-1.74,2,8.61,8.61,0,0,1-2.79,1.34A12.33,12.33,0,0,1,189.7,102.84Zm1.21-3.94a7.83,7.83,0,0,0,2.9-.53A4.91,4.91,0,0,0,196,96.72a4.69,4.69,0,0,0,.82-2.87v-2.7L198,92.52a15.47,15.47,0,0,1-2.94.75c-1.14.2-2.29.36-3.46.47a9.89,9.89,0,0,0-3.38.78,1.93,1.93,0,0,0-1.13,1.87,2.1,2.1,0,0,0,.95,1.88A5.24,5.24,0,0,0,190.91,98.9Z"/><path class="cls-2" d="M223,82.2l-6.35,20.22H210L203.46,82.2h5.18l5.08,18.47h-.8l4.92-18.47Z"/><path class="cls-2" d="M227.18,93.93V90.37h14.15l-.57.95v-.49a5.39,5.39,0,0,0-.59-2.47,4.5,4.5,0,0,0-1.79-1.86,5.86,5.86,0,0,0-3-.72,6.33,6.33,0,0,0-3.17.77,5.29,5.29,0,0,0-2.07,2.22,7.6,7.6,0,0,0-.73,3.47,8.33,8.33,0,0,0,.7,3.57,5.1,5.1,0,0,0,2.07,2.28,6.45,6.45,0,0,0,3.32.79,9.14,9.14,0,0,0,2.3-.25,4.88,4.88,0,0,0,1.59-.67,3.28,3.28,0,0,0,.93-.93,2.39,2.39,0,0,0,.38-1h5a5.68,5.68,0,0,1-.84,2.49,7.94,7.94,0,0,1-2,2.19,10.66,10.66,0,0,1-3.19,1.56,14.32,14.32,0,0,1-4.27.58,11.71,11.71,0,0,1-5.7-1.33,9.55,9.55,0,0,1-3.79-3.72,11.57,11.57,0,0,1,0-10.94,9.67,9.67,0,0,1,3.84-3.69,11.74,11.74,0,0,1,5.64-1.32,11.42,11.42,0,0,1,5.66,1.33,9.28,9.28,0,0,1,3.69,3.71,11.33,11.33,0,0,1,1.29,5.51c0,.26,0,.55,0,.85a4.16,4.16,0,0,1-.06.67Z"/><path class="cls-2" d="M90.75,155.57V135.35h5v20.22Zm12.56,0V144a14,14,0,0,0-.09-1.55,4.64,4.64,0,0,0-.42-1.5,2.67,2.67,0,0,0-1-1.11,3.41,3.41,0,0,0-1.86-.43,3.75,3.75,0,0,0-1.93.47,3.8,3.8,0,0,0-1.29,1.23,5.56,5.56,0,0,0-.74,1.76,8.91,8.91,0,0,0-.22,2l-1.68-1.13a10.24,10.24,0,0,1,.93-4.45,7.58,7.58,0,0,1,2.66-3.12,7.23,7.23,0,0,1,4.08-1.15,6.53,6.53,0,0,1,3.87,1,5.69,5.69,0,0,1,2,2.75,11.57,11.57,0,0,1,.61,3.88v12.91Zm12.49,0V143.94a14.61,14.61,0,0,0-.09-1.61,4.21,4.21,0,0,0-.42-1.46,2.53,2.53,0,0,0-1-1.07,3.68,3.68,0,0,0-1.87-.41,3.8,3.8,0,0,0-2,.46,3.51,3.51,0,0,0-1.26,1.22,5.54,5.54,0,0,0-.7,1.71,8.79,8.79,0,0,0-.22,1.9l-1.67-1.1a10.1,10.1,0,0,1,.91-4.36,7.39,7.39,0,0,1,2.63-3.08,7.25,7.25,0,0,1,4.07-1.13,6.81,6.81,0,0,1,3.83,1,5.49,5.49,0,0,1,2.1,2.66,10.44,10.44,0,0,1,.66,3.84v13.09Z"/><path class="cls-2" d="M132.58,156a10.4,10.4,0,0,1-4-.71,6.19,6.19,0,0,1-2.69-2.07,5.46,5.46,0,0,1-1-3.25,5.08,5.08,0,0,1,1.14-3.42,7.33,7.33,0,0,1,3-2.08,16.21,16.21,0,0,1,4.27-.94c2.31-.23,3.92-.45,4.84-.65s1.38-.55,1.38-1v0a2.28,2.28,0,0,0-1.2-2.06A6.62,6.62,0,0,0,135,139a6.42,6.42,0,0,0-3.53.81,2.84,2.84,0,0,0-1.23,2.56h-5a6.44,6.44,0,0,1,1.27-4,7.78,7.78,0,0,1,3.47-2.5,13.85,13.85,0,0,1,5-.86,14.06,14.06,0,0,1,4.78.78,7.85,7.85,0,0,1,3.48,2.36,6,6,0,0,1,1.32,3.94v9.22c0,.48,0,.95,0,1.42a5.74,5.74,0,0,0,.2,1.25,4,4,0,0,0,.45,1,3.79,3.79,0,0,0,.42.57h-5a2.74,2.74,0,0,1-.37-.52,5.39,5.39,0,0,1-.43-.9,6.51,6.51,0,0,1-.28-1.23,9.39,9.39,0,0,1-.1-1.46l1,.69a5.54,5.54,0,0,1-1.74,2,8.84,8.84,0,0,1-2.79,1.35A12.7,12.7,0,0,1,132.58,156Zm1.22-3.94a7.82,7.82,0,0,0,2.89-.53,4.85,4.85,0,0,0,2.15-1.65,4.68,4.68,0,0,0,.82-2.86V144.3l1.22,1.37a16.08,16.08,0,0,1-2.93.76c-1.15.19-2.3.35-3.47.46a9.89,9.89,0,0,0-3.38.78,2,2,0,0,0-1.13,1.87,2.11,2.11,0,0,0,.95,1.88A5.28,5.28,0,0,0,133.8,152.05Z"/><path class="cls-2" d="M149.31,155.57V135.35h5v20.22Zm14.3,0V144.21a7.32,7.32,0,0,0-.39-2.47,3.36,3.36,0,0,0-1.33-1.72,4.65,4.65,0,0,0-2.6-.63A4.77,4.77,0,0,0,155,142a5.86,5.86,0,0,0-.64,2.79l-1.69-1.05a8.71,8.71,0,0,1,1.15-4.5,8.39,8.39,0,0,1,7.39-4.22,8.22,8.22,0,0,1,4.11,1,6.1,6.1,0,0,1,2.51,2.71,9.25,9.25,0,0,1,.85,4.11v12.79Z"/><path class="cls-2" d="M174.08,164.26a12.82,12.82,0,0,1-1.6-.09,4.3,4.3,0,0,1-.87-.16v-3.9a3.39,3.39,0,0,0,.84.18c.4,0,.82.06,1.25.06a3.74,3.74,0,0,0,1.82-.42,4,4,0,0,0,1.32-1.15,5.94,5.94,0,0,0,.88-1.7l.44-1.28-7-20.45h5.23l4.78,16.87h-.61l4.67-16.87h5.14l-7.08,21.46a18.39,18.39,0,0,1-1.8,3.91,7.4,7.4,0,0,1-2.81,2.6A9.88,9.88,0,0,1,174.08,164.26Z"/><path class="cls-2" d="M90.75,217.05V188.51h5v28.54Zm11.38-7.9a8.23,8.23,0,0,1-4.37-1.23,9.3,9.3,0,0,1-3.23-3.36,9.45,9.45,0,0,1-1.23-4.8v-.27l2.47-.06v.2a4.71,4.71,0,0,0,.75,2.63,5.32,5.32,0,0,0,1.93,1.81,5.31,5.31,0,0,0,6.27-.85,7.8,7.8,0,0,0,0-9.32,5.41,5.41,0,0,0-6.26-.83,5.29,5.29,0,0,0-1.94,1.76,4.54,4.54,0,0,0-.76,2.62l-2.47-.11a9.15,9.15,0,0,1,1.23-4.76,9,9,0,0,1,3.23-3.25,8.54,8.54,0,0,1,4.37-1.17,9.14,9.14,0,0,1,4.58,1.2,9,9,0,0,1,3.43,3.53,11.38,11.38,0,0,1,1.3,5.67,12.11,12.11,0,0,1-1.27,5.81,8.86,8.86,0,0,1-3.39,3.57A9.27,9.27,0,0,1,102.13,209.15Z"/><path class="cls-2" d="M115.58,208.73V188.51h5v6.72l-1.16-.65a9.32,9.32,0,0,1,.71-2.48A6.81,6.81,0,0,1,121.5,190a6,6,0,0,1,2.07-1.38,7.33,7.33,0,0,1,2.78-.5,8.26,8.26,0,0,1,2,.18,3.53,3.53,0,0,1,.89.3l-.92,4.59a3.53,3.53,0,0,0-.77-.34,4.94,4.94,0,0,0-1.55-.2,5.67,5.67,0,0,0-2.58.53,4.27,4.27,0,0,0-1.64,1.41,5.89,5.89,0,0,0-.88,1.94,8.46,8.46,0,0,0-.27,2.1v10.06Z"/><path class="cls-2" d="M141.91,209.13a11.45,11.45,0,0,1-5.64-1.35,9.76,9.76,0,0,1-3.82-3.72,11.41,11.41,0,0,1,0-10.88,9.73,9.73,0,0,1,3.82-3.68,12.52,12.52,0,0,1,11.27,0,9.66,9.66,0,0,1,3.82,3.68,11.41,11.41,0,0,1,0,10.88,9.69,9.69,0,0,1-3.82,3.72A11.41,11.41,0,0,1,141.91,209.13Zm0-4.1a5.56,5.56,0,0,0,3-.8,5.39,5.39,0,0,0,2-2.23,7.48,7.48,0,0,0,.73-3.38,7.31,7.31,0,0,0-.73-3.36,5.25,5.25,0,0,0-2-2.2,6.24,6.24,0,0,0-6,0,5.27,5.27,0,0,0-2,2.2,7.31,7.31,0,0,0-.72,3.36,7.48,7.48,0,0,0,.72,3.38,5.41,5.41,0,0,0,2,2.23A5.59,5.59,0,0,0,141.91,205Z"/><path class="cls-2" d="M156.87,208.73V179h5v29.76Zm11.39.42a8.2,8.2,0,0,1-4.37-1.23,9.33,9.33,0,0,1-3.24-3.36,9.45,9.45,0,0,1-1.23-4.8v-.27l2.48-.06v.2a4.78,4.78,0,0,0,.74,2.63,5.4,5.4,0,0,0,1.93,1.81,5.32,5.32,0,0,0,6.28-.85,7.84,7.84,0,0,0,0-9.32,5.43,5.43,0,0,0-6.27-.83,5.29,5.29,0,0,0-1.94,1.76,4.6,4.6,0,0,0-.75,2.62l-2.48-.11a9.15,9.15,0,0,1,1.23-4.76,9,9,0,0,1,3.24-3.25,8.52,8.52,0,0,1,4.37-1.17,9,9,0,0,1,8,4.73,11.4,11.4,0,0,1,1.31,5.67,12.11,12.11,0,0,1-1.28,5.81,8.86,8.86,0,0,1-3.39,3.57A9.23,9.23,0,0,1,168.26,209.15Z"/><path class="cls-2" d="M186.92,179v29.76H182V179Z"/><path class="cls-2" d="M193.9,200.23v-3.56h14.15l-.57,1v-.5a5.34,5.34,0,0,0-.59-2.46,4.65,4.65,0,0,0-1.79-1.87,5.86,5.86,0,0,0-3-.71,6.21,6.21,0,0,0-3.17.77,5.21,5.21,0,0,0-2.07,2.21,7.59,7.59,0,0,0-.74,3.47,8.33,8.33,0,0,0,.71,3.57,5,5,0,0,0,2.06,2.28,6.51,6.51,0,0,0,3.33.79,9.73,9.73,0,0,0,2.3-.24,4.88,4.88,0,0,0,1.59-.68,3.26,3.26,0,0,0,.93-.92,2.24,2.24,0,0,0,.37-1h5a5.72,5.72,0,0,1-.84,2.48,7.82,7.82,0,0,1-2,2.19,10.21,10.21,0,0,1-3.19,1.56,14.39,14.39,0,0,1-4.28.58,11.67,11.67,0,0,1-5.69-1.33,9.62,9.62,0,0,1-3.8-3.71,10.86,10.86,0,0,1-1.36-5.45,10.7,10.7,0,0,1,1.38-5.5,9.65,9.65,0,0,1,3.84-3.68,11.62,11.62,0,0,1,5.63-1.33,11.43,11.43,0,0,1,5.67,1.34,9.17,9.17,0,0,1,3.68,3.7,11.25,11.25,0,0,1,1.3,5.51c0,.27,0,.55,0,.86a4.13,4.13,0,0,1-.06.66Z"/><path class="cls-2" d="M216.77,208.73V188.51h5v20.22Zm12.57,0v-11.6a14.19,14.19,0,0,0-.1-1.55,4.64,4.64,0,0,0-.42-1.5,2.66,2.66,0,0,0-1-1.11,3.49,3.49,0,0,0-1.85-.43A3.77,3.77,0,0,0,224,193a3.82,3.82,0,0,0-1.29,1.24A5.41,5.41,0,0,0,222,196a8.91,8.91,0,0,0-.22,2l-1.68-1.13a10.27,10.27,0,0,1,.93-4.45,7.56,7.56,0,0,1,2.66-3.11,7.16,7.16,0,0,1,4.08-1.16,6.53,6.53,0,0,1,3.87,1,5.69,5.69,0,0,1,2.05,2.75,11.59,11.59,0,0,1,.62,3.89v12.91Zm12.49,0V197.09a14.65,14.65,0,0,0-.1-1.61,4.27,4.27,0,0,0-.42-1.46,2.47,2.47,0,0,0-1-1.07,3.64,3.64,0,0,0-1.86-.41,3.82,3.82,0,0,0-2,.46,3.59,3.59,0,0,0-1.26,1.22,5.65,5.65,0,0,0-.7,1.71,8.87,8.87,0,0,0-.21,1.91l-1.68-1.11a10.13,10.13,0,0,1,.91-4.36,7.37,7.37,0,0,1,2.63-3.07,7.17,7.17,0,0,1,4.07-1.14,6.81,6.81,0,0,1,3.83,1,5.56,5.56,0,0,1,2.11,2.66,10.66,10.66,0,0,1,.65,3.84v13.1Z"/><path class="cls-2" d="M259.84,209.15a14.67,14.67,0,0,1-3.44-.4,9.77,9.77,0,0,1-2.89-1.2,6.23,6.23,0,0,1-2-2,5.16,5.16,0,0,1-.74-2.76v-.43h5v.34a2,2,0,0,0,1.13,1.86,6.56,6.56,0,0,0,3.1.61,8.66,8.66,0,0,0,2-.22,3.83,3.83,0,0,0,1.52-.71,1.5,1.5,0,0,0,.58-1.22,1.76,1.76,0,0,0-1.23-1.71,18.42,18.42,0,0,0-3.85-.93,25.26,25.26,0,0,1-2.86-.67,10.79,10.79,0,0,1-2.56-1.12,6,6,0,0,1-1.85-1.75,4.55,4.55,0,0,1-.69-2.56,5,5,0,0,1,1.19-3.36,7.43,7.43,0,0,1,3.2-2.06,13.26,13.26,0,0,1,4.42-.71,12.28,12.28,0,0,1,4.33.76,7.88,7.88,0,0,1,3.22,2.19,5.14,5.14,0,0,1,1.23,3.45v.31H263.7v-.25a1.92,1.92,0,0,0-.55-1.43,3.35,3.35,0,0,0-1.43-.82,6.22,6.22,0,0,0-1.85-.27,8.47,8.47,0,0,0-1.77.19,3.89,3.89,0,0,0-1.52.62,1.46,1.46,0,0,0-.61,1.25,1.49,1.49,0,0,0,.63,1.24,5.2,5.2,0,0,0,1.75.79,23.94,23.94,0,0,0,2.59.56,24.54,24.54,0,0,1,2.81.63,12.31,12.31,0,0,1,2.6,1.06,5.74,5.74,0,0,1,1.91,1.75,4.57,4.57,0,0,1,.73,2.65,5.15,5.15,0,0,1-.76,2.86,6,6,0,0,1-2.06,2,10,10,0,0,1-2.94,1.13A15.86,15.86,0,0,1,259.84,209.15Z"/><path class="cls-2" d="M274,214.55l-.7-1.25a6.4,6.4,0,0,0,1.69-1.18,8.12,8.12,0,0,0,1.37-1.65,3.07,3.07,0,0,0,.55-1.59,1.73,1.73,0,0,0-.07-.5,2.14,2.14,0,0,0-.19-.43h1.2a2.16,2.16,0,0,1-.81,1,2.62,2.62,0,0,1-1.44.38,2.87,2.87,0,0,1-1.92-.72,2.51,2.51,0,0,1-.84-2,2.7,2.7,0,0,1,.87-2.07,3.2,3.2,0,0,1,2.25-.81,3.06,3.06,0,0,1,2.39,1,3.82,3.82,0,0,1,.89,2.62,6.39,6.39,0,0,1-.78,3.06,9.64,9.64,0,0,1-4.46,4.23Z"/><path class="cls-2" d="M97.68,262.3a10.21,10.21,0,0,1-4-.72A6.1,6.1,0,0,1,91,259.52a5.49,5.49,0,0,1-1-3.26,5.12,5.12,0,0,1,1.14-3.42,7.31,7.31,0,0,1,3-2.07,15.91,15.91,0,0,1,4.27-.94,45.26,45.26,0,0,0,4.84-.66q1.38-.31,1.38-1v0a2.26,2.26,0,0,0-1.2-2.05,6.52,6.52,0,0,0-3.39-.73,6.42,6.42,0,0,0-3.53.81,2.84,2.84,0,0,0-1.23,2.56h-5a6.41,6.41,0,0,1,1.27-4,7.8,7.8,0,0,1,3.47-2.51,13.85,13.85,0,0,1,5-.85,14.06,14.06,0,0,1,4.78.78,7.85,7.85,0,0,1,3.49,2.36,6,6,0,0,1,1.31,3.94v9.21c0,.49,0,1,0,1.42a6.41,6.41,0,0,0,.2,1.25,4.49,4.49,0,0,0,.45,1,3.79,3.79,0,0,0,.42.57h-5a3.35,3.35,0,0,1-.37-.53,5.39,5.39,0,0,1-.43-.9,7.39,7.39,0,0,1-.28-1.23,9.26,9.26,0,0,1-.1-1.45l1,.68a5.57,5.57,0,0,1-1.74,2,8.82,8.82,0,0,1-2.79,1.34A12.33,12.33,0,0,1,97.68,262.3Zm1.22-3.94a7.62,7.62,0,0,0,2.89-.54,4.76,4.76,0,0,0,2.15-1.64,4.71,4.71,0,0,0,.82-2.87v-2.7L106,252a17,17,0,0,1-2.93.75c-1.15.2-2.3.35-3.47.47a9.89,9.89,0,0,0-3.38.78,1.94,1.94,0,0,0-1.13,1.86,2.12,2.12,0,0,0,1,1.89A5.28,5.28,0,0,0,98.9,258.36Z"/><path class="cls-2" d="M114.41,261.88V241.66h5v20.22Zm14.3,0V250.51a7.3,7.3,0,0,0-.39-2.46,3.38,3.38,0,0,0-1.33-1.73,4.63,4.63,0,0,0-2.6-.63,4.77,4.77,0,0,0-4.33,2.6,5.86,5.86,0,0,0-.64,2.79l-1.69-1a8.77,8.77,0,0,1,1.15-4.51,8.4,8.4,0,0,1,7.4-4.21,8.1,8.1,0,0,1,4.1,1,6,6,0,0,1,2.51,2.7,9.28,9.28,0,0,1,.85,4.11v12.8Z"/><path class="cls-2" d="M147,262.3a9.26,9.26,0,0,1-4.62-1.21,8.86,8.86,0,0,1-3.39-3.57,12.11,12.11,0,0,1-1.28-5.81A11.54,11.54,0,0,1,139,246a9,9,0,0,1,3.43-3.53,9.13,9.13,0,0,1,4.56-1.19,8.63,8.63,0,0,1,4.4,1.17,9,9,0,0,1,3.24,3.24,9.26,9.26,0,0,1,1.22,4.76v.31l-2.48,0v-.24a4.61,4.61,0,0,0-.75-2.63,5.4,5.4,0,0,0-4.47-2.4,5.18,5.18,0,0,0-3.73,1.48q-1.55,1.47-1.54,4.65a6.27,6.27,0,0,0,1.54,4.67,5.15,5.15,0,0,0,3.73,1.5,5.06,5.06,0,0,0,2.57-.67,5.26,5.26,0,0,0,1.92-1.83,5,5,0,0,0,.73-2.7l2.48.12a9.87,9.87,0,0,1-1.19,4.82,9.3,9.3,0,0,1-3.19,3.42A8.25,8.25,0,0,1,147,262.3Zm6.38-.42V232.12h5v29.76Z"/><path class="cls-2" d="M172.79,261.88V241.66h5v20.22Zm12.56,0v-11.6a14.1,14.1,0,0,0-.09-1.55,4.76,4.76,0,0,0-.42-1.49,2.69,2.69,0,0,0-1-1.12,3.51,3.51,0,0,0-1.86-.43,3.63,3.63,0,0,0-3.22,1.71,5.5,5.5,0,0,0-.74,1.75,8.91,8.91,0,0,0-.23,2L176.12,250a10.28,10.28,0,0,1,.93-4.46,7.48,7.48,0,0,1,2.66-3.11,7.16,7.16,0,0,1,4.08-1.15,6.53,6.53,0,0,1,3.87,1,5.59,5.59,0,0,1,2,2.76,11.24,11.24,0,0,1,.62,3.88v12.91Zm12.49,0V250.24a14.44,14.44,0,0,0-.09-1.6,4.57,4.57,0,0,0-.42-1.47,2.59,2.59,0,0,0-1-1.07,3.66,3.66,0,0,0-1.86-.41,3.92,3.92,0,0,0-2,.46,3.59,3.59,0,0,0-1.26,1.22,5.65,5.65,0,0,0-.7,1.71,8.89,8.89,0,0,0-.22,1.91l-1.67-1.11a10.13,10.13,0,0,1,.91-4.36,7.37,7.37,0,0,1,2.63-3.07,7.17,7.17,0,0,1,4.07-1.13,6.73,6.73,0,0,1,3.83,1,5.47,5.47,0,0,1,2.1,2.65,10.48,10.48,0,0,1,.66,3.84v13.1Z"/><path class="cls-2" d="M214.62,262.3a10.21,10.21,0,0,1-4-.72,6.1,6.1,0,0,1-2.69-2.06,5.49,5.49,0,0,1-1-3.26,5.12,5.12,0,0,1,1.14-3.42,7.31,7.31,0,0,1,3-2.07,15.82,15.82,0,0,1,4.27-.94,45.26,45.26,0,0,0,4.84-.66q1.38-.31,1.38-1v0a2.26,2.26,0,0,0-1.2-2.05,6.52,6.52,0,0,0-3.39-.73,6.42,6.42,0,0,0-3.53.81,2.84,2.84,0,0,0-1.23,2.56h-4.95a6.35,6.35,0,0,1,1.27-4,7.8,7.8,0,0,1,3.47-2.51,13.85,13.85,0,0,1,5-.85,14.06,14.06,0,0,1,4.78.78,7.77,7.77,0,0,1,3.48,2.36,5.92,5.92,0,0,1,1.32,3.94v9.21c0,.49,0,1,.05,1.42a5.74,5.74,0,0,0,.2,1.25,4.09,4.09,0,0,0,.45,1,3.79,3.79,0,0,0,.42.57h-4.95a3.35,3.35,0,0,1-.37-.53,5.39,5.39,0,0,1-.43-.9,6.51,6.51,0,0,1-.28-1.23,9.26,9.26,0,0,1-.1-1.45l1,.68a5.57,5.57,0,0,1-1.74,2,8.82,8.82,0,0,1-2.79,1.34A12.33,12.33,0,0,1,214.62,262.3Zm1.22-3.94a7.62,7.62,0,0,0,2.89-.54,4.76,4.76,0,0,0,2.15-1.64,4.71,4.71,0,0,0,.82-2.87v-2.7l1.22,1.37a17,17,0,0,1-2.93.75c-1.15.2-2.3.35-3.47.47a9.89,9.89,0,0,0-3.38.78,1.94,1.94,0,0,0-1.13,1.86,2.12,2.12,0,0,0,1,1.89A5.28,5.28,0,0,0,215.84,258.36Z"/><path class="cls-2" d="M231.35,261.88V241.66h5v20.22Zm14.3,0V250.51a7.3,7.3,0,0,0-.39-2.46,3.38,3.38,0,0,0-1.33-1.73,4.65,4.65,0,0,0-2.6-.63,4.77,4.77,0,0,0-4.33,2.6,5.86,5.86,0,0,0-.64,2.79l-1.69-1a8.77,8.77,0,0,1,1.15-4.51,8.4,8.4,0,0,1,7.39-4.21,8.12,8.12,0,0,1,4.11,1,6,6,0,0,1,2.51,2.7,9.28,9.28,0,0,1,.85,4.11v12.8Z"/><path class="cls-2" d="M256.12,270.56a12.82,12.82,0,0,1-1.6-.09,3.66,3.66,0,0,1-.87-.16v-3.9a2.74,2.74,0,0,0,.85.18,12.36,12.36,0,0,0,1.24.07,3.74,3.74,0,0,0,1.82-.42,4,4,0,0,0,1.32-1.15,6,6,0,0,0,.88-1.71l.44-1.27-7-20.45h5.24l4.77,16.87h-.6l4.66-16.87h5.14l-7.08,21.46a18.53,18.53,0,0,1-1.8,3.9,7.42,7.42,0,0,1-2.81,2.61A9.89,9.89,0,0,1,256.12,270.56Z"/><path class="cls-2" d="M104.34,313a12.38,12.38,0,0,1,3.14.67,4.66,4.66,0,0,1,2.12,1.47,4.22,4.22,0,0,1,.76,2.62,4.47,4.47,0,0,1-1.24,3.16,8,8,0,0,1-3.63,2.06,20.58,20.58,0,0,1-5.87.72c-3.38,0-6-.48-7.79-1.46s-2.72-2.28-2.72-3.95a4.54,4.54,0,0,1,.17-1.27,4,4,0,0,1,.42-.95l4.59.66a1.88,1.88,0,0,0-.23.49,2.69,2.69,0,0,0-.11.81c0,.78.53,1.35,1.59,1.7a13.89,13.89,0,0,0,4.23.52A16.47,16.47,0,0,0,103,320a5.14,5.14,0,0,0,2-.76,1.42,1.42,0,0,0,.67-1.16,1.21,1.21,0,0,0-.89-1.28,9.35,9.35,0,0,0-2.13-.38L95,315.73a6.54,6.54,0,0,1-3.38-1.21,3.2,3.2,0,0,1-1.33-2.67,3.47,3.47,0,0,1,.54-1.87,6,6,0,0,1,1.25-1.43,3.48,3.48,0,0,1,1.2-.72l2.86,1.41a2,2,0,0,0-.94.52,1.34,1.34,0,0,0-.55,1.08,1.19,1.19,0,0,0,.53,1,4.59,4.59,0,0,0,2.06.54Zm2.27-18.22h4.49l-1.83,7.84a12.1,12.1,0,0,1-1.65,4,8.15,8.15,0,0,1-3.05,2.77,10.23,10.23,0,0,1-4.8,1,12.52,12.52,0,0,1-5.19-1,7.69,7.69,0,0,1-3.36-2.76,7.28,7.28,0,0,1-1.18-4.1,7.45,7.45,0,0,1,1.21-4.2,8.2,8.2,0,0,1,3.33-2.84,10.85,10.85,0,0,1,4.81-1,10,10,0,0,1,3.9.71,7.71,7.71,0,0,1,2.78,1.86,3.92,3.92,0,0,1,1.11,2.43l-1.12.21Zm-6.86,11.71a6.19,6.19,0,0,0,2.54-.48,3.62,3.62,0,0,0,1.65-1.38,4.38,4.38,0,0,0,0-4.39,3.79,3.79,0,0,0-1.65-1.4,6.12,6.12,0,0,0-2.52-.48,5.92,5.92,0,0,0-2.49.49,4.06,4.06,0,0,0-1.71,1.42,4.27,4.27,0,0,0,0,4.38,3.72,3.72,0,0,0,1.67,1.37A6.33,6.33,0,0,0,99.75,306.52Z"/><path class="cls-2" d="M123.63,315.43a11.58,11.58,0,0,1-5.64-1.34,9.87,9.87,0,0,1-3.81-3.72,10.69,10.69,0,0,1-1.38-5.45,10.55,10.55,0,0,1,1.38-5.44A9.84,9.84,0,0,1,118,295.8a12.6,12.6,0,0,1,11.27,0,9.8,9.8,0,0,1,3.82,3.68,10.55,10.55,0,0,1,1.38,5.44,10.69,10.69,0,0,1-1.38,5.45,9.83,9.83,0,0,1-3.82,3.72A11.52,11.52,0,0,1,123.63,315.43Zm0-4.09a5.71,5.71,0,0,0,3-.8,5.46,5.46,0,0,0,2-2.24,7.35,7.35,0,0,0,.73-3.38,7.21,7.21,0,0,0-.73-3.36,5.29,5.29,0,0,0-2-2.2,6.26,6.26,0,0,0-6,0,5.34,5.34,0,0,0-2,2.2,7.34,7.34,0,0,0-.72,3.36,7.48,7.48,0,0,0,.72,3.38,5.51,5.51,0,0,0,2,2.24A5.7,5.7,0,0,0,123.63,311.34Z"/><path class="cls-2" d="M148.53,315.43a11.52,11.52,0,0,1-5.63-1.34,9.83,9.83,0,0,1-3.82-3.72,10.69,10.69,0,0,1-1.38-5.45,10.55,10.55,0,0,1,1.38-5.44,9.8,9.8,0,0,1,3.82-3.68,12.6,12.6,0,0,1,11.27,0,9.94,9.94,0,0,1,3.82,3.68,10.55,10.55,0,0,1,1.38,5.44,10.69,10.69,0,0,1-1.38,5.45,10,10,0,0,1-3.82,3.72A11.58,11.58,0,0,1,148.53,315.43Zm0-4.09a5.66,5.66,0,0,0,3-.8,5.49,5.49,0,0,0,2-2.24,7.48,7.48,0,0,0,.72-3.38,7.34,7.34,0,0,0-.72-3.36,5.32,5.32,0,0,0-2-2.2,6.26,6.26,0,0,0-6.05,0,5.32,5.32,0,0,0-2,2.2,7.21,7.21,0,0,0-.73,3.36,7.35,7.35,0,0,0,.73,3.38,5.49,5.49,0,0,0,2,2.24A5.7,5.7,0,0,0,148.53,311.34Z"/><path class="cls-2" d="M171.89,315.45a9.1,9.1,0,0,1-4.61-1.21,8.82,8.82,0,0,1-3.4-3.57,12.09,12.09,0,0,1-1.28-5.81,11.43,11.43,0,0,1,1.31-5.67,9,9,0,0,1,3.42-3.52,9.14,9.14,0,0,1,4.56-1.2,8.6,8.6,0,0,1,4.4,1.17,8.83,8.83,0,0,1,3.24,3.24,9.26,9.26,0,0,1,1.22,4.76V304l-2.48.06v-.25a4.64,4.64,0,0,0-.75-2.63,5.4,5.4,0,0,0-4.46-2.4,5.2,5.2,0,0,0-3.74,1.48,6.2,6.2,0,0,0-1.54,4.65,6.31,6.31,0,0,0,1.54,4.67,5.38,5.38,0,0,0,6.31.84,5.42,5.42,0,0,0,1.91-1.84,5,5,0,0,0,.73-2.7l2.48.12a9.87,9.87,0,0,1-1.19,4.82,9.22,9.22,0,0,1-3.19,3.42A8.23,8.23,0,0,1,171.89,315.45Zm6.38-.42V285.27h5V315Z"/><path class="cls-2" d="M93.15,344.23a3.52,3.52,0,0,1-2.13-.66,2.14,2.14,0,0,1-.9-1.83,2.09,2.09,0,0,1,.9-1.81,3.58,3.58,0,0,1,2.13-.65,3.48,3.48,0,0,1,2.09.65,2.09,2.09,0,0,1,.9,1.81,2.14,2.14,0,0,1-.9,1.83A3.43,3.43,0,0,1,93.15,344.23Zm-2.5,23.95V348H95.6v20.22Z"/><path class="cls-2" d="M100.55,368.18V348h5v20.22Zm14.3,0V356.81a7.3,7.3,0,0,0-.39-2.46,3.36,3.36,0,0,0-1.33-1.72,4.65,4.65,0,0,0-2.6-.63,4.72,4.72,0,0,0-4.33,2.6,5.8,5.8,0,0,0-.64,2.79l-1.69-1.05a8.71,8.71,0,0,1,1.15-4.5,8.39,8.39,0,0,1,7.39-4.22,8.22,8.22,0,0,1,4.11.95,6.13,6.13,0,0,1,2.51,2.7,9.3,9.3,0,0,1,.85,4.12v12.79Z"/><path class="cls-2" d="M133.49,368.56a12.05,12.05,0,0,1-2.21-.21,6,6,0,0,1-2.05-.78,4.1,4.1,0,0,1-1.51-1.67,6.4,6.4,0,0,1-.57-2.92V352h-4.78v-4h1.94a12.62,12.62,0,0,0,1.57-.08,1.29,1.29,0,0,0,.83-.41,2,2,0,0,0,.36-1,18.82,18.82,0,0,0,.08-1.93V341.3h5V348h6v4h-6v9.5a6.2,6.2,0,0,0,.34,2.27c.23.57.77.85,1.62.85a5.28,5.28,0,0,0,1.15-.11,4.7,4.7,0,0,0,.81-.23v3.92a7,7,0,0,1-1,.27A8,8,0,0,1,133.49,368.56Z"/><path class="cls-2" d="M143.28,359.69v-3.56h14.14l-.57.95v-.49a5.26,5.26,0,0,0-.59-2.47,4.59,4.59,0,0,0-1.79-1.87,5.92,5.92,0,0,0-3-.71,6.28,6.28,0,0,0-3.17.77,5.25,5.25,0,0,0-2.08,2.22,7.57,7.57,0,0,0-.73,3.47,8.33,8.33,0,0,0,.7,3.57,5.1,5.1,0,0,0,2.07,2.28,6.48,6.48,0,0,0,3.32.79,9.09,9.09,0,0,0,2.3-.25,4.88,4.88,0,0,0,1.59-.67,3.33,3.33,0,0,0,.94-.93,2.36,2.36,0,0,0,.37-1h5a5.83,5.83,0,0,1-.85,2.49,7.94,7.94,0,0,1-2,2.19,10.55,10.55,0,0,1-3.19,1.56,14.32,14.32,0,0,1-4.27.58,11.64,11.64,0,0,1-5.69-1.33,9.58,9.58,0,0,1-3.8-3.72,11.61,11.61,0,0,1,0-10.94,9.65,9.65,0,0,1,3.83-3.69,11.74,11.74,0,0,1,5.64-1.32A11.42,11.42,0,0,1,157,349a9.25,9.25,0,0,1,3.69,3.7,11.4,11.4,0,0,1,1.29,5.52c0,.26,0,.55,0,.85a6.42,6.42,0,0,1-.05.67Z"/><path class="cls-2" d="M166.14,368.18V348h5v20.22Zm14.3,0V356.81a7.3,7.3,0,0,0-.39-2.46,3.36,3.36,0,0,0-1.33-1.72,4.65,4.65,0,0,0-2.6-.63,4.72,4.72,0,0,0-4.33,2.6,5.8,5.8,0,0,0-.64,2.79l-1.69-1.05a8.71,8.71,0,0,1,1.15-4.5,8.39,8.39,0,0,1,7.4-4.22,8.21,8.21,0,0,1,4.1.95,6.13,6.13,0,0,1,2.51,2.7,9.3,9.3,0,0,1,.85,4.12v12.79Z"/><path class="cls-2" d="M199.08,368.56a12.05,12.05,0,0,1-2.21-.21,6,6,0,0,1-2.05-.78,4.1,4.1,0,0,1-1.51-1.67,6.4,6.4,0,0,1-.57-2.92V352H188v-4h1.94a12.62,12.62,0,0,0,1.57-.08,1.29,1.29,0,0,0,.83-.41,2,2,0,0,0,.36-1,18.82,18.82,0,0,0,.08-1.93V341.3h5V348h6v4h-6v9.5a6.2,6.2,0,0,0,.34,2.27c.23.57.77.85,1.62.85a5.28,5.28,0,0,0,1.15-.11,4.7,4.7,0,0,0,.81-.23v3.92a7,7,0,0,1-1.05.27A8,8,0,0,1,199.08,368.56Z"/><path class="cls-2" d="M210,344.23a3.49,3.49,0,0,1-2.12-.66,2.14,2.14,0,0,1-.9-1.83,2.09,2.09,0,0,1,.9-1.81,3.55,3.55,0,0,1,2.12-.65,3.51,3.51,0,0,1,2.1.65,2.11,2.11,0,0,1,.89,1.81,2.16,2.16,0,0,1-.89,1.83A3.46,3.46,0,0,1,210,344.23Zm-2.49,23.95V348h4.95v20.22Z"/><path class="cls-2" d="M227.3,368.58a11.58,11.58,0,0,1-5.64-1.34,9.87,9.87,0,0,1-3.81-3.72,10.67,10.67,0,0,1-1.39-5.45,10.52,10.52,0,0,1,1.39-5.43,9.8,9.8,0,0,1,3.81-3.69,12.6,12.6,0,0,1,11.27,0,9.76,9.76,0,0,1,3.82,3.69,10.51,10.51,0,0,1,1.38,5.43,10.67,10.67,0,0,1-1.38,5.45,9.83,9.83,0,0,1-3.82,3.72A11.52,11.52,0,0,1,227.3,368.58Zm0-4.09a5.71,5.71,0,0,0,3-.8,5.4,5.4,0,0,0,2-2.24,7.32,7.32,0,0,0,.73-3.38,7.24,7.24,0,0,0-.73-3.36,5.35,5.35,0,0,0-2-2.2,6.26,6.26,0,0,0-6.05,0,5.4,5.4,0,0,0-2,2.2,7.36,7.36,0,0,0-.72,3.36,7.45,7.45,0,0,0,.72,3.38,5.45,5.45,0,0,0,2,2.24A5.7,5.7,0,0,0,227.3,364.49Z"/><path class="cls-2" d="M242.26,368.18V348h5v20.22Zm14.3,0V356.81a7.3,7.3,0,0,0-.39-2.46,3.36,3.36,0,0,0-1.33-1.72,4.65,4.65,0,0,0-2.6-.63,4.72,4.72,0,0,0-4.33,2.6,5.8,5.8,0,0,0-.64,2.79l-1.69-1.05a8.71,8.71,0,0,1,1.15-4.5,8.39,8.39,0,0,1,7.39-4.22,8.22,8.22,0,0,1,4.11.95,6.13,6.13,0,0,1,2.51,2.7,9.3,9.3,0,0,1,.85,4.12v12.79Z"/><path class="cls-2" d="M274.57,368.6a14.14,14.14,0,0,1-3.43-.4,9.94,9.94,0,0,1-2.9-1.2,6.23,6.23,0,0,1-2-2,5.11,5.11,0,0,1-.73-2.75v-.44h5v.35a2,2,0,0,0,1.13,1.85,6.54,6.54,0,0,0,3.09.62,8.59,8.59,0,0,0,2-.23,3.87,3.87,0,0,0,1.53-.7,1.54,1.54,0,0,0,.58-1.22,1.76,1.76,0,0,0-1.23-1.71,17.81,17.81,0,0,0-3.86-.94,23.52,23.52,0,0,1-2.85-.66,10.63,10.63,0,0,1-2.56-1.13,5.76,5.76,0,0,1-1.85-1.75,4.54,4.54,0,0,1-.69-2.55,4.9,4.9,0,0,1,1.19-3.36,7.32,7.32,0,0,1,3.19-2.07,13.32,13.32,0,0,1,4.43-.7,12,12,0,0,1,4.32.76,7.92,7.92,0,0,1,3.23,2.19,5.1,5.1,0,0,1,1.23,3.45v.3h-4.95v-.25a1.91,1.91,0,0,0-.56-1.42,3.21,3.21,0,0,0-1.42-.82,6.27,6.27,0,0,0-1.85-.27,9.17,9.17,0,0,0-1.77.18,3.69,3.69,0,0,0-1.52.63,1.45,1.45,0,0,0-.61,1.25,1.47,1.47,0,0,0,.63,1.23,5.11,5.11,0,0,0,1.75.79,26.41,26.41,0,0,0,2.59.57,27.35,27.35,0,0,1,2.81.62,12,12,0,0,1,2.59,1.07,5.65,5.65,0,0,1,1.92,1.74,4.6,4.6,0,0,1,.73,2.66,5.09,5.09,0,0,1-.76,2.85,6.19,6.19,0,0,1-2.07,2,10,10,0,0,1-2.94,1.13A15.72,15.72,0,0,1,274.57,368.6Z"/><path class="cls-2" d="M300.2,368.71a2.78,2.78,0,0,1-2.82-2.81,2.82,2.82,0,0,1,5.64,0,2.8,2.8,0,0,1-2.82,2.81Z"/><path class="cls-2" d="M310.86,368.71a2.82,2.82,0,1,1,0-5.63,2.82,2.82,0,1,1,0,5.63Z"/><path class="cls-2" d="M321.52,368.71a2.82,2.82,0,1,1,0-5.63,2.82,2.82,0,1,1,0,5.63Z"/><line class="cls-3" x1="304.33" y1="455.05" x2="289.12" y2="427.16"/><path class="cls-2" d="M92.55,471.65a21.64,21.64,0,0,1,9.57,1.72c.61.26,1.15-.64.53-.91a22.89,22.89,0,0,0-10.1-1.86c-.67,0-.67,1.08,0,1Z"/><path class="cls-2" d="M108.29,474.43a45.29,45.29,0,0,1,6.69-.2c.67,0,.67-1,0-1.05a45.29,45.29,0,0,0-6.69.2.55.55,0,0,0-.52.53.52.52,0,0,0,.52.52Z"/><path class="cls-2" d="M103.3,484.5l1.37.22a.56.56,0,0,0,.4-.05.53.53,0,0,0-.12-1l-1.38-.22a.62.62,0,0,0-.4.05.55.55,0,0,0-.24.32.51.51,0,0,0,0,.4.49.49,0,0,0,.32.24Z"/><path class="cls-2" d="M101,492.05h5.51a.53.53,0,0,0,0-1.05H101a.53.53,0,0,0,0,1.05Z"/><path class="cls-2" d="M86.38,477c-.61-1.85-3-1.69-4.1-.41a7.15,7.15,0,0,0-1.36,5.26A3.46,3.46,0,0,0,82,484a2.76,2.76,0,0,0,1.08.58,2.65,2.65,0,0,1,1.08.42,2.2,2.2,0,0,1,.43.76,24.87,24.87,0,0,0,3.73,6.65c.42.53,1.16-.22.74-.74a21.27,21.27,0,0,1-3.13-5.32,5.89,5.89,0,0,0-1-2.1c-.61-.59-1.52-.48-2.16-1-1.09-.88-.87-2.77-.55-4a4.52,4.52,0,0,1,1.18-2.27c.56-.47,1.75-.61,2,.26.21.64,1.23.36,1-.28Z"/><path class="cls-2" d="M88.68,492.89l-1.13,7.67a.55.55,0,0,0,.37.65.53.53,0,0,0,.64-.37l1.13-7.67a.55.55,0,0,0-.37-.65.52.52,0,0,0-.64.37Z"/><path class="cls-2" d="M117.31,468.83c.09,3.25.85,6.36,1.09,9.58a22.53,22.53,0,0,1-1.67,10.89,12.88,12.88,0,0,1-9.33,7.49c-.66.12-.38,1.13.28,1a13.82,13.82,0,0,0,9.83-7.69,23.21,23.21,0,0,0,2-10.69c-.11-3.56-1-7-1.14-10.59,0-.67-1.07-.67-1,0Z"/><path class="cls-2" d="M109.33,497A19.76,19.76,0,0,0,107.65,508c.09.66,1.14.67,1,0a18.78,18.78,0,0,1,1.53-10.4c.28-.61-.62-1.14-.9-.53Z"/><path class="cls-2" d="M88.23,495c-2-.6-4.3-1.18-6.06.27a3,3,0,0,0-.55,4.12c1.19,1.7,3.38,2.63,5,3.93a40.77,40.77,0,0,1,5.08,5.18c1.57,1.88,3.06,3.82,4.61,5.72,1.27,1.55,2.68,3.52,4.79,3.91s4-1.21,5.46-2.58A25.13,25.13,0,0,0,110.9,510c1.23-2.09,2.61-4.74,2.66-7.22,0-2.1-1.48-4.09-3.72-3.73-.66.11-.38,1.12.28,1,1.35-.23,2.29,1.08,2.38,2.29a7.7,7.7,0,0,1-.65,3.2,23.4,23.4,0,0,1-2.5,4.94,23.74,23.74,0,0,1-3.57,4.24c-1.52,1.44-3.51,3.1-5.65,1.85a14.68,14.68,0,0,1-3.5-3.66c-1.12-1.37-2.2-2.77-3.32-4.14a41.17,41.17,0,0,0-7.21-7.24c-1.32-1-3.91-2.05-4-3.93-.08-1.14,1-2,2-2.21A7.5,7.5,0,0,1,88,496c.65.2.92-.82.28-1Z"/><path class="cls-2" d="M114.12,494.29a9.18,9.18,0,0,1,6.73,5.59c1.38,3.16.38,6.41-1.44,9.18-3.9,5.93-10.81,8.85-15.33,14.21-.44.52.3,1.26.74.75,5-6,13.25-9.11,16.64-16.47a9.57,9.57,0,0,0,0-8.82,10,10,0,0,0-7.06-5.45c-.66-.1-1,.91-.28,1Z"/><path class="cls-2" d="M86.78,488.67c-6.86,0-12.38,5-15.26,10.85A36.4,36.4,0,0,0,68.28,510c-.38,2.55.09,5.26,3,5.78A11.92,11.92,0,0,1,77,518.25a34.26,34.26,0,0,1,4.17,4.26c.44.51,1.18-.24.74-.75-2.33-2.68-4.9-5.57-8.42-6.64-1-.31-2.36-.2-3.24-.83a3.11,3.11,0,0,1-1-2.52,20.24,20.24,0,0,1,1-5.76c2.12-7.8,7.48-16.31,16.54-16.29a.53.53,0,0,0,0-1.05Z"/><path class="cls-2" d="M69.36,514.91c-2.12,1.19-3.52,2.93-2.5,5.43s3.73,3.51,5.73,5.07c4.47,3.51,6.49,9.17,8.32,14.34.22.64,1.23.36,1-.27-1.54-4.36-3.16-8.83-6.15-12.42a24.07,24.07,0,0,0-5.43-4.42,5.84,5.84,0,0,1-2.7-3.25c-.43-1.8.85-2.78,2.25-3.57.59-.33.06-1.24-.53-.91Z"/><path class="cls-2" d="M121.87,506.92c1.26,1.51,3.27,2.42,4.28,4.12.78,1.3.27,2.62-.19,3.94s-.9,2.78-1.26,4.2a49,49,0,0,0-1.18,16.67l1-.14a72.86,72.86,0,0,1-5.19-24.11c0-.67-1.08-.68-1,0A73.76,73.76,0,0,0,123.54,536c.2.5,1.1.5,1-.14a47.85,47.85,0,0,1,1.76-18.62c.65-2.16,2-4.54.73-6.72-1.08-1.79-3.12-2.75-4.45-4.33-.43-.52-1.17.22-.74.74Z"/><path class="cls-2" d="M79.81,521.28A16.53,16.53,0,0,1,84.24,530a55.39,55.39,0,0,1,1.21,11.55.53.53,0,0,0,1,0,55.67,55.67,0,0,0-1.32-12.14,17.24,17.24,0,0,0-4.63-8.82c-.49-.46-1.23.28-.74.74Z"/><path class="cls-2" d="M66.77,521a43,43,0,0,0-9.89,15.84c-.22.64.79.91,1,.28a41.54,41.54,0,0,1,9.61-15.37c.47-.49-.27-1.23-.74-.75Z"/><path class="cls-2" d="M126.74,512.9a27.14,27.14,0,0,1,7.41,18.63.53.53,0,0,0,1,0,28.24,28.24,0,0,0-7.71-19.37c-.47-.49-1.21.25-.75.74Z"/><path class="cls-2" d="M70.51,502.45a5.83,5.83,0,0,0-3.73,1.17,37.7,37.7,0,0,0-3.5,2.37,11.78,11.78,0,0,0-4.4,5.89c-.86,3-.53,6.24-.51,9.28L58.45,532a.53.53,0,0,0,1,0l-.06-9.09a68.07,68.07,0,0,1,.1-8.92,10.14,10.14,0,0,1,3.78-6.67,29,29,0,0,1,3-2.15c1.27-.81,2.6-1.83,4.17-1.64.67.07.67-1,0-1.05Z"/><path class="cls-2" d="M97.71,446.65c5.78-4.26,13.79-1.92,20.88-.73a57,57,0,0,0,13.68.61l-4.62,4.58c1.38.58,3,2.28,1.82,3.23a4.51,4.51,0,0,1-1.52.48c-1.54.45-2.19,2.4-1.78,3.95a9.46,9.46,0,0,0,2.69,3.9c-1.73-.43-2.78,1.84-3.09,3.6l-1.63,9.16c-1.27,1.22-3.31-.46-3.85-2.13s-.83-3.8-2.46-4.47a3.45,3.45,0,0,1-5.29.89c0,1.62-2.41,2-3.81,1.21s-2.41-2.31-4-2.76l-1.64,2A21,21,0,0,1,96.43,463,3.3,3.3,0,0,1,94,467.11a4.33,4.33,0,0,1-4.54-2.27,42.38,42.38,0,0,0-3.29,16.92l-7.8-11a4,4,0,0,1-.79-1.57c-.25-1.59,1.48-2.94,1.38-4.54l-4.35-1.91,1.86-3.25-4.72-.17c2.28-3.44,6.5-4.92,10.32-6.49s7.9-3.89,9-7.88l1.91.59a12.43,12.43,0,0,1,1.73-5.46l2,6.17"/><ellipse class="cls-2" cx="97.28" cy="477.35" rx="1.35" ry="2.07"/><ellipse class="cls-2" cx="110.86" cy="478.34" rx="1.35" ry="2.07"/><path class="cls-2" d="M95.59,476.4l3.1-.17a.54.54,0,0,0,.53-.53.52.52,0,0,0-.53-.52l-3.1.17a.53.53,0,0,0-.52.53.52.52,0,0,0,.52.52Z"/><path class="cls-2" d="M109,477.18l3.1-.2a.53.53,0,0,0,.52-.53.52.52,0,0,0-.52-.52l-3.1.2a.54.54,0,0,0-.53.53.52.52,0,0,0,.53.52Z"/><path class="cls-2" d="M150.11,465.87a7.36,7.36,0,0,0,.2,6.64,5.65,5.65,0,0,0,2,2.4,4.35,4.35,0,0,0,3.56.38c.56-.18.32-1.08-.25-.89a3.41,3.41,0,0,1-3-.4,5.39,5.39,0,0,1-1.55-2.07,6.35,6.35,0,0,1-.14-5.59c.25-.54-.55-1-.8-.47Z"/><path class="cls-2" d="M155.68,475.09c1,1,2.15,1.92,3.28,2.79a7.26,7.26,0,0,0,3.56,1.57c.25,0,.46-.23.46-.46a.47.47,0,0,0-.46-.46,6.46,6.46,0,0,1-3.17-1.51c-1-.83-2-1.68-3-2.58-.43-.4-1.09.25-.65.65Z"/><path class="cls-2" d="M160.84,479.07a15.29,15.29,0,0,1,1.1,9c-.1.58.79.83.89.24a16.34,16.34,0,0,0-1.19-9.73c-.26-.54-1.06-.07-.8.46Z"/><path class="cls-2" d="M179.39,455.82c1.94-.39,2.54,3.3,2.74,4.55.28,1.74.12,3.91-1.47,5-.47.32-1.15.38-1.51.85s-.23,1-.26,1.57a10.09,10.09,0,0,1-1.75,5.08c-.33.49.47,1,.8.46a11,11,0,0,0,1.88-5.54,3.74,3.74,0,0,1,0-.82c.1-.27.41-.35.63-.46a4.67,4.67,0,0,0,1-.57,4.63,4.63,0,0,0,1.37-1.95c.77-1.95.28-4.18-.3-6.11-.44-1.49-1.54-3.32-3.35-3-.58.12-.33,1,.25.9Z"/><path class="cls-2" d="M178.58,470.37a138.61,138.61,0,0,1,3,15.1c.07.59,1,.59.92,0a138.87,138.87,0,0,0-3.05-15.35c-.14-.57-1-.33-.89.25Z"/><path class="cls-2" d="M153,461.27c1.81-1.47,4-3.2,6.48-2.76.58.1.83-.79.24-.89-2.87-.51-5.27,1.29-7.37,3-.46.37.2,1,.65.65Z"/><path class="cls-2" d="M165,456.55c1.56-1.87,4-2.49,6.28-3.05.57-.14.33-1-.25-.89-2.41.59-5,1.3-6.68,3.29-.38.45.27,1.11.65.65Z"/><path class="cls-2" d="M164.4,467.61a7.75,7.75,0,0,0,1.78-1.45.46.46,0,0,0-.66-.65,7.83,7.83,0,0,1-.78.74.39.39,0,0,1-.1.08l0,0,0,0,0,0-.22.16c-.15.1-.3.2-.46.29a.46.46,0,0,0,.47.8Z"/><path class="cls-2" d="M165,473l3-1.12a.48.48,0,0,0,.32-.57.46.46,0,0,0-.57-.32l-3,1.12a.48.48,0,0,0-.32.57.46.46,0,0,0,.57.32Z"/><path class="cls-2" d="M161.26,487.58a12,12,0,0,0,2.14,7.09,15.34,15.34,0,0,0,6.19,4.29,10.52,10.52,0,0,0,8.15.1,9.54,9.54,0,0,0,5.25-6.53,20.6,20.6,0,0,0,.5-6.26c-.05-1.15.1-3.08-1.34-3.45a.46.46,0,0,0-.24.89c.87.23.65,2.33.67,3a23.07,23.07,0,0,1,0,2.88,12.33,12.33,0,0,1-1.59,5.49,8.28,8.28,0,0,1-8.19,3.8,11.86,11.86,0,0,1-4.43-1.56,16.06,16.06,0,0,1-3.27-2.18,10.24,10.24,0,0,1-2.87-7.53.47.47,0,0,0-.93,0Z"/><path class="cls-2" d="M161.6,480.5c-2.28-.53-4.07,1.18-5,3.1-.61,1.3-1,2.69-1.73,3.94a15.45,15.45,0,0,1-2.78,3.36c-1,.92-2,1.75-3,2.59a10.82,10.82,0,0,0-2.68,2.45c-.71,1.18-.68,2.82-.86,4.15l-.7,5.11c-.05.35.31.78.68.52q3.73-2.57,7.28-5.36h-.66c.57.51,0,1.61-.1,2.23a2.18,2.18,0,0,0,.19,1.23,21.2,21.2,0,0,0,3,3.77l7.11,8.62c.37.46,1-.19.65-.65l-7.11-8.63-1.7-2.06c-.69-.84-1.37-1.48-1.15-2.65.18-.92.55-1.79-.24-2.52a.49.49,0,0,0-.66,0c-2.3,1.82-4.67,3.56-7.08,5.22l.67.52.57-4.18a37.08,37.08,0,0,1,.58-4.06c.34-1.28,1.57-2,2.54-2.81s1.87-1.5,2.76-2.3a16.2,16.2,0,0,0,4-5.14c1-2.1,1.94-6.3,5.12-5.56.58.14.83-.75.25-.89Z"/><path class="cls-2" d="M161.49,487.18a7.2,7.2,0,0,0-3.61,3.66,9.34,9.34,0,0,0-.24,5.68,62.37,62.37,0,0,0,4.84,13.13c.25.54,1.05.07.8-.47a76.25,76.25,0,0,1-4.34-11.31,11,11,0,0,1-.48-5.91,6.25,6.25,0,0,1,3.5-4c.54-.24.07-1-.47-.8Z"/><path class="cls-2" d="M182.09,481.89c2.74-.51,4.61,2,6,4a12.44,12.44,0,0,0,3.56,3.87c1.76,1.07,3.87,1.43,5.55,2.62s2.49,2.9,3.58,4.45a9.16,9.16,0,0,0,3.7,3.23,10.39,10.39,0,0,1,4.91,4.4,73.16,73.16,0,0,1,5.86,13.24c.19.56,1.09.32.89-.25a92.72,92.72,0,0,0-4.72-11.17,23.83,23.83,0,0,0-2.47-4.11,10.21,10.21,0,0,0-4-2.91c-3.18-1.48-4-4.81-6.47-7a11.91,11.91,0,0,0-3.84-2.11,10.18,10.18,0,0,1-4.84-3.39c-2-2.63-4-6.44-7.9-5.7-.59.11-.34,1,.24.89Z"/><path class="cls-2" d="M201.46,498l-.56,13.26.69-.4-10.78-6.77c-.46-.29-.88.35-.56.73,1.25,1.48-1.27,3-2.16,3.88a19.12,19.12,0,0,0-2.49,3,17.12,17.12,0,0,0-3,7c-.09.58.8.83.89.24a17.31,17.31,0,0,1,4.23-8.49c1.37-1.56,5.24-3.8,3.17-6.24l-.56.72,10.78,6.77a.47.47,0,0,0,.69-.4l.57-13.26c0-.59-.9-.59-.93,0Z"/><path class="cls-2" d="M182.2,483.33c3.59,1.08,5.35,4.8,5.31,8.34,0,3.95-1.9,7.55-3.54,11.05a40.81,40.81,0,0,0-3.32,10.21A95.09,95.09,0,0,0,179.52,524c0,.59.88.59.92,0a83,83,0,0,1,1.45-12.59c.94-4.23,2.88-7.94,4.58-11.88,1.43-3.34,2.54-7.09,1.66-10.72a8.61,8.61,0,0,0-5.68-6.35.46.46,0,0,0-.25.89Z"/><path class="cls-2" d="M146.09,496.78a52.44,52.44,0,0,0-15.19,32.75c-.05.59.87.59.93,0a51.39,51.39,0,0,1,14.92-32.1c.42-.42-.23-1.07-.66-.65Z"/><path class="cls-2" d="M154,468.83a3.75,3.75,0,0,0-1.34-1.54c-.55-.43-1.08-.88-1.6-1.36a15.62,15.62,0,0,1-1.23-1.21,9.88,9.88,0,0,1-1-1.34c-.32-.5-1.12,0-.8.47a12.38,12.38,0,0,0,2.16,2.57,20.1,20.1,0,0,0,1.63,1.41c.43.33,1,.72,1.25,1.25a.48.48,0,0,0,.57.32.46.46,0,0,0,.32-.57Z"/><path class="cls-2" d="M154,468.83l-1.13-6.21c-.38-2.1-.89-4.36.16-6.35l-.63.16a1.44,1.44,0,0,0,1.85-.3c.27-.34.14-.67.3-1,.34-.72,1-.2,1.54-.15a1.56,1.56,0,0,0,.9-.13c.47-.24.48-.68.82-1,.71-.71,2.25.26,3.21-.06a.47.47,0,0,0,.32-.57c-.18-.9,2.21-.68,2.69-.81a1.64,1.64,0,0,0,1.13-.8c.21-.43,0-.76.61-1,.35-.17,1.15.12,1.52.19a11.9,11.9,0,0,1,3.37,1.25.48.48,0,0,0,.64-.17,1.7,1.7,0,0,0,.32-1.46l-.68.52a12.12,12.12,0,0,1,6.57,9.45c.06.49.77.67.91.13l1.29-5a.46.46,0,0,0-.89-.24l-1.29,4.95.91.12a13.1,13.1,0,0,0-7-10.25.47.47,0,0,0-.68.52l-.23.76.63-.17a12.82,12.82,0,0,0-4.21-1.44c-.73-.11-2-.4-2.46.44s-.26,1.34-1.33,1.4a5,5,0,0,0-1.5.14,1.47,1.47,0,0,0-1.18,1.73l.32-.57c-.91.3-1.78-.41-2.7-.25s-1.12,1.43-2.19,1.36c-.61,0-1.17-.45-1.76-.09s-.49,2.13-1.25,1.73a.47.47,0,0,0-.63.17,8.82,8.82,0,0,0-.49,5.76c.42,2.51.91,5,1.36,7.52.11.58,1,.33.89-.25Z"/><ellipse class="cls-4" cx="157.95" cy="462.99" rx="1.19" ry="1.82" transform="translate(-144.75 78.7) rotate(-19.39)"/><ellipse class="cls-4" cx="169.13" cy="459.27" rx="1.19" ry="1.82" transform="translate(-142.89 82.2) rotate(-19.39)"/><path class="cls-2" d="M156.24,462.71l2.53-1a.46.46,0,0,0-.25-.89L156,461.82a.48.48,0,0,0-.33.57.47.47,0,0,0,.57.32Z"/><path class="cls-2" d="M167.34,458.81l2.52-1.07a.46.46,0,1,0-.47-.8L166.88,458a.47.47,0,0,0-.17.64.48.48,0,0,0,.63.16Z"/><path class="cls-2" d="M150.51,466.11c-1.55-1.68-4.51-3.12-6-8.41a16.3,16.3,0,0,1-.26-6.78,48.87,48.87,0,0,1,2.71-10.37,17.12,17.12,0,0,1,3.29-5.77,7.51,7.51,0,0,1,5.95-2.53c2.16.2,4.09,1.61,6.26,1.77,1.51.1,3.11-.39,4.48.26,1.2.58,1.88,1.92,3,2.63a12.39,12.39,0,0,0,2.9,1c4.64,1.44,10.41,12.18,8.1,17.94-5.49-9.21-12.2-9.89-18-9.13a19.88,19.88,0,0,0-10.76,4.57c-2.93,2.66-6.91,9.67-1.69,14.84"/><path class="cls-5" d="M221.09,496.38c-2.16,1.72-6.75,2-8.19,9.48s-4.3,26.7-4.3,26.7"/><path class="cls-5" d="M239.23,493.82c3.45,1.73,9.85,4,11.86,8.3s10,30.44,10,30.44"/><path class="cls-5" d="M220.46,497.59s.12.91,3.14.79a96.86,96.86,0,0,0,12.54-2.27,34.69,34.69,0,0,0,4-1.74"/><line class="cls-5" x1="250.38" y1="500.89" x2="251.9" y2="531.71"/><path class="cls-5" d="M213.38,504a26.88,26.88,0,0,0,1.16,3.53c.88,2.27,4,24.15,4,24.15"/><path class="cls-6" d="M216,466.77s1.16-2.15,2.17-2.53,4.87.62,7.29,2.12,4.14,1.92,3.19,3.79a6.42,6.42,0,0,1-5.68,3.47C220.69,473.44,215.71,472.31,216,466.77Z"/><path class="cls-7" d="M231,470.61s-.24-.73,2.59-1.4a19.15,19.15,0,0,1,8.56,0c3,.79,1.81,2.73,1.81,2.73s-1.65,5-5.12,4.71S231,475.69,231,470.61Z"/><line class="cls-5" x1="228.96" y1="468.92" x2="231.43" y2="469.95"/><path class="cls-2" d="M228.94,477.22l.5.5a.44.44,0,0,0,.15.1.43.43,0,0,0,.36,0,.33.33,0,0,0,.14-.1.45.45,0,0,0,.14-.32.52.52,0,0,0-.14-.33l-.5-.5a.29.29,0,0,0-.15-.09.27.27,0,0,0-.18,0,.25.25,0,0,0-.17,0,.29.29,0,0,0-.15.09.45.45,0,0,0,0,.65Z"/><path class="cls-8" d="M221.79,490.6s.42.11-.79-.26a10.74,10.74,0,0,0-4.13-.45c-2.07.07-1.2-.44-.23-1.95s-1.34-.88-3.26-2.52-1.23-1.38-2.61-3.11-1.51-2.67-3.15-4.42-2.89-1.64-2.89-1.64,3-10.33,4.53-16.24,7.29-12.83,10-16.1,7.88-3.4,11.52-2.77,3.53.76,7,1.39,8.64,7,10.15,10.18,2.64,18,3.26,22,.26,2.39-.76,2.42-1.24.6-.87,3.74-.75,1.76-2.51,2.39-.76.88-2.14,2.64-2.52,1.14-3.4,2.65-.5,1.38-1.89,1.32-1.91,1.77-2.13,1.22-1.39-3.73-1.39-3.73a9.75,9.75,0,0,1,1.37-1,9.58,9.58,0,0,0,3.31-3.75c.77-1.42,1.36-2.83,1.36-2.83s1.16-3.1,1.39-3.55c1.34-2.63,2.58-5.76,1.75-6.62-1.07-1.11-2.89-3.41-2.89-3.41l-3.69-1.05a13,13,0,0,1-3.23-3.92c-.75-1.89-.75-2.64-2-.63a6,6,0,0,0-.5,4,3.21,3.21,0,0,1-.73,2.59l-.72.84s-3-1.6-4-3.56a51.66,51.66,0,0,1-2.06-7.17s-3.58,5.05-5.32,5a8.92,8.92,0,0,0-4.1.56"/><path class="cls-2" d="M230,481.73h-.79l-.48-.05h0l-.13,0-.27,0a3.51,3.51,0,0,1-.93-.33,1.94,1.94,0,0,1-.71-.61.48.48,0,0,0-.63-.16.46.46,0,0,0-.16.63c.92,1.34,2.64,1.52,4.14,1.52a.46.46,0,0,0,0-.92Z"/><ellipse class="cls-9" cx="221.79" cy="469.3" rx="1.58" ry="1.03" transform="translate(-293.01 535.71) rotate(-72.06)"/><path class="cls-2" d="M220.8,468.22l2.3.61a.4.4,0,0,0,.21-.78l-2.3-.6a.4.4,0,0,0-.21.77Z"/><ellipse class="cls-9" cx="238.63" cy="472.69" rx="1.58" ry="1.03" transform="translate(-274.97 601.55) rotate(-77.3)"/><path class="cls-2" d="M237.5,471.7l2.35.39a.4.4,0,0,0,.49-.28.4.4,0,0,0-.28-.49l-2.34-.39a.4.4,0,1,0-.22.77Z"/><path class="cls-2" d="M223.06,486.85c-6.62-1.73-9.21-9.92-8.49-16a.39.39,0,0,0-.29-.39,2.14,2.14,0,0,1-1.65-2.8,1.43,1.43,0,0,1,1.72-1.25.4.4,0,0,0,.21-.77c-3.36-.87-3.82,5.09-.5,5.59l-.29-.38c-.77,6.46,2.11,14.95,9.08,16.77a.4.4,0,0,0,.21-.77Z"/><path class="cls-2" d="M221.17,487.34c.65,3.35,1,7.09-1,10.05-.3.43.4.83.69.41,2.17-3.14,1.82-7.12,1.14-10.67-.1-.51-.87-.29-.78.21Z"/><path class="cls-2" d="M243,476.5c-1.06,2.74-2,5.7-4,7.95a8.38,8.38,0,0,1-7.61,3.12c-.5-.1-.72.68-.21.77a9.09,9.09,0,0,0,8.14-3c2.22-2.39,3.3-5.6,4.45-8.59.19-.48-.59-.69-.77-.21Z"/><path class="cls-2" d="M235.67,487.49a16.53,16.53,0,0,0,3.27,6.62c.33.4.9-.17.57-.57a15.74,15.74,0,0,1-3.07-6.26c-.12-.5-.89-.29-.77.21Z"/><path class="cls-2" d="M257.71,451.16a22.61,22.61,0,0,1-.24,2.31l.41-.31c-2-.08-3.72,2.06-4.16,3.79-.57,2.22.17,5.34,2.26,6.56a3.87,3.87,0,0,0,2,.65c.31-.07.1,0,0-.18.06.18.1.37.15.55.2.7.4,1.39.62,2.09a28.81,28.81,0,0,0,4.63,9.63,13.1,13.1,0,0,0,10.51,5.1c.54,0,.54-.86,0-.84-9.31.34-13.08-9.39-15.12-16.82a.41.41,0,0,0-.29-.29c-1.93-.4-3.29-1-3.87-3.12a5.25,5.25,0,0,1,.73-4.84,3.45,3.45,0,0,1,2.48-1.44.41.41,0,0,0,.4-.31,23.85,23.85,0,0,0,.27-2.53c0-.54-.82-.54-.84,0Z"/><path class="cls-2" d="M265.67,478.65a47,47,0,0,1,.54,11.11c0,.54.81.54.84,0a47.87,47.87,0,0,0-.56-11.34c-.09-.53-.91-.3-.82.23Z"/><path class="cls-2" d="M275,463.47l1.6-.52a.42.42,0,0,0,.29-.52.41.41,0,0,0-.51-.29l-1.6.52a.43.43,0,0,0-.3.52.43.43,0,0,0,.52.29Z"/><path class="cls-2" d="M273.4,471.09H279a.42.42,0,0,0,0-.84H273.4a.42.42,0,0,0,0,.84Z"/><path class="cls-2" d="M284.76,466.29l1.27,5c.13.53.94.3.81-.22l-1.27-5a.42.42,0,0,0-.81.22Z"/><path class="cls-2" d="M268.5,467.75l-1.12,2.81a.42.42,0,0,0,.29.51.43.43,0,0,0,.52-.29l1.12-2.81a.43.43,0,0,0-.29-.52.45.45,0,0,0-.52.3Z"/><path class="cls-2" d="M295.14,455.75c2.87.43,3,5.24,1.27,6.92-.82.79-2.08.87-2.89,1.7a4.71,4.71,0,0,0-1,2.95,19,19,0,0,1-2.63,8,10.5,10.5,0,0,1-6.6,4.45.42.42,0,0,0,.22.81,11.38,11.38,0,0,0,6.93-4.55,19.78,19.78,0,0,0,2.92-8.72c.14-1.26.37-2.26,1.57-2.91a11.78,11.78,0,0,0,1.78-.88,4.58,4.58,0,0,0,1.62-3.09c.27-2.11-.5-5.13-2.95-5.5-.53-.08-.75.73-.22.81Z"/><path class="cls-2" d="M288.14,477.86c0,4.32-.09,8.63.05,12.95,0,.54.86.54.84,0-.13-4.32,0-8.63,0-12.95a.43.43,0,0,0-.85,0Z"/><path class="cls-2" d="M266.24,490.29c1.43,3.28,5.81,3.46,8.87,3.49a36.4,36.4,0,0,0,13.61-2.57c.5-.19.28-1-.22-.81a35.75,35.75,0,0,1-12.17,2.52c-3,.08-7.91.26-9.37-3.05-.21-.5-.94-.07-.72.42Z"/><path class="cls-2" d="M265.66,491a73.87,73.87,0,0,0,10.28,28.43.42.42,0,0,0,.72-.43,72.91,72.91,0,0,1-10.16-28c-.07-.53-.91-.54-.84,0Z"/><path class="cls-2" d="M289.18,490.07q-.56,14.93-2,29.79c-.05.54.79.53.85,0q1.43-14.87,2-29.79c0-.54-.82-.54-.84,0Z"/><path class="cls-2" d="M268,499.64a21.07,21.07,0,0,0,7.56,3.15c.53.1.76-.71.22-.81a20.63,20.63,0,0,1-7.36-3.06c-.45-.31-.87.42-.42.72Z"/><path class="cls-2" d="M266,487.12a39.51,39.51,0,0,0-9.26,11.09c-.87,1.65-1.49,3.65-.67,5.44a3.6,3.6,0,0,0,3.83,2.24l-.52-.51a11.69,11.69,0,0,0,3.72,12.42c.42.34,1-.25.6-.59a10.87,10.87,0,0,1-3.51-11.61c.11-.34-.22-.56-.52-.52-2.41.37-3.44-2.46-3-4.37a15,15,0,0,1,2.65-5,44,44,0,0,1,7.29-8c.41-.35-.19-.94-.59-.59Z"/><path class="cls-2" d="M289.31,487.34c2.52,2.3,5.18,4.44,7.78,6.66.59.51,1.19,1,1.77,1.54a10.2,10.2,0,0,1,.91.82.92.92,0,0,1,.4.8c.3.4.22.67-.22.8a13.13,13.13,0,0,1-2.52,1.48l-2.52,1.47a.44.44,0,0,0-.19.48,16.09,16.09,0,0,1-1.58,14.24c-.29.46.44.88.73.42a16.88,16.88,0,0,0,1.66-14.88l-.19.47,3.36-2a9.26,9.26,0,0,0,2.21-1.36c1.06-1.15-.32-2.35-1.14-3.09-3.23-2.9-6.67-5.55-9.87-8.48-.4-.36-1,.23-.59.6Z"/><path class="cls-2" d="M258.83,494.89A54.73,54.73,0,0,0,249,514.65c-.13.52.68.75.81.22a53.76,53.76,0,0,1,9.61-19.39c.33-.42-.26-1-.6-.59Z"/><path class="cls-2" d="M298.57,495.27c3.08,2.09,5.15,5.87,6.89,9.05a61.23,61.23,0,0,1,5.27,12.43c.15.52,1,.3.81-.22A62.56,62.56,0,0,0,306,503.62c-1.79-3.22-3.91-6.95-7-9.07-.45-.31-.87.42-.43.72Z"/><path class="cls-2" d="M260.49,439.79c.11-1.49-.74-2.24-1.78-1.69s-4.41,8.87-1.65,12a1.65,1.65,0,0,0,2.46-.21,4.66,4.66,0,0,0,.64-2.76c0-2.55.28-4.81.33-7.35"/><path class="cls-2" d="M266,434a30.79,30.79,0,0,0,16.72,1.56,3.36,3.36,0,0,0,2.39-1.38,2.4,2.4,0,0,0-.85-2.85,10.08,10.08,0,0,0-3-1.11,19.86,19.86,0,0,0-8.1-.82c-2.72.23-7.16,1.79-7.16,4.6"/><path class="cls-2" d="M294.44,440.46c-.72-1-1.27-1.24-2.3-.19a2,2,0,0,0-.46,1.35,34.82,34.82,0,0,0,1,9.86c.31,1.29,1.2,2.88,2.49,2.56,3.15-.42,1.57-9.79-.69-13.58"/><path class="cls-2" d="M260.17,438.6a13.92,13.92,0,0,1,5.56-4.22c.5-.19.28-1-.22-.81a14.6,14.6,0,0,0-5.93,4.43c-.34.42.25,1,.59.6Z"/><path class="cls-2" d="M284.62,434.57a11.7,11.7,0,0,1,4.74,1.45,11.82,11.82,0,0,1,3.3,3.7c.3.45,1,0,.73-.42a12.89,12.89,0,0,0-3.53-4,12.26,12.26,0,0,0-5-1.58c-.53-.08-.76.73-.23.81Z"/><path class="cls-2" d="M265.51,449.34l6.18-.52c.54-.05.54-.89,0-.84l-6.18.51c-.54.05-.54.89,0,.85Z"/><path class="cls-2" d="M281.91,450a14.15,14.15,0,0,1,7,.2.42.42,0,0,0,.23-.81,15,15,0,0,0-7.5-.2c-.53.12-.31.94.22.81Z"/><ellipse class="cls-10" cx="269.66" cy="455.53" rx="1.66" ry="1.08" transform="translate(-203.1 693.72) rotate(-86.12)"/><path class="cls-2" d="M268.39,454.69l2.49,0a.42.42,0,1,0,0-.84l-2.49,0a.42.42,0,0,0-.42.42.42.42,0,0,0,.42.42Z"/><ellipse class="cls-10" cx="284.18" cy="455.53" rx="1.66" ry="1.08" transform="translate(-189.56 708.2) rotate(-86.12)"/><path class="cls-2" d="M282.91,454.69l2.49,0a.42.42,0,1,0,0-.84l-2.49,0a.42.42,0,1,0,0,.84Z"/><path class="cls-2" d="M316.58,475.1a4,4,0,0,0-4.74,3.79A5.29,5.29,0,0,0,313,482.3a11.09,11.09,0,0,0,3.44,2.6c1.59,1,2.2,3.39,3,5a33.59,33.59,0,0,0,2.65,4.48,17.08,17.08,0,0,0,7.06,5.9,16.17,16.17,0,0,0,16.65-2.16,17.24,17.24,0,0,0,5-7.16,18,18,0,0,0,1-4.23c.09-.79.13-1.6.21-2.4a11.63,11.63,0,0,1,.18-1.32c.09-.44.06-.45.44-.53a7.29,7.29,0,0,0,1.72-.21,4.06,4.06,0,0,0,1.29-.92,5.88,5.88,0,0,0,1.52-3.33,5,5,0,0,0-4.72-5.35c-.51,0-.5.76,0,.8a4.16,4.16,0,0,1,3.51,6,3.66,3.66,0,0,1-2.33,2.23c-.73.16-1.48-.4-2,.33a6.37,6.37,0,0,0-.47,2.54,27.9,27.9,0,0,1-.57,4.27,17,17,0,0,1-3.57,6.95,15,15,0,0,1-14.78,4.71c-5.81-1.33-9.44-5.7-12-10.79a40.07,40.07,0,0,0-2.12-4.25c-.77-1.16-2-1.47-3.1-2.26a5.25,5.25,0,0,1-2.37-4.12,3.23,3.23,0,0,1,3.74-3.19c.5.12.71-.65.21-.77Z"/><path class="cls-2" d="M334.74,487.56l1.92-.48a.4.4,0,1,0-.22-.76l-1.91.47a.41.41,0,0,0-.28.49.4.4,0,0,0,.49.28Z"/><path class="cls-2" d="M328.79,482.9l1.61-1.15a.3.3,0,0,0-.3-.52l-1.61,1.15a.31.31,0,0,0-.1.41.3.3,0,0,0,.4.11Z"/><path class="cls-2" d="M341.48,481.16l1.87.63a.3.3,0,1,0,.16-.57l-1.87-.63a.3.3,0,1,0-.16.57Z"/><path class="cls-2" d="M334.53,493.18a7,7,0,0,0,4.06-.38.41.41,0,0,0,.28-.49.4.4,0,0,0-.49-.28,6.31,6.31,0,0,1-3.64.38.41.41,0,0,0-.49.28.41.41,0,0,0,.28.49Z"/><path class="cls-2" d="M327.93,499.5a19.53,19.53,0,0,1-.51,6.64.4.4,0,0,0,.77.21,20.26,20.26,0,0,0,.54-6.85c-.05-.51-.84-.51-.8,0Z"/><path class="cls-2" d="M346.35,497.42l2.91,7.26c.19.47,1,.26.77-.21l-2.91-7.27c-.19-.47-1-.26-.77.22Z"/><path class="cls-2" d="M326,506.68c7.75,3.11,17.07,3.5,24-1.83.4-.31-.17-.87-.57-.56-6.65,5.14-15.73,4.61-23.18,1.62-.48-.19-.68.58-.21.77Z"/><path class="cls-2" d="M328.11,502.88a5.3,5.3,0,0,0-3.26.89,6.3,6.3,0,0,0-2,2.9,17.67,17.67,0,0,0-.74,2.55c-.11.5.66.72.77.22a9.88,9.88,0,0,1,1.82-4.45,4.27,4.27,0,0,1,3.42-1.31.4.4,0,0,0,0-.8Z"/><path class="cls-2" d="M348.19,501.34a3.93,3.93,0,0,1,3.41,1.36,9.21,9.21,0,0,1,1.49,2.62,4.61,4.61,0,0,1,.42,1.1,2.42,2.42,0,0,1-1.25,1.89,29.62,29.62,0,0,1-9.25,3.9c-6.54,1.54-14.79,1.21-20.24-3.16-.4-.32-1,.24-.56.56,6.43,5.17,16.33,5.1,23.81,2.57a30.81,30.81,0,0,0,5.58-2.53c1.24-.73,3.14-1.54,2.72-3.27a9.86,9.86,0,0,0-2.65-4.74,4.63,4.63,0,0,0-3.48-1.1.4.4,0,0,0,0,.8Z"/><path class="cls-2" d="M321.83,509.27a39.91,39.91,0,0,0-12.6,27.32c0,.51.77.51.79,0a39.13,39.13,0,0,1,12.37-26.76c.38-.35-.19-.91-.56-.56Z"/><path class="cls-2" d="M353.75,507.69c10.56,4.58,13.33,16.7,15.42,26.91.1.5.87.29.76-.22-2.12-10.39-5-22.72-15.78-27.37-.47-.21-.87.48-.4.68Z"/><path class="cls-2" d="M316.55,475.61a5.28,5.28,0,0,0,1.89,3.87.4.4,0,0,0,.66-.18l.8-4.29c.17-.91.18-2.47.73-3.28.3-.44.76-.39,1.24-.47a21.24,21.24,0,0,0,2.58-.89c2.33-.74,5.11-.17,7.52-.11a17.67,17.67,0,0,0,5.32-.57,18.6,18.6,0,0,0,6-2.9,24.91,24.91,0,0,0,2-1.71l.68-.62a3.88,3.88,0,0,1,.31-.26c.2-.13-.1-.27,0,0,.35,1-.28,7.41,1.64,7.07.37-.07.58-.45.83-.68s.23-.33.39-.24.34,1.22.39,1.5c.15.83.34,1.75,1.24,2.07a2.08,2.08,0,0,0,2-.52c.38-.34-.18-.9-.57-.56-.9.79-1.73-.08-1.89-1a8.64,8.64,0,0,0-.3-1.41c-.13-.36-.31-.8-.72-.92-.62-.18-1.38,1-1.52.95-.4-.18-.4-2.1-.43-2.47-.08-.95-.11-1.9-.19-2.85,0-.6,0-1.95-.93-1.73a2.65,2.65,0,0,0-1,.69c-.71.64-1.39,1.32-2.15,1.91a17.28,17.28,0,0,1-6.6,3.14,21.19,21.19,0,0,1-5.95.33c-2.31-.1-4.75-.45-6.94.44a16.21,16.21,0,0,1-2.57.73,1.53,1.53,0,0,0-1,.61,7,7,0,0,0-.71,2.66l-1,5.24.67-.17a4.58,4.58,0,0,1-1.66-3.31c0-.51-.82-.51-.79,0Z"/><ellipse class="cls-9" cx="328.45" cy="479.2" rx="1.03" ry="1.57" transform="translate(-26.81 19.52) rotate(-3.27)"/><path class="cls-2" d="M327.1,478.56l2.35-.27a.41.41,0,0,0,.39-.4.39.39,0,0,0-.39-.4l-2.35.27a.4.4,0,0,0,0,.8Z"/><ellipse class="cls-9" cx="342.8" cy="478.38" rx="1.57" ry="1.03" transform="translate(-157.69 787.99) rotate(-86.12)"/><path class="cls-2" d="M341.6,477.58l2.36,0a.39.39,0,0,0,.4-.39.41.41,0,0,0-.4-.4l-2.36,0a.41.41,0,0,0-.4.4.41.41,0,0,0,.4.4Z"/><path class="cls-2" d="M322.29,493.91c-2.21,1.19-4.52,2.39-7.1,2.2-2.26-.16-4.78-1.51-6.76-2.62-4.53-2.53-3.76-8.64-2.67-12.92.71-2.79,1.74-5.49,2.58-8.24.75-2.41,1.28-4.88,1.79-7.35,1-4.74,2-9.58,5.13-13.41,3.28-4,8-6,13-6.94,5.19-1,11.1-1.74,16,.76a19.51,19.51,0,0,1,8.51,9.63c1.21,2.67,2.11,5.49,3.12,8.24L359,472c1.58,4.31,3.33,9.12,3,13.8a4.9,4.9,0,0,1-2.91,4.41,12.22,12.22,0,0,1-8.55,1.22c-.49-.12-.71.65-.21.76a12.73,12.73,0,0,0,7.85-.67c1.4-.58,3-1.35,3.83-2.71a9.41,9.41,0,0,0,.77-5.29,34.22,34.22,0,0,0-1.39-7.09c-1.74-5.94-4.18-11.72-6.32-17.53-1.72-4.7-3.75-9.32-7.81-12.5a16.49,16.49,0,0,0-6.48-3.13,27.83,27.83,0,0,0-9,0c-5.1.59-10.37,1.85-14.46,5.11s-6.19,8.15-7.33,13.22c-.62,2.73-1.08,5.5-1.79,8.21-.81,3.12-2,6.13-2.88,9.23-1.33,4.63-2.66,11.81,2.22,14.86a24.65,24.65,0,0,0,3.18,1.56,13.79,13.79,0,0,0,4,1.4c2.87.34,5.46-.95,7.91-2.27.45-.25.05-.93-.4-.69Z"/><path class="cls-2" d="M323.73,475.45a22.88,22.88,0,0,1,7.82-.56c.51,0,.51-.75,0-.8a23.85,23.85,0,0,0-8,.59c-.5.12-.29.89.21.77Z"/><path class="cls-2" d="M338.64,475.19a22.74,22.74,0,0,1,7.72-.14c.5.08.71-.69.21-.77a23.93,23.93,0,0,0-8.14.14c-.51.1-.29.87.21.77Z"/><text class="cls-11" transform="translate(123.33 602.71)"><tspan class="cls-12">g</tspan><tspan x="7.12" y="0">o</tspan><tspan class="cls-13" x="14.98" y="0"> </tspan><tspan class="cls-14" x="17.99" y="0">o</tspan><tspan class="cls-15" x="25.63" y="0">v</tspan><tspan x="31.79" y="0">er</tspan><tspan class="cls-16" x="44.62" y="0"> </tspan><tspan x="47.63" y="0">one</tspan><tspan class="cls-13" x="70.75" y="0"> </tspan><tspan class="cls-17" x="73.76" y="0">o</tspan><tspan x="81.56" y="0">f th</tspan><tspan class="cls-18" x="102.48" y="0">a</tspan><tspan class="cls-19" x="109.7" y="0">t p</tspan><tspan class="cls-20" x="125.83" y="0">r</tspan><tspan x="130.77" y="0">oblems</tspan><tspan class="cls-13" x="174.77" y="0"> </tspan><tspan x="177.78" y="0">and</tspan><tspan class="cls-21" x="200.31" y="0"> </tspan><tspan class="cls-22" x="203.33" y="0">click it!</tspan></text><circle class="cls-23" cx="79.78" cy="598.98" r="8.28"/><line class="cls-24" x1="115.58" y1="598.87" x2="101.92" y2="598.87"/><line class="cls-24" x1="107.25" y1="595.78" x2="101.44" y2="598.98"/><line class="cls-24" x1="107.25" y1="602" x2="101.41" y2="598.77"/></g></g></svg>