<svg xmlns="http://www.w3.org/2000/svg" xmlns:xlink="http://www.w3.org/1999/xlink" viewBox="0 0 270.35 438.72"><defs><style>.cls-1,.cls-10,.cls-12{fill:none;}.cls-2{isolation:isolate;}.cls-3{fill:#f4e6e1;}.cls-4{clip-path:url(#clip-path);}.cls-5{fill:#5b4852;}.cls-6{fill:#d88d48;}.cls-7{fill:#fff;}.cls-11,.cls-8{fill:#f1b69a;}.cls-9{fill:#150a08;}.cls-10{stroke:#e07e61;}.cls-10,.cls-12{stroke-linecap:round;stroke-miterlimit:10;}.cls-11{opacity:0.5;mix-blend-mode:multiply;}.cls-12{stroke:#150a08;}</style><clipPath id="clip-path"><circle class="cls-1" cx="76.71" cy="76.71" r="76.71" transform="translate(-11.65 139.64) rotate(-80.46)"/></clipPath></defs><g class="cls-2"><g id="Layer_2" data-name="Layer 2"><g id="Layer_1-2" data-name="Layer 1"><circle class="cls-3" cx="76.71" cy="76.71" r="76.71" transform="translate(-11.65 139.64) rotate(-80.46)"/><g class="cls-4"><path class="cls-5" d="M105.69,62.7c10.56-19,2.19-29.9-4.56-26.34,0,0-1-11.79-16.5-18.89C66.73,9.25,43.61,15.66,39.1,28,34.94,39.47,42.37,45,42.37,45s-4.6,8.21,3.27,20.5S101,71.21,105.69,62.7Z"/><path class="cls-6" d="M143.52,155H9.89s4-22.42,13.24-35.32S66.4,102.08,66.4,102.08l10.31,1.59L87,102.08s34.1,4.7,43.29,17.61S143.52,155,143.52,155Z"/><path class="cls-7" d="M66.4,102.08l-13.2,2.47s3,14.93,15.11,22.39l8.19-10V106.13Z"/><path class="cls-7" d="M86.1,102.08l13.2,2.47s-3,14.93-15.11,22.39L76,116.9V106.13Z"/><path class="cls-8" d="M76.48,113.46h0a9.05,9.05,0,0,1-9-9V87.11H85.54v17.3A9.06,9.06,0,0,1,76.48,113.46Z"/><path class="cls-9" d="M85.54,85.11V95.73s-3,5.28-9.06,5.28c-4.83,0-9-4.58-9-4.58V85.11Z"/><path class="cls-8" d="M51.16,66.53c-4.9-7.44-10.58-2.66-10.58,2.57,0,7.58,8.23,14.11,12.93,8.67S51.16,66.53,51.16,66.53Z"/><path class="cls-10" d="M50.09,70c-3.05-5.69-7.26-.38-5.65,1.73"/><path class="cls-8" d="M100.06,66.53c4.89-7.44,10.57-2.66,10.57,2.57,0,7.58-8.22,14.11-12.92,8.67S100.06,66.53,100.06,66.53Z"/><path class="cls-10" d="M101.13,70c3-5.69,7.25-.38,5.65,1.73"/><path class="cls-8" d="M75.58,95.73c-19.34,0-30.78-21.15-26.26-42.85C53.05,35,98.16,35,101.89,52.88,106.41,74.58,94.94,95.74,75.58,95.73Z"/><path class="cls-11" d="M73,74c2,1,6.48-1.15,6.57,0s-2.38,2.18-3.28,2.18S73,74,73,74Z"/><path class="cls-10" d="M73.08,68.17c-2.82,6.1,1.4,7.29,2.53,7.43"/><path class="cls-12" d="M68.85,78.92c7.47,1.43,13.39.24,15.78-1.67"/><path class="cls-9" d="M68,51.54c-1.21-2.7-8.29-1.46-9.3.46s2.32,2.46,4.78,2.34S68.73,53.26,68,51.54Z"/><path class="cls-9" d="M83.26,51.54c1.21-2.7,8.29-1.46,9.29.46s-2.31,2.46-4.77,2.34S82.49,53.26,83.26,51.54Z"/><path class="cls-11" d="M73.86,82.6c2.71,0,6.6-1.4,7.2,0s-2.71,4.21-4.76,4S70.77,82.59,73.86,82.6Z"/><path class="cls-9" d="M62.84,61.94a1.95,1.95,0,1,0,2-1.94A1.95,1.95,0,0,0,62.84,61.94Z"/><path class="cls-9" d="M88.37,61.94A1.95,1.95,0,1,1,86.43,60,1.94,1.94,0,0,1,88.37,61.94Z"/><path class="cls-5" d="M92.73,39.47c-5,11.25-16,4.84-16,4.84A24.81,24.81,0,0,1,58.48,50C47.42,48.9,41.65,35.64,55.12,30S99.78,23.66,92.73,39.47Z"/></g><path d="M65.47,207.05H67v10.86h4.65v1.28H65.47Z"/><path d="M80.24,214.77c0,3.27-2,4.6-3.9,4.6-2.12,0-3.78-1.64-3.78-4.49s1.77-4.58,3.91-4.58S80.24,212,80.24,214.77Zm-6.13.07c0,1.77.84,3.36,2.3,3.36s2.29-1.6,2.29-3.39c0-1.43-.59-3.35-2.28-3.35S74.11,213.29,74.11,214.84Z"/><path d="M82.28,213.05c0-.94,0-1.81-.07-2.57h1.34l.06,1.6h.06a2.47,2.47,0,0,1,2.24-1.78,1.67,1.67,0,0,1,.4,0v1.47a2.17,2.17,0,0,0-.47,0,2.12,2.12,0,0,0-2,2,4.3,4.3,0,0,0-.06.75v4.71H82.28Z"/><path d="M88.63,215.07c0,2.3,1.29,3.08,2.71,3.08a4.92,4.92,0,0,0,2.12-.41l.26,1.09a6.09,6.09,0,0,1-2.61.52c-2.5,0-4-1.76-4-4.39s1.45-4.66,3.75-4.66c2.52,0,3.26,2.3,3.26,4a4.77,4.77,0,0,1,0,.76ZM92.7,214c0-1.22-.48-2.55-1.92-2.55s-2,1.42-2.13,2.55Z"/><path d="M96.18,212.8c0-1,0-1.61-.07-2.32h1.33l.08,1.3h0a2.75,2.75,0,0,1,2.51-1.48,2.31,2.31,0,0,1,2.26,1.62h0a3.25,3.25,0,0,1,.95-1.1,2.73,2.73,0,0,1,1.7-.52c1.17,0,2.64.78,2.64,3.56v5.33h-1.5V214.1c0-1.52-.48-2.55-1.68-2.55a1.86,1.86,0,0,0-1.7,1.39,2.79,2.79,0,0,0-.11.79v5.46h-1.5v-5.38c0-1.26-.48-2.26-1.62-2.26a1.94,1.94,0,0,0-1.77,1.53,2.71,2.71,0,0,0-.1.77v5.34h-1.5Z"/><path d="M115.62,208.08a.94.94,0,1,1-.93-1A.91.91,0,0,1,115.62,208.08Zm-1.69,11.11v-8.71h1.52v8.71Z"/><path d="M118,213.28c0-1.18,0-2-.07-2.8h1.36l.09,1.37h0a3,3,0,0,1,2.72-1.55c1.93,0,3.34,1.72,3.34,4.43,0,3.17-1.74,4.64-3.58,4.64a2.6,2.6,0,0,1-2.33-1.27h0v4.62H118Zm1.52,2.47a2.78,2.78,0,0,0,.07.66,2.11,2.11,0,0,0,2,1.74c1.52,0,2.31-1.44,2.31-3.36,0-1.76-.77-3.26-2.28-3.26a2.22,2.22,0,0,0-2,1.84,2.91,2.91,0,0,0-.09.65Z"/><path d="M127.33,217.62a3.81,3.81,0,0,0,1.89.57c1,0,1.57-.54,1.57-1.28s-.4-1.15-1.47-1.63c-1.44-.62-2.15-1.44-2.15-2.47A2.59,2.59,0,0,1,130,210.3a3.82,3.82,0,0,1,2,.5l-.38,1.12a3,3,0,0,0-1.6-.47,1.2,1.2,0,0,0-1.35,1.17c0,.68.43,1,1.48,1.49,1.36.58,2.14,1.35,2.14,2.63,0,1.6-1.19,2.61-3.06,2.61a4.28,4.28,0,0,1-2.23-.58Z"/><path d="M141,216.8c0,.93,0,1.71.07,2.39h-1.34l-.09-1.27h0a3,3,0,0,1-2.58,1.45c-1.41,0-2.73-.89-2.73-3.68v-5.21h1.51v5c0,1.57.43,2.66,1.72,2.66a2,2,0,0,0,1.84-1.36,2.82,2.82,0,0,0,.12-.81v-5.45H141Z"/><path d="M143.56,212.8c0-1,0-1.61-.08-2.32h1.33l.08,1.3h0a2.75,2.75,0,0,1,2.52-1.48,2.33,2.33,0,0,1,2.26,1.62h0a3.23,3.23,0,0,1,.94-1.1,2.73,2.73,0,0,1,1.7-.52c1.17,0,2.64.78,2.64,3.56v5.33h-1.49V214.1c0-1.52-.49-2.55-1.69-2.55a1.86,1.86,0,0,0-1.7,1.39,2.79,2.79,0,0,0-.11.79v5.46h-1.49v-5.38c0-1.26-.48-2.26-1.63-2.26a2,2,0,0,0-1.77,1.53,3.12,3.12,0,0,0-.1.77v5.34h-1.49Z"/><path d="M168.14,206.5V217c0,.71,0,1.62.07,2.2h-1.34l-.08-1.39h0a2.84,2.84,0,0,1-2.62,1.57c-1.92,0-3.37-1.73-3.37-4.44,0-3,1.64-4.63,3.52-4.63a2.51,2.51,0,0,1,2.32,1.23h0v-5ZM166.62,214a3.63,3.63,0,0,0-.05-.65,2.08,2.08,0,0,0-2-1.78c-1.49,0-2.3,1.49-2.3,3.35s.76,3.26,2.25,3.26a2.1,2.1,0,0,0,2-1.78,2.2,2.2,0,0,0,.07-.65Z"/><path d="M177.86,214.77c0,3.27-2,4.6-3.9,4.6-2.12,0-3.78-1.64-3.78-4.49s1.77-4.58,3.9-4.58S177.86,212,177.86,214.77Zm-6.14.07c0,1.77.85,3.36,2.3,3.36s2.29-1.6,2.29-3.39c0-1.43-.59-3.35-2.28-3.35S171.72,213.29,171.72,214.84Z"/><path d="M179.9,206.5h1.51v12.69H179.9Z"/><path d="M191.2,214.77c0,3.27-2,4.6-3.9,4.6-2.13,0-3.78-1.64-3.78-4.49s1.76-4.58,3.9-4.58S191.2,212,191.2,214.77Zm-6.14.07c0,1.77.85,3.36,2.3,3.36s2.29-1.6,2.29-3.39c0-1.43-.59-3.35-2.28-3.35S185.06,213.29,185.06,214.84Z"/><path d="M193.23,213.05c0-.94,0-1.81-.07-2.57h1.34l.06,1.6h.06a2.48,2.48,0,0,1,2.24-1.78,1.67,1.67,0,0,1,.4,0v1.47a2.17,2.17,0,0,0-.47,0,2.12,2.12,0,0,0-2,2,4.3,4.3,0,0,0-.06.75v4.71h-1.52Z"/><path d="M202.65,207.05h1.51v10.86h4.66v1.28h-6.17Z"/><path d="M217.42,214.77c0,3.27-2,4.6-3.9,4.6-2.12,0-3.78-1.64-3.78-4.49s1.77-4.58,3.91-4.58S217.42,212,217.42,214.77Zm-6.13.07c0,1.77.84,3.36,2.3,3.36s2.28-1.6,2.28-3.39c0-1.43-.59-3.35-2.27-3.35S211.29,213.29,211.29,214.84Z"/><path d="M219.45,213.05c0-.94,0-1.81-.07-2.57h1.35l.06,1.6h.05a2.49,2.49,0,0,1,2.25-1.78,1.58,1.58,0,0,1,.39,0v1.47a2,2,0,0,0-.46,0,2.13,2.13,0,0,0-2,2,4.3,4.3,0,0,0-.06.75v4.71h-1.52Z"/><path d="M225.81,215.07c0,2.3,1.29,3.08,2.7,3.08a5,5,0,0,0,2.13-.41l.26,1.09a6.12,6.12,0,0,1-2.61.52c-2.5,0-3.95-1.76-3.95-4.39s1.45-4.66,3.75-4.66c2.52,0,3.25,2.3,3.25,4a5,5,0,0,1,0,.76Zm4.07-1.11c0-1.22-.48-2.55-1.92-2.55s-2,1.42-2.13,2.55Z"/><path d="M233.36,212.8c0-1,0-1.61-.08-2.32h1.33l.08,1.3h0a2.77,2.77,0,0,1,2.52-1.48,2.32,2.32,0,0,1,2.26,1.62h0a3.23,3.23,0,0,1,.94-1.1,2.77,2.77,0,0,1,1.7-.52c1.17,0,2.64.78,2.64,3.56v5.33h-1.49V214.1c0-1.52-.48-2.55-1.69-2.55a1.87,1.87,0,0,0-1.7,1.39,2.79,2.79,0,0,0-.11.79v5.46h-1.49v-5.38c0-1.26-.48-2.26-1.63-2.26a2,2,0,0,0-1.77,1.53,3.12,3.12,0,0,0-.1.77v5.34h-1.49Z"/><path d="M67.09,229.68a.94.94,0,1,1-.93-1A.91.91,0,0,1,67.09,229.68ZM65.4,240.79v-8.71h1.52v8.71Z"/><path d="M69.52,234.88c0-1.18,0-2-.08-2.8h1.37l.08,1.37h0a3,3,0,0,1,2.72-1.55c1.93,0,3.34,1.72,3.34,4.43,0,3.17-1.74,4.64-3.58,4.64a2.6,2.6,0,0,1-2.33-1.27h0v4.62H69.52ZM71,237.35a2.78,2.78,0,0,0,.07.66,2.11,2.11,0,0,0,2,1.74c1.52,0,2.31-1.44,2.31-3.36,0-1.76-.77-3.26-2.27-3.26A2.23,2.23,0,0,0,71.12,235a2.91,2.91,0,0,0-.09.65Z"/><path d="M78.8,239.22a3.84,3.84,0,0,0,1.89.57c1,0,1.57-.54,1.57-1.28s-.39-1.15-1.47-1.63c-1.44-.62-2.15-1.44-2.14-2.47a2.58,2.58,0,0,1,2.83-2.51,3.89,3.89,0,0,1,2,.5l-.39,1.12a3,3,0,0,0-1.6-.47,1.2,1.2,0,0,0-1.35,1.17c0,.68.43,1,1.49,1.49,1.35.58,2.13,1.35,2.14,2.63,0,1.6-1.2,2.61-3.07,2.61a4.28,4.28,0,0,1-2.23-.58Z"/><path d="M92.42,238.4c0,.93,0,1.71.07,2.39H91.15l-.08-1.27h0A3,3,0,0,1,88.45,241c-1.41,0-2.74-.89-2.74-3.68v-5.21h1.52v5c0,1.57.42,2.66,1.71,2.66a2,2,0,0,0,1.84-1.36,2.5,2.5,0,0,0,.13-.81v-5.45h1.51Z"/><path d="M95,234.4c0-1,0-1.61-.07-2.32h1.32l.08,1.3h0a2.77,2.77,0,0,1,2.52-1.48,2.32,2.32,0,0,1,2.26,1.62h0a3.23,3.23,0,0,1,.94-1.1,2.77,2.77,0,0,1,1.7-.52c1.17,0,2.65.78,2.65,3.56v5.33H105V235.7c0-1.52-.48-2.55-1.69-2.55a1.87,1.87,0,0,0-1.7,1.39,3.21,3.21,0,0,0-.11.79v5.46H100v-5.38c0-1.26-.48-2.26-1.63-2.26a2,2,0,0,0-1.77,1.53,3.12,3.12,0,0,0-.1.77v5.34H95Z"/><path d="M119.61,228.1v10.49c0,.71,0,1.62.07,2.2h-1.34l-.08-1.39h-.05a2.83,2.83,0,0,1-2.62,1.57c-1.91,0-3.37-1.73-3.37-4.44,0-3,1.64-4.63,3.52-4.63a2.51,2.51,0,0,1,2.32,1.23h0v-5Zm-1.51,7.45a3.66,3.66,0,0,0-.06-.65,2.08,2.08,0,0,0-2-1.78c-1.49,0-2.3,1.49-2.3,3.35s.76,3.26,2.26,3.26a2.11,2.11,0,0,0,2-1.78,2.59,2.59,0,0,0,.07-.65Z"/><path d="M129.33,236.37c0,3.27-2,4.6-3.9,4.6-2.12,0-3.78-1.64-3.78-4.49s1.77-4.58,3.9-4.58S129.33,233.6,129.33,236.37Zm-6.13.07c0,1.77.84,3.36,2.29,3.36s2.29-1.6,2.29-3.39c0-1.43-.59-3.35-2.28-3.35S123.2,234.89,123.2,236.44Z"/><path d="M131.37,228.1h1.52v12.69h-1.52Z"/><path d="M142.67,236.37c0,3.27-2,4.6-3.9,4.6-2.12,0-3.78-1.64-3.78-4.49s1.76-4.58,3.9-4.58S142.67,233.6,142.67,236.37Zm-6.14.07c0,1.77.85,3.36,2.3,3.36s2.29-1.6,2.29-3.39c0-1.43-.59-3.35-2.28-3.35S136.53,234.89,136.53,236.44Z"/><path d="M144.7,234.65c0-.94,0-1.81-.07-2.57H146l.06,1.6h.06a2.48,2.48,0,0,1,2.24-1.78,1.67,1.67,0,0,1,.4,0v1.47a2,2,0,0,0-2.45,1.93,4.3,4.3,0,0,0-.06.75v4.71H144.7Z"/><path d="M153.82,239.22a3.84,3.84,0,0,0,1.89.57c1,0,1.57-.54,1.57-1.28s-.39-1.15-1.46-1.63c-1.45-.62-2.15-1.44-2.15-2.47a2.58,2.58,0,0,1,2.83-2.51,3.89,3.89,0,0,1,2,.5l-.39,1.12a3,3,0,0,0-1.6-.47,1.2,1.2,0,0,0-1.34,1.17c0,.68.42,1,1.48,1.49,1.35.58,2.13,1.35,2.14,2.63,0,1.6-1.2,2.61-3.07,2.61a4.28,4.28,0,0,1-2.23-.58Z"/><path d="M162.47,229.68a.94.94,0,1,1-.93-1A.91.91,0,0,1,162.47,229.68Zm-1.69,11.11v-8.71h1.52v8.71Z"/><path d="M166.74,229.63v2.45h2.1v1.15h-2.1v4.84c0,1.1.34,1.62,1.11,1.62a2.72,2.72,0,0,0,.81-.1l.07,1.17a3.8,3.8,0,0,1-1.3.19,2,2,0,0,1-1.6-.63,3.24,3.24,0,0,1-.59-2.24v-4.85H164v-1.15h1.26V230Z"/><path d="M178.75,240.79l-.13-1h0a2.83,2.83,0,0,1-2.39,1.23,2.39,2.39,0,0,1-2.48-2.5c0-2.13,1.83-3.23,4.78-3.22V235c0-.85-.23-2-1.81-2a3.71,3.71,0,0,0-2,.59l-.34-1a5,5,0,0,1,2.62-.7c2.39,0,3.06,1.61,3.06,3.42v3.41a14.56,14.56,0,0,0,.12,2.06Zm-.23-4.47c-1.42,0-3.3.23-3.3,2a1.34,1.34,0,0,0,1.36,1.52,1.91,1.91,0,0,0,1.87-1.41,1.82,1.82,0,0,0,.07-.5Z"/><path d="M182.56,234.4c0-1,0-1.61-.07-2.32h1.33l.08,1.3h0a2.75,2.75,0,0,1,2.51-1.48,2.33,2.33,0,0,1,2.27,1.62h0a3.37,3.37,0,0,1,.95-1.1,2.73,2.73,0,0,1,1.7-.52c1.17,0,2.64.78,2.64,3.56v5.33h-1.5V235.7c0-1.52-.48-2.55-1.68-2.55a1.86,1.86,0,0,0-1.7,1.39,2.79,2.79,0,0,0-.11.79v5.46h-1.5v-5.38c0-1.26-.48-2.26-1.62-2.26a2,2,0,0,0-1.77,1.53,2.71,2.71,0,0,0-.1.77v5.34h-1.5Z"/><path d="M197.52,236.67c0,2.3,1.29,3.08,2.7,3.08a4.92,4.92,0,0,0,2.12-.41l.26,1.1A6.27,6.27,0,0,1,200,241c-2.5,0-4-1.76-4-4.39s1.45-4.66,3.75-4.66c2.52,0,3.26,2.3,3.26,4a4.77,4.77,0,0,1-.05.76Zm4.06-1.11c0-1.22-.48-2.55-1.92-2.55s-2,1.42-2.13,2.55Z"/><path d="M206.9,229.63v2.45H209v1.15h-2.1v4.84c0,1.1.34,1.62,1.11,1.62a2.72,2.72,0,0,0,.81-.1l.07,1.17a3.8,3.8,0,0,1-1.3.19,2,2,0,0,1-1.6-.63,3.24,3.24,0,0,1-.59-2.24v-4.85h-1.26v-1.15h1.26V230Z"/><path d="M209.77,243a27.05,27.05,0,0,0,1.06-4.28l1.71-.18a22.26,22.26,0,0,1-1.71,4.34Z"/><path d="M223.84,240.5a5,5,0,0,1-2.18.45c-2.41,0-4-1.71-4-4.44s1.66-4.61,4.31-4.61a4.34,4.34,0,0,1,1.91.41l-.33,1.19a3.41,3.41,0,0,0-1.6-.37c-1.8,0-2.75,1.54-2.75,3.32,0,2,1.14,3.26,2.74,3.26a3.93,3.93,0,0,0,1.66-.36Z"/><path d="M232.68,236.37c0,3.27-2,4.6-3.9,4.6-2.12,0-3.78-1.64-3.78-4.49s1.77-4.58,3.91-4.58S232.68,233.6,232.68,236.37Zm-6.13.07c0,1.77.84,3.36,2.3,3.36s2.29-1.6,2.29-3.39c0-1.43-.6-3.35-2.28-3.35S226.55,234.89,226.55,236.44Z"/><path d="M234.72,234.4c0-1,0-1.61-.07-2.32H236l.08,1.31h0a2.9,2.9,0,0,1,2.61-1.49c1.2,0,2.78.77,2.78,3.49v5.4H240v-5.2c0-1.3-.43-2.43-1.78-2.43a2,2,0,0,0-1.88,1.56,2.72,2.72,0,0,0-.1.75v5.32h-1.52Z"/><path d="M243.86,239.22a3.81,3.81,0,0,0,1.89.57c1,0,1.57-.54,1.57-1.28s-.4-1.15-1.47-1.63c-1.44-.62-2.15-1.44-2.15-2.47a2.58,2.58,0,0,1,2.83-2.51,3.83,3.83,0,0,1,2,.5l-.38,1.12a3,3,0,0,0-1.6-.47,1.2,1.2,0,0,0-1.35,1.17c0,.68.43,1,1.48,1.49,1.35.58,2.14,1.35,2.14,2.63,0,1.6-1.2,2.61-3.07,2.61a4.27,4.27,0,0,1-2.22-.58Z"/><path d="M251.73,236.67c0,2.3,1.29,3.08,2.7,3.08a4.89,4.89,0,0,0,2.12-.41l.27,1.1a6.34,6.34,0,0,1-2.61.51c-2.5,0-4-1.76-4-4.39s1.44-4.66,3.75-4.66c2.52,0,3.25,2.3,3.25,4a5,5,0,0,1,0,.76Zm4.06-1.11c0-1.22-.47-2.55-1.91-2.55s-2,1.42-2.13,2.55Z"/><path d="M264.9,240.5a5.06,5.06,0,0,1-2.18.45c-2.41,0-4-1.71-4-4.44s1.66-4.61,4.31-4.61a4.34,4.34,0,0,1,1.91.41l-.33,1.19a3.41,3.41,0,0,0-1.6-.37c-1.81,0-2.75,1.54-2.75,3.32,0,2,1.14,3.26,2.74,3.26a3.85,3.85,0,0,0,1.65-.36Z"/><path d="M270.35,235.4v1.13h-4.3V235.4Z"/><path d="M67.24,251.23v2.45h2.1v1.15h-2.1v4.84c0,1.1.34,1.62,1.11,1.62a2.72,2.72,0,0,0,.81-.1l.07,1.17a3.8,3.8,0,0,1-1.3.19,2,2,0,0,1-1.6-.63,3.24,3.24,0,0,1-.59-2.24v-4.85H64.48v-1.15h1.26v-2.05Z"/><path d="M71.91,258.27c0,2.3,1.29,3.08,2.71,3.08a4.92,4.92,0,0,0,2.12-.41L77,262a6.09,6.09,0,0,1-2.61.52c-2.5,0-4-1.76-4-4.39s1.45-4.66,3.75-4.66c2.52,0,3.26,2.3,3.26,4a4.67,4.67,0,0,1,0,.76ZM76,257.16c0-1.22-.48-2.55-1.92-2.55s-2,1.42-2.13,2.55Z"/><path d="M81.3,251.23v2.45h2.09v1.15H81.3v4.84c0,1.1.34,1.62,1.11,1.62a2.77,2.77,0,0,0,.81-.1l.07,1.17a3.8,3.8,0,0,1-1.3.19,2,2,0,0,1-1.6-.63,3.18,3.18,0,0,1-.59-2.24v-4.85H78.54v-1.15H79.8v-2.05Z"/><path d="M91.85,260c0,.93,0,1.71.07,2.39H90.58l-.09-1.28h0a3,3,0,0,1-2.58,1.46c-1.41,0-2.74-.89-2.74-3.68v-5.21h1.52v5c0,1.57.43,2.66,1.71,2.66a2,2,0,0,0,1.85-1.36,2.82,2.82,0,0,0,.12-.81v-5.45h1.52Z"/><path d="M95.37,258.27c0,2.3,1.29,3.08,2.7,3.08a4.92,4.92,0,0,0,2.12-.41l.26,1.09a6.09,6.09,0,0,1-2.61.52c-2.49,0-4-1.76-4-4.39s1.45-4.66,3.75-4.66c2.53,0,3.26,2.3,3.26,4a4.67,4.67,0,0,1-.05.76Zm4.06-1.11c0-1.22-.47-2.55-1.91-2.55s-2,1.42-2.14,2.55Z"/><path d="M102.91,256.25c0-.94,0-1.81-.07-2.57h1.34l.06,1.6h.05a2.49,2.49,0,0,1,2.25-1.78,2.41,2.41,0,0,1,.4,0V255a2.17,2.17,0,0,0-.47,0,2.12,2.12,0,0,0-2,2,4.3,4.3,0,0,0-.06.75v4.71h-1.52Z"/><path d="M116.67,262.39l-.13-1.05h0a2.83,2.83,0,0,1-2.39,1.23,2.39,2.39,0,0,1-2.48-2.5c0-2.13,1.83-3.23,4.77-3.22v-.21c0-.85-.22-2-1.8-2a3.71,3.71,0,0,0-2,.59l-.34-1a5,5,0,0,1,2.62-.7c2.39,0,3.06,1.61,3.06,3.42v3.42a14.51,14.51,0,0,0,.12,2.05Zm-.23-4.47c-1.42,0-3.3.23-3.3,2a1.34,1.34,0,0,0,1.36,1.52,1.91,1.91,0,0,0,1.87-1.41,1.82,1.82,0,0,0,.07-.5Z"/><path d="M127.32,249.7v10.49c0,.71,0,1.62.07,2.2h-1.34L126,261h0a2.85,2.85,0,0,1-2.62,1.57c-1.92,0-3.38-1.73-3.38-4.44,0-3,1.65-4.63,3.53-4.63a2.51,2.51,0,0,1,2.32,1.23h0v-5Zm-1.52,7.45a3.63,3.63,0,0,0,0-.65,2.1,2.1,0,0,0-2-1.78c-1.5,0-2.3,1.49-2.3,3.35s.76,3.26,2.25,3.26a2.11,2.11,0,0,0,2-1.78,2.59,2.59,0,0,0,.07-.65Z"/><path d="M131.6,251.28a.93.93,0,1,1-.93-1A.91.91,0,0,1,131.6,251.28Zm-1.69,11.11v-8.71h1.52v8.71Z"/><path d="M134,256.48c0-1.18,0-2-.07-2.8h1.36l.08,1.37h0a2.94,2.94,0,0,1,2.71-1.55c1.93,0,3.35,1.72,3.35,4.43,0,3.17-1.75,4.64-3.58,4.64a2.64,2.64,0,0,1-2.34-1.26h0v4.61H134Zm1.51,2.46a3.45,3.45,0,0,0,.07.67,2.11,2.11,0,0,0,2,1.74c1.52,0,2.31-1.44,2.31-3.36,0-1.76-.77-3.26-2.27-3.26a2.24,2.24,0,0,0-2.06,1.84,2.91,2.91,0,0,0-.09.65Z"/><path d="M145.23,251.28a.94.94,0,1,1-.93-1A.91.91,0,0,1,145.23,251.28Zm-1.69,11.11v-8.71h1.52v8.71Z"/><path d="M147.43,260.82a3.88,3.88,0,0,0,1.9.58c1,0,1.57-.55,1.57-1.29s-.4-1.15-1.47-1.63c-1.44-.62-2.15-1.44-2.15-2.47a2.58,2.58,0,0,1,2.83-2.51,3.86,3.86,0,0,1,2,.5l-.39,1.12a3,3,0,0,0-1.59-.47,1.2,1.2,0,0,0-1.35,1.17c0,.68.42,1,1.48,1.49,1.35.58,2.14,1.35,2.14,2.63,0,1.6-1.2,2.61-3.07,2.61a4.33,4.33,0,0,1-2.23-.58Z"/><path d="M160,262.1a5,5,0,0,1-2.18.45c-2.4,0-4-1.71-4-4.44s1.67-4.61,4.31-4.61a4.27,4.27,0,0,1,1.91.41l-.33,1.19a3.33,3.33,0,0,0-1.59-.37c-1.81,0-2.76,1.54-2.75,3.32,0,2,1.14,3.26,2.73,3.26a3.9,3.9,0,0,0,1.66-.36Z"/><path d="M163.53,251.28a.93.93,0,1,1-.93-1A.91.91,0,0,1,163.53,251.28Zm-1.69,11.11v-8.71h1.52v8.71Z"/><path d="M166,256c0-.94,0-1.61-.07-2.32h1.34l.08,1.31h0A2.91,2.91,0,0,1,170,253.5c1.19,0,2.78.77,2.78,3.49v5.4h-1.52v-5.2c0-1.3-.43-2.43-1.77-2.43a2,2,0,0,0-1.89,1.56,2.75,2.75,0,0,0-.09.75v5.32H166Z"/><path d="M182.19,253.68c0,.61-.08,1.34-.08,2.48v5c0,2.1-.37,3.21-1.13,3.93a4.14,4.14,0,0,1-2.91,1,5.22,5.22,0,0,1-2.61-.63l.37-1.18a4.46,4.46,0,0,0,2.28.6c1.46,0,2.5-.8,2.5-2.93V261h0a2.66,2.66,0,0,1-2.43,1.35c-2,0-3.37-1.82-3.37-4.27,0-3,1.78-4.59,3.58-4.59a2.53,2.53,0,0,1,2.38,1.38h0l.07-1.2ZM180.6,257a2.47,2.47,0,0,0-.08-.69,2,2,0,0,0-1.94-1.58c-1.36,0-2.28,1.3-2.28,3.3s.83,3.16,2.27,3.16a2,2,0,0,0,1.92-1.51,2.91,2.91,0,0,0,.11-.83Z"/><path d="M189.33,258.27c0,2.3,1.29,3.08,2.7,3.08a4.92,4.92,0,0,0,2.12-.41l.26,1.09a6.09,6.09,0,0,1-2.61.52c-2.49,0-4-1.76-4-4.39s1.45-4.66,3.75-4.66c2.53,0,3.26,2.3,3.26,4a4.67,4.67,0,0,1-.05.76Zm4.06-1.11c0-1.22-.47-2.55-1.91-2.55s-2,1.42-2.14,2.55Z"/><path d="M196.87,249.7h1.52v12.69h-1.52Z"/><path d="M202.74,251.28a.94.94,0,1,1-.93-1A.91.91,0,0,1,202.74,251.28Zm-1.69,11.11v-8.71h1.52v8.71Z"/><path d="M207,251.23v2.45h2.1v1.15H207v4.84c0,1.1.34,1.62,1.11,1.62a2.72,2.72,0,0,0,.81-.1l.07,1.17a3.8,3.8,0,0,1-1.3.19,2,2,0,0,1-1.6-.63,3.24,3.24,0,0,1-.59-2.24v-4.85h-1.26v-1.15h1.26v-2.05Z"/><path d="M209.88,264.62a26,26,0,0,0,1.06-4.28l1.71-.18a22.3,22.3,0,0,1-1.7,4.34Z"/><path d="M218.1,260.82a3.84,3.84,0,0,0,1.89.58c1,0,1.57-.55,1.57-1.29s-.39-1.15-1.46-1.63C218.65,257.86,218,257,218,256a2.58,2.58,0,0,1,2.83-2.51,3.89,3.89,0,0,1,2,.5l-.39,1.12a3,3,0,0,0-1.6-.47,1.21,1.21,0,0,0-1.35,1.17c0,.68.43,1,1.49,1.49,1.35.58,2.13,1.35,2.14,2.63,0,1.6-1.2,2.61-3.07,2.61a4.28,4.28,0,0,1-2.23-.58Z"/><path d="M226,258.27c0,2.3,1.29,3.08,2.71,3.08a4.92,4.92,0,0,0,2.12-.41l.26,1.09a6.09,6.09,0,0,1-2.61.52c-2.5,0-3.95-1.76-3.95-4.39s1.45-4.66,3.75-4.66c2.52,0,3.26,2.3,3.26,4a4.67,4.67,0,0,1,0,.76Zm4.07-1.11c0-1.22-.48-2.55-1.92-2.55s-2,1.42-2.13,2.55Z"/><path d="M240.36,249.7v10.49c0,.71,0,1.62.07,2.2h-1.34L239,261H239a2.82,2.82,0,0,1-2.61,1.57c-1.92,0-3.38-1.73-3.38-4.44,0-3,1.64-4.63,3.53-4.63a2.49,2.49,0,0,1,2.31,1.23h0v-5Zm-1.52,7.45a3.63,3.63,0,0,0-.05-.65,2.1,2.1,0,0,0-2-1.78c-1.49,0-2.29,1.49-2.29,3.35s.76,3.26,2.25,3.26a2.11,2.11,0,0,0,2-1.78,2.59,2.59,0,0,0,.07-.65Z"/><path d="M65.47,271.85H67v10.86h4.65V284H65.47Z"/><path d="M80.24,279.57c0,3.27-2,4.6-3.9,4.6-2.12,0-3.78-1.64-3.78-4.49s1.77-4.58,3.91-4.58S80.24,276.8,80.24,279.57Zm-6.13.07c0,1.77.84,3.36,2.3,3.36s2.29-1.6,2.29-3.39c0-1.43-.59-3.35-2.28-3.35S74.11,278.09,74.11,279.64Z"/><path d="M82.28,277.85c0-.94,0-1.81-.07-2.57h1.34l.06,1.6h.06a2.47,2.47,0,0,1,2.24-1.78,1.67,1.67,0,0,1,.4,0v1.47a2.17,2.17,0,0,0-.47,0,2.12,2.12,0,0,0-2,2,4.3,4.3,0,0,0-.06.75V284H82.28Z"/><path d="M88.63,279.87c0,2.3,1.29,3.08,2.71,3.08a4.92,4.92,0,0,0,2.12-.41l.26,1.09a6.09,6.09,0,0,1-2.61.52c-2.5,0-4-1.76-4-4.39s1.45-4.66,3.75-4.66c2.52,0,3.26,2.3,3.26,4a4.67,4.67,0,0,1,0,.76Zm4.07-1.11c0-1.22-.48-2.55-1.92-2.55s-2,1.42-2.13,2.55Z"/><path d="M96.18,277.6c0-1,0-1.61-.07-2.32h1.33l.08,1.3h0a2.75,2.75,0,0,1,2.51-1.48,2.31,2.31,0,0,1,2.26,1.62h0a3.25,3.25,0,0,1,.95-1.1,2.73,2.73,0,0,1,1.7-.52c1.17,0,2.64.78,2.64,3.56V284h-1.5V278.9c0-1.52-.48-2.55-1.68-2.55a1.86,1.86,0,0,0-1.7,1.39,2.79,2.79,0,0,0-.11.79V284h-1.5v-5.37c0-1.26-.48-2.26-1.62-2.26a1.94,1.94,0,0,0-1.77,1.53,2.71,2.71,0,0,0-.1.77V284h-1.5Z"/><path d="M115.62,272.88a.94.94,0,1,1-.93-1A.91.91,0,0,1,115.62,272.88ZM113.93,284v-8.7h1.52V284Z"/><path d="M118,278.08c0-1.18,0-2-.07-2.8h1.36l.09,1.37h0a3,3,0,0,1,2.72-1.55c1.93,0,3.34,1.72,3.34,4.43,0,3.17-1.74,4.64-3.58,4.64a2.6,2.6,0,0,1-2.33-1.27h0v4.62H118Zm1.52,2.46a2.81,2.81,0,0,0,.07.67,2.11,2.11,0,0,0,2,1.74c1.52,0,2.31-1.44,2.31-3.36,0-1.76-.77-3.26-2.28-3.26a2.22,2.22,0,0,0-2,1.84,2.91,2.91,0,0,0-.09.65Z"/><path d="M127.33,282.42a3.81,3.81,0,0,0,1.89.57c1,0,1.57-.54,1.57-1.28s-.4-1.15-1.47-1.63c-1.44-.62-2.15-1.44-2.15-2.47A2.59,2.59,0,0,1,130,275.1a3.82,3.82,0,0,1,2,.5l-.38,1.12a3,3,0,0,0-1.6-.47,1.2,1.2,0,0,0-1.35,1.17c0,.68.43,1,1.48,1.49,1.36.58,2.14,1.35,2.14,2.63,0,1.6-1.19,2.61-3.06,2.61a4.28,4.28,0,0,1-2.23-.58Z"/><path d="M141,281.6c0,.93,0,1.71.07,2.38h-1.34l-.09-1.27h0a3,3,0,0,1-2.58,1.46c-1.41,0-2.73-.89-2.73-3.68v-5.21h1.51v5c0,1.57.43,2.66,1.72,2.66a2,2,0,0,0,1.84-1.36,2.82,2.82,0,0,0,.12-.81v-5.45H141Z"/><path d="M143.56,277.6c0-1,0-1.61-.08-2.32h1.33l.08,1.3h0a2.75,2.75,0,0,1,2.52-1.48,2.33,2.33,0,0,1,2.26,1.62h0a3.23,3.23,0,0,1,.94-1.1,2.73,2.73,0,0,1,1.7-.52c1.17,0,2.64.78,2.64,3.56V284h-1.49V278.9c0-1.52-.49-2.55-1.69-2.55a1.86,1.86,0,0,0-1.7,1.39,2.79,2.79,0,0,0-.11.79V284h-1.49v-5.37c0-1.26-.48-2.26-1.63-2.26a2,2,0,0,0-1.77,1.53,3.12,3.12,0,0,0-.1.77V284h-1.49Z"/><path d="M168.14,271.3v10.49c0,.71,0,1.62.07,2.19h-1.34l-.08-1.38h0a2.84,2.84,0,0,1-2.62,1.57c-1.92,0-3.37-1.73-3.37-4.44,0-3,1.64-4.63,3.52-4.63a2.51,2.51,0,0,1,2.32,1.23h0v-5Zm-1.52,7.45a3.63,3.63,0,0,0-.05-.65,2.08,2.08,0,0,0-2-1.78c-1.49,0-2.3,1.49-2.3,3.35s.76,3.26,2.25,3.26a2.1,2.1,0,0,0,2-1.78,2.2,2.2,0,0,0,.07-.65Z"/><path d="M177.86,279.57c0,3.27-2,4.6-3.9,4.6-2.12,0-3.78-1.64-3.78-4.49s1.77-4.58,3.9-4.58S177.86,276.8,177.86,279.57Zm-6.14.07c0,1.77.85,3.36,2.3,3.36s2.29-1.6,2.29-3.39c0-1.43-.59-3.35-2.28-3.35S171.72,278.09,171.72,279.64Z"/><path d="M179.9,271.3h1.51V284H179.9Z"/><path d="M191.2,279.57c0,3.27-2,4.6-3.9,4.6-2.13,0-3.78-1.64-3.78-4.49s1.76-4.58,3.9-4.58S191.2,276.8,191.2,279.57Zm-6.14.07c0,1.77.85,3.36,2.3,3.36s2.29-1.6,2.29-3.39c0-1.43-.59-3.35-2.28-3.35S185.06,278.09,185.06,279.64Z"/><path d="M193.23,277.85c0-.94,0-1.81-.07-2.57h1.34l.06,1.6h.06a2.48,2.48,0,0,1,2.24-1.78,1.67,1.67,0,0,1,.4,0v1.47a2.17,2.17,0,0,0-.47,0,2.12,2.12,0,0,0-2,2,4.3,4.3,0,0,0-.06.75V284h-1.52Z"/><path d="M202.35,282.42a3.84,3.84,0,0,0,1.89.57c1,0,1.57-.54,1.57-1.28s-.39-1.15-1.46-1.63c-1.45-.62-2.16-1.44-2.15-2.47A2.58,2.58,0,0,1,205,275.1a3.89,3.89,0,0,1,2,.5l-.39,1.12a3,3,0,0,0-1.6-.47,1.2,1.2,0,0,0-1.35,1.17c0,.68.43,1,1.49,1.49,1.35.58,2.13,1.35,2.14,2.63,0,1.6-1.2,2.61-3.07,2.61a4.28,4.28,0,0,1-2.23-.58Z"/><path d="M211,272.88a.94.94,0,1,1-.93-1A.9.9,0,0,1,211,272.88ZM209.31,284v-8.7h1.52V284Z"/><path d="M215.27,272.83v2.45h2.1v1.15h-2.1v4.84c0,1.1.34,1.62,1.11,1.62a2.72,2.72,0,0,0,.81-.1l.07,1.17a3.8,3.8,0,0,1-1.3.19,2,2,0,0,1-1.6-.63,3.25,3.25,0,0,1-.59-2.24v-4.85h-1.26v-1.15h1.26v-2Z"/><path d="M227.28,284l-.13-1h-.05a2.81,2.81,0,0,1-2.38,1.23,2.4,2.4,0,0,1-2.49-2.5c0-2.13,1.84-3.23,4.78-3.22v-.21c0-.85-.23-2-1.8-2a3.71,3.71,0,0,0-2,.59l-.34-1a5,5,0,0,1,2.62-.7c2.38,0,3.06,1.61,3.06,3.42v3.42a14.27,14.27,0,0,0,.12,2Zm-.24-4.46c-1.41,0-3.29.23-3.29,2a1.34,1.34,0,0,0,1.36,1.52,1.91,1.91,0,0,0,1.87-1.41,1.79,1.79,0,0,0,.06-.5Z"/><path d="M231.09,277.6c0-1,0-1.61-.07-2.32h1.33l.08,1.3h0A2.74,2.74,0,0,1,235,275.1a2.31,2.31,0,0,1,2.26,1.62h0a3.35,3.35,0,0,1,.94-1.1,2.78,2.78,0,0,1,1.71-.52c1.16,0,2.64.78,2.64,3.56V284h-1.5V278.9c0-1.52-.48-2.55-1.68-2.55a1.88,1.88,0,0,0-1.71,1.39,3.22,3.22,0,0,0-.1.79V284h-1.5v-5.37c0-1.26-.48-2.26-1.62-2.26a1.94,1.94,0,0,0-1.77,1.53,2.7,2.7,0,0,0-.11.77V284h-1.49Z"/><path d="M246,279.87c0,2.3,1.29,3.08,2.71,3.08a4.92,4.92,0,0,0,2.12-.41l.26,1.09a6.09,6.09,0,0,1-2.61.52c-2.5,0-4-1.76-4-4.39s1.45-4.66,3.75-4.66c2.52,0,3.26,2.3,3.26,4a4.67,4.67,0,0,1-.05.76Zm4.07-1.11c0-1.22-.48-2.55-1.92-2.55s-2,1.42-2.13,2.55Z"/><path d="M255.43,272.83v2.45h2.09v1.15h-2.09v4.84c0,1.1.34,1.62,1.11,1.62a2.77,2.77,0,0,0,.81-.1l.07,1.17a3.8,3.8,0,0,1-1.3.19,2,2,0,0,1-1.6-.63,3.2,3.2,0,0,1-.59-2.24v-4.85h-1.26v-1.15h1.26v-2Z"/><path d="M258.3,286.22a27.05,27.05,0,0,0,1.06-4.28l1.71-.18a22.26,22.26,0,0,1-1.71,4.34Z"/><path d="M71,305.3a5,5,0,0,1-2.18.45c-2.41,0-4-1.71-4-4.44s1.66-4.61,4.31-4.61a4.27,4.27,0,0,1,1.91.41l-.33,1.19a3.36,3.36,0,0,0-1.59-.37c-1.81,0-2.76,1.55-2.76,3.32,0,2,1.15,3.26,2.74,3.26a3.93,3.93,0,0,0,1.66-.36Z"/><path d="M79.87,301.17c0,3.27-2,4.6-3.9,4.6-2.13,0-3.78-1.63-3.78-4.49s1.76-4.58,3.9-4.58S79.87,298.4,79.87,301.17Zm-6.14.07c0,1.77.85,3.36,2.3,3.36s2.29-1.6,2.29-3.39c0-1.43-.59-3.35-2.28-3.35S73.73,299.69,73.73,301.24Z"/><path d="M81.91,299.2c0-.94,0-1.61-.08-2.32h1.35l.08,1.31h0a2.9,2.9,0,0,1,2.61-1.49c1.2,0,2.79.77,2.79,3.49v5.4H87.18v-5.2c0-1.3-.43-2.43-1.77-2.43a2,2,0,0,0-1.89,1.56,2.72,2.72,0,0,0-.1.75v5.32H81.91Z"/><path d="M91,304a3.81,3.81,0,0,0,1.89.57c1,0,1.57-.54,1.57-1.28s-.4-1.15-1.47-1.63c-1.44-.62-2.15-1.44-2.15-2.47a2.59,2.59,0,0,1,2.84-2.51,3.82,3.82,0,0,1,2,.5l-.38,1.12a3,3,0,0,0-1.6-.47A1.2,1.2,0,0,0,92.34,299c0,.68.43,1,1.48,1.49,1.36.58,2.14,1.35,2.14,2.63,0,1.6-1.19,2.61-3.06,2.61a4.28,4.28,0,0,1-2.23-.58Z"/><path d="M98.91,301.47c0,2.3,1.29,3.08,2.7,3.08a5.15,5.15,0,0,0,2.13-.4l.26,1.08a6.12,6.12,0,0,1-2.61.52c-2.5,0-4-1.76-4-4.39s1.45-4.66,3.75-4.66c2.52,0,3.25,2.3,3.25,4a4.92,4.92,0,0,1,0,.76Zm4.07-1.11c0-1.22-.48-2.55-1.92-2.55s-2,1.42-2.13,2.55Z"/><path d="M112.08,305.3a5,5,0,0,1-2.18.45c-2.41,0-4-1.71-4-4.44s1.66-4.61,4.31-4.61a4.34,4.34,0,0,1,1.91.41l-.33,1.19a3.41,3.41,0,0,0-1.6-.37c-1.8,0-2.75,1.55-2.75,3.32,0,2,1.14,3.26,2.74,3.26a3.93,3.93,0,0,0,1.66-.36Z"/><path d="M116,294.43v2.45h2.1V298H116v4.84c0,1.1.34,1.62,1.11,1.62a2.72,2.72,0,0,0,.81-.1l.07,1.17a3.8,3.8,0,0,1-1.3.19,2,2,0,0,1-1.6-.63,3.24,3.24,0,0,1-.59-2.24V298h-1.26v-1.15h1.26v-2.05Z"/><path d="M120.67,301.47c0,2.3,1.29,3.08,2.71,3.08a5.1,5.1,0,0,0,2.12-.4l.26,1.08a6.09,6.09,0,0,1-2.61.52c-2.5,0-4-1.76-4-4.39s1.45-4.66,3.75-4.66c2.52,0,3.26,2.3,3.26,4a4.67,4.67,0,0,1,0,.76Zm4.07-1.11c0-1.22-.48-2.55-1.92-2.55s-2,1.42-2.13,2.55Z"/><path d="M130.06,294.43v2.45h2.09V298h-2.09v4.84c0,1.1.34,1.62,1.11,1.62a2.72,2.72,0,0,0,.81-.1l.07,1.17a3.8,3.8,0,0,1-1.3.19,2,2,0,0,1-1.6-.63,3.24,3.24,0,0,1-.59-2.24V298H127.3v-1.15h1.26v-2.05Z"/><path d="M140.61,303.2c0,.93,0,1.71.07,2.39h-1.34l-.09-1.28h0a3,3,0,0,1-2.58,1.46c-1.41,0-2.73-.89-2.73-3.68v-5.21h1.51v5c0,1.57.43,2.66,1.72,2.66a2,2,0,0,0,1.84-1.36,2.82,2.82,0,0,0,.12-.81v-5.45h1.52Z"/><path d="M144.13,301.47c0,2.3,1.29,3.08,2.7,3.08a5.1,5.1,0,0,0,2.12-.4l.27,1.08a6.18,6.18,0,0,1-2.62.52c-2.49,0-3.95-1.76-3.95-4.39s1.45-4.66,3.75-4.66c2.53,0,3.26,2.3,3.26,4a4.67,4.67,0,0,1,0,.76Zm4.06-1.11c0-1.22-.47-2.55-1.91-2.55s-2,1.42-2.14,2.55Z"/><path d="M151.67,299.45c0-.94,0-1.81-.07-2.57h1.34l.06,1.6h.06a2.47,2.47,0,0,1,2.24-1.78,2.41,2.41,0,0,1,.4,0v1.47a2.17,2.17,0,0,0-.47,0,2.12,2.12,0,0,0-2,2,4.3,4.3,0,0,0-.06.75v4.71h-1.52Z"/><path d="M165.43,305.59l-.13-1h0a2.83,2.83,0,0,1-2.39,1.23,2.39,2.39,0,0,1-2.48-2.5c0-2.13,1.83-3.23,4.78-3.22v-.21c0-.85-.23-2-1.81-2a3.71,3.71,0,0,0-2,.59l-.34-1a5,5,0,0,1,2.62-.7c2.39,0,3.07,1.61,3.07,3.42v3.42a13.15,13.15,0,0,0,.12,2Zm-.23-4.47c-1.42,0-3.3.23-3.3,2a1.34,1.34,0,0,0,1.36,1.52,1.91,1.91,0,0,0,1.87-1.41,1.82,1.82,0,0,0,.07-.5Z"/><path d="M176.08,292.9v10.49c0,.71,0,1.62.07,2.2h-1.34l-.09-1.39h0a2.85,2.85,0,0,1-2.62,1.57c-1.92,0-3.38-1.73-3.38-4.44,0-3,1.65-4.63,3.53-4.63a2.51,2.51,0,0,1,2.32,1.23h0v-5Zm-1.52,7.45a3.63,3.63,0,0,0-.05-.65,2.1,2.1,0,0,0-2-1.78c-1.5,0-2.3,1.49-2.3,3.35s.76,3.26,2.25,3.26a2.11,2.11,0,0,0,2-1.78,2.59,2.59,0,0,0,.07-.65Z"/><path d="M180.36,294.48a.93.93,0,1,1-.93-1A.91.91,0,0,1,180.36,294.48Zm-1.69,11.11v-8.71h1.52v8.71Z"/><path d="M182.79,299.68c0-1.18,0-2-.07-2.8h1.36l.08,1.37h0a3,3,0,0,1,2.71-1.55c1.93,0,3.35,1.72,3.35,4.43,0,3.17-1.75,4.64-3.58,4.64a2.64,2.64,0,0,1-2.34-1.26h0v4.61h-1.51Zm1.51,2.47a2.78,2.78,0,0,0,.07.66,2.11,2.11,0,0,0,2,1.74c1.52,0,2.31-1.44,2.31-3.36,0-1.76-.77-3.26-2.27-3.26a2.24,2.24,0,0,0-2.06,1.84,2.91,2.91,0,0,0-.09.65Z"/><path d="M194,294.48a.94.94,0,1,1-.93-1A.91.91,0,0,1,194,294.48Zm-1.69,11.11v-8.71h1.52v8.71Z"/><path d="M196.19,304a3.85,3.85,0,0,0,1.9.57c1,0,1.57-.54,1.57-1.28s-.4-1.15-1.47-1.63c-1.44-.62-2.15-1.44-2.15-2.47a2.58,2.58,0,0,1,2.83-2.51,3.86,3.86,0,0,1,2,.5l-.39,1.12a3,3,0,0,0-1.59-.47A1.2,1.2,0,0,0,197.5,299c0,.68.42,1,1.48,1.49,1.35.58,2.14,1.35,2.14,2.63,0,1.6-1.2,2.61-3.07,2.61a4.31,4.31,0,0,1-2.23-.58Z"/><path d="M208.77,305.3a5,5,0,0,1-2.18.45c-2.4,0-4-1.71-4-4.44s1.67-4.61,4.31-4.61a4.27,4.27,0,0,1,1.91.41l-.33,1.19a3.33,3.33,0,0,0-1.59-.37c-1.81,0-2.76,1.55-2.75,3.32,0,2,1.14,3.26,2.73,3.26a3.9,3.9,0,0,0,1.66-.36Z"/><path d="M212.29,294.48a.93.93,0,1,1-.93-1A.91.91,0,0,1,212.29,294.48Zm-1.69,11.11v-8.71h1.52v8.71Z"/><path d="M214.73,299.2c0-.94,0-1.61-.08-2.32H216l.08,1.31h0a2.91,2.91,0,0,1,2.62-1.49c1.19,0,2.78.77,2.78,3.49v5.4H220v-5.2c0-1.3-.43-2.43-1.77-2.43a2,2,0,0,0-1.89,1.56,2.72,2.72,0,0,0-.1.75v5.32h-1.51Z"/><path d="M231,296.88c0,.61-.08,1.34-.08,2.48v5c0,2.1-.37,3.21-1.13,3.93a4.14,4.14,0,0,1-2.91,1,5.22,5.22,0,0,1-2.61-.63l.37-1.18a4.46,4.46,0,0,0,2.28.6c1.46,0,2.5-.8,2.5-2.93v-1h0a2.66,2.66,0,0,1-2.43,1.35c-2,0-3.37-1.82-3.37-4.27,0-3,1.78-4.59,3.58-4.59a2.53,2.53,0,0,1,2.38,1.38h0l.07-1.2Zm-1.59,3.29a2.44,2.44,0,0,0-.08-.68,2,2,0,0,0-1.94-1.58c-1.36,0-2.28,1.3-2.28,3.3s.83,3.16,2.27,3.16a2,2,0,0,0,1.91-1.51,2.61,2.61,0,0,0,.12-.83Z"/><path d="M238.09,301.47c0,2.3,1.29,3.08,2.7,3.08a5.1,5.1,0,0,0,2.12-.4l.26,1.08a6.09,6.09,0,0,1-2.61.52c-2.49,0-3.95-1.76-3.95-4.39s1.45-4.66,3.75-4.66c2.53,0,3.26,2.3,3.26,4a4.67,4.67,0,0,1-.05.76Zm4.06-1.11c0-1.22-.47-2.55-1.91-2.55s-2,1.42-2.14,2.55Z"/><path d="M245.63,292.9h1.52v12.69h-1.52Z"/><path d="M251.5,294.48a.94.94,0,1,1-.93-1A.91.91,0,0,1,251.5,294.48Zm-1.69,11.11v-8.71h1.52v8.71Z"/><path d="M255.77,294.43v2.45h2.09V298h-2.09v4.84c0,1.1.34,1.62,1.11,1.62a2.72,2.72,0,0,0,.81-.1l.07,1.17a3.8,3.8,0,0,1-1.3.19,2,2,0,0,1-1.6-.63,3.24,3.24,0,0,1-.59-2.24V298H253v-1.15h1.26v-2.05Z"/><path d="M258.64,307.82a27.05,27.05,0,0,0,1.06-4.28l1.71-.18a22.26,22.26,0,0,1-1.71,4.34Z"/><path d="M65.17,325.62a3.85,3.85,0,0,0,1.9.57c1,0,1.57-.54,1.57-1.28s-.4-1.15-1.47-1.63c-1.44-.62-2.15-1.44-2.15-2.47a2.58,2.58,0,0,1,2.83-2.51,3.86,3.86,0,0,1,2,.5l-.39,1.12a3,3,0,0,0-1.6-.47,1.2,1.2,0,0,0-1.34,1.17c0,.68.42,1,1.48,1.49,1.35.58,2.14,1.35,2.14,2.63,0,1.6-1.2,2.61-3.07,2.61a4.28,4.28,0,0,1-2.23-.58Z"/><path d="M73.05,323.07c0,2.3,1.29,3.08,2.7,3.08a4.92,4.92,0,0,0,2.12-.41l.26,1.09a6.09,6.09,0,0,1-2.61.52c-2.49,0-4-1.76-4-4.39s1.45-4.66,3.75-4.66c2.53,0,3.26,2.3,3.26,4a4.67,4.67,0,0,1,0,.76ZM77.11,322c0-1.22-.47-2.55-1.91-2.55s-2,1.42-2.14,2.55Z"/><path d="M87.43,314.5V325c0,.71,0,1.62.07,2.2H86.16l-.09-1.39h0a2.85,2.85,0,0,1-2.62,1.57c-1.92,0-3.38-1.73-3.38-4.44,0-3,1.65-4.63,3.53-4.63a2.51,2.51,0,0,1,2.32,1.23h0v-5ZM85.91,322a3.63,3.63,0,0,0,0-.65,2.1,2.1,0,0,0-2-1.78c-1.5,0-2.3,1.49-2.3,3.35s.76,3.26,2.25,3.26a2.11,2.11,0,0,0,2-1.78,2.2,2.2,0,0,0,.07-.65Z"/><path d="M100.57,314.5V325c0,.71,0,1.62.07,2.2H99.3l-.09-1.39h0a2.85,2.85,0,0,1-2.62,1.57c-1.92,0-3.38-1.73-3.38-4.44,0-3,1.65-4.63,3.53-4.63A2.51,2.51,0,0,1,99,319.53h0v-5ZM99.05,322a3.63,3.63,0,0,0,0-.65,2.1,2.1,0,0,0-2-1.78c-1.5,0-2.3,1.49-2.3,3.35s.76,3.26,2.25,3.26a2.11,2.11,0,0,0,2-1.78,2.59,2.59,0,0,0,.07-.65Z"/><path d="M104.86,316.08a.92.92,0,0,1-1,1,.91.91,0,0,1-.91-1,.94.94,0,1,1,1.87,0Zm-1.69,11.11v-8.71h1.51v8.71Z"/><path d="M111.7,327.19l-.12-1.05h0a2.83,2.83,0,0,1-2.39,1.23,2.39,2.39,0,0,1-2.48-2.5c0-2.13,1.83-3.23,4.78-3.22v-.21c0-.85-.23-2-1.81-2a3.71,3.71,0,0,0-2,.59l-.34-1a5,5,0,0,1,2.62-.7c2.39,0,3.07,1.61,3.07,3.42v3.42a13.15,13.15,0,0,0,.12,2.05Zm-.23-4.47c-1.42,0-3.29.23-3.29,2a1.34,1.34,0,0,0,1.35,1.52,1.89,1.89,0,0,0,1.87-1.41,1.82,1.82,0,0,0,.07-.5Z"/><path d="M115.51,320.8c0-.95,0-1.61-.07-2.32h1.33l.08,1.3h0a2.75,2.75,0,0,1,2.51-1.48,2.33,2.33,0,0,1,2.27,1.62h0a3.37,3.37,0,0,1,1-1.1,2.73,2.73,0,0,1,1.7-.52c1.17,0,2.64.78,2.64,3.56v5.33H125.5V322.1c0-1.52-.49-2.55-1.69-2.55a1.86,1.86,0,0,0-1.7,1.39,2.79,2.79,0,0,0-.11.79v5.46h-1.49v-5.38c0-1.25-.48-2.26-1.63-2.26a2,2,0,0,0-1.77,1.53,2.71,2.71,0,0,0-.1.77v5.34h-1.5Z"/><path d="M133.26,320.8c0-.95,0-1.61-.07-2.32h1.34l.08,1.31h0a2.9,2.9,0,0,1,2.61-1.49c1.2,0,2.78.77,2.78,3.49v5.4h-1.52V322c0-1.3-.43-2.43-1.77-2.43a2,2,0,0,0-1.88,1.56,2.72,2.72,0,0,0-.1.75v5.32h-1.52Z"/><path d="M149.74,322.77c0,3.27-2,4.6-3.9,4.6-2.12,0-3.78-1.64-3.78-4.49s1.77-4.58,3.91-4.58S149.74,320,149.74,322.77Zm-6.13.07c0,1.77.84,3.36,2.3,3.36s2.29-1.6,2.29-3.39c0-1.43-.6-3.35-2.28-3.35S143.61,321.29,143.61,322.84Z"/><path d="M151.78,320.8c0-.95,0-1.61-.07-2.32h1.34l.09,1.31h0a2.9,2.9,0,0,1,2.61-1.49c1.2,0,2.78.77,2.78,3.49v5.4h-1.51V322c0-1.3-.44-2.43-1.78-2.43a2,2,0,0,0-1.88,1.56,2.72,2.72,0,0,0-.1.75v5.32h-1.52Z"/><path d="M167.81,324.8c0,.93,0,1.71.07,2.39h-1.34l-.09-1.28h0a3,3,0,0,1-2.58,1.46c-1.41,0-2.74-.89-2.74-3.68v-5.21h1.52v5c0,1.57.43,2.66,1.71,2.66a2,2,0,0,0,1.85-1.36,2.82,2.82,0,0,0,.12-.81v-5.45h1.52Z"/><path d="M170.41,320.8c0-.95,0-1.61-.07-2.32h1.33l.08,1.3h0a2.75,2.75,0,0,1,2.51-1.48,2.33,2.33,0,0,1,2.27,1.62h0a3.37,3.37,0,0,1,1-1.1,2.73,2.73,0,0,1,1.7-.52c1.17,0,2.64.78,2.64,3.56v5.33H180.4V322.1c0-1.52-.49-2.55-1.69-2.55a1.86,1.86,0,0,0-1.7,1.39,2.79,2.79,0,0,0-.11.79v5.46h-1.5v-5.38c0-1.25-.48-2.26-1.62-2.26a2,2,0,0,0-1.77,1.53,2.71,2.71,0,0,0-.1.77v5.34h-1.5Z"/><path d="M184.45,320.8c0-.95,0-1.61-.07-2.32h1.33l.08,1.3h0a2.75,2.75,0,0,1,2.51-1.48,2.33,2.33,0,0,1,2.27,1.62h0a3.25,3.25,0,0,1,1-1.1,2.73,2.73,0,0,1,1.7-.52c1.17,0,2.64.78,2.64,3.56v5.33h-1.5V322.1c0-1.52-.48-2.55-1.68-2.55a1.86,1.86,0,0,0-1.7,1.39,2.79,2.79,0,0,0-.11.79v5.46h-1.5v-5.38c0-1.25-.48-2.26-1.62-2.26a1.94,1.94,0,0,0-1.77,1.53,2.71,2.71,0,0,0-.1.77v5.34h-1.5Z"/><path d="M198.89,318.48l1.68,5.1c.19.61.37,1.26.5,1.78h0c.14-.5.32-1.17.5-1.8l1.52-5.08h1.59l-2.1,6c-1,2.75-1.67,4.45-2.73,5.51a4.48,4.48,0,0,1-1.83,1.1l-.43-1.28A4.1,4.1,0,0,0,199,329a5.34,5.34,0,0,0,1.16-1.67,1,1,0,0,0,.12-.4.88.88,0,0,0-.1-.38l-2.9-8Z"/><path d="M210,320.8c0-.95,0-1.61-.07-2.32h1.35l.08,1.31h0A2.9,2.9,0,0,1,214,318.3c1.2,0,2.78.77,2.78,3.49v5.4h-1.51V322c0-1.3-.43-2.43-1.78-2.43a2,2,0,0,0-1.88,1.56,2.72,2.72,0,0,0-.1.75v5.32H210Z"/><path d="M221,316.08a.93.93,0,1,1-.93-1A.9.9,0,0,1,221,316.08Zm-1.69,11.11v-8.71h1.52v8.71Z"/><path d="M223.38,327.19c0-.57.07-1.49.07-2.2V314.5H225v5.26h0a2.84,2.84,0,0,1,2.63-1.46c1.92,0,3.3,1.72,3.29,4.42,0,3.13-1.77,4.65-3.54,4.65a2.74,2.74,0,0,1-2.56-1.53h0l-.08,1.35Zm1.59-3.37a2.47,2.47,0,0,0,.06.56,2.13,2.13,0,0,0,2.05,1.76c1.5,0,2.3-1.4,2.3-3.36,0-1.75-.75-3.26-2.27-3.26a2.26,2.26,0,0,0-2.07,1.83,3.14,3.14,0,0,0-.07.64Z"/><path d="M233,314.5h1.52v5.21h0a2.9,2.9,0,0,1,1-1,2.87,2.87,0,0,1,1.48-.4c1.16,0,2.74.76,2.74,3.52v5.37h-1.52V322c0-1.3-.44-2.43-1.76-2.43a2,2,0,0,0-1.9,1.52,2.4,2.4,0,0,0-.09.73v5.38H233Z"/><path d="M246.94,323.07c0,2.3,1.29,3.08,2.71,3.08a4.92,4.92,0,0,0,2.12-.41l.26,1.09a6.09,6.09,0,0,1-2.61.52c-2.5,0-3.95-1.76-3.95-4.39s1.45-4.66,3.75-4.66c2.52,0,3.26,2.3,3.26,4a4.67,4.67,0,0,1,0,.76ZM251,322c0-1.22-.48-2.55-1.92-2.55s-2,1.42-2.13,2.55Z"/><path d="M261.15,324.8c0,.93,0,1.71.08,2.39h-1.35l-.08-1.28h-.05a3,3,0,0,1-2.57,1.46c-1.41,0-2.74-.89-2.74-3.68v-5.21H256v5c0,1.57.43,2.66,1.71,2.66a2,2,0,0,0,1.84-1.36,2.5,2.5,0,0,0,.13-.81v-5.45h1.51Z"/><path d="M267.38,321.8v1.13h-4.29V321.8Z"/><path d="M67.09,337.68a.94.94,0,1,1-.93-1A.9.9,0,0,1,67.09,337.68Zm-1.69,11.1v-8.7h1.52v8.7Z"/><path d="M69.29,347.22a3.88,3.88,0,0,0,1.9.57c1,0,1.57-.54,1.57-1.28s-.4-1.15-1.47-1.63c-1.44-.62-2.15-1.44-2.15-2.47A2.58,2.58,0,0,1,72,339.9a3.86,3.86,0,0,1,2,.5l-.39,1.12a3,3,0,0,0-1.59-.47,1.2,1.2,0,0,0-1.35,1.17c0,.68.42,1,1.48,1.49,1.35.58,2.14,1.35,2.14,2.63,0,1.6-1.2,2.61-3.07,2.61a4.33,4.33,0,0,1-2.23-.58Z"/><path d="M76.25,342.4c0-.95,0-1.61-.07-2.32h1.33l.08,1.3h0a2.75,2.75,0,0,1,2.51-1.48,2.33,2.33,0,0,1,2.27,1.62h0a3.23,3.23,0,0,1,.94-1.1,2.73,2.73,0,0,1,1.7-.52c1.17,0,2.64.78,2.64,3.56v5.32H86.24V343.7c0-1.52-.49-2.55-1.69-2.55a1.86,1.86,0,0,0-1.7,1.39,2.79,2.79,0,0,0-.11.79v5.45H81.25v-5.37c0-1.26-.48-2.26-1.63-2.26a2,2,0,0,0-1.77,1.53,2.71,2.71,0,0,0-.1.77v5.33h-1.5Z"/><path d="M97.42,344.37c0,3.27-2,4.6-3.9,4.6-2.13,0-3.78-1.64-3.78-4.49s1.76-4.58,3.9-4.58S97.42,341.6,97.42,344.37Zm-6.14.07c0,1.77.85,3.36,2.3,3.36s2.29-1.6,2.29-3.39c0-1.43-.59-3.35-2.28-3.35S91.28,342.89,91.28,344.44Z"/><path d="M106.31,336.1v10.49c0,.71,0,1.62.07,2.19H105L105,347.4h0a2.85,2.85,0,0,1-2.62,1.57c-1.92,0-3.38-1.73-3.38-4.44,0-3,1.65-4.63,3.53-4.63a2.51,2.51,0,0,1,2.32,1.23h0v-5Zm-1.52,7.45a3.56,3.56,0,0,0-.05-.65,2.1,2.1,0,0,0-2-1.78c-1.5,0-2.3,1.49-2.3,3.35s.76,3.26,2.25,3.26a2.11,2.11,0,0,0,2-1.78,2.59,2.59,0,0,0,.07-.65Z"/><path d="M114.45,337.63v2.45h2.1v1.15h-2.1v4.84c0,1.1.34,1.62,1.11,1.62a2.72,2.72,0,0,0,.81-.1l.07,1.17a3.8,3.8,0,0,1-1.3.19,2,2,0,0,1-1.6-.63,3.25,3.25,0,0,1-.59-2.24v-4.85h-1.26v-1.15H113V338Z"/><path d="M120,337.68a.92.92,0,0,1-1,1,.91.91,0,0,1-.91-1,.94.94,0,1,1,1.87,0Zm-1.69,11.1v-8.7h1.51v8.7Z"/><path d="M122.46,342.4c0-.95,0-1.61-.07-2.32h1.34l.08,1.31h0a2.92,2.92,0,0,1,2.62-1.49c1.2,0,2.78.77,2.78,3.49v5.39h-1.52v-5.19c0-1.3-.43-2.44-1.77-2.44a2,2,0,0,0-1.89,1.57,2.75,2.75,0,0,0-.09.75v5.31h-1.52Z"/><path d="M137.44,348.5a5,5,0,0,1-2.18.45c-2.41,0-4-1.71-4-4.44s1.66-4.61,4.31-4.61a4.34,4.34,0,0,1,1.91.41l-.33,1.19a3.41,3.41,0,0,0-1.6-.37c-1.8,0-2.75,1.54-2.75,3.32,0,2,1.14,3.26,2.74,3.26a3.93,3.93,0,0,0,1.66-.36Z"/><path d="M141,337.68a.94.94,0,1,1-.93-1A.9.9,0,0,1,141,337.68Zm-1.69,11.1v-8.7h1.52v8.7Z"/><path d="M150.23,336.1v10.49c0,.71,0,1.62.07,2.19H149l-.09-1.38h-.05a2.82,2.82,0,0,1-2.61,1.57c-1.92,0-3.38-1.73-3.38-4.44,0-3,1.65-4.63,3.53-4.63a2.51,2.51,0,0,1,2.32,1.23h0v-5Zm-1.52,7.45a3.56,3.56,0,0,0-.05-.65,2.1,2.1,0,0,0-2-1.78c-1.5,0-2.3,1.49-2.3,3.35s.76,3.26,2.25,3.26a2.11,2.11,0,0,0,2-1.78,2.59,2.59,0,0,0,.07-.65Z"/><path d="M159.49,346.4c0,.93,0,1.71.07,2.38h-1.34l-.09-1.27h0a3,3,0,0,1-2.58,1.46c-1.41,0-2.74-.89-2.74-3.68v-5.21h1.52v5c0,1.57.43,2.66,1.71,2.66a2,2,0,0,0,1.85-1.36,2.82,2.82,0,0,0,.12-.81v-5.45h1.52Z"/><path d="M162.09,342.4c0-.95,0-1.61-.07-2.32h1.34l.09,1.31h0a2.9,2.9,0,0,1,2.61-1.49c1.2,0,2.78.77,2.78,3.49v5.39h-1.52v-5.19c0-1.3-.43-2.44-1.77-2.44a2,2,0,0,0-1.88,1.57,2.72,2.72,0,0,0-.1.75v5.31h-1.52Z"/><path d="M173.22,337.63v2.45h2.1v1.15h-2.1v4.84c0,1.1.34,1.62,1.11,1.62a2.72,2.72,0,0,0,.81-.1l.07,1.17a3.8,3.8,0,0,1-1.3.19,2,2,0,0,1-1.6-.63,3.25,3.25,0,0,1-.59-2.24v-4.85h-1.26v-1.15h1.26V338Z"/><path d="M187.48,346.4c0,.93,0,1.71.07,2.38h-1.34l-.09-1.27h0A3,3,0,0,1,183.5,349c-1.41,0-2.74-.89-2.74-3.68v-5.21h1.52v5c0,1.57.43,2.66,1.71,2.66a2,2,0,0,0,1.85-1.36,2.82,2.82,0,0,0,.12-.81v-5.45h1.52Z"/><path d="M191.92,337.63v2.45H194v1.15h-2.1v4.84c0,1.1.34,1.62,1.11,1.62a2.72,2.72,0,0,0,.81-.1l.07,1.17a3.8,3.8,0,0,1-1.3.19,2,2,0,0,1-1.6-.63,3.25,3.25,0,0,1-.59-2.24v-4.85h-1.26v-1.15h1.26V338Z"/><path d="M199.52,336.1H201v12.68h-1.51Z"/><path d="M208.11,348.78l-.13-1h0a2.83,2.83,0,0,1-2.39,1.23,2.39,2.39,0,0,1-2.48-2.5c0-2.13,1.83-3.23,4.78-3.22V343c0-.85-.23-2-1.81-2a3.74,3.74,0,0,0-2,.59l-.34-1a5.08,5.08,0,0,1,2.63-.7c2.38,0,3.06,1.61,3.06,3.42v3.41a14.32,14.32,0,0,0,.12,2Zm-.24-4.46c-1.41,0-3.29.23-3.29,2a1.34,1.34,0,0,0,1.36,1.52,1.91,1.91,0,0,0,1.87-1.41,2.27,2.27,0,0,0,.06-.5Z"/><path d="M219,344.37c0,3.27-2,4.6-3.9,4.6-2.12,0-3.78-1.64-3.78-4.49s1.77-4.58,3.9-4.58S219,341.6,219,344.37Zm-6.13.07c0,1.77.84,3.36,2.29,3.36s2.29-1.6,2.29-3.39c0-1.43-.59-3.35-2.28-3.35S212.91,342.89,212.91,344.44Z"/><path d="M221.07,342.65c0-.94,0-1.81-.07-2.57h1.34l.07,1.6h.05a2.48,2.48,0,0,1,2.24-1.78,1.67,1.67,0,0,1,.4,0v1.47a2,2,0,0,0-2.45,1.93,4.3,4.3,0,0,0-.06.75v4.7h-1.52Z"/><path d="M227.43,344.67c0,2.3,1.29,3.08,2.7,3.08a4.89,4.89,0,0,0,2.12-.41l.27,1.09a6.18,6.18,0,0,1-2.62.52c-2.49,0-3.94-1.76-3.94-4.39s1.44-4.66,3.74-4.66c2.53,0,3.26,2.3,3.26,4a5,5,0,0,1,0,.76Zm4.06-1.11c0-1.22-.47-2.55-1.91-2.55s-2,1.42-2.13,2.55Z"/><path d="M235.89,344.67c0,2.3,1.29,3.08,2.7,3.08a4.89,4.89,0,0,0,2.12-.41l.27,1.09a6.16,6.16,0,0,1-2.61.52c-2.5,0-4-1.76-4-4.39s1.44-4.66,3.75-4.66c2.52,0,3.25,2.3,3.25,4a5,5,0,0,1,0,.76Zm4.06-1.11c0-1.22-.47-2.55-1.91-2.55s-2,1.42-2.13,2.55Z"/><path d="M245.28,337.63v2.45h2.09v1.15h-2.09v4.84c0,1.1.34,1.62,1.11,1.62a2.82,2.82,0,0,0,.81-.1l.07,1.17a3.84,3.84,0,0,1-1.3.19,2.05,2.05,0,0,1-1.61-.63,3.26,3.26,0,0,1-.58-2.24v-4.85h-1.27v-1.15h1.27V338Z"/><path d="M72.24,357.7v10.49c0,.71,0,1.62.07,2.2H71L70.88,369h0a2.82,2.82,0,0,1-2.61,1.57c-1.92,0-3.38-1.73-3.38-4.44,0-3,1.65-4.63,3.53-4.63a2.51,2.51,0,0,1,2.32,1.23h0v-5Zm-1.52,7.45a3.63,3.63,0,0,0,0-.65,2.1,2.1,0,0,0-2-1.78c-1.5,0-2.3,1.49-2.3,3.35s.76,3.26,2.25,3.26a2.11,2.11,0,0,0,2-1.78,2.59,2.59,0,0,0,.07-.65Z"/><path d="M82,366c0,3.27-2,4.6-3.9,4.6-2.12,0-3.78-1.63-3.78-4.49s1.77-4.58,3.91-4.58S82,363.2,82,366Zm-6.13.07c0,1.77.84,3.36,2.3,3.36s2.29-1.6,2.29-3.39c0-1.43-.59-3.35-2.28-3.35S75.82,364.49,75.82,366Z"/><path d="M84,357.7h1.52v12.69H84Z"/><path d="M95.29,366c0,3.27-2,4.6-3.9,4.6-2.12,0-3.78-1.63-3.78-4.49s1.77-4.58,3.91-4.58S95.29,363.2,95.29,366Zm-6.13.07c0,1.77.84,3.36,2.3,3.36s2.29-1.6,2.29-3.39c0-1.43-.6-3.35-2.28-3.35S89.16,364.49,89.16,366Z"/><path d="M97.33,364.25c0-.94,0-1.81-.08-2.57H98.6l.06,1.6h0A2.49,2.49,0,0,1,101,361.5a2.29,2.29,0,0,1,.39,0V363a2,2,0,0,0-.46,0,2.13,2.13,0,0,0-2,2,4.3,4.3,0,0,0-.06.75v4.71H97.33Z"/><path d="M103.68,366.27c0,2.3,1.29,3.08,2.71,3.08a5,5,0,0,0,2.12-.41l.26,1.09a6.09,6.09,0,0,1-2.61.52c-2.5,0-4-1.76-4-4.39s1.45-4.66,3.75-4.66c2.52,0,3.26,2.3,3.26,4a4.67,4.67,0,0,1,0,.76Zm4.07-1.11c0-1.22-.48-2.55-1.92-2.55s-2,1.42-2.13,2.55Z"/><path d="M114.94,364c0-.94,0-1.61-.08-2.32h1.33l.08,1.3h0a2.75,2.75,0,0,1,2.51-1.48,2.33,2.33,0,0,1,2.27,1.62h0a3.23,3.23,0,0,1,.94-1.1,2.73,2.73,0,0,1,1.7-.52c1.17,0,2.64.78,2.64,3.56v5.33h-1.49V365.3c0-1.52-.49-2.55-1.69-2.55a1.86,1.86,0,0,0-1.7,1.39,2.79,2.79,0,0,0-.11.79v5.46h-1.49V365c0-1.25-.48-2.26-1.63-2.26a2,2,0,0,0-1.77,1.53,3.12,3.12,0,0,0-.1.77v5.34h-1.49Z"/><path d="M133.39,370.39l-.13-1.05h0a2.83,2.83,0,0,1-2.39,1.23,2.39,2.39,0,0,1-2.48-2.5c0-2.13,1.83-3.23,4.78-3.22v-.21c0-.85-.23-2-1.81-2a3.71,3.71,0,0,0-2,.59l-.34-1a5,5,0,0,1,2.62-.7c2.39,0,3.07,1.61,3.07,3.42v3.42a13.15,13.15,0,0,0,.12,2.05Zm-.23-4.47c-1.42,0-3.3.23-3.3,2a1.34,1.34,0,0,0,1.36,1.52,1.91,1.91,0,0,0,1.87-1.41,1.82,1.82,0,0,0,.07-.5Z"/><path d="M144.06,361.68c0,.61-.07,1.34-.07,2.48v5c0,2.1-.38,3.21-1.13,3.93a4.19,4.19,0,0,1-2.92,1,5.25,5.25,0,0,1-2.61-.63l.38-1.18a4.46,4.46,0,0,0,2.28.6c1.46,0,2.5-.8,2.5-2.93V369h0a2.67,2.67,0,0,1-2.44,1.35c-2,0-3.36-1.82-3.36-4.27,0-3,1.78-4.59,3.57-4.59a2.54,2.54,0,0,1,2.39,1.38h0l.06-1.2Zm-1.59,3.3a2.47,2.47,0,0,0-.08-.69,2,2,0,0,0-1.93-1.58c-1.36,0-2.28,1.3-2.28,3.3s.82,3.16,2.27,3.16a2,2,0,0,0,1.91-1.51,2.91,2.91,0,0,0,.11-.83Z"/><path d="M146.49,364c0-.94,0-1.61-.07-2.32h1.34l.08,1.31h0a2.93,2.93,0,0,1,2.62-1.49c1.2,0,2.78.77,2.78,3.49v5.4h-1.52v-5.2c0-1.3-.43-2.43-1.77-2.43a2,2,0,0,0-1.89,1.56,2.75,2.75,0,0,0-.09.75v5.32h-1.52Z"/><path d="M160.26,370.39l-.12-1.05h0a2.83,2.83,0,0,1-2.39,1.23,2.39,2.39,0,0,1-2.48-2.5c0-2.13,1.83-3.23,4.78-3.22v-.21c0-.85-.23-2-1.81-2a3.71,3.71,0,0,0-2,.59l-.34-1a5,5,0,0,1,2.62-.7c2.39,0,3.07,1.61,3.07,3.42v3.42a14.51,14.51,0,0,0,.12,2.05Zm-.23-4.47c-1.41,0-3.29.23-3.29,2a1.34,1.34,0,0,0,1.35,1.52A1.89,1.89,0,0,0,160,368a1.82,1.82,0,0,0,.07-.5Z"/><path d="M172.2,370.39l-.13-1.05h0a2.81,2.81,0,0,1-2.38,1.23,2.4,2.4,0,0,1-2.49-2.5c0-2.13,1.84-3.23,4.78-3.22v-.21c0-.85-.23-2-1.8-2a3.71,3.71,0,0,0-2,.59l-.34-1a5,5,0,0,1,2.62-.7c2.38,0,3.06,1.61,3.06,3.42v3.42a14.51,14.51,0,0,0,.12,2.05Zm-.24-4.47c-1.41,0-3.29.23-3.29,2a1.34,1.34,0,0,0,1.36,1.52A1.91,1.91,0,0,0,171.9,368a1.79,1.79,0,0,0,.06-.5Z"/><path d="M176,357.7h1.52v12.69H176Z"/><path d="M181.88,359.28a.92.92,0,0,1-1,1,.91.91,0,0,1-.91-1,.94.94,0,1,1,1.87,0Zm-1.69,11.11v-8.71h1.51v8.71Z"/><path d="M189.63,369.17h0a2.72,2.72,0,0,1-2.49,1.4c-1.84,0-3.34-1.69-3.34-4.41,0-3.21,1.86-4.66,3.59-4.66a2.49,2.49,0,0,1,2.36,1.4h0l.06-1.22h1.42c0,.68-.07,1.45-.07,2.49v9.75h-1.52Zm0-4.06a3.28,3.28,0,0,0-.06-.63,2.09,2.09,0,0,0-2-1.75c-1.49,0-2.31,1.43-2.31,3.34s.72,3.27,2.26,3.27a2,2,0,0,0,2-1.64,2.79,2.79,0,0,0,.11-.76Z"/><path d="M200.39,368c0,.93,0,1.71.07,2.39h-1.35l-.08-1.28h0a3,3,0,0,1-2.58,1.46c-1.41,0-2.74-.89-2.74-3.68v-5.21h1.52v5c0,1.57.43,2.66,1.71,2.66a2,2,0,0,0,1.85-1.36,2.82,2.82,0,0,0,.12-.81v-5.45h1.52Z"/><path d="M207.41,370.39l-.13-1.05h-.05a2.83,2.83,0,0,1-2.39,1.23,2.39,2.39,0,0,1-2.48-2.5c0-2.13,1.83-3.23,4.78-3.22v-.21c0-.85-.23-2-1.81-2a3.74,3.74,0,0,0-2,.59l-.34-1a5.08,5.08,0,0,1,2.63-.7c2.38,0,3.06,1.61,3.06,3.42v3.42a14.51,14.51,0,0,0,.12,2.05Zm-.24-4.47c-1.41,0-3.29.23-3.29,2a1.34,1.34,0,0,0,1.36,1.52,1.91,1.91,0,0,0,1.87-1.41,2.27,2.27,0,0,0,.06-.5Z"/><path d="M211.22,364c0-.94,0-1.61-.07-2.32h1.32l.08,1.3h0a2.77,2.77,0,0,1,2.52-1.48,2.32,2.32,0,0,1,2.26,1.62h0a3.23,3.23,0,0,1,.94-1.1,2.77,2.77,0,0,1,1.7-.52c1.17,0,2.65.78,2.65,3.56v5.33h-1.5V365.3c0-1.52-.48-2.55-1.69-2.55a1.87,1.87,0,0,0-1.7,1.39,2.79,2.79,0,0,0-.11.79v5.46h-1.49V365c0-1.25-.48-2.26-1.63-2.26a2,2,0,0,0-1.77,1.53,3.12,3.12,0,0,0-.1.77v5.34h-1.49Z"/><path d="M229.88,366.27c0,2.3,1.29,3.08,2.7,3.08a4.89,4.89,0,0,0,2.12-.41L235,370a6.16,6.16,0,0,1-2.61.52c-2.5,0-4-1.76-4-4.39s1.45-4.66,3.75-4.66c2.52,0,3.25,2.3,3.25,4a4.92,4.92,0,0,1,0,.76Zm4.07-1.11c0-1.22-.48-2.55-1.92-2.55s-2,1.42-2.13,2.55Z"/><path d="M237.42,364.25c0-.94,0-1.81-.07-2.57h1.34l.06,1.6h.06a2.48,2.48,0,0,1,2.24-1.78,2.41,2.41,0,0,1,.4,0V363a2.17,2.17,0,0,0-.47,0,2.12,2.12,0,0,0-2,2,4.3,4.3,0,0,0-.06.75v4.71h-1.52Z"/><path d="M247.38,370.39l-.12-1.05h0a2.83,2.83,0,0,1-2.39,1.23,2.39,2.39,0,0,1-2.48-2.5c0-2.13,1.83-3.23,4.78-3.22v-.21c0-.85-.23-2-1.81-2a3.71,3.71,0,0,0-2,.59l-.34-1a5,5,0,0,1,2.62-.7c2.39,0,3.07,1.61,3.07,3.42v3.42a13.15,13.15,0,0,0,.12,2.05Zm-.23-4.47c-1.41,0-3.29.23-3.29,2a1.34,1.34,0,0,0,1.35,1.52,1.89,1.89,0,0,0,1.87-1.41,1.82,1.82,0,0,0,.07-.5Z"/><path d="M252.93,359.23v2.45H255v1.15h-2.09v4.84c0,1.1.34,1.62,1.11,1.62a2.82,2.82,0,0,0,.81-.1l.07,1.17a3.8,3.8,0,0,1-1.3.19,2.08,2.08,0,0,1-1.61-.63,3.24,3.24,0,0,1-.58-2.24v-4.85h-1.27v-1.15h1.27v-2.05Z"/><path d="M66,383.28l1.52,4.88c.25.74.45,1.48.62,2.21h0c.16-.72.38-1.45.62-2.21l1.51-4.88h1.57L68.85,392H67.42l-3-8.7Z"/><path d="M80.44,387.57c0,3.27-2,4.6-3.9,4.6-2.12,0-3.78-1.64-3.78-4.49s1.77-4.58,3.91-4.58S80.44,384.8,80.44,387.57Zm-6.13.07c0,1.77.84,3.36,2.3,3.36s2.29-1.6,2.29-3.39c0-1.43-.6-3.35-2.28-3.35S74.31,386.09,74.31,387.64Z"/><path d="M82.48,379.3H84V392H82.48Z"/><path d="M93.32,389.6c0,.93,0,1.71.07,2.38H92.05L92,390.71h0a3,3,0,0,1-2.58,1.46c-1.4,0-2.73-.89-2.73-3.68v-5.21h1.52v5c0,1.57.42,2.66,1.71,2.66a2,2,0,0,0,1.84-1.36,2.8,2.8,0,0,0,.13-.81v-5.45h1.51Z"/><path d="M97.77,380.83v2.45h2.09v1.15H97.77v4.84c0,1.1.34,1.62,1.11,1.62a2.82,2.82,0,0,0,.81-.1l.07,1.17a3.8,3.8,0,0,1-1.3.19,2.06,2.06,0,0,1-1.61-.63,3.26,3.26,0,0,1-.58-2.24v-4.85H95v-1.15h1.27v-2Z"/><path d="M101.65,386.08c0-1.18,0-2-.08-2.8h1.37l.08,1.37h0a3,3,0,0,1,2.72-1.55c1.93,0,3.34,1.72,3.34,4.43,0,3.17-1.74,4.64-3.58,4.64a2.6,2.6,0,0,1-2.33-1.27h0v4.62h-1.51Zm1.51,2.46a2.81,2.81,0,0,0,.07.67,2.11,2.11,0,0,0,2,1.74c1.52,0,2.31-1.44,2.31-3.36,0-1.76-.77-3.26-2.27-3.26a2.23,2.23,0,0,0-2.06,1.84,2.91,2.91,0,0,0-.09.65Z"/><path d="M115.57,392l-.12-1h0a2.83,2.83,0,0,1-2.39,1.23,2.39,2.39,0,0,1-2.48-2.5c0-2.13,1.83-3.23,4.78-3.22v-.21c0-.85-.23-2-1.81-2a3.71,3.71,0,0,0-2,.59l-.34-1a5,5,0,0,1,2.62-.7c2.39,0,3.07,1.61,3.07,3.42v3.42a13,13,0,0,0,.12,2Zm-.23-4.46c-1.42,0-3.3.23-3.3,2A1.34,1.34,0,0,0,113.4,391a1.9,1.9,0,0,0,1.87-1.41,1.82,1.82,0,0,0,.07-.5Z"/><path d="M121.11,380.83v2.45h2.1v1.15h-2.1v4.84c0,1.1.34,1.62,1.11,1.62a2.72,2.72,0,0,0,.81-.1l.07,1.17a3.73,3.73,0,0,1-1.29.19,2.05,2.05,0,0,1-1.61-.63,3.25,3.25,0,0,1-.59-2.24v-4.85h-1.26v-1.15h1.26v-2Z"/><path d="M124.6,391.06a1,1,0,0,1,1-1.11,1.11,1.11,0,0,1,0,2.22A1,1,0,0,1,124.6,391.06Z"/><path d="M134,379.85v7.47c0,2.56,1.07,3.58,2.49,3.58s2.57-1.07,2.57-3.58v-7.47h1.52v7.33c0,3.56-1.76,5-4.15,5s-3.94-1.35-3.94-4.89v-7.43Z"/><path d="M145.11,380.83v2.45h2.09v1.15h-2.09v4.84c0,1.1.34,1.62,1.11,1.62a2.77,2.77,0,0,0,.81-.1l.07,1.17a3.8,3.8,0,0,1-1.3.19,2.08,2.08,0,0,1-1.61-.63,3.26,3.26,0,0,1-.58-2.24v-4.85h-1.27v-1.15h1.27v-2Z"/><path d="M153.35,383.28l1.06,4.37c.23,1,.45,1.88.6,2.78h.05c.18-.89.44-1.85.71-2.76l1.3-4.39h1.25l1.24,4.3c.28,1,.52,1.93.7,2.85h.05c.14-.9.36-1.81.62-2.83l1.12-4.32h1.5l-2.62,8.7h-1.35l-1.23-4.17a28.64,28.64,0,0,1-.69-2.8h0a27,27,0,0,1-.71,2.82L155.63,392h-1.37l-2.48-8.7Z"/><path d="M166.9,380.88a.94.94,0,1,1-.93-1A.9.9,0,0,1,166.9,380.88ZM165.21,392v-8.7h1.52V392Z"/><path d="M169.1,390.42a3.88,3.88,0,0,0,1.9.57c1,0,1.57-.54,1.57-1.28s-.4-1.15-1.47-1.63c-1.44-.62-2.15-1.44-2.15-2.47a2.58,2.58,0,0,1,2.83-2.51,3.86,3.86,0,0,1,2,.5l-.38,1.12a3.07,3.07,0,0,0-1.6-.47,1.2,1.2,0,0,0-1.35,1.17c0,.68.42,1,1.48,1.49,1.35.58,2.14,1.35,2.14,2.63,0,1.6-1.2,2.61-3.07,2.61a4.33,4.33,0,0,1-2.23-.58Z"/><path d="M177.75,380.88a.93.93,0,1,1-.93-1A.9.9,0,0,1,177.75,380.88ZM176.06,392v-8.7h1.52V392Z"/><path d="M184.81,387.87c0,2.3,1.29,3.08,2.7,3.08a4.89,4.89,0,0,0,2.12-.41l.27,1.09a6.16,6.16,0,0,1-2.61.52c-2.5,0-3.95-1.76-3.95-4.39s1.44-4.66,3.75-4.66c2.52,0,3.25,2.3,3.25,4a4.92,4.92,0,0,1,0,.76Zm4.06-1.11c0-1.22-.47-2.55-1.91-2.55s-2,1.42-2.13,2.55Z"/><path d="M192.36,385.6c0-1,0-1.61-.08-2.32h1.35l.08,1.31h0a2.9,2.9,0,0,1,2.61-1.49c1.2,0,2.78.77,2.78,3.49V392h-1.51v-5.19c0-1.3-.43-2.44-1.77-2.44a2,2,0,0,0-1.89,1.57,2.72,2.72,0,0,0-.1.75V392h-1.51Z"/><path d="M203.4,380.88a.93.93,0,1,1-.93-1A.9.9,0,0,1,203.4,380.88ZM201.71,392v-8.7h1.52V392Z"/><path d="M205.84,385.6c0-1,0-1.61-.08-2.32h1.33l.08,1.3h0a2.75,2.75,0,0,1,2.52-1.48,2.33,2.33,0,0,1,2.26,1.62h0a3.23,3.23,0,0,1,.94-1.1,2.75,2.75,0,0,1,1.7-.52c1.17,0,2.64.78,2.64,3.56V392h-1.49V386.9c0-1.52-.49-2.55-1.69-2.55a1.87,1.87,0,0,0-1.7,1.39,2.79,2.79,0,0,0-.11.79V392h-1.49v-5.37c0-1.26-.48-2.26-1.63-2.26a2,2,0,0,0-1.77,1.53,3.12,3.12,0,0,0-.1.77V392h-1.49Z"/><path d="M228,392l-.13-1h-.05a2.82,2.82,0,0,1-2.38,1.23,2.4,2.4,0,0,1-2.49-2.5c0-2.13,1.84-3.23,4.78-3.22v-.21c0-.85-.23-2-1.8-2a3.71,3.71,0,0,0-2,.59l-.34-1a5,5,0,0,1,2.62-.7c2.38,0,3.06,1.61,3.06,3.42v3.42a14.27,14.27,0,0,0,.12,2Zm-.24-4.46c-1.41,0-3.29.23-3.29,2a1.34,1.34,0,0,0,1.36,1.52,1.91,1.91,0,0,0,1.87-1.41,1.79,1.79,0,0,0,.06-.5Z"/><path d="M238.65,379.3v10.49c0,.71,0,1.62.07,2.19h-1.34l-.09-1.38h0a2.82,2.82,0,0,1-2.61,1.57c-1.92,0-3.38-1.73-3.38-4.44,0-3,1.64-4.63,3.53-4.63a2.49,2.49,0,0,1,2.31,1.23h0v-5Zm-1.52,7.45a3.63,3.63,0,0,0,0-.65,2.1,2.1,0,0,0-2-1.78c-1.49,0-2.29,1.49-2.29,3.35s.76,3.26,2.25,3.26a2.11,2.11,0,0,0,2-1.78,2.59,2.59,0,0,0,.07-.65Z"/><path d="M65.4,407.2c0-.94,0-1.61-.07-2.32h1.33l.08,1.3h0a2.75,2.75,0,0,1,2.51-1.48,2.33,2.33,0,0,1,2.27,1.62h0a3.37,3.37,0,0,1,1-1.1,2.73,2.73,0,0,1,1.7-.52c1.17,0,2.64.78,2.64,3.56v5.33h-1.5V408.5c0-1.52-.48-2.55-1.68-2.55a1.86,1.86,0,0,0-1.7,1.39,2.79,2.79,0,0,0-.11.79v5.46h-1.5v-5.38c0-1.25-.48-2.26-1.62-2.26A1.94,1.94,0,0,0,67,407.48a2.71,2.71,0,0,0-.1.77v5.34H65.4Z"/><path d="M81.13,402.48a.94.94,0,1,1-.93-1A.91.91,0,0,1,81.13,402.48Zm-1.69,11.11v-8.71H81v8.71Z"/><path d="M83.56,407.2c0-.94,0-1.61-.07-2.32h1.34l.08,1.31h0a2.9,2.9,0,0,1,2.61-1.49c1.2,0,2.78.77,2.78,3.49v5.4H88.83v-5.2c0-1.3-.43-2.43-1.77-2.43a2,2,0,0,0-1.88,1.56,2.72,2.72,0,0,0-.1.75v5.32H83.56Z"/><path d="M94.61,402.48a.94.94,0,1,1-.93-1A.91.91,0,0,1,94.61,402.48Zm-1.69,11.11v-8.71h1.52v8.71Z"/><path d="M97,407.2c0-.94,0-1.61-.07-2.32H98.3l.08,1.3h0a2.75,2.75,0,0,1,2.51-1.48,2.33,2.33,0,0,1,2.27,1.62h0a3.37,3.37,0,0,1,1-1.1,2.73,2.73,0,0,1,1.7-.52c1.17,0,2.64.78,2.64,3.56v5.33H107V408.5c0-1.52-.49-2.55-1.69-2.55a1.86,1.86,0,0,0-1.7,1.39,2.79,2.79,0,0,0-.11.79v5.46H102v-5.38c0-1.25-.48-2.26-1.62-2.26a2,2,0,0,0-1.77,1.53,2.71,2.71,0,0,0-.1.77v5.34H97Z"/><path d="M115.43,404.88l1.52,4.88c.25.74.45,1.48.62,2.21h.05c.16-.72.38-1.45.62-2.21l1.51-4.88h1.57l-3.08,8.71h-1.43l-3-8.71Z"/><path d="M123.62,409.47c0,2.3,1.29,3.08,2.71,3.08a5.1,5.1,0,0,0,2.12-.4l.26,1.08a6.09,6.09,0,0,1-2.61.52c-2.5,0-3.95-1.76-3.95-4.39s1.45-4.66,3.75-4.66c2.52,0,3.26,2.3,3.26,4a4.67,4.67,0,0,1,0,.76Zm4.07-1.11c0-1.22-.48-2.55-1.92-2.55s-2,1.42-2.13,2.55Z"/><path d="M131.17,407.2c0-.94,0-1.61-.07-2.32h1.34l.08,1.31h0a2.9,2.9,0,0,1,2.61-1.49c1.2,0,2.78.77,2.78,3.49v5.4h-1.52v-5.2c0-1.3-.43-2.43-1.77-2.43a2,2,0,0,0-1.88,1.56,2.72,2.72,0,0,0-.1.75v5.32h-1.52Z"/><path d="M142.22,402.48a.94.94,0,1,1-.93-1A.91.91,0,0,1,142.22,402.48Zm-1.69,11.11v-8.71h1.52v8.71Z"/><path d="M149.07,413.59l-.13-1h-.05a2.83,2.83,0,0,1-2.39,1.23,2.39,2.39,0,0,1-2.48-2.5c0-2.13,1.83-3.23,4.78-3.22v-.21c0-.85-.23-2-1.81-2a3.76,3.76,0,0,0-2,.59l-.34-1a5.08,5.08,0,0,1,2.63-.7c2.38,0,3.06,1.61,3.06,3.42v3.42a14.51,14.51,0,0,0,.12,2Zm-.24-4.47c-1.41,0-3.29.23-3.29,2a1.34,1.34,0,0,0,1.36,1.52,1.91,1.91,0,0,0,1.87-1.41,1.79,1.79,0,0,0,.06-.5Z"/><path d="M152.88,407.2c0-.94,0-1.61-.07-2.32h1.32l.08,1.3h0a2.77,2.77,0,0,1,2.52-1.48,2.32,2.32,0,0,1,2.26,1.62h0a3.23,3.23,0,0,1,.94-1.1,2.77,2.77,0,0,1,1.7-.52c1.17,0,2.65.78,2.65,3.56v5.33h-1.5V408.5c0-1.52-.48-2.55-1.69-2.55a1.87,1.87,0,0,0-1.7,1.39,2.79,2.79,0,0,0-.11.79v5.46h-1.49v-5.38c0-1.25-.48-2.26-1.63-2.26a2,2,0,0,0-1.77,1.53,3.12,3.12,0,0,0-.1.77v5.34h-1.49Z"/><path d="M166,415.82a26,26,0,0,0,1.06-4.28l1.71-.18a22.26,22.26,0,0,1-1.71,4.34Z"/><path d="M179.78,412.37h-.05a2.72,2.72,0,0,1-2.49,1.4c-1.84,0-3.34-1.69-3.34-4.41,0-3.21,1.86-4.66,3.59-4.66a2.49,2.49,0,0,1,2.36,1.4h0l.07-1.22h1.41c0,.68-.06,1.45-.06,2.49v9.75h-1.52Zm0-4.06a3.28,3.28,0,0,0-.06-.63,2.09,2.09,0,0,0-2-1.75c-1.48,0-2.3,1.43-2.3,3.34s.71,3.27,2.26,3.27a2.06,2.06,0,0,0,2-1.64,2.79,2.79,0,0,0,.11-.76Z"/><path d="M190.54,411.2c0,.93,0,1.71.07,2.39h-1.34l-.09-1.28h0a3,3,0,0,1-2.58,1.46c-1.41,0-2.74-.89-2.74-3.68v-5.21h1.52v5c0,1.57.43,2.66,1.71,2.66a2,2,0,0,0,1.85-1.36,2.82,2.82,0,0,0,.12-.81v-5.45h1.52Z"/><path d="M194.83,402.48a.91.91,0,0,1-1,1,1,1,0,1,1,1-1Zm-1.69,11.11v-8.71h1.52v8.71Z"/><path d="M197,412a3.88,3.88,0,0,0,1.9.57c1,0,1.57-.54,1.57-1.28s-.4-1.15-1.47-1.63c-1.44-.62-2.15-1.44-2.15-2.47a2.58,2.58,0,0,1,2.83-2.51,3.83,3.83,0,0,1,2,.5l-.38,1.12a3,3,0,0,0-1.6-.47,1.2,1.2,0,0,0-1.35,1.17c0,.68.43,1,1.48,1.49,1.35.58,2.14,1.35,2.14,2.63,0,1.6-1.2,2.61-3.07,2.61a4.33,4.33,0,0,1-2.23-.58Z"/><path d="M207.7,407.2c0-.94,0-1.61-.07-2.32H209l.08,1.31h0a2.9,2.9,0,0,1,2.61-1.49c1.2,0,2.78.77,2.78,3.49v5.4H213v-5.2c0-1.3-.44-2.43-1.78-2.43a2,2,0,0,0-1.88,1.56,2.72,2.72,0,0,0-.1.75v5.32H207.7Z"/><path d="M224.19,409.17c0,3.27-2,4.6-3.91,4.6-2.12,0-3.78-1.63-3.78-4.49s1.77-4.58,3.91-4.58S224.19,406.4,224.19,409.17Zm-6.14.07c0,1.77.85,3.36,2.3,3.36s2.29-1.6,2.29-3.39c0-1.43-.59-3.35-2.28-3.35S218.05,407.69,218.05,409.24Z"/><path d="M226,412a3.81,3.81,0,0,0,1.89.57c1,0,1.57-.54,1.57-1.28s-.4-1.15-1.47-1.63c-1.44-.62-2.15-1.44-2.15-2.47a2.58,2.58,0,0,1,2.83-2.51,3.83,3.83,0,0,1,2,.5l-.38,1.12a3,3,0,0,0-1.6-.47A1.2,1.2,0,0,0,227.3,407c0,.68.43,1,1.48,1.49,1.36.58,2.14,1.35,2.14,2.63,0,1.6-1.19,2.61-3.06,2.61a4.28,4.28,0,0,1-2.23-.58Z"/><path d="M234.8,402.43v2.45h2.09V406H234.8v4.84c0,1.1.34,1.62,1.11,1.62a2.82,2.82,0,0,0,.81-.1l.07,1.17a3.8,3.8,0,0,1-1.3.19,2.05,2.05,0,0,1-1.61-.63,3.24,3.24,0,0,1-.58-2.24V406H232v-1.15h1.27v-2.05Z"/><path d="M238.67,407.45c0-.94,0-1.81-.07-2.57h1.34l.07,1.6h.05a2.48,2.48,0,0,1,2.25-1.78,2.38,2.38,0,0,1,.39,0v1.47a2,2,0,0,0-2.45,1.93,4.3,4.3,0,0,0-.06.75v4.71h-1.52Z"/><path d="M250.94,411.2c0,.93,0,1.71.08,2.39h-1.35l-.08-1.28h-.05a3,3,0,0,1-2.57,1.46c-1.41,0-2.74-.89-2.74-3.68v-5.21h1.52v5c0,1.57.43,2.66,1.71,2.66a2,2,0,0,0,1.84-1.36,2.5,2.5,0,0,0,.13-.81v-5.45h1.51Z"/><path d="M260.38,400.9v10.49c0,.71,0,1.62.08,2.2h-1.35L259,412.2h0a2.82,2.82,0,0,1-2.61,1.57c-1.92,0-3.38-1.73-3.38-4.44,0-3,1.64-4.63,3.53-4.63a2.49,2.49,0,0,1,2.31,1.23h0v-5Zm-1.51,7.45a3.63,3.63,0,0,0-.05-.65,2.1,2.1,0,0,0-2-1.78c-1.49,0-2.29,1.49-2.29,3.35s.75,3.26,2.25,3.26a2.11,2.11,0,0,0,2-1.78,2.59,2.59,0,0,0,.07-.65Z"/><path d="M66.32,431.07c0,2.3,1.29,3.08,2.7,3.08a4.92,4.92,0,0,0,2.12-.41l.26,1.09a6.09,6.09,0,0,1-2.61.52c-2.5,0-4-1.76-4-4.39s1.45-4.66,3.75-4.66c2.52,0,3.26,2.3,3.26,4a4.67,4.67,0,0,1,0,.76ZM70.38,430c0-1.22-.48-2.55-1.92-2.55s-2,1.42-2.13,2.55Z"/><path d="M74.53,426.48l1.12,1.86c.29.5.53,1,.79,1.45h0c.26-.52.53-1,.79-1.46l1.09-1.85H80l-2.7,4.23L80,435.19H78.33l-1.15-2c-.29-.49-.54-1-.82-1.51h0c-.25.53-.52,1-.82,1.52l-1.12,2H72.74l2.79-4.43-2.68-4.28Z"/><path d="M82.28,431.07c0,2.3,1.29,3.08,2.71,3.08a5,5,0,0,0,2.12-.41l.26,1.09a6.09,6.09,0,0,1-2.61.52c-2.5,0-4-1.76-4-4.39s1.45-4.66,3.75-4.66c2.52,0,3.26,2.3,3.26,4a4.67,4.67,0,0,1,0,.76ZM86.35,430c0-1.22-.48-2.55-1.92-2.55s-2,1.42-2.13,2.55Z"/><path d="M89.82,429.05c0-.94,0-1.81-.07-2.57h1.34l.06,1.6h.06a2.48,2.48,0,0,1,2.24-1.78,2.41,2.41,0,0,1,.4,0v1.47a2,2,0,0,0-2.45,1.93,4.3,4.3,0,0,0-.06.75v4.71H89.82Z"/><path d="M100.88,434.9a5,5,0,0,1-2.18.45c-2.4,0-4-1.71-4-4.44s1.67-4.61,4.31-4.61a4.27,4.27,0,0,1,1.91.41l-.33,1.19a3.33,3.33,0,0,0-1.59-.37c-1.81,0-2.76,1.54-2.75,3.32,0,2,1.14,3.26,2.73,3.26a3.86,3.86,0,0,0,1.66-.36Z"/><path d="M104.4,424.08a.93.93,0,1,1-1.86,0,.92.92,0,0,1,.93-1A.9.9,0,0,1,104.4,424.08Zm-1.68,11.11v-8.71h1.51v8.71Z"/><path d="M112.39,424v2.45h2.09v1.15h-2.09v4.84c0,1.1.34,1.62,1.11,1.62a2.82,2.82,0,0,0,.81-.1l.07,1.17a3.8,3.8,0,0,1-1.3.19,2.05,2.05,0,0,1-1.61-.63,3.24,3.24,0,0,1-.58-2.24v-4.85h-1.27v-1.15h1.27v-2.05Z"/><path d="M120.68,435.19l-.12-1.05h0a2.83,2.83,0,0,1-2.39,1.23,2.39,2.39,0,0,1-2.48-2.5c0-2.13,1.83-3.23,4.78-3.22v-.21c0-.85-.23-2-1.81-2a3.71,3.71,0,0,0-2,.59l-.34-1a5,5,0,0,1,2.62-.7c2.39,0,3.07,1.61,3.07,3.42v3.42a14.51,14.51,0,0,0,.12,2.05Zm-.23-4.47c-1.41,0-3.29.23-3.29,2a1.34,1.34,0,0,0,1.35,1.52,1.89,1.89,0,0,0,1.87-1.41,1.82,1.82,0,0,0,.07-.5Z"/><path d="M126.23,424v2.45h2.09v1.15h-2.09v4.84c0,1.1.34,1.62,1.11,1.62a2.77,2.77,0,0,0,.81-.1l.07,1.17a3.8,3.8,0,0,1-1.3.19,2.08,2.08,0,0,1-1.61-.63,3.24,3.24,0,0,1-.58-2.24v-4.85h-1.27v-1.15h1.27v-2.05Z"/><path d="M131.8,424.08a.91.91,0,0,1-1,1,1,1,0,1,1,1-1Zm-1.69,11.11v-8.71h1.52v8.71Z"/><path d="M141.36,430.77c0,3.27-2,4.6-3.9,4.6-2.13,0-3.78-1.64-3.78-4.49s1.76-4.58,3.9-4.58S141.36,428,141.36,430.77Zm-6.14.07c0,1.77.85,3.36,2.3,3.36s2.29-1.6,2.29-3.39c0-1.43-.59-3.35-2.28-3.35S135.22,429.29,135.22,430.84Z"/><path d="M143.4,428.8c0-.95,0-1.61-.08-2.32h1.35l.08,1.31h0a2.9,2.9,0,0,1,2.61-1.49c1.2,0,2.78.77,2.78,3.49v5.4h-1.51V430c0-1.3-.43-2.43-1.77-2.43a2,2,0,0,0-1.89,1.56,2.72,2.72,0,0,0-.1.75v5.32H143.4Z"/><path d="M163.13,432.8c0,.93,0,1.71.07,2.39h-1.34l-.09-1.28h0a3,3,0,0,1-2.58,1.46c-1.41,0-2.74-.89-2.74-3.68v-5.21h1.52v5c0,1.57.43,2.66,1.71,2.66a2,2,0,0,0,1.85-1.36,2.82,2.82,0,0,0,.12-.81v-5.45h1.52Z"/><path d="M165.73,422.5h1.52v12.69h-1.52Z"/><path d="M169.91,422.5h1.52v12.69h-1.52Z"/><path d="M178.5,435.19l-.13-1.05h-.05a2.79,2.79,0,0,1-2.38,1.23,2.4,2.4,0,0,1-2.49-2.5c0-2.13,1.84-3.23,4.78-3.22v-.21c0-.85-.23-2-1.8-2a3.71,3.71,0,0,0-2,.59l-.34-1a5,5,0,0,1,2.62-.7c2.38,0,3.06,1.61,3.06,3.42v3.42a14.51,14.51,0,0,0,.12,2.05Zm-.24-4.47c-1.41,0-3.29.23-3.29,2a1.34,1.34,0,0,0,1.36,1.52,1.91,1.91,0,0,0,1.87-1.41,1.79,1.79,0,0,0,.06-.5Z"/><path d="M182.31,428.8c0-.95,0-1.61-.07-2.32h1.33l.08,1.3h0a2.75,2.75,0,0,1,2.51-1.48,2.33,2.33,0,0,1,2.27,1.62h0a3.37,3.37,0,0,1,.95-1.1,2.73,2.73,0,0,1,1.7-.52c1.17,0,2.64.78,2.64,3.56v5.33h-1.5V430.1c0-1.52-.48-2.55-1.68-2.55a1.86,1.86,0,0,0-1.7,1.39,2.79,2.79,0,0,0-.11.79v5.46h-1.5v-5.38c0-1.25-.48-2.26-1.62-2.26a2,2,0,0,0-1.77,1.53,2.71,2.71,0,0,0-.1.77v5.34h-1.5Z"/><path d="M202,434.9a5,5,0,0,1-2.18.45c-2.41,0-4-1.71-4-4.44s1.66-4.61,4.31-4.61a4.34,4.34,0,0,1,1.91.41l-.33,1.19a3.39,3.39,0,0,0-1.59-.37c-1.81,0-2.76,1.54-2.76,3.32,0,2,1.14,3.26,2.74,3.26a3.93,3.93,0,0,0,1.66-.36Z"/><path d="M210.82,430.77c0,3.27-2,4.6-3.91,4.6-2.12,0-3.78-1.64-3.78-4.49s1.77-4.58,3.91-4.58S210.82,428,210.82,430.77Zm-6.14.07c0,1.77.85,3.36,2.3,3.36s2.29-1.6,2.29-3.39c0-1.43-.59-3.35-2.28-3.35S204.68,429.29,204.68,430.84Z"/><path d="M212.85,429.05c0-.94,0-1.81-.07-2.57h1.34l.06,1.6h.06a2.48,2.48,0,0,1,2.24-1.78,2.41,2.41,0,0,1,.4,0v1.47a2.17,2.17,0,0,0-.47,0,2.12,2.12,0,0,0-2,2,4.3,4.3,0,0,0-.06.75v4.71h-1.52Z"/><path d="M218.52,429.28c0-1.18,0-2-.07-2.8h1.36l.08,1.37h0a2.94,2.94,0,0,1,2.71-1.55c1.93,0,3.35,1.72,3.35,4.43,0,3.17-1.75,4.64-3.58,4.64a2.62,2.62,0,0,1-2.34-1.27h0v4.62h-1.51Zm1.51,2.46a3.45,3.45,0,0,0,.07.67,2.11,2.11,0,0,0,2,1.74c1.52,0,2.31-1.44,2.31-3.36,0-1.76-.77-3.26-2.27-3.26a2.24,2.24,0,0,0-2.06,1.84,2.91,2.91,0,0,0-.09.65Z"/><path d="M229,431.07c0,2.3,1.29,3.08,2.7,3.08a4.89,4.89,0,0,0,2.12-.41l.27,1.09a6.12,6.12,0,0,1-2.61.52c-2.5,0-3.95-1.76-3.95-4.39s1.45-4.66,3.75-4.66c2.52,0,3.25,2.3,3.25,4a4.92,4.92,0,0,1,0,.76ZM233,430c0-1.22-.48-2.55-1.92-2.55s-2,1.42-2.13,2.55Z"/><path d="M236.5,429.05c0-.94,0-1.81-.07-2.57h1.34l.06,1.6h.06a2.48,2.48,0,0,1,2.24-1.78,2.41,2.41,0,0,1,.4,0v1.47a2,2,0,0,0-2.45,1.93,4.3,4.3,0,0,0-.06.75v4.71H236.5Z"/><path d="M245.62,433.62a3.84,3.84,0,0,0,1.89.57c1.05,0,1.57-.54,1.57-1.28s-.39-1.15-1.46-1.63c-1.45-.62-2.15-1.44-2.15-2.47a2.58,2.58,0,0,1,2.83-2.51,3.89,3.89,0,0,1,2,.5l-.39,1.12a3,3,0,0,0-1.6-.47,1.2,1.2,0,0,0-1.34,1.17c0,.68.42,1,1.48,1.49,1.35.58,2.13,1.35,2.14,2.63,0,1.6-1.2,2.61-3.07,2.61a4.28,4.28,0,0,1-2.23-.58Z"/><path d="M259.25,432.8c0,.93,0,1.71.07,2.39H258l-.09-1.28h0a3,3,0,0,1-2.58,1.46c-1.41,0-2.74-.89-2.74-3.68v-5.21h1.52v5c0,1.57.43,2.66,1.71,2.66a2,2,0,0,0,1.85-1.36,2.82,2.82,0,0,0,.12-.81v-5.45h1.52Z"/><path d="M261.62,433.62a3.85,3.85,0,0,0,1.9.57c1,0,1.57-.54,1.57-1.28s-.4-1.15-1.47-1.63c-1.44-.62-2.15-1.44-2.15-2.47a2.58,2.58,0,0,1,2.83-2.51,3.86,3.86,0,0,1,2,.5l-.39,1.12a3,3,0,0,0-1.59-.47,1.2,1.2,0,0,0-1.35,1.17c0,.68.42,1,1.48,1.49,1.35.58,2.14,1.35,2.14,2.63,0,1.6-1.2,2.61-3.07,2.61a4.28,4.28,0,0,1-2.23-.58Z"/></g></g></g></svg>