<svg xmlns="http://www.w3.org/2000/svg" viewBox="0 0 375 650"><defs><style>.cls-1{fill:#050068;}.cls-2{font-size:14px;fill:#fff;font-family:MyriadPro-Bold, Myriad Pro;font-weight:700;}.cls-3{letter-spacing:-0.02em;}.cls-4{letter-spacing:-0.01em;}.cls-5{letter-spacing:-0.01em;}.cls-6{letter-spacing:-0.01em;}.cls-7{letter-spacing:-0.01em;}.cls-8{letter-spacing:0.02em;}.cls-9{letter-spacing:0em;}.cls-10{letter-spacing:-0.02em;}.cls-11{letter-spacing:0em;}.cls-12{letter-spacing:-0.01em;}.cls-13{letter-spacing:-0.01em;}</style></defs><g id="Layer_2" data-name="Layer 2"><g id="Layer_1-2" data-name="Layer 1"><rect class="cls-1" width="375" height="650" rx="71.61"/><text class="cls-2" transform="translate(113.39 231.31)"><tspan class="cls-3">T</tspan><tspan x="7.35" y="0">ítulo</tspan><tspan class="cls-4" x="0" y="16.8">L</tspan><tspan x="7.03" y="16.8">o</tspan><tspan class="cls-5" x="15.11" y="16.8">r</tspan><tspan x="20.32" y="16.8">em ipsum dolor sit </tspan><tspan x="0" y="33.6">ame</tspan><tspan class="cls-6" x="26.82" y="33.6">t</tspan><tspan x="31.85" y="33.6">, </tspan><tspan class="cls-7" x="38.32" y="33.6">c</tspan><tspan x="44.48" y="33.6">onse</tspan><tspan class="cls-8" x="74.23" y="33.6">c</tspan><tspan class="cls-9" x="80.76" y="33.6">t</tspan><tspan x="85.83" y="33.6">etuer adip</tspan><tspan x="150.01" y="33.6">-</tspan><tspan x="0" y="50.4">iscing eli</tspan><tspan class="cls-6" x="54.36" y="50.4">t</tspan><tspan x="59.39" y="50.4">, sed diam </tspan><tspan x="0" y="67.2">nonum</tspan><tspan class="cls-10" x="44.69" y="67.2">m</tspan><tspan x="56.46" y="67.2">y nibh euism</tspan><tspan class="cls-11" x="135.56" y="67.2">o</tspan><tspan x="143.68" y="67.2">d </tspan><tspan x="0" y="84">tincidu</tspan><tspan class="cls-12" x="43.83" y="84">n</tspan><tspan x="51.95" y="84">t ut lao</tspan><tspan class="cls-6" x="95.37" y="84">r</tspan><tspan x="100.57" y="84">eet </tspan><tspan x="0" y="100.8">dolo</tspan><tspan class="cls-6" x="28.35" y="100.8">r</tspan><tspan x="33.56" y="100.8">e magna aliquam </tspan><tspan x="0" y="117.6">e</tspan><tspan class="cls-7" x="7.39" y="117.6">r</tspan><tspan class="cls-6" x="12.56" y="117.6">a</tspan><tspan x="19.84" y="117.6">t </tspan><tspan class="cls-13" x="27.8" y="117.6">v</tspan><tspan x="35.01" y="117.6">olutp</tspan><tspan class="cls-6" x="68.61" y="117.6">at</tspan><tspan x="80.92" y="117.6">. Ut wisi </tspan><tspan x="0" y="134.4">enim ad </tspan></text></g></g></svg>