<svg xmlns="http://www.w3.org/2000/svg" xmlns:xlink="http://www.w3.org/1999/xlink" viewBox="0 0 640 640"><defs><style>.cls-1,.cls-11{fill:none;}.cls-2{isolation:isolate;}.cls-3{fill:#050068;}.cls-4{fill:#fff;}.cls-5{fill:#f4ddd4;}.cls-6{clip-path:url(#clip-path);}.cls-7{fill:#d76a40;}.cls-8{fill:#5b4850;}.cls-12,.cls-9{fill:#f1b69a;}.cls-10{fill:#150a08;}.cls-11{stroke:#e07e61;stroke-linecap:round;stroke-miterlimit:10;}.cls-12{opacity:0.5;mix-blend-mode:multiply;}.cls-13{fill:#f4e6e1;}.cls-14{clip-path:url(#clip-path-2);}</style><clipPath id="clip-path"><circle class="cls-1" cx="178.17" cy="166.57" r="76.71" transform="translate(-65.59 174.77) rotate(-45)"/></clipPath><clipPath id="clip-path-2"><circle class="cls-1" cx="122.03" cy="345.51" r="76.71" transform="translate(-238.82 409.19) rotate(-80.56)"/></clipPath></defs><g class="cls-2"><g id="Layer_2" data-name="Layer 2"><g id="Layer_1-2" data-name="Layer 1"><rect class="cls-3" width="640" height="640" rx="92.83"/><path class="cls-4" d="M316.61,139.5h2.14v7.65h3.75v1.79h-5.89Z"/><path class="cls-4" d="M330.33,145.44a3.44,3.44,0,0,1-3.61,3.66,3.36,3.36,0,0,1-3.55-3.53,3.42,3.42,0,0,1,3.66-3.63A3.33,3.33,0,0,1,330.33,145.44Zm-5,.07c0,1.18.49,2.06,1.4,2.06s1.36-.83,1.36-2.06c0-1-.39-2.06-1.36-2.06S325.37,144.5,325.37,145.51Z"/><path class="cls-4" d="M331.64,144.35c0-1,0-1.67-.05-2.26h1.83l.07,1.26h.06a2,2,0,0,1,1.85-1.41,2.12,2.12,0,0,1,.45,0v2a3,3,0,0,0-.58-.05,1.37,1.37,0,0,0-1.45,1.07,2.36,2.36,0,0,0-.05.48v3.47h-2.13Z"/><path class="cls-4" d="M338.49,146.2c.07.88.94,1.3,1.94,1.3a6.15,6.15,0,0,0,1.89-.28l.28,1.44a6.78,6.78,0,0,1-2.48.42c-2.33,0-3.66-1.34-3.66-3.48a3.43,3.43,0,0,1,3.46-3.66c2.21,0,3.05,1.72,3.05,3.42a5,5,0,0,1-.07.84Zm2.51-1.46a1.24,1.24,0,0,0-1.21-1.39,1.4,1.4,0,0,0-1.31,1.39Z"/><path class="cls-4" d="M344.25,144.28c0-.86,0-1.58-.06-2.19H346l.1.93h0a2.38,2.38,0,0,1,2.08-1.08,1.93,1.93,0,0,1,1.87,1.16h0a3,3,0,0,1,.88-.82,2.44,2.44,0,0,1,1.31-.34c1.31,0,2.31.92,2.31,3v4h-2.08v-3.72c0-1-.32-1.57-1-1.57a1,1,0,0,0-1,.74,2,2,0,0,0-.08.55v4h-2.07v-3.83c0-.87-.31-1.46-1-1.46a1.09,1.09,0,0,0-1,.77,1.4,1.4,0,0,0-.08.53v4h-2.07Z"/><path class="cls-4" d="M361.31,140.19a1.07,1.07,0,0,1-1.15,1.06,1.07,1.07,0,1,1,0-2.14A1.06,1.06,0,0,1,361.31,140.19Zm-2.2,8.75v-6.85h2.13v6.85Z"/><path class="cls-4" d="M363,144.39c0-.89,0-1.67-.06-2.3h1.85l.1,1h0a2.62,2.62,0,0,1,2.28-1.11c1.5,0,2.85,1.3,2.85,3.49,0,2.49-1.59,3.67-3.11,3.67a2.11,2.11,0,0,1-1.78-.79h0v3.41H363Zm2.13,1.61a2,2,0,0,0,0,.45,1.3,1.3,0,0,0,1.25,1c.92,0,1.47-.77,1.47-1.93s-.49-1.92-1.44-1.92a1.34,1.34,0,0,0-1.28,1.08,1.5,1.5,0,0,0,0,.37Z"/><path class="cls-4" d="M371.31,147.08a4.11,4.11,0,0,0,1.83.52c.65,0,.91-.22.91-.58s-.21-.51-1-.78c-1.41-.48-2-1.25-1.94-2.06,0-1.27,1.09-2.24,2.78-2.24a4.63,4.63,0,0,1,1.94.39l-.38,1.47a3.36,3.36,0,0,0-1.48-.39c-.52,0-.82.21-.82.56s.27.49,1.11.79c1.3.44,1.85,1.1,1.86,2.11,0,1.28-1,2.21-3,2.21a4.87,4.87,0,0,1-2.21-.47Z"/><path class="cls-4" d="M383.85,146.74c0,.9,0,1.63.06,2.2h-1.85l-.1-1h0a2.43,2.43,0,0,1-2.14,1.12c-1.39,0-2.41-.87-2.41-3v-4h2.14v3.69c0,1,.32,1.6,1.07,1.6a1.14,1.14,0,0,0,1.06-.75,1.09,1.09,0,0,0,.07-.46v-4.08h2.14Z"/><path class="cls-4" d="M385.56,144.28c0-.86,0-1.58-.06-2.19h1.8l.09.93h.05a2.35,2.35,0,0,1,2.07-1.08,2,2,0,0,1,1.88,1.16h0a2.84,2.84,0,0,1,.88-.82,2.43,2.43,0,0,1,1.3-.34c1.32,0,2.31.92,2.31,3v4h-2.07v-3.72c0-1-.32-1.57-1-1.57a1,1,0,0,0-1,.74,1.71,1.71,0,0,0-.09.55v4h-2.07v-3.83c0-.87-.31-1.46-1-1.46a1.08,1.08,0,0,0-1,.77,1.41,1.41,0,0,0-.09.53v4h-2.07Z"/><path class="cls-4" d="M407.07,139v7.9c0,.77,0,1.58.05,2h-1.89l-.1-1h0A2.4,2.4,0,0,1,403,149.1c-1.62,0-2.92-1.39-2.92-3.52,0-2.31,1.42-3.64,3.06-3.64a2.09,2.09,0,0,1,1.81.77h0V139Zm-2.13,6c0-.11,0-.26,0-.37a1.29,1.29,0,0,0-1.25-1.06c-1,0-1.47.87-1.47,1.95s.58,1.89,1.46,1.89a1.24,1.24,0,0,0,1.23-1,1.88,1.88,0,0,0,.06-.49Z"/><path class="cls-4" d="M415.54,145.44a3.44,3.44,0,0,1-3.62,3.66,3.36,3.36,0,0,1-3.54-3.53,3.42,3.42,0,0,1,3.66-3.63A3.33,3.33,0,0,1,415.54,145.44Zm-5,.07c0,1.18.49,2.06,1.4,2.06s1.36-.83,1.36-2.06c0-1-.39-2.06-1.36-2.06S410.58,144.5,410.58,145.51Z"/><path class="cls-4" d="M416.85,139H419v9.94h-2.13Z"/><path class="cls-4" d="M427.46,145.44a3.43,3.43,0,0,1-3.61,3.66,3.36,3.36,0,0,1-3.54-3.53,3.41,3.41,0,0,1,3.65-3.63A3.33,3.33,0,0,1,427.46,145.44Zm-4.95.07c0,1.18.49,2.06,1.4,2.06s1.36-.83,1.36-2.06c0-1-.4-2.06-1.36-2.06S422.51,144.5,422.51,145.51Z"/><path class="cls-4" d="M428.78,144.35c0-1,0-1.67-.06-2.26h1.84l.07,1.26h.05A2,2,0,0,1,433,142v2a2.94,2.94,0,0,0-.57-.05A1.37,1.37,0,0,0,431,145a2.39,2.39,0,0,0,0,.48v3.47h-2.13Z"/><path class="cls-4" d="M436.91,147.08a4.15,4.15,0,0,0,1.84.52c.64,0,.91-.22.91-.58s-.21-.51-1-.78c-1.42-.48-2-1.25-1.95-2.06,0-1.27,1.09-2.24,2.79-2.24a4.58,4.58,0,0,1,1.93.39L441,143.8a3.28,3.28,0,0,0-1.48-.39c-.52,0-.81.21-.81.56s.26.49,1.1.79c1.31.44,1.85,1.1,1.87,2.11,0,1.28-1,2.21-3,2.21a4.88,4.88,0,0,1-2.22-.47Z"/><path class="cls-4" d="M445.2,140.19a1.07,1.07,0,0,1-1.15,1.06,1.07,1.07,0,1,1,0-2.14A1.06,1.06,0,0,1,445.2,140.19Zm-2.2,8.75v-6.85h2.13v6.85Z"/><path class="cls-4" d="M449.22,140.13v2h1.53v1.57h-1.53v2.48c0,.83.2,1.21.84,1.21a3.18,3.18,0,0,0,.63-.06v1.61a4.21,4.21,0,0,1-1.38.18,2.22,2.22,0,0,1-1.6-.58,2.87,2.87,0,0,1-.59-2v-2.8h-.91v-1.57h.91v-1.48Z"/><path class="cls-4" d="M320.43,165.74l-.12-.68h-.05a2.46,2.46,0,0,1-2,.84,2.1,2.1,0,0,1-2.21-2.1c0-1.78,1.6-2.64,4-2.62v-.1c0-.37-.2-.88-1.25-.88a3.86,3.86,0,0,0-1.89.51l-.39-1.37a5.73,5.73,0,0,1,2.66-.6c2.28,0,3,1.34,3,3v2.38a10.48,10.48,0,0,0,.1,1.66Zm-.25-3.23c-1.12,0-2,.25-2,1.08a.77.77,0,0,0,.84.81,1.17,1.17,0,0,0,1.11-.79,1.37,1.37,0,0,0,0-.36Z"/><path class="cls-4" d="M323.93,161.08c0-.86,0-1.58-.06-2.19h1.8l.09.93h.05a2.35,2.35,0,0,1,2.07-1.08,2,2,0,0,1,1.88,1.16h0a2.84,2.84,0,0,1,.88-.82,2.43,2.43,0,0,1,1.3-.34c1.32,0,2.31.92,2.31,3v4h-2.07V162c0-1-.32-1.57-1-1.57a1,1,0,0,0-1,.74,1.71,1.71,0,0,0-.09.55v4h-2.07v-3.83c0-.87-.31-1.46-1-1.46a1.08,1.08,0,0,0-1,.77,1.41,1.41,0,0,0-.09.53v4h-2.07Z"/><path class="cls-4" d="M337.61,163c.07.88.94,1.3,1.93,1.3a6.06,6.06,0,0,0,1.89-.28l.28,1.44a6.75,6.75,0,0,1-2.48.42c-2.32,0-3.65-1.34-3.65-3.48a3.43,3.43,0,0,1,3.46-3.66c2.21,0,3,1.72,3,3.42a5,5,0,0,1-.07.84Zm2.51-1.46a1.24,1.24,0,0,0-1.21-1.39,1.41,1.41,0,0,0-1.32,1.39Z"/><path class="cls-4" d="M345.74,156.93v2h1.53v1.57h-1.53v2.48c0,.83.2,1.21.84,1.21a3.18,3.18,0,0,0,.63-.06l0,1.61a4.28,4.28,0,0,1-1.39.18,2.22,2.22,0,0,1-1.6-.58,2.88,2.88,0,0,1-.58-2v-2.8h-.91v-1.57h.91v-1.48Z"/><path class="cls-4" d="M347.56,167.41a24.44,24.44,0,0,0,1-4l2.17-.14a18.77,18.77,0,0,1-1.77,4Z"/><path class="cls-4" d="M360,165.58a5.45,5.45,0,0,1-1.91.3,3.32,3.32,0,0,1-3.63-3.5,3.57,3.57,0,0,1,3.92-3.64A4.93,4.93,0,0,1,360,159l-.34,1.58a2.94,2.94,0,0,0-1.19-.21,1.92,1.92,0,0,0,0,3.84,3.39,3.39,0,0,0,1.22-.21Z"/><path class="cls-4" d="M367.78,162.24a3.44,3.44,0,0,1-3.61,3.66,3.36,3.36,0,0,1-3.55-3.53,3.42,3.42,0,0,1,3.66-3.63A3.33,3.33,0,0,1,367.78,162.24Zm-5,.07c0,1.18.49,2.06,1.4,2.06s1.36-.83,1.36-2.06c0-1-.39-2.06-1.36-2.06S362.82,161.3,362.82,162.31Z"/><path class="cls-4" d="M369.09,161.08c0-.86,0-1.58,0-2.19h1.85l.09.94h0a2.51,2.51,0,0,1,2.11-1.09c1.4,0,2.45.92,2.45,2.94v4.06h-2.13V162c0-.89-.3-1.49-1.08-1.49a1.14,1.14,0,0,0-1.07.8,1.4,1.4,0,0,0-.09.53v4h-2.13Z"/><path class="cls-4" d="M377.28,163.88a4.15,4.15,0,0,0,1.84.52c.64,0,.91-.23.91-.58s-.21-.51-1-.78c-1.41-.48-2-1.25-1.95-2.06,0-1.27,1.1-2.24,2.79-2.24a4.58,4.58,0,0,1,1.93.39l-.37,1.47a3.36,3.36,0,0,0-1.49-.39c-.52,0-.81.21-.81.56s.26.49,1.1.79c1.31.44,1.85,1.1,1.87,2.11,0,1.28-1,2.21-3,2.21a4.88,4.88,0,0,1-2.22-.47Z"/><path class="cls-4" d="M385,163c.07.88.94,1.3,1.94,1.3a6.15,6.15,0,0,0,1.89-.28l.28,1.44a6.78,6.78,0,0,1-2.48.42c-2.33,0-3.66-1.34-3.66-3.48a3.43,3.43,0,0,1,3.46-3.66c2.21,0,3.05,1.72,3.05,3.42a5,5,0,0,1-.07.84Zm2.51-1.46a1.24,1.24,0,0,0-1.21-1.39,1.4,1.4,0,0,0-1.31,1.39Z"/><path class="cls-4" d="M395.91,165.58a5.45,5.45,0,0,1-1.91.3,3.32,3.32,0,0,1-3.63-3.5,3.58,3.58,0,0,1,3.92-3.64,4.93,4.93,0,0,1,1.63.27l-.34,1.58a2.94,2.94,0,0,0-1.19-.21,1.92,1.92,0,0,0,0,3.84,3.39,3.39,0,0,0,1.22-.21Z"/><path class="cls-4" d="M399.68,156.93v2h1.53v1.57h-1.53v2.48c0,.83.2,1.21.84,1.21a3.18,3.18,0,0,0,.63-.06l0,1.61a4.28,4.28,0,0,1-1.39.18,2.22,2.22,0,0,1-1.6-.58,2.88,2.88,0,0,1-.58-2v-2.8h-.91v-1.57h.91v-1.48Z"/><path class="cls-4" d="M404,163c.07.88.94,1.3,1.93,1.3a6.06,6.06,0,0,0,1.89-.28l.28,1.44a6.75,6.75,0,0,1-2.48.42c-2.32,0-3.65-1.34-3.65-3.48a3.43,3.43,0,0,1,3.46-3.66c2.21,0,3.05,1.72,3.05,3.42a5,5,0,0,1-.07.84Zm2.51-1.46a1.24,1.24,0,0,0-1.21-1.39,1.4,1.4,0,0,0-1.31,1.39Z"/><path class="cls-4" d="M412.14,156.93v2h1.53v1.57h-1.53v2.48c0,.83.2,1.21.84,1.21a3.18,3.18,0,0,0,.63-.06l0,1.61a4.28,4.28,0,0,1-1.39.18,2.22,2.22,0,0,1-1.6-.58,2.88,2.88,0,0,1-.58-2v-2.8h-.91v-1.57h.91v-1.48Z"/><path class="cls-4" d="M421.36,163.54c0,.9,0,1.63.05,2.2h-1.85l-.09-1h-.05a2.43,2.43,0,0,1-2.14,1.12c-1.39,0-2.41-.87-2.41-3v-4H417v3.69c0,1,.33,1.59,1.07,1.59a1.13,1.13,0,0,0,1.06-.74,1.09,1.09,0,0,0,.07-.46v-4.08h2.15Z"/><path class="cls-4" d="M424.7,163c.07.88.94,1.3,1.93,1.3a6.06,6.06,0,0,0,1.89-.28l.28,1.44a6.73,6.73,0,0,1-2.47.42c-2.33,0-3.66-1.34-3.66-3.48a3.43,3.43,0,0,1,3.46-3.66c2.21,0,3.05,1.72,3.05,3.42a5,5,0,0,1-.07.84Zm2.51-1.46a1.24,1.24,0,0,0-1.21-1.39,1.4,1.4,0,0,0-1.31,1.39Z"/><path class="cls-4" d="M430.45,161.15c0-1,0-1.67-.05-2.26h1.83l.07,1.26h.06a2,2,0,0,1,1.85-1.41,2.12,2.12,0,0,1,.45,0v2a3,3,0,0,0-.58-.06,1.38,1.38,0,0,0-1.46,1.08,3.45,3.45,0,0,0,0,.48v3.47h-2.13Z"/><path class="cls-4" d="M442.5,165.74l-.13-.68h0a2.49,2.49,0,0,1-2,.84,2.1,2.1,0,0,1-2.22-2.1c0-1.78,1.6-2.64,4-2.62v-.1c0-.37-.19-.88-1.24-.88a3.82,3.82,0,0,0-1.89.51l-.4-1.37a5.77,5.77,0,0,1,2.66-.6c2.29,0,3,1.34,3,3v2.38a9.41,9.41,0,0,0,.1,1.66Zm-.26-3.23c-1.12,0-2,.25-2,1.08a.77.77,0,0,0,.84.81,1.16,1.16,0,0,0,1.11-.79,1.37,1.37,0,0,0,0-.36Z"/><path class="cls-4" d="M452.63,155.8v7.9c0,.77,0,1.58.06,2H450.8l-.1-1h0a2.37,2.37,0,0,1-2.14,1.17c-1.63,0-2.93-1.39-2.93-3.52,0-2.31,1.43-3.64,3.07-3.64a2.09,2.09,0,0,1,1.81.77h0V155.8Zm-2.13,6c0-.11,0-.26,0-.37a1.29,1.29,0,0,0-1.25-1.06c-1,0-1.47.87-1.47,1.95s.57,1.89,1.45,1.89a1.25,1.25,0,0,0,1.24-1,1.89,1.89,0,0,0,.05-.49Z"/><path class="cls-4" d="M456.54,157a1.07,1.07,0,0,1-1.15,1.06,1.07,1.07,0,1,1,0-2.14A1.07,1.07,0,0,1,456.54,157Zm-2.2,8.75v-6.85h2.13v6.85Z"/><path class="cls-4" d="M458.17,161.19c0-.9,0-1.67-.05-2.3H460l.09,1h0a2.64,2.64,0,0,1,2.29-1.11c1.49,0,2.84,1.3,2.84,3.49,0,2.49-1.58,3.67-3.11,3.67a2.13,2.13,0,0,1-1.78-.79h0v3.41h-2.13Zm2.13,1.61a2.89,2.89,0,0,0,0,.45,1.3,1.3,0,0,0,1.25,1c.93,0,1.47-.77,1.47-1.93s-.49-1.92-1.44-1.92a1.34,1.34,0,0,0-1.28,1.08,2.21,2.21,0,0,0,0,.37Z"/><path class="cls-4" d="M469.78,161.36v1.41h-3.67v-1.41Z"/><path class="cls-4" d="M318.74,173.79a1.07,1.07,0,0,1-1.15,1.06,1.07,1.07,0,1,1,0-2.14A1.07,1.07,0,0,1,318.74,173.79Zm-2.2,8.75v-6.85h2.13v6.85Z"/><path class="cls-4" d="M320.36,180.68a4.11,4.11,0,0,0,1.84.52c.64,0,.91-.22.91-.58s-.21-.51-1-.78c-1.42-.48-2-1.25-2-2.06,0-1.27,1.09-2.24,2.79-2.24a4.58,4.58,0,0,1,1.93.39l-.38,1.47A3.32,3.32,0,0,0,323,177c-.52,0-.81.21-.81.56s.26.49,1.1.79c1.3.44,1.85,1.1,1.87,2.11,0,1.28-1,2.21-3,2.21a4.88,4.88,0,0,1-2.22-.47Z"/><path class="cls-4" d="M331.59,182.38a5.39,5.39,0,0,1-1.9.3,3.32,3.32,0,0,1-3.63-3.5,3.57,3.57,0,0,1,3.92-3.64,4.82,4.82,0,0,1,1.62.27l-.33,1.58a2.94,2.94,0,0,0-1.19-.21,1.92,1.92,0,0,0,0,3.84,3.43,3.43,0,0,0,1.22-.21Z"/><path class="cls-4" d="M335,173.79a1.07,1.07,0,0,1-1.15,1.06,1.07,1.07,0,1,1,0-2.14A1.06,1.06,0,0,1,335,173.79Zm-2.2,8.75v-6.85h2.13v6.85Z"/><path class="cls-4" d="M336.6,177.88c0-.86,0-1.58-.06-2.19h1.85l.1.94h0a2.52,2.52,0,0,1,2.12-1.09c1.4,0,2.45.92,2.45,2.94v4.06H341v-3.79c0-.88-.31-1.49-1.08-1.49a1.14,1.14,0,0,0-1.08.8,1.64,1.64,0,0,0-.08.53v3.95H336.6Z"/><path class="cls-4" d="M351.35,175.69c0,.44-.06,1-.06,2v3.82a3.94,3.94,0,0,1-1,3.08,4.19,4.19,0,0,1-2.79.84,5.35,5.35,0,0,1-2.46-.53l.42-1.61a4.22,4.22,0,0,0,2,.52,1.64,1.64,0,0,0,1.78-1.81v-.45h0a2.18,2.18,0,0,1-1.85.9c-1.69,0-2.9-1.37-2.9-3.35,0-2.2,1.43-3.6,3.11-3.6a2.07,2.07,0,0,1,1.88,1h0l.07-.82Zm-2.19,2.79a1.56,1.56,0,0,0,0-.39,1.17,1.17,0,0,0-1.15-.94c-.77,0-1.4.7-1.4,1.95,0,1,.5,1.82,1.4,1.82a1.16,1.16,0,0,0,1.12-.87,1.69,1.69,0,0,0,.07-.56Z"/><path class="cls-4" d="M357.46,179.8c.07.88.94,1.3,1.93,1.3a6.06,6.06,0,0,0,1.89-.28l.28,1.44a6.75,6.75,0,0,1-2.48.42c-2.32,0-3.65-1.34-3.65-3.48a3.43,3.43,0,0,1,3.46-3.66c2.21,0,3.05,1.72,3.05,3.42a5,5,0,0,1-.07.84Zm2.51-1.46a1.23,1.23,0,0,0-1.21-1.38,1.39,1.39,0,0,0-1.31,1.38Z"/><path class="cls-4" d="M363.21,172.6h2.13v9.94h-2.13Z"/><path class="cls-4" d="M369.26,173.79a1.07,1.07,0,0,1-1.15,1.06,1.07,1.07,0,1,1,0-2.14A1.06,1.06,0,0,1,369.26,173.79Zm-2.2,8.75v-6.85h2.13v6.85Z"/><path class="cls-4" d="M373.28,173.73v2h1.53v1.57h-1.53v2.48c0,.83.2,1.21.84,1.21a3.18,3.18,0,0,0,.63-.06v1.61a4.21,4.21,0,0,1-1.38.18,2.22,2.22,0,0,1-1.6-.58,2.87,2.87,0,0,1-.59-2v-2.8h-.91v-1.57h.91v-1.48Z"/><path class="cls-4" d="M375.1,184.21a24.44,24.44,0,0,0,1-4l2.17-.14a19.83,19.83,0,0,1-1.77,4Z"/><path class="cls-4" d="M382.38,180.68a4.11,4.11,0,0,0,1.83.52c.65,0,.91-.22.91-.58s-.21-.51-1-.78c-1.41-.48-2-1.25-1.94-2.06,0-1.27,1.09-2.24,2.79-2.24a4.61,4.61,0,0,1,1.93.39l-.38,1.47A3.36,3.36,0,0,0,385,177c-.52,0-.82.21-.82.56s.27.49,1.11.79c1.3.44,1.85,1.1,1.86,2.11,0,1.28-1,2.21-3,2.21a4.87,4.87,0,0,1-2.21-.47Z"/><path class="cls-4" d="M390.11,179.8c.07.88.93,1.3,1.93,1.3a6.06,6.06,0,0,0,1.89-.28l.28,1.44a6.75,6.75,0,0,1-2.48.42c-2.32,0-3.65-1.34-3.65-3.48a3.43,3.43,0,0,1,3.46-3.66c2.21,0,3,1.72,3,3.42a5,5,0,0,1-.07.84Zm2.5-1.46a1.23,1.23,0,0,0-1.2-1.38,1.4,1.4,0,0,0-1.32,1.38Z"/><path class="cls-4" d="M402.5,172.6v7.9c0,.77,0,1.58.05,2h-1.89l-.09-1h0a2.4,2.4,0,0,1-2.15,1.16c-1.62,0-2.92-1.39-2.92-3.52,0-2.31,1.43-3.64,3.07-3.64a2.07,2.07,0,0,1,1.8.77h0V172.6Zm-2.13,6a2.31,2.31,0,0,0,0-.37,1.27,1.27,0,0,0-1.25-1.05c-1,0-1.47.86-1.47,1.94s.58,1.89,1.46,1.89a1.24,1.24,0,0,0,1.23-1,1.53,1.53,0,0,0,.06-.49Z"/><path class="cls-4" d="M413.67,172.6v7.9c0,.77,0,1.58.06,2h-1.89l-.1-1h0a2.38,2.38,0,0,1-2.14,1.16c-1.63,0-2.93-1.39-2.93-3.52,0-2.31,1.43-3.64,3.07-3.64a2.05,2.05,0,0,1,1.8.77h0V172.6Zm-2.13,6a2.31,2.31,0,0,0,0-.37,1.26,1.26,0,0,0-1.24-1.05c-1,0-1.47.86-1.47,1.94s.57,1.89,1.45,1.89a1.25,1.25,0,0,0,1.24-1,1.89,1.89,0,0,0,.05-.49Z"/><path class="cls-4" d="M417.57,173.79a1.06,1.06,0,0,1-1.14,1.06,1.07,1.07,0,1,1,0-2.14A1.06,1.06,0,0,1,417.57,173.79Zm-2.19,8.75v-6.85h2.12v6.85Z"/><path class="cls-4" d="M423.11,182.54l-.13-.68h0a2.49,2.49,0,0,1-2,.84,2.1,2.1,0,0,1-2.22-2.1c0-1.78,1.6-2.64,4-2.62v-.1c0-.36-.19-.88-1.24-.88a3.72,3.72,0,0,0-1.89.52l-.4-1.38a5.77,5.77,0,0,1,2.66-.6c2.29,0,3,1.34,3,3v2.38a10.6,10.6,0,0,0,.09,1.66Zm-.26-3.23c-1.12,0-2,.25-2,1.08a.77.77,0,0,0,.84.81,1.16,1.16,0,0,0,1.11-.79,1.37,1.37,0,0,0,0-.36Z"/><path class="cls-4" d="M426.6,177.88c0-.86,0-1.58-.05-2.19h1.79l.1.93h0a2.36,2.36,0,0,1,2.07-1.08,1.94,1.94,0,0,1,1.88,1.16h0a3,3,0,0,1,.88-.82,2.43,2.43,0,0,1,1.3-.34c1.32,0,2.31.92,2.31,3v4h-2.07v-3.72c0-1-.32-1.57-1-1.57a1,1,0,0,0-1,.74,2,2,0,0,0-.08.55v4h-2.08v-3.83c0-.87-.3-1.46-1-1.46a1.09,1.09,0,0,0-1,.77,1.4,1.4,0,0,0-.08.53v4H426.6Z"/><path class="cls-4" d="M316.54,194.68c0-.86,0-1.58-.06-2.19h1.85l.1.94h0a2.52,2.52,0,0,1,2.12-1.09c1.4,0,2.45.92,2.45,2.94v4.06h-2.13v-3.79c0-.88-.31-1.49-1.08-1.49a1.14,1.14,0,0,0-1.08.8,1.64,1.64,0,0,0-.08.53v4h-2.13Z"/><path class="cls-4" d="M331.51,195.84a3.44,3.44,0,0,1-3.62,3.66,3.36,3.36,0,0,1-3.54-3.53,3.42,3.42,0,0,1,3.66-3.63A3.33,3.33,0,0,1,331.51,195.84Zm-5,.07c0,1.18.49,2.06,1.4,2.06s1.36-.83,1.36-2.06c0-1-.39-2.06-1.36-2.06S326.55,194.9,326.55,195.91Z"/><path class="cls-4" d="M332.82,194.68c0-.86,0-1.58-.06-2.19h1.85l.1.94h0a2.52,2.52,0,0,1,2.12-1.09c1.4,0,2.45.92,2.45,2.94v4.06h-2.13v-3.79c0-.88-.31-1.49-1.08-1.49a1.14,1.14,0,0,0-1.08.8,1.64,1.64,0,0,0-.08.53v4h-2.13Z"/><path class="cls-4" d="M347.48,197.14c0,.9,0,1.63.06,2.2h-1.85l-.1-1h0a2.45,2.45,0,0,1-2.14,1.12c-1.39,0-2.41-.87-2.41-3v-4h2.14v3.69c0,1,.32,1.59,1.06,1.59a1.14,1.14,0,0,0,1.07-.74,1.27,1.27,0,0,0,.07-.46v-4.08h2.14Z"/><path class="cls-4" d="M349.19,194.68c0-.86,0-1.58-.06-2.19h1.79l.1.93h0a2.38,2.38,0,0,1,2.08-1.08A1.93,1.93,0,0,1,355,193.5h0a3,3,0,0,1,.88-.82,2.44,2.44,0,0,1,1.31-.34c1.31,0,2.31.92,2.31,3v4h-2.08v-3.72c0-1-.32-1.57-1-1.57a1,1,0,0,0-1,.74,1.71,1.71,0,0,0-.09.55v4h-2.07v-3.83c0-.87-.31-1.46-1-1.46a1.09,1.09,0,0,0-1,.77,1.4,1.4,0,0,0-.08.53v4h-2.07Z"/><path class="cls-4" d="M361.23,194.68c0-.86,0-1.58-.06-2.19H363l.1.93h0a2.38,2.38,0,0,1,2.08-1.08,1.93,1.93,0,0,1,1.87,1.16h0a3,3,0,0,1,.88-.82,2.44,2.44,0,0,1,1.31-.34c1.31,0,2.31.92,2.31,3v4H369.5v-3.72c0-1-.32-1.57-1-1.57a1,1,0,0,0-1,.74,1.71,1.71,0,0,0-.09.55v4h-2.07v-3.83c0-.87-.31-1.46-1-1.46a1.09,1.09,0,0,0-1,.77,1.4,1.4,0,0,0-.08.53v4h-2.07Z"/><path class="cls-4" d="M374.6,192.49l1,3.37c.11.4.25.91.34,1.27h0c.1-.36.21-.88.31-1.27l.84-3.37h2.28l-1.6,4.51c-1,2.72-1.64,3.81-2.41,4.5a3.86,3.86,0,0,1-2.05.94l-.45-1.81a2.76,2.76,0,0,0,.92-.36,2.49,2.49,0,0,0,.88-.86.55.55,0,0,0,.12-.3.81.81,0,0,0-.1-.35l-2.51-6.27Z"/><path class="cls-4" d="M383.15,194.68c0-.86,0-1.58,0-2.19h1.84l.1.94h0a2.52,2.52,0,0,1,2.12-1.09c1.4,0,2.45.92,2.45,2.94v4.06h-2.13v-3.79c0-.88-.31-1.49-1.08-1.49a1.14,1.14,0,0,0-1.08.8,1.64,1.64,0,0,0-.08.53v4h-2.13Z"/><path class="cls-4" d="M393.55,190.59a1.06,1.06,0,0,1-1.14,1.06,1.07,1.07,0,1,1,0-2.14A1.06,1.06,0,0,1,393.55,190.59Zm-2.19,8.75v-6.85h2.12v6.85Z"/><path class="cls-4" d="M395.14,199.34c0-.44.05-1.27.05-2v-7.9h2.13v3.91h0a2.4,2.4,0,0,1,2.07-1c1.64,0,2.85,1.36,2.83,3.46,0,2.47-1.57,3.7-3.14,3.7a2.29,2.29,0,0,1-2.06-1.11h0l-.09,1Zm2.18-2.91a1.48,1.48,0,0,0,0,.38,1.3,1.3,0,0,0,1.25,1c.91,0,1.47-.7,1.47-1.94,0-1.06-.48-1.9-1.47-1.9a1.32,1.32,0,0,0-1.25,1.05,1.67,1.67,0,0,0,0,.39Z"/><path class="cls-4" d="M403.56,189.4h2.13v3.91h0a2.47,2.47,0,0,1,1.95-1c1.36,0,2.39.94,2.39,3v4h-2.13v-3.76c0-.9-.3-1.52-1.1-1.52a1.15,1.15,0,0,0-1.07.75,1.49,1.49,0,0,0-.07.47v4.06h-2.13Z"/><path class="cls-4" d="M416.23,196.6c.07.88.94,1.3,1.94,1.3a6.11,6.11,0,0,0,1.89-.28l.28,1.44a6.78,6.78,0,0,1-2.48.42c-2.33,0-3.66-1.34-3.66-3.48a3.43,3.43,0,0,1,3.46-3.66c2.22,0,3.06,1.72,3.06,3.42a6.29,6.29,0,0,1-.07.84Zm2.51-1.46a1.23,1.23,0,0,0-1.2-1.39,1.41,1.41,0,0,0-1.32,1.39Z"/><path class="cls-4" d="M428.44,197.14c0,.9,0,1.63.06,2.2h-1.85l-.1-1h0a2.43,2.43,0,0,1-2.14,1.12c-1.39,0-2.41-.87-2.41-3v-4h2.14v3.69c0,1,.32,1.59,1.07,1.59a1.14,1.14,0,0,0,1.06-.74,1.09,1.09,0,0,0,.07-.46v-4.08h2.14Z"/><path class="cls-4" d="M432.35,190.59a1.07,1.07,0,0,1-1.15,1.06,1.07,1.07,0,1,1,0-2.14A1.07,1.07,0,0,1,432.35,190.59Zm-2.2,8.75v-6.85h2.13v6.85Z"/><path class="cls-4" d="M434,197.48a4.15,4.15,0,0,0,1.84.52c.64,0,.91-.23.91-.58s-.21-.51-1-.78c-1.42-.48-2-1.25-1.95-2.06,0-1.27,1.09-2.24,2.79-2.24a4.58,4.58,0,0,1,1.93.39l-.38,1.47a3.32,3.32,0,0,0-1.48-.39c-.52,0-.81.21-.81.56s.26.49,1.1.79c1.31.44,1.85,1.1,1.87,2.11,0,1.28-1,2.21-3,2.21a4.88,4.88,0,0,1-2.22-.47Z"/><path class="cls-4" d="M440.06,194.68c0-.86,0-1.58-.05-2.19h1.79l.1.93h0a2.35,2.35,0,0,1,2.07-1.08,2,2,0,0,1,1.88,1.16h0a3,3,0,0,1,.88-.82,2.43,2.43,0,0,1,1.3-.34c1.32,0,2.31.92,2.31,3v4h-2.07v-3.72c0-1-.32-1.57-1-1.57a1,1,0,0,0-1,.74,1.7,1.7,0,0,0-.08.55v4h-2.08v-3.83c0-.87-.3-1.46-1-1.46a1.08,1.08,0,0,0-1,.77,1.41,1.41,0,0,0-.09.53v4h-2.07Z"/><path class="cls-4" d="M458.87,195.84a3.44,3.44,0,0,1-3.62,3.66,3.36,3.36,0,0,1-3.54-3.53,3.42,3.42,0,0,1,3.66-3.63A3.33,3.33,0,0,1,458.87,195.84Zm-5,.07c0,1.18.49,2.06,1.4,2.06s1.36-.83,1.36-2.06c0-1-.39-2.06-1.36-2.06S453.91,194.9,453.91,195.91Z"/><path class="cls-4" d="M466.86,189.4v7.9c0,.77,0,1.58.06,2H465l-.1-1h0a2.38,2.38,0,0,1-2.14,1.16c-1.63,0-2.93-1.39-2.93-3.52,0-2.31,1.43-3.64,3.07-3.64a2.05,2.05,0,0,1,1.8.77h0V189.4Zm-2.13,6a2.31,2.31,0,0,0,0-.37,1.27,1.27,0,0,0-1.24-1.06c-1,0-1.47.87-1.47,1.95s.57,1.89,1.45,1.89a1.25,1.25,0,0,0,1.24-1,1.89,1.89,0,0,0,.05-.49Z"/><path class="cls-4" d="M318.92,207.33v2h1.53v1.57h-1.53v2.48c0,.83.2,1.21.84,1.21a3.18,3.18,0,0,0,.63-.06v1.61a4.21,4.21,0,0,1-1.38.18,2.22,2.22,0,0,1-1.6-.58,2.87,2.87,0,0,1-.59-2v-2.8h-.91v-1.57h.91v-1.48Z"/><path class="cls-4" d="M323.88,207.39a1.07,1.07,0,0,1-1.15,1.06,1.07,1.07,0,1,1,0-2.14A1.07,1.07,0,0,1,323.88,207.39Zm-2.2,8.75v-6.85h2.12v6.85Z"/><path class="cls-4" d="M325.51,211.48c0-.86,0-1.58-.05-2.19h1.84l.1.94h0a2.52,2.52,0,0,1,2.12-1.09c1.4,0,2.45.92,2.45,2.94v4.06h-2.13v-3.79c0-.89-.31-1.49-1.08-1.49a1.15,1.15,0,0,0-1.08.8,1.64,1.64,0,0,0-.08.53v3.95h-2.13Z"/><path class="cls-4" d="M338.86,216a5.45,5.45,0,0,1-1.91.3,3.32,3.32,0,0,1-3.63-3.5,3.58,3.58,0,0,1,3.93-3.64,4.87,4.87,0,0,1,1.62.27l-.34,1.58a2.94,2.94,0,0,0-1.19-.21,1.92,1.92,0,0,0,.05,3.84,3.37,3.37,0,0,0,1.21-.21Z"/><path class="cls-4" d="M342.23,207.39a1.07,1.07,0,0,1-1.15,1.06,1.07,1.07,0,1,1,0-2.14A1.07,1.07,0,0,1,342.23,207.39Zm-2.2,8.75v-6.85h2.13v6.85Z"/><path class="cls-4" d="M350.5,206.2v7.9c0,.77,0,1.58.06,2h-1.89l-.1-1h0a2.38,2.38,0,0,1-2.14,1.16c-1.62,0-2.93-1.39-2.93-3.52,0-2.31,1.43-3.64,3.07-3.64a2.09,2.09,0,0,1,1.81.77h0V206.2Zm-2.12,6c0-.11,0-.26,0-.37a1.29,1.29,0,0,0-1.25-1.06c-1,0-1.47.87-1.47,2s.57,1.89,1.46,1.89a1.25,1.25,0,0,0,1.23-1,1.88,1.88,0,0,0,.06-.49Z"/><path class="cls-4" d="M358.67,213.94c0,.9,0,1.63.05,2.2h-1.85l-.09-1h0a2.43,2.43,0,0,1-2.14,1.12c-1.39,0-2.41-.87-2.41-3v-4h2.14V213c0,1,.33,1.59,1.07,1.59a1.13,1.13,0,0,0,1.06-.74,1.09,1.09,0,0,0,.07-.46v-4.08h2.15Z"/><path class="cls-4" d="M360.37,211.48c0-.86,0-1.58-.05-2.19h1.84l.1.94h0a2.52,2.52,0,0,1,2.12-1.09c1.4,0,2.45.92,2.45,2.94v4.06h-2.13v-3.79c0-.89-.31-1.49-1.08-1.49a1.14,1.14,0,0,0-1.08.8,1.64,1.64,0,0,0-.08.53v3.95h-2.13Z"/><path class="cls-4" d="M370.87,207.33v2h1.53v1.57h-1.53v2.48c0,.83.2,1.21.84,1.21a3.18,3.18,0,0,0,.63-.06l0,1.61a4.28,4.28,0,0,1-1.39.18,2.22,2.22,0,0,1-1.6-.58,2.88,2.88,0,0,1-.58-2v-2.8h-.91v-1.57h.91v-1.48Z"/><path class="cls-4" d="M382.91,213.94c0,.9,0,1.63.06,2.2h-1.85l-.1-1h0a2.45,2.45,0,0,1-2.14,1.12c-1.39,0-2.41-.87-2.41-3v-4h2.14V213c0,1,.32,1.59,1.07,1.59a1.14,1.14,0,0,0,1.06-.74,1.09,1.09,0,0,0,.07-.46v-4.08h2.14Z"/><path class="cls-4" d="M387,207.33v2h1.53v1.57H387v2.48c0,.83.2,1.21.84,1.21a3.18,3.18,0,0,0,.63-.06l0,1.61a4.28,4.28,0,0,1-1.39.18,2.22,2.22,0,0,1-1.6-.58,2.87,2.87,0,0,1-.59-2v-2.8H384v-1.57h.91v-1.48Z"/><path class="cls-4" d="M392.58,206.2h2.13v9.94h-2.13Z"/><path class="cls-4" d="M400.33,216.14l-.13-.68h0a2.49,2.49,0,0,1-2,.84,2.1,2.1,0,0,1-2.21-2.1c0-1.78,1.59-2.64,4-2.62v-.1c0-.37-.2-.88-1.25-.88a3.86,3.86,0,0,0-1.89.51l-.39-1.37a5.7,5.7,0,0,1,2.66-.6c2.28,0,3,1.34,3,3v2.38a10.4,10.4,0,0,0,.1,1.66Zm-.25-3.23c-1.12,0-2,.25-2,1.08a.76.76,0,0,0,.84.81A1.15,1.15,0,0,0,400,214a1.36,1.36,0,0,0,.05-.36Z"/><path class="cls-4" d="M410.59,212.64A3.44,3.44,0,0,1,407,216.3a3.36,3.36,0,0,1-3.55-3.53,3.42,3.42,0,0,1,3.66-3.63A3.33,3.33,0,0,1,410.59,212.64Zm-5,.07c0,1.18.49,2.06,1.4,2.06s1.36-.83,1.36-2.06c0-1-.39-2.06-1.36-2.06S405.63,211.7,405.63,212.71Z"/><path class="cls-4" d="M411.9,211.55c0-1,0-1.67,0-2.26h1.83l.07,1.26h.06a2,2,0,0,1,1.85-1.41,2.12,2.12,0,0,1,.45,0v2a3,3,0,0,0-.58-.06,1.37,1.37,0,0,0-1.45,1.08,2.36,2.36,0,0,0-.05.48v3.47H411.9Z"/><path class="cls-4" d="M418.75,213.4c.07.88.94,1.3,1.93,1.3a6.17,6.17,0,0,0,1.9-.28l.28,1.44a6.78,6.78,0,0,1-2.48.42c-2.33,0-3.66-1.34-3.66-3.48a3.43,3.43,0,0,1,3.46-3.66c2.21,0,3.05,1.72,3.05,3.42a5,5,0,0,1-.07.84Zm2.51-1.46a1.24,1.24,0,0,0-1.21-1.39,1.4,1.4,0,0,0-1.31,1.39Z"/><path class="cls-4" d="M426.14,213.4c.07.88.94,1.3,1.94,1.3a6.15,6.15,0,0,0,1.89-.28l.28,1.44a6.78,6.78,0,0,1-2.48.42c-2.33,0-3.66-1.34-3.66-3.48a3.43,3.43,0,0,1,3.46-3.66c2.22,0,3.05,1.72,3.05,3.42a5,5,0,0,1-.07.84Zm2.51-1.46a1.23,1.23,0,0,0-1.2-1.39,1.4,1.4,0,0,0-1.32,1.39Z"/><path class="cls-4" d="M434.28,207.33v2h1.52v1.57h-1.52v2.48c0,.83.19,1.21.84,1.21a3.36,3.36,0,0,0,.63-.06v1.61a4.21,4.21,0,0,1-1.38.18,2.2,2.2,0,0,1-1.6-.58,2.87,2.87,0,0,1-.59-2v-2.8h-.91v-1.57h.91v-1.48Z"/><path class="cls-4" d="M323.18,223v7.9c0,.77,0,1.58.05,2h-1.89l-.1-1h0a2.4,2.4,0,0,1-2.15,1.16c-1.62,0-2.92-1.39-2.92-3.52,0-2.31,1.42-3.64,3.06-3.64a2.09,2.09,0,0,1,1.81.77h0V223Zm-2.13,6c0-.11,0-.26,0-.37a1.29,1.29,0,0,0-1.25-1.06c-1,0-1.47.87-1.47,1.95s.58,1.89,1.46,1.89a1.24,1.24,0,0,0,1.23-1,1.88,1.88,0,0,0,.06-.49Z"/><path class="cls-4" d="M331.65,229.44A3.44,3.44,0,0,1,328,233.1a3.36,3.36,0,0,1-3.54-3.53,3.42,3.42,0,0,1,3.66-3.63A3.33,3.33,0,0,1,331.65,229.44Zm-5,.07c0,1.18.49,2.06,1.4,2.06s1.36-.83,1.36-2.06c0-1-.39-2.06-1.36-2.06S326.69,228.5,326.69,229.51Z"/><path class="cls-4" d="M333,223h2.13v9.94H333Z"/><path class="cls-4" d="M343.58,229.44A3.44,3.44,0,0,1,340,233.1a3.36,3.36,0,0,1-3.54-3.53,3.41,3.41,0,0,1,3.65-3.63A3.34,3.34,0,0,1,343.58,229.44Zm-5,.07c0,1.18.49,2.06,1.4,2.06s1.36-.83,1.36-2.06c0-1-.4-2.06-1.36-2.06S338.62,228.5,338.62,229.51Z"/><path class="cls-4" d="M344.89,228.35c0-1,0-1.67-.06-2.26h1.84l.07,1.26h.05a2,2,0,0,1,2.3-1.38v2a2.94,2.94,0,0,0-.57-.05,1.37,1.37,0,0,0-1.46,1.07,2.39,2.39,0,0,0,0,.48v3.47h-2.13Z"/><path class="cls-4" d="M351.73,230.2c.07.88.94,1.3,1.94,1.3a6.11,6.11,0,0,0,1.89-.28l.28,1.44a6.78,6.78,0,0,1-2.48.42c-2.33,0-3.66-1.34-3.66-3.48a3.43,3.43,0,0,1,3.46-3.66c2.22,0,3.06,1.72,3.06,3.42a6.29,6.29,0,0,1-.07.84Zm2.51-1.46a1.23,1.23,0,0,0-1.2-1.39,1.41,1.41,0,0,0-1.32,1.39Z"/><path class="cls-4" d="M360.32,228.28c0-.86,0-1.58-.06-2.19h1.79l.1.93h0a2.38,2.38,0,0,1,2.08-1.08,1.93,1.93,0,0,1,1.87,1.16h0a3,3,0,0,1,.88-.82,2.44,2.44,0,0,1,1.31-.34c1.31,0,2.31.92,2.31,3v4h-2.08v-3.72c0-1-.32-1.57-1-1.57a1.06,1.06,0,0,0-1,.74,2,2,0,0,0-.08.55v4h-2.07v-3.83c0-.87-.31-1.46-1-1.46a1.09,1.09,0,0,0-1,.77,1.4,1.4,0,0,0-.08.53v4h-2.07Z"/><path class="cls-4" d="M376.25,232.94l-.13-.68h0a2.49,2.49,0,0,1-2,.84,2.1,2.1,0,0,1-2.21-2.1c0-1.78,1.59-2.64,4-2.62v-.1c0-.36-.2-.88-1.25-.88a3.75,3.75,0,0,0-1.89.52l-.39-1.38a5.7,5.7,0,0,1,2.66-.6c2.28,0,3,1.34,3,3v2.38a10.4,10.4,0,0,0,.1,1.66Zm-.25-3.23c-1.12,0-2,.25-2,1.08a.76.76,0,0,0,.84.81,1.17,1.17,0,0,0,1.11-.79,2,2,0,0,0,0-.36Z"/><path class="cls-4" d="M386.29,226.09c0,.44-.06,1-.06,2V232a3.93,3.93,0,0,1-1,3.08,4.2,4.2,0,0,1-2.79.84,5.36,5.36,0,0,1-2.47-.53l.42-1.61a4.25,4.25,0,0,0,2,.52,1.64,1.64,0,0,0,1.78-1.81V232h0a2.17,2.17,0,0,1-1.85.9c-1.69,0-2.9-1.37-2.9-3.35,0-2.2,1.43-3.6,3.11-3.6a2.07,2.07,0,0,1,1.88,1h0l.07-.82Zm-2.19,2.79a1.56,1.56,0,0,0,0-.39,1.17,1.17,0,0,0-1.15-.94c-.77,0-1.4.7-1.4,1.95,0,1,.51,1.82,1.4,1.82a1.16,1.16,0,0,0,1.12-.87,1.69,1.69,0,0,0,.07-.56Z"/><path class="cls-4" d="M387.94,228.28c0-.86,0-1.58-.06-2.19h1.85l.1.94h0a2.51,2.51,0,0,1,2.11-1.09c1.41,0,2.46.92,2.46,2.94v4.06h-2.13v-3.79c0-.88-.31-1.49-1.08-1.49a1.14,1.14,0,0,0-1.08.8,1.41,1.41,0,0,0-.08.53v3.95h-2.13Z"/><path class="cls-4" d="M400,232.94l-.13-.68h0a2.49,2.49,0,0,1-2,.84,2.1,2.1,0,0,1-2.22-2.1c0-1.78,1.6-2.64,4-2.62v-.1c0-.36-.19-.88-1.24-.88a3.72,3.72,0,0,0-1.89.52l-.4-1.38a5.77,5.77,0,0,1,2.66-.6c2.29,0,3,1.34,3,3v2.38a10.6,10.6,0,0,0,.09,1.66Zm-.26-3.23c-1.12,0-2,.25-2,1.08a.77.77,0,0,0,.84.81,1.16,1.16,0,0,0,1.11-.79,1.37,1.37,0,0,0,0-.36Z"/><path class="cls-4" d="M410.25,232.94l-.12-.68h0a2.5,2.5,0,0,1-2,.84,2.1,2.1,0,0,1-2.21-2.1c0-1.78,1.6-2.64,4-2.62v-.1c0-.36-.19-.88-1.24-.88a3.79,3.79,0,0,0-1.9.52l-.39-1.38a5.77,5.77,0,0,1,2.66-.6c2.29,0,3,1.34,3,3v2.38a10.6,10.6,0,0,0,.09,1.66Zm-.25-3.23c-1.12,0-2,.25-2,1.08a.77.77,0,0,0,.84.81,1.16,1.16,0,0,0,1.11-.79,1.37,1.37,0,0,0,0-.36Z"/><path class="cls-4" d="M413.75,223h2.13v9.94h-2.13Z"/><path class="cls-4" d="M419.8,224.19a1.07,1.07,0,0,1-1.15,1.06,1.07,1.07,0,1,1,0-2.14A1.06,1.06,0,0,1,419.8,224.19Zm-2.2,8.75v-6.85h2.13v6.85Z"/><path class="cls-4" d="M426,232.09h0a2.32,2.32,0,0,1-2,1c-1.49,0-2.85-1.3-2.85-3.49,0-2.45,1.57-3.67,3-3.67a2.07,2.07,0,0,1,1.91.95h0l.06-.8h2.06c0,.66,0,1.35,0,2.06v7.57H426Zm0-3.12a2,2,0,0,0,0-.35,1.27,1.27,0,0,0-1.22-1c-1,0-1.47.83-1.47,1.94s.54,1.89,1.44,1.89a1.26,1.26,0,0,0,1.23-1A1.82,1.82,0,0,0,426,230Z"/><path class="cls-4" d="M436.22,230.74c0,.9,0,1.63.06,2.2h-1.85l-.1-1h0a2.43,2.43,0,0,1-2.14,1.12c-1.39,0-2.41-.87-2.41-3v-4h2.14v3.69c0,1,.33,1.6,1.07,1.6a1.14,1.14,0,0,0,1.06-.75,1.09,1.09,0,0,0,.07-.46v-4.08h2.14Z"/><path class="cls-4" d="M441.82,232.94l-.12-.68h0a2.5,2.5,0,0,1-2,.84,2.1,2.1,0,0,1-2.21-2.1c0-1.78,1.6-2.64,4-2.62v-.1c0-.36-.19-.88-1.25-.88a3.75,3.75,0,0,0-1.89.52l-.39-1.38a5.77,5.77,0,0,1,2.66-.6c2.29,0,3,1.34,3,3v2.38a10.4,10.4,0,0,0,.1,1.66Zm-.25-3.23c-1.12,0-2,.25-2,1.08a.77.77,0,0,0,.84.81,1.16,1.16,0,0,0,1.11-.79,1.37,1.37,0,0,0,0-.36Z"/><path class="cls-4" d="M445.32,228.28c0-.86,0-1.58-.05-2.19h1.79l.1.93h0a2.35,2.35,0,0,1,2.07-1.08,2,2,0,0,1,1.88,1.16h0a3,3,0,0,1,.88-.82,2.43,2.43,0,0,1,1.3-.34c1.32,0,2.31.92,2.31,3v4H453.6v-3.72c0-1-.32-1.57-1-1.57a1,1,0,0,0-1,.74,1.7,1.7,0,0,0-.08.55v4h-2.08v-3.83c0-.87-.3-1.46-1-1.46a1.08,1.08,0,0,0-1,.77,1.41,1.41,0,0,0-.09.53v4h-2.07Z"/><path class="cls-4" d="M318.18,247c.07.88.94,1.3,1.93,1.3A6.06,6.06,0,0,0,322,248l.28,1.44a6.75,6.75,0,0,1-2.48.42c-2.32,0-3.65-1.34-3.65-3.48a3.43,3.43,0,0,1,3.46-3.66c2.21,0,3.05,1.72,3.05,3.42a5,5,0,0,1-.07.84Zm2.5-1.46a1.23,1.23,0,0,0-1.2-1.39,1.41,1.41,0,0,0-1.32,1.39Z"/><path class="cls-4" d="M323.93,245.15c0-1,0-1.67-.06-2.26h1.84l.07,1.26h.05a2,2,0,0,1,2.3-1.38v2a2.76,2.76,0,0,0-.57-.06,1.38,1.38,0,0,0-1.46,1.08,2.39,2.39,0,0,0,0,.48v3.47h-2.13Z"/><path class="cls-4" d="M333,249.74l-.13-.68h0a2.49,2.49,0,0,1-2,.84,2.1,2.1,0,0,1-2.21-2.1c0-1.78,1.6-2.64,4-2.62v-.1c0-.37-.2-.88-1.25-.88a3.86,3.86,0,0,0-1.89.51l-.39-1.37a5.73,5.73,0,0,1,2.66-.6c2.28,0,3,1.34,3,3v2.38a10.48,10.48,0,0,0,.1,1.66Zm-.25-3.23c-1.12,0-2,.25-2,1.08a.76.76,0,0,0,.84.81,1.17,1.17,0,0,0,1.11-.79,2,2,0,0,0,0-.36Z"/><path class="cls-4" d="M338.76,240.93v2h1.52v1.57h-1.52v2.48c0,.83.19,1.21.84,1.21a3.36,3.36,0,0,0,.63-.06v1.61a4.21,4.21,0,0,1-1.38.18,2.2,2.2,0,0,1-1.6-.58,2.87,2.87,0,0,1-.59-2v-2.8h-.91v-1.57h.91v-1.48Z"/><path class="cls-4" d="M345.92,242.89l.93,3.18a16,16,0,0,1,.39,1.67h0c.12-.56.23-1.08.38-1.67l.88-3.18h2.25l-2.55,6.85h-2.13l-2.5-6.85Z"/><path class="cls-4" d="M358.32,246.24a3.44,3.44,0,0,1-3.62,3.66,3.36,3.36,0,0,1-3.54-3.53,3.42,3.42,0,0,1,3.66-3.63A3.33,3.33,0,0,1,358.32,246.24Zm-5,.07c0,1.18.49,2.06,1.4,2.06s1.36-.83,1.36-2.06c0-1-.39-2.06-1.36-2.06S353.36,245.3,353.36,246.31Z"/><path class="cls-4" d="M359.63,239.8h2.13v9.94h-2.13Z"/><path class="cls-4" d="M369.94,247.54c0,.9,0,1.63.05,2.2h-1.85l-.09-1H368a2.43,2.43,0,0,1-2.14,1.12c-1.39,0-2.41-.87-2.41-3v-4h2.14v3.69c0,1,.33,1.59,1.07,1.59a1.13,1.13,0,0,0,1.06-.74,1.09,1.09,0,0,0,.07-.46v-4.08h2.15Z"/><path class="cls-4" d="M374,240.93v2h1.53v1.57H374v2.48c0,.83.2,1.21.84,1.21a3.18,3.18,0,0,0,.63-.06l0,1.61a4.28,4.28,0,0,1-1.39.18,2.22,2.22,0,0,1-1.6-.58,2.88,2.88,0,0,1-.58-2v-2.8H371v-1.57h.91v-1.48Z"/><path class="cls-4" d="M376.78,245.19c0-.9,0-1.67-.06-2.3h1.85l.1,1h0a2.62,2.62,0,0,1,2.28-1.11c1.5,0,2.85,1.3,2.85,3.49,0,2.49-1.59,3.67-3.11,3.67a2.11,2.11,0,0,1-1.78-.79h0v3.41h-2.13Zm2.13,1.61a2,2,0,0,0,0,.45,1.3,1.3,0,0,0,1.25,1c.92,0,1.47-.77,1.47-1.93s-.49-1.92-1.44-1.92a1.33,1.33,0,0,0-1.28,1.08,1.5,1.5,0,0,0,0,.37Z"/><path class="cls-4" d="M389.05,249.74l-.13-.68h0a2.49,2.49,0,0,1-2,.84,2.1,2.1,0,0,1-2.22-2.1c0-1.78,1.6-2.64,4-2.62v-.1c0-.37-.19-.88-1.24-.88a3.82,3.82,0,0,0-1.89.51l-.4-1.37a5.77,5.77,0,0,1,2.66-.6c2.29,0,3,1.34,3,3v2.38a10.68,10.68,0,0,0,.09,1.66Zm-.26-3.23c-1.12,0-2,.25-2,1.08a.77.77,0,0,0,.84.81,1.16,1.16,0,0,0,1.11-.79,1.37,1.37,0,0,0,0-.36Z"/><path class="cls-4" d="M394.81,240.93v2h1.53v1.57h-1.53v2.48c0,.83.2,1.21.84,1.21a3.18,3.18,0,0,0,.63-.06l0,1.61a4.28,4.28,0,0,1-1.39.18,2.22,2.22,0,0,1-1.6-.58,2.87,2.87,0,0,1-.59-2v-2.8h-.91v-1.57h.91v-1.48Z"/><path class="cls-4" d="M397.3,248.61a1.23,1.23,0,0,1,1.26-1.3,1.3,1.3,0,0,1,0,2.59A1.23,1.23,0,0,1,397.3,248.61Z"/><path class="cls-4" d="M406.12,240.3v5.44c0,1.62.62,2.45,1.71,2.45s1.74-.79,1.74-2.45V240.3h2.13v5.3c0,2.91-1.47,4.3-3.94,4.3s-3.78-1.32-3.78-4.33V240.3Z"/><path class="cls-4" d="M415.85,240.93v2h1.53v1.57h-1.53v2.48c0,.83.2,1.21.84,1.21a3.18,3.18,0,0,0,.63-.06l0,1.61a4.28,4.28,0,0,1-1.39.18,2.2,2.2,0,0,1-1.59-.58,2.83,2.83,0,0,1-.59-2v-2.8h-.91v-1.57h.91v-1.48Z"/><path class="cls-4" d="M422.91,242.89l.55,2.81c.14.71.28,1.47.39,2.25h0c.14-.78.33-1.57.5-2.24l.73-2.82h1.68l.69,2.74c.18.77.36,1.54.5,2.32h0c.1-.78.24-1.55.39-2.34l.59-2.72h2.09L429,249.74h-2l-.64-2.41c-.17-.67-.3-1.28-.44-2.12h0a16.86,16.86,0,0,1-.45,2.12l-.69,2.41h-2l-2-6.85Z"/><path class="cls-4" d="M434.26,241a1.06,1.06,0,0,1-1.14,1.06,1.07,1.07,0,1,1,0-2.14A1.06,1.06,0,0,1,434.26,241Zm-2.2,8.75v-6.85h2.13v6.85Z"/><path class="cls-4" d="M435.89,247.88a4.11,4.11,0,0,0,1.83.52c.65,0,.91-.23.91-.58s-.21-.51-1-.78c-1.41-.48-2-1.25-1.94-2.06,0-1.27,1.09-2.24,2.78-2.24a4.63,4.63,0,0,1,1.94.39L440,244.6a3.36,3.36,0,0,0-1.49-.39c-.51,0-.81.21-.81.56s.27.49,1.11.79c1.3.44,1.85,1.1,1.86,2.11,0,1.28-1,2.21-3,2.21a4.87,4.87,0,0,1-2.21-.47Z"/><path class="cls-4" d="M444.18,241a1.07,1.07,0,0,1-1.15,1.06,1.07,1.07,0,1,1,0-2.14A1.07,1.07,0,0,1,444.18,241Zm-2.2,8.75v-6.85h2.13v6.85Z"/><path class="cls-4" d="M318.18,263.8c.07.88.94,1.3,1.93,1.3a6.06,6.06,0,0,0,1.89-.28l.28,1.44a6.75,6.75,0,0,1-2.48.42c-2.32,0-3.65-1.34-3.65-3.48a3.43,3.43,0,0,1,3.46-3.66c2.21,0,3.05,1.72,3.05,3.42a5,5,0,0,1-.07.84Zm2.5-1.46a1.23,1.23,0,0,0-1.2-1.38,1.4,1.4,0,0,0-1.32,1.38Z"/><path class="cls-4" d="M323.93,261.88c0-.86,0-1.58-.06-2.19h1.85l.1.94h0a2.52,2.52,0,0,1,2.12-1.09c1.4,0,2.45.92,2.45,2.94v4.06H328.3v-3.79c0-.88-.31-1.49-1.08-1.49a1.14,1.14,0,0,0-1.08.8,1.64,1.64,0,0,0-.08.53v4h-2.13Z"/><path class="cls-4" d="M334.33,257.79a1.07,1.07,0,0,1-1.15,1.06,1.07,1.07,0,1,1,0-2.14A1.06,1.06,0,0,1,334.33,257.79Zm-2.2,8.75v-6.85h2.13v6.85Z"/><path class="cls-4" d="M336,261.88c0-.86,0-1.58-.06-2.19h1.8l.09.93h.05a2.35,2.35,0,0,1,2.07-1.08,2,2,0,0,1,1.88,1.16h0a2.84,2.84,0,0,1,.88-.82,2.43,2.43,0,0,1,1.3-.34c1.32,0,2.31.92,2.31,3v4h-2.07v-3.72c0-1-.32-1.57-1-1.57a1,1,0,0,0-1,.74,1.71,1.71,0,0,0-.09.55v4H340.1v-3.83c0-.87-.31-1.46-1-1.46a1.08,1.08,0,0,0-1,.77,1.41,1.41,0,0,0-.09.53v4H336Z"/><path class="cls-4" d="M354.73,266.54l-.12-.68h-.05a2.46,2.46,0,0,1-2,.84,2.1,2.1,0,0,1-2.21-2.1c0-1.78,1.6-2.64,4-2.62v-.1c0-.36-.2-.88-1.25-.88a3.75,3.75,0,0,0-1.89.52l-.39-1.38a5.73,5.73,0,0,1,2.66-.6c2.28,0,3,1.34,3,3v2.38a10.4,10.4,0,0,0,.1,1.66Zm-.25-3.23c-1.12,0-2,.25-2,1.08a.76.76,0,0,0,.84.81,1.17,1.17,0,0,0,1.11-.79,1.37,1.37,0,0,0,0-.36Z"/><path class="cls-4" d="M364.87,256.6v7.9c0,.77,0,1.58.05,2H363l-.09-1h0a2.4,2.4,0,0,1-2.15,1.16c-1.62,0-2.92-1.39-2.92-3.52,0-2.31,1.43-3.64,3.07-3.64a2.07,2.07,0,0,1,1.8.77h0V256.6Zm-2.13,6a2.31,2.31,0,0,0,0-.37,1.27,1.27,0,0,0-1.25-1.05c-1,0-1.47.86-1.47,1.94s.58,1.89,1.46,1.89a1.24,1.24,0,0,0,1.23-1,1.53,1.53,0,0,0,.06-.49Z"/><path class="cls-4" d="M420.06,320h2.15v7.65H426v1.79h-5.9Z"/><path class="cls-4" d="M433.79,326a3.44,3.44,0,0,1-3.62,3.66,3.36,3.36,0,0,1-3.54-3.53,3.41,3.41,0,0,1,3.65-3.63A3.33,3.33,0,0,1,433.79,326Zm-5,.07c0,1.18.49,2.06,1.4,2.06s1.36-.83,1.36-2.06c0-1-.4-2.06-1.36-2.06S428.83,325,428.83,326.05Z"/><path class="cls-4" d="M435.1,324.89c0-1,0-1.67-.06-2.26h1.84l.07,1.26H437a2,2,0,0,1,2.3-1.38v2a2.84,2.84,0,0,0-.57-.06,1.37,1.37,0,0,0-1.46,1.08,2.39,2.39,0,0,0,0,.48v3.47H435.1Z"/><path class="cls-4" d="M442,326.74c.07.88.93,1.3,1.93,1.3a6.06,6.06,0,0,0,1.89-.28l.28,1.44a6.75,6.75,0,0,1-2.48.42c-2.32,0-3.65-1.34-3.65-3.49a3.42,3.42,0,0,1,3.46-3.65c2.21,0,3.05,1.72,3.05,3.42a5,5,0,0,1-.07.84Zm2.5-1.46a1.23,1.23,0,0,0-1.2-1.39,1.41,1.41,0,0,0-1.32,1.39Z"/><path class="cls-4" d="M447.7,324.82c0-.86,0-1.59-.06-2.19h1.8l.09.93h.05a2.35,2.35,0,0,1,2.07-1.08,2,2,0,0,1,1.88,1.16h0a3.16,3.16,0,0,1,.89-.83,2.51,2.51,0,0,1,1.3-.33c1.32,0,2.31.92,2.31,3v4H456v-3.73c0-1-.32-1.56-1-1.56a1,1,0,0,0-1,.74,1.65,1.65,0,0,0-.09.54v4h-2.07v-3.84c0-.87-.31-1.45-1-1.45a1.07,1.07,0,0,0-1,.77,1.38,1.38,0,0,0-.09.53v4H447.7Z"/><path class="cls-4" d="M464.77,320.73a1.07,1.07,0,0,1-1.15,1.06,1.07,1.07,0,1,1,0-2.14A1.07,1.07,0,0,1,464.77,320.73Zm-2.2,8.75v-6.85h2.13v6.85Z"/><path class="cls-4" d="M466.4,324.93c0-.9,0-1.67,0-2.3h1.85l.09.95h0a2.66,2.66,0,0,1,2.29-1.1c1.49,0,2.84,1.3,2.84,3.48,0,2.5-1.58,3.68-3.11,3.68a2.13,2.13,0,0,1-1.78-.79h0v3.4H466.4Zm2.13,1.61a2.89,2.89,0,0,0,0,.45,1.3,1.3,0,0,0,1.25,1c.93,0,1.47-.77,1.47-1.94s-.49-1.92-1.44-1.92a1.35,1.35,0,0,0-1.28,1.08,2.22,2.22,0,0,0,0,.38Z"/><path class="cls-4" d="M474.76,327.62a4.15,4.15,0,0,0,1.84.52c.64,0,.91-.23.91-.58s-.21-.52-1-.78c-1.42-.48-2-1.25-1.95-2.06,0-1.28,1.09-2.24,2.79-2.24a4.58,4.58,0,0,1,1.93.39l-.38,1.47a3.32,3.32,0,0,0-1.48-.39c-.52,0-.81.21-.81.56s.26.49,1.1.78c1.31.45,1.85,1.11,1.87,2.12,0,1.27-1,2.21-3,2.21a5,5,0,0,1-2.22-.47Z"/><path class="cls-4" d="M487.31,327.28c0,.9,0,1.63.06,2.2h-1.85l-.1-1h0a2.46,2.46,0,0,1-2.15,1.13c-1.38,0-2.41-.87-2.41-3v-4H483v3.69c0,1,.32,1.59,1.06,1.59a1.14,1.14,0,0,0,1.07-.74,1.31,1.31,0,0,0,.07-.46v-4.08h2.14Z"/><path class="cls-4" d="M489,324.82c0-.86,0-1.59-.05-2.19h1.79l.1.93h0a2.36,2.36,0,0,1,2.07-1.08,1.94,1.94,0,0,1,1.88,1.16h0a3.13,3.13,0,0,1,.88-.83,2.51,2.51,0,0,1,1.3-.33c1.32,0,2.32.92,2.32,3v4h-2.08v-3.73c0-1-.32-1.56-1-1.56a1,1,0,0,0-1,.74,2,2,0,0,0-.08.54v4h-2.07v-3.84c0-.87-.31-1.45-1-1.45a1.09,1.09,0,0,0-1,.77,1.37,1.37,0,0,0-.08.53v4H489Z"/><path class="cls-4" d="M510.52,319.54v7.9c0,.77,0,1.58.06,2h-1.89l-.1-1h0a2.39,2.39,0,0,1-2.14,1.17c-1.63,0-2.93-1.39-2.93-3.52,0-2.31,1.43-3.64,3.07-3.64a2.05,2.05,0,0,1,1.8.77h0v-3.71Zm-2.13,6a2.43,2.43,0,0,0,0-.38,1.27,1.27,0,0,0-1.24-1c-1,0-1.47.87-1.47,1.95s.57,1.89,1.45,1.89a1.25,1.25,0,0,0,1.24-1,1.94,1.94,0,0,0,.05-.49Z"/><path class="cls-4" d="M519,326a3.44,3.44,0,0,1-3.61,3.66,3.36,3.36,0,0,1-3.55-3.53,3.42,3.42,0,0,1,3.66-3.63A3.33,3.33,0,0,1,519,326Zm-5,.07c0,1.18.49,2.06,1.4,2.06s1.36-.83,1.36-2.06c0-1-.39-2.06-1.36-2.06S514,325,514,326.05Z"/><path class="cls-4" d="M520.3,319.54h2.13v9.94H520.3Z"/><path class="cls-4" d="M530.92,326a3.44,3.44,0,0,1-3.62,3.66,3.36,3.36,0,0,1-3.54-3.53,3.42,3.42,0,0,1,3.66-3.63A3.33,3.33,0,0,1,530.92,326Zm-5,.07c0,1.18.49,2.06,1.4,2.06s1.36-.83,1.36-2.06c0-1-.39-2.06-1.36-2.06S526,325,526,326.05Z"/><path class="cls-4" d="M532.23,324.89c0-1,0-1.67-.05-2.26H534l.07,1.26h.06a2,2,0,0,1,1.85-1.41,2,2,0,0,1,.44,0v2a2.76,2.76,0,0,0-.57-.06,1.37,1.37,0,0,0-1.46,1.08,3.45,3.45,0,0,0,0,.48v3.47h-2.13Z"/><path class="cls-4" d="M540.37,327.62a4.11,4.11,0,0,0,1.83.52c.64,0,.91-.23.91-.58s-.21-.52-1-.78c-1.41-.48-2-1.25-1.94-2.06,0-1.28,1.09-2.24,2.78-2.24a4.63,4.63,0,0,1,1.94.39l-.38,1.47A3.36,3.36,0,0,0,543,324c-.51,0-.81.21-.81.56s.27.49,1.11.78c1.3.45,1.85,1.11,1.86,2.12,0,1.27-1,2.21-3,2.21a5,5,0,0,1-2.21-.47Z"/><path class="cls-4" d="M548.66,320.73a1.07,1.07,0,0,1-1.15,1.06,1.07,1.07,0,1,1,0-2.14A1.07,1.07,0,0,1,548.66,320.73Zm-2.2,8.75v-6.85h2.12v6.85Z"/><path class="cls-4" d="M552.67,320.67v2h1.53v1.57h-1.53v2.48c0,.83.2,1.2.84,1.2a3.32,3.32,0,0,0,.63-.05l0,1.61a4.28,4.28,0,0,1-1.39.18,2.22,2.22,0,0,1-1.6-.59,2.83,2.83,0,0,1-.58-2v-2.8h-.91v-1.57h.91v-1.48Z"/><path class="cls-4" d="M423.89,346.28l-.13-.69h0a2.47,2.47,0,0,1-2,.85,2.11,2.11,0,0,1-2.22-2.11c0-1.78,1.6-2.63,4-2.62v-.09c0-.37-.19-.89-1.24-.89a3.83,3.83,0,0,0-1.89.52l-.4-1.37a5.65,5.65,0,0,1,2.67-.6c2.28,0,3,1.34,3,3v2.38a10.62,10.62,0,0,0,.1,1.67Zm-.26-3.24c-1.12,0-2,.26-2,1.08a.77.77,0,0,0,.85.82,1.15,1.15,0,0,0,1.1-.79,1.42,1.42,0,0,0,0-.36Z"/><path class="cls-4" d="M427.38,341.62c0-.86,0-1.59-.05-2.19h1.79l.1.93h0a2.36,2.36,0,0,1,2.07-1.08,1.94,1.94,0,0,1,1.88,1.16h0a3.13,3.13,0,0,1,.88-.83,2.51,2.51,0,0,1,1.3-.33c1.32,0,2.32.92,2.32,3v4h-2.08v-3.73c0-1-.32-1.56-1-1.56a1,1,0,0,0-1,.74,2,2,0,0,0-.08.54v4h-2.07v-3.84c0-.87-.31-1.45-1-1.45a1.09,1.09,0,0,0-1,.77,1.37,1.37,0,0,0-.08.53v4h-2.08Z"/><path class="cls-4" d="M441.06,343.54c.07.88.94,1.3,1.94,1.3a6.15,6.15,0,0,0,1.89-.28l.28,1.44a6.78,6.78,0,0,1-2.48.42c-2.33,0-3.66-1.34-3.66-3.49a3.43,3.43,0,0,1,3.46-3.65c2.22,0,3.05,1.72,3.05,3.42a5,5,0,0,1-.07.84Zm2.51-1.46a1.23,1.23,0,0,0-1.2-1.39,1.39,1.39,0,0,0-1.32,1.39Z"/><path class="cls-4" d="M449.2,337.47v2h1.52V341H449.2v2.48c0,.83.19,1.2.84,1.2a3.48,3.48,0,0,0,.63-.05v1.61a4.23,4.23,0,0,1-1.39.18,2.2,2.2,0,0,1-1.59-.59,2.83,2.83,0,0,1-.59-2V341h-.91v-1.57h.91V338Z"/><path class="cls-4" d="M451,348a22.78,22.78,0,0,0,1-4l2.17-.14a19.28,19.28,0,0,1-1.76,4Z"/><path class="cls-4" d="M463.45,346.11a5.15,5.15,0,0,1-1.91.31,3.31,3.31,0,0,1-3.62-3.5,3.57,3.57,0,0,1,3.92-3.64,5.14,5.14,0,0,1,1.62.26l-.33,1.59a2.78,2.78,0,0,0-1.19-.21,1.92,1.92,0,0,0,0,3.83,3.22,3.22,0,0,0,1.22-.21Z"/><path class="cls-4" d="M471.23,342.78a3.43,3.43,0,0,1-3.61,3.66,3.36,3.36,0,0,1-3.54-3.53,3.41,3.41,0,0,1,3.65-3.63A3.33,3.33,0,0,1,471.23,342.78Zm-5,.07c0,1.18.49,2.06,1.4,2.06s1.36-.83,1.36-2.06c0-1-.4-2.06-1.36-2.06S466.28,341.84,466.28,342.85Z"/><path class="cls-4" d="M472.55,341.62c0-.86,0-1.59-.06-2.19h1.85l.1.94h0a2.51,2.51,0,0,1,2.11-1.09c1.41,0,2.46.92,2.46,2.94v4.06h-2.13v-3.79c0-.89-.31-1.49-1.08-1.49a1.14,1.14,0,0,0-1.08.8,1.34,1.34,0,0,0-.08.53v3.95h-2.13Z"/><path class="cls-4" d="M480.74,344.42a4.11,4.11,0,0,0,1.83.52c.65,0,.91-.23.91-.58s-.21-.52-1-.78c-1.41-.48-2-1.25-1.94-2.06,0-1.28,1.09-2.24,2.78-2.24a4.63,4.63,0,0,1,1.94.39l-.38,1.47a3.36,3.36,0,0,0-1.49-.39c-.51,0-.81.21-.81.56s.27.49,1.11.78c1.3.45,1.85,1.11,1.86,2.12,0,1.27-1,2.21-3,2.21a5,5,0,0,1-2.21-.47Z"/><path class="cls-4" d="M488.47,343.54c.07.88.93,1.3,1.93,1.3a6.06,6.06,0,0,0,1.89-.28l.28,1.44a6.75,6.75,0,0,1-2.48.42c-2.32,0-3.66-1.34-3.66-3.49a3.43,3.43,0,0,1,3.46-3.65c2.22,0,3.06,1.72,3.06,3.42a5,5,0,0,1-.07.84Zm2.5-1.46a1.23,1.23,0,0,0-1.2-1.39,1.4,1.4,0,0,0-1.32,1.39Z"/><path class="cls-4" d="M499.36,346.11a5.15,5.15,0,0,1-1.91.31,3.31,3.31,0,0,1-3.62-3.5,3.57,3.57,0,0,1,3.92-3.64,5.14,5.14,0,0,1,1.62.26l-.33,1.59a2.78,2.78,0,0,0-1.19-.21,1.92,1.92,0,0,0,0,3.83,3.22,3.22,0,0,0,1.22-.21Z"/><path class="cls-4" d="M503.14,337.47v2h1.52V341h-1.52v2.48c0,.83.19,1.2.84,1.2a3.48,3.48,0,0,0,.63-.05v1.61a4.21,4.21,0,0,1-1.38.18,2.21,2.21,0,0,1-1.6-.59,2.83,2.83,0,0,1-.59-2V341h-.91v-1.57h.91V338Z"/><path class="cls-4" d="M507.46,343.54c.07.88.94,1.3,1.94,1.3a6.15,6.15,0,0,0,1.89-.28l.28,1.44a6.78,6.78,0,0,1-2.48.42c-2.33,0-3.66-1.34-3.66-3.49a3.43,3.43,0,0,1,3.46-3.65c2.22,0,3.06,1.72,3.06,3.42a6.29,6.29,0,0,1-.07.84Zm2.51-1.46a1.23,1.23,0,0,0-1.2-1.39,1.39,1.39,0,0,0-1.32,1.39Z"/><path class="cls-4" d="M515.6,337.47v2h1.52V341H515.6v2.48c0,.83.19,1.2.84,1.2a3.48,3.48,0,0,0,.63-.05v1.61a4.21,4.21,0,0,1-1.38.18,2.21,2.21,0,0,1-1.6-.59,2.83,2.83,0,0,1-.59-2V341h-.91v-1.57h.91V338Z"/><path class="cls-4" d="M524.81,344.08c0,.9,0,1.63.06,2.2H523l-.1-1h0a2.46,2.46,0,0,1-2.15,1.13c-1.38,0-2.4-.87-2.4-3v-4h2.14v3.69c0,1,.32,1.59,1.06,1.59a1.14,1.14,0,0,0,1.07-.74,1.31,1.31,0,0,0,.07-.46v-4.08h2.14Z"/><path class="cls-4" d="M528.15,343.54c.07.88.94,1.3,1.94,1.3a6.11,6.11,0,0,0,1.89-.28l.28,1.44a6.78,6.78,0,0,1-2.48.42c-2.33,0-3.66-1.34-3.66-3.49a3.43,3.43,0,0,1,3.46-3.65c2.22,0,3.06,1.72,3.06,3.42a6.29,6.29,0,0,1-.07.84Zm2.51-1.46a1.23,1.23,0,0,0-1.2-1.39,1.4,1.4,0,0,0-1.32,1.39Z"/><path class="cls-4" d="M533.91,341.69c0-1,0-1.67-.06-2.26h1.84l.07,1.26h0a2,2,0,0,1,2.3-1.38v2a2.84,2.84,0,0,0-.57-.06,1.37,1.37,0,0,0-1.46,1.08,2.39,2.39,0,0,0,0,.48v3.47h-2.13Z"/><path class="cls-4" d="M546,346.28l-.13-.69h0a2.47,2.47,0,0,1-2,.85,2.1,2.1,0,0,1-2.21-2.11c0-1.78,1.59-2.63,4-2.62v-.09c0-.37-.2-.89-1.25-.89a3.86,3.86,0,0,0-1.89.52l-.39-1.37a5.57,5.57,0,0,1,2.66-.6c2.28,0,3,1.34,3,3v2.38a10.62,10.62,0,0,0,.1,1.67ZM545.7,343c-1.12,0-2,.26-2,1.08a.77.77,0,0,0,.84.82,1.17,1.17,0,0,0,1.11-.79,2.09,2.09,0,0,0,0-.36Z"/><path class="cls-4" d="M556.09,336.34v7.9c0,.77,0,1.58,0,2h-1.89l-.1-1h0a2.41,2.41,0,0,1-2.15,1.17c-1.62,0-2.93-1.39-2.93-3.52,0-2.31,1.43-3.64,3.07-3.64a2.09,2.09,0,0,1,1.81.77h0v-3.71Zm-2.13,6c0-.11,0-.27,0-.38a1.29,1.29,0,0,0-1.25-1.05c-1,0-1.47.87-1.47,2s.58,1.89,1.46,1.89a1.24,1.24,0,0,0,1.23-1,1.93,1.93,0,0,0,.06-.49Z"/><path class="cls-4" d="M560,337.53a1.07,1.07,0,0,1-1.15,1.06,1.07,1.07,0,1,1,0-2.14A1.06,1.06,0,0,1,560,337.53Zm-2.2,8.75v-6.85h2.13v6.85Z"/><path class="cls-4" d="M561.63,341.73c0-.9,0-1.67-.06-2.3h1.85l.1.95h0a2.63,2.63,0,0,1,2.28-1.1c1.5,0,2.84,1.3,2.84,3.48,0,2.5-1.58,3.68-3.11,3.68a2.14,2.14,0,0,1-1.78-.79h0v3.4h-2.13Zm2.13,1.61a2,2,0,0,0,0,.45,1.29,1.29,0,0,0,1.24,1c.93,0,1.48-.77,1.48-1.94s-.49-1.92-1.45-1.92A1.34,1.34,0,0,0,563.8,342a1.53,1.53,0,0,0,0,.38Z"/><path class="cls-4" d="M573.23,341.9v1.41h-3.67V341.9Z"/><path class="cls-4" d="M422.19,354.33a1.07,1.07,0,0,1-1.15,1.06,1.07,1.07,0,1,1,0-2.14A1.06,1.06,0,0,1,422.19,354.33Zm-2.2,8.75v-6.85h2.13v6.85Z"/><path class="cls-4" d="M423.81,361.22a4.19,4.19,0,0,0,1.84.52c.64,0,.91-.23.91-.58s-.21-.52-1-.78c-1.41-.48-2-1.25-1.95-2.06,0-1.28,1.1-2.24,2.79-2.24a4.58,4.58,0,0,1,1.93.39l-.37,1.47a3.36,3.36,0,0,0-1.49-.39c-.52,0-.81.21-.81.56s.27.49,1.11.78c1.3.45,1.84,1.11,1.86,2.12,0,1.27-1,2.21-3,2.21a4.81,4.81,0,0,1-2.21-.47Z"/><path class="cls-4" d="M435,362.91a5.09,5.09,0,0,1-1.9.31,3.32,3.32,0,0,1-3.63-3.5,3.57,3.57,0,0,1,3.92-3.64,5.21,5.21,0,0,1,1.63.26l-.34,1.59a2.78,2.78,0,0,0-1.19-.21,1.92,1.92,0,0,0,0,3.83,3.18,3.18,0,0,0,1.22-.21Z"/><path class="cls-4" d="M438.42,354.33a1.07,1.07,0,0,1-1.15,1.06,1.07,1.07,0,1,1,0-2.14A1.07,1.07,0,0,1,438.42,354.33Zm-2.2,8.75v-6.85h2.13v6.85Z"/><path class="cls-4" d="M440.05,358.42c0-.86,0-1.59-.05-2.19h1.85l.09.94H442a2.51,2.51,0,0,1,2.11-1.09c1.4,0,2.45.92,2.45,2.94v4.06h-2.13v-3.79c0-.89-.3-1.49-1.07-1.49a1.14,1.14,0,0,0-1.08.8,1.36,1.36,0,0,0-.09.53v3.95h-2.13Z"/><path class="cls-4" d="M454.8,356.23c0,.44-.06,1-.06,2v3.83a4,4,0,0,1-1,3.08,4.26,4.26,0,0,1-2.79.84,5.36,5.36,0,0,1-2.47-.53l.42-1.61a4.26,4.26,0,0,0,2,.51,1.63,1.63,0,0,0,1.78-1.8v-.45h0a2.19,2.19,0,0,1-1.85.9c-1.69,0-2.89-1.38-2.89-3.35,0-2.2,1.42-3.6,3.11-3.6a2.06,2.06,0,0,1,1.87,1h0l.07-.81ZM452.61,359a1.56,1.56,0,0,0,0-.39,1.17,1.17,0,0,0-1.15-.94c-.77,0-1.4.7-1.4,1.95,0,1,.51,1.82,1.4,1.82a1.16,1.16,0,0,0,1.12-.87,1.72,1.72,0,0,0,.07-.56Z"/><path class="cls-4" d="M460.91,360.34c.07.88.94,1.3,1.94,1.3a6.11,6.11,0,0,0,1.89-.28l.28,1.44a6.78,6.78,0,0,1-2.48.42c-2.33,0-3.66-1.34-3.66-3.49a3.43,3.43,0,0,1,3.46-3.65c2.22,0,3.06,1.72,3.06,3.42a6.29,6.29,0,0,1-.07.84Zm2.51-1.46a1.23,1.23,0,0,0-1.2-1.39,1.4,1.4,0,0,0-1.32,1.39Z"/><path class="cls-4" d="M466.67,353.14h2.13v9.94h-2.13Z"/><path class="cls-4" d="M472.72,354.33a1.07,1.07,0,0,1-1.15,1.06,1.07,1.07,0,1,1,0-2.14A1.07,1.07,0,0,1,472.72,354.33Zm-2.2,8.75v-6.85h2.13v6.85Z"/><path class="cls-4" d="M476.73,354.27v2h1.53v1.57h-1.53v2.48c0,.83.2,1.2.84,1.2a3.32,3.32,0,0,0,.63-.05l0,1.61a4.28,4.28,0,0,1-1.39.18,2.2,2.2,0,0,1-1.59-.59,2.78,2.78,0,0,1-.59-2v-2.8h-.91v-1.57h.91v-1.48Z"/><path class="cls-4" d="M478.55,364.75a23.7,23.7,0,0,0,1-4l2.17-.14a19.28,19.28,0,0,1-1.76,4Z"/><path class="cls-4" d="M485.83,361.22a4.15,4.15,0,0,0,1.84.52c.64,0,.91-.23.91-.58s-.21-.52-1-.78c-1.42-.48-2-1.25-1.95-2.06,0-1.28,1.09-2.24,2.79-2.24a4.58,4.58,0,0,1,1.93.39l-.38,1.47a3.28,3.28,0,0,0-1.48-.39c-.52,0-.81.21-.81.56s.26.49,1.1.78c1.31.45,1.85,1.11,1.87,2.12,0,1.27-1,2.21-3,2.21a4.88,4.88,0,0,1-2.22-.47Z"/><path class="cls-4" d="M493.56,360.34c.07.88.94,1.3,1.93,1.3a6.06,6.06,0,0,0,1.89-.28l.29,1.44a6.82,6.82,0,0,1-2.48.42c-2.33,0-3.66-1.34-3.66-3.49a3.43,3.43,0,0,1,3.46-3.65c2.21,0,3.05,1.72,3.05,3.42a5,5,0,0,1-.07.84Zm2.51-1.46a1.24,1.24,0,0,0-1.21-1.39,1.39,1.39,0,0,0-1.31,1.39Z"/><path class="cls-4" d="M506,353.14V361c0,.77,0,1.58.06,2h-1.89l-.1-1h0a2.39,2.39,0,0,1-2.14,1.17c-1.63,0-2.93-1.39-2.93-3.52,0-2.31,1.43-3.64,3.07-3.64a2.09,2.09,0,0,1,1.81.77h0v-3.71Zm-2.13,6c0-.11,0-.26,0-.38a1.29,1.29,0,0,0-1.25-1.05c-1,0-1.47.87-1.47,1.95s.57,1.89,1.46,1.89a1.25,1.25,0,0,0,1.23-1,1.94,1.94,0,0,0,.05-.49Z"/><path class="cls-4" d="M517.12,353.14V361c0,.77,0,1.58.06,2h-1.89l-.1-1h0a2.39,2.39,0,0,1-2.14,1.17c-1.62,0-2.93-1.39-2.93-3.52,0-2.31,1.43-3.64,3.07-3.64a2.09,2.09,0,0,1,1.81.77h0v-3.71Zm-2.12,6c0-.11,0-.26,0-.38a1.29,1.29,0,0,0-1.25-1.05c-1,0-1.47.87-1.47,1.95s.57,1.89,1.46,1.89a1.25,1.25,0,0,0,1.23-1A1.93,1.93,0,0,0,515,360Z"/><path class="cls-4" d="M521,354.33a1.07,1.07,0,0,1-1.15,1.06,1.07,1.07,0,1,1,0-2.14A1.07,1.07,0,0,1,521,354.33Zm-2.2,8.75v-6.85H521v6.85Z"/><path class="cls-4" d="M526.56,363.08l-.13-.69h0a2.47,2.47,0,0,1-2,.85,2.1,2.1,0,0,1-2.21-2.11c0-1.77,1.59-2.63,4-2.62v-.09c0-.37-.2-.89-1.25-.89a3.86,3.86,0,0,0-1.89.52l-.39-1.37a5.57,5.57,0,0,1,2.66-.6c2.28,0,3,1.34,3,2.95v2.38a10.62,10.62,0,0,0,.1,1.67Zm-.25-3.23c-1.12,0-2,.25-2,1.07a.77.77,0,0,0,.84.82,1.15,1.15,0,0,0,1.1-.79,1.42,1.42,0,0,0,0-.36Z"/><path class="cls-4" d="M530.06,358.42c0-.86,0-1.59-.06-2.19h1.79l.1.93h0a2.38,2.38,0,0,1,2.08-1.08,1.93,1.93,0,0,1,1.87,1.16h0a3.13,3.13,0,0,1,.88-.83,2.52,2.52,0,0,1,1.31-.33c1.31,0,2.31.92,2.31,3v4h-2.08v-3.72c0-1-.32-1.57-1-1.57a1,1,0,0,0-1,.74,1.67,1.67,0,0,0-.09.55v4h-2.07v-3.84c0-.86-.31-1.45-1-1.45a1.09,1.09,0,0,0-1,.77,1.37,1.37,0,0,0-.08.53v4h-2.07Z"/><path class="cls-4" d="M420,375.22c0-.86,0-1.59-.05-2.19h1.85l.09.94h0a2.55,2.55,0,0,1,2.12-1.09c1.4,0,2.45.92,2.45,2.94v4.06h-2.13v-3.8c0-.88-.31-1.48-1.08-1.48a1.13,1.13,0,0,0-1.07.8,1.36,1.36,0,0,0-.09.53v3.95H420Z"/><path class="cls-4" d="M435,376.38a3.44,3.44,0,0,1-3.61,3.66,3.36,3.36,0,0,1-3.55-3.54,3.42,3.42,0,0,1,3.66-3.62A3.33,3.33,0,0,1,435,376.38Zm-5,.07c0,1.18.49,2.06,1.4,2.06s1.36-.83,1.36-2.06c0-1-.39-2.06-1.36-2.06S430,375.44,430,376.45Z"/><path class="cls-4" d="M436.27,375.22c0-.86,0-1.59,0-2.19h1.85l.1.94h0a2.51,2.51,0,0,1,2.11-1.09c1.4,0,2.45.92,2.45,2.94v4.06h-2.13v-3.8c0-.88-.3-1.48-1.07-1.48a1.14,1.14,0,0,0-1.08.8,1.36,1.36,0,0,0-.09.53v3.95h-2.13Z"/><path class="cls-4" d="M450.94,377.68c0,.9,0,1.63.05,2.2h-1.85l-.1-1h0a2.45,2.45,0,0,1-2.14,1.12c-1.39,0-2.41-.87-2.41-3v-4h2.14v3.69c0,1,.33,1.59,1.07,1.59a1.13,1.13,0,0,0,1.06-.74,1.11,1.11,0,0,0,.07-.46V373h2.15Z"/><path class="cls-4" d="M452.64,375.22c0-.86,0-1.59-.06-2.19h1.8l.1.93h0a2.35,2.35,0,0,1,2.07-1.08,2,2,0,0,1,1.88,1.16h0a3.13,3.13,0,0,1,.88-.83,2.51,2.51,0,0,1,1.3-.33c1.32,0,2.31.92,2.31,3v4h-2.07v-3.72c0-1-.32-1.57-1-1.57a1,1,0,0,0-1,.74,1.67,1.67,0,0,0-.08.55v4h-2.08V376c0-.87-.31-1.45-1-1.45a1.08,1.08,0,0,0-1,.77,1.38,1.38,0,0,0-.09.53v4h-2.07Z"/><path class="cls-4" d="M464.68,375.22c0-.86,0-1.59-.06-2.19h1.8l.1.93h0a2.35,2.35,0,0,1,2.07-1.08,2,2,0,0,1,1.88,1.16h0a3.13,3.13,0,0,1,.88-.83,2.51,2.51,0,0,1,1.3-.33c1.32,0,2.31.92,2.31,3v4H473v-3.72c0-1-.32-1.57-1-1.57a1,1,0,0,0-1,.74,1.67,1.67,0,0,0-.08.55v4h-2.08V376c0-.87-.31-1.45-1-1.45a1.08,1.08,0,0,0-1,.77,1.38,1.38,0,0,0-.09.53v4h-2.07Z"/><path class="cls-4" d="M478.05,373l1,3.36c.12.41.26.91.34,1.28h0c.1-.37.21-.88.31-1.28l.84-3.36h2.28l-1.59,4.51c-1,2.72-1.64,3.81-2.41,4.5a4,4,0,0,1-2.06.94l-.45-1.81a2.81,2.81,0,0,0,.93-.36,2.49,2.49,0,0,0,.88-.86.56.56,0,0,0,.11-.31.71.71,0,0,0-.1-.35L475.68,373Z"/><path class="cls-4" d="M486.61,375.22c0-.86,0-1.59-.06-2.19h1.85l.1.94h0a2.51,2.51,0,0,1,2.11-1.09c1.4,0,2.45.92,2.45,2.94v4.06H491v-3.8c0-.88-.31-1.48-1.08-1.48a1.14,1.14,0,0,0-1.08.8,1.36,1.36,0,0,0-.09.53v3.95h-2.12Z"/><path class="cls-4" d="M497,371.13a1.07,1.07,0,0,1-1.15,1.06,1.07,1.07,0,1,1,0-2.14A1.07,1.07,0,0,1,497,371.13Zm-2.2,8.75V373h2.13v6.85Z"/><path class="cls-4" d="M498.59,379.88c0-.45.06-1.27.06-2v-7.9h2.12v3.9h0a2.44,2.44,0,0,1,2.08-1c1.63,0,2.84,1.36,2.83,3.46,0,2.46-1.57,3.7-3.14,3.7a2.28,2.28,0,0,1-2.06-1.11h0l-.08.95Zm2.18-2.91a1.52,1.52,0,0,0,.05.38,1.28,1.28,0,0,0,1.24,1c.91,0,1.47-.7,1.47-1.93,0-1.06-.47-1.9-1.47-1.9a1.31,1.31,0,0,0-1.24,1.05,1.6,1.6,0,0,0-.05.39Z"/><path class="cls-4" d="M507,369.94h2.13v3.9h0a2.77,2.77,0,0,1,.85-.7,2.44,2.44,0,0,1,1.1-.26c1.36,0,2.4.94,2.4,3v4h-2.13v-3.77c0-.89-.31-1.51-1.11-1.51a1.12,1.12,0,0,0-1.06.74,1.3,1.3,0,0,0-.07.48v4.06H507Z"/><path class="cls-4" d="M519.69,377.14c.07.88.94,1.3,1.93,1.3a6.06,6.06,0,0,0,1.89-.28l.28,1.44a6.75,6.75,0,0,1-2.48.42c-2.32,0-3.65-1.34-3.65-3.49a3.43,3.43,0,0,1,3.46-3.65c2.21,0,3,1.72,3,3.41a5,5,0,0,1-.07.85Zm2.51-1.46a1.24,1.24,0,0,0-1.21-1.39,1.4,1.4,0,0,0-1.32,1.39Z"/><path class="cls-4" d="M531.9,377.68c0,.9,0,1.63.06,2.2h-1.85l-.1-1h0a2.47,2.47,0,0,1-2.15,1.12c-1.38,0-2.41-.87-2.41-3v-4h2.15v3.69c0,1,.32,1.59,1.06,1.59a1.14,1.14,0,0,0,1.07-.74,1.31,1.31,0,0,0,.07-.46V373h2.14Z"/><path class="cls-4" d="M535.8,371.13a1.07,1.07,0,0,1-1.15,1.06,1.07,1.07,0,1,1,0-2.14A1.06,1.06,0,0,1,535.8,371.13Zm-2.2,8.75V373h2.13v6.85Z"/><path class="cls-4" d="M537.43,378a4.11,4.11,0,0,0,1.83.52c.64,0,.91-.23.91-.58s-.21-.52-1-.78c-1.41-.48-2-1.25-1.95-2.06,0-1.28,1.1-2.24,2.79-2.24a4.63,4.63,0,0,1,1.94.39l-.38,1.47a3.36,3.36,0,0,0-1.49-.39c-.52,0-.81.21-.81.56s.27.49,1.11.78c1.3.45,1.85,1.11,1.86,2.12,0,1.27-1,2.21-3,2.21a4.7,4.7,0,0,1-2.21-.48Z"/><path class="cls-4" d="M543.52,375.22c0-.86,0-1.59-.06-2.19h1.79l.1.93h0a2.38,2.38,0,0,1,2.08-1.08,1.93,1.93,0,0,1,1.87,1.16h0a3.13,3.13,0,0,1,.88-.83,2.52,2.52,0,0,1,1.31-.33c1.31,0,2.31.92,2.31,3v4h-2.08v-3.72c0-1-.32-1.57-1-1.57a1,1,0,0,0-1,.74,2,2,0,0,0-.08.55v4h-2.07V376c0-.87-.31-1.45-1-1.45a1.09,1.09,0,0,0-1,.77,1.37,1.37,0,0,0-.08.53v4h-2.07Z"/><path class="cls-4" d="M562.32,376.38a3.44,3.44,0,0,1-3.61,3.66,3.36,3.36,0,0,1-3.55-3.54,3.42,3.42,0,0,1,3.66-3.62A3.33,3.33,0,0,1,562.32,376.38Zm-5,.07c0,1.18.49,2.06,1.4,2.06s1.36-.83,1.36-2.06c0-1-.39-2.06-1.36-2.06S557.36,375.44,557.36,376.45Z"/><path class="cls-4" d="M570.32,369.94v7.9c0,.77,0,1.58,0,2h-1.89l-.1-1h0a2.39,2.39,0,0,1-2.14,1.17c-1.62,0-2.93-1.39-2.93-3.52,0-2.31,1.43-3.64,3.07-3.64a2.09,2.09,0,0,1,1.81.77h0v-3.71Zm-2.13,6c0-.11,0-.26,0-.38a1.29,1.29,0,0,0-1.25-1.05c-1,0-1.47.87-1.47,1.95s.57,1.89,1.46,1.89a1.25,1.25,0,0,0,1.23-1,1.93,1.93,0,0,0,.06-.49Z"/><path class="cls-4" d="M422.37,387.87v2h1.53v1.57h-1.53v2.48c0,.83.2,1.2.84,1.2a3.32,3.32,0,0,0,.63-.05l0,1.61a4.28,4.28,0,0,1-1.39.18,2.24,2.24,0,0,1-1.6-.59,2.83,2.83,0,0,1-.58-2v-2.8h-.91v-1.57h.91v-1.48Z"/><path class="cls-4" d="M427.33,387.93a1.07,1.07,0,0,1-1.15,1.06,1.07,1.07,0,1,1,0-2.14A1.07,1.07,0,0,1,427.33,387.93Zm-2.2,8.75v-6.85h2.13v6.85Z"/><path class="cls-4" d="M429,392c0-.86,0-1.59-.06-2.19h1.85l.1.94h0a2.51,2.51,0,0,1,2.11-1.09c1.41,0,2.45.92,2.45,2.94v4.06h-2.12v-3.8c0-.88-.31-1.48-1.08-1.48a1.14,1.14,0,0,0-1.08.8,1.36,1.36,0,0,0-.09.53v3.95H429Z"/><path class="cls-4" d="M442.31,396.51a5.13,5.13,0,0,1-1.9.31,3.32,3.32,0,0,1-3.63-3.5,3.57,3.57,0,0,1,3.92-3.64,5.09,5.09,0,0,1,1.62.26l-.33,1.59a2.78,2.78,0,0,0-1.19-.21,1.92,1.92,0,0,0,0,3.83,3.22,3.22,0,0,0,1.22-.21Z"/><path class="cls-4" d="M445.68,387.93a1.07,1.07,0,0,1-1.15,1.06,1.07,1.07,0,1,1,0-2.14A1.06,1.06,0,0,1,445.68,387.93Zm-2.2,8.75v-6.85h2.13v6.85Z"/><path class="cls-4" d="M454,386.74v7.9c0,.77,0,1.58.05,2h-1.89l-.09-1h0a2.4,2.4,0,0,1-2.15,1.16c-1.62,0-2.92-1.38-2.92-3.51,0-2.31,1.43-3.64,3.07-3.64a2.08,2.08,0,0,1,1.8.77h0v-3.71Zm-2.13,6a2.43,2.43,0,0,0,0-.38,1.28,1.28,0,0,0-1.25-1.05c-1,0-1.47.87-1.47,1.95s.58,1.89,1.46,1.89a1.24,1.24,0,0,0,1.23-1,1.57,1.57,0,0,0,.06-.49Z"/><path class="cls-4" d="M462.12,394.48c0,.9,0,1.63.06,2.2h-1.85l-.1-1h0a2.45,2.45,0,0,1-2.15,1.12c-1.38,0-2.41-.86-2.41-3v-4h2.15v3.69c0,1,.32,1.59,1.06,1.59a1.14,1.14,0,0,0,1.07-.74,1.31,1.31,0,0,0,.07-.46v-4.08h2.14Z"/><path class="cls-4" d="M463.83,392c0-.86,0-1.59-.06-2.19h1.85l.1.94h0a2.51,2.51,0,0,1,2.11-1.09c1.4,0,2.45.92,2.45,2.94v4.06H468.2v-3.8c0-.88-.31-1.48-1.08-1.48a1.14,1.14,0,0,0-1.08.8,1.36,1.36,0,0,0-.09.53v3.95h-2.12Z"/><path class="cls-4" d="M474.33,387.87v2h1.52v1.57h-1.52v2.48c0,.83.19,1.2.84,1.2a3.48,3.48,0,0,0,.63-.05v1.61a4.23,4.23,0,0,1-1.39.18,2.2,2.2,0,0,1-1.59-.59,2.83,2.83,0,0,1-.59-2v-2.8h-.91v-1.57h.91v-1.48Z"/><path class="cls-4" d="M486.37,394.48c0,.9,0,1.63.05,2.2h-1.84l-.1-1h0a2.45,2.45,0,0,1-2.15,1.12c-1.38,0-2.41-.86-2.41-3v-4H482v3.69c0,1,.32,1.59,1.06,1.59a1.14,1.14,0,0,0,1.07-.74,1.31,1.31,0,0,0,.07-.46v-4.08h2.14Z"/><path class="cls-4" d="M490.45,387.87v2H492v1.57h-1.53v2.48c0,.83.2,1.2.84,1.2a3.32,3.32,0,0,0,.63-.05l0,1.61a4.23,4.23,0,0,1-1.39.18,2.2,2.2,0,0,1-1.59-.59,2.78,2.78,0,0,1-.59-2v-2.8h-.91v-1.57h.91v-1.48Z"/><path class="cls-4" d="M496,386.74h2.13v9.94H496Z"/><path class="cls-4" d="M503.78,396.68l-.12-.69h-.05a2.43,2.43,0,0,1-2,.84,2.1,2.1,0,0,1-2.21-2.1c0-1.77,1.6-2.63,4-2.62V392c0-.37-.2-.89-1.25-.89a3.86,3.86,0,0,0-1.89.52l-.39-1.37a5.64,5.64,0,0,1,2.66-.6c2.29,0,3,1.34,3,2.95V395a10.62,10.62,0,0,0,.1,1.67Zm-.25-3.23c-1.12,0-2,.25-2,1.07a.77.77,0,0,0,.84.82,1.17,1.17,0,0,0,1.11-.79,1.42,1.42,0,0,0,0-.36Z"/><path class="cls-4" d="M514.05,393.18a3.43,3.43,0,0,1-3.62,3.65,3.35,3.35,0,0,1-3.54-3.53,3.41,3.41,0,0,1,3.65-3.62A3.33,3.33,0,0,1,514.05,393.18Zm-5,.07c0,1.18.49,2.06,1.4,2.06s1.36-.83,1.36-2.06c0-1-.4-2.06-1.36-2.06S509.09,392.24,509.09,393.25Z"/><path class="cls-4" d="M515.36,392.09c0-1,0-1.67-.06-2.26h1.84l.07,1.26h0a2,2,0,0,1,2.3-1.38v2a2.84,2.84,0,0,0-.57-.06,1.37,1.37,0,0,0-1.46,1.08,2.39,2.39,0,0,0,0,.48v3.47h-2.13Z"/><path class="cls-4" d="M522.21,393.94c.07.88.93,1.3,1.93,1.3A6.06,6.06,0,0,0,526,395l.28,1.44a6.78,6.78,0,0,1-2.48.42c-2.33,0-3.66-1.34-3.66-3.49a3.43,3.43,0,0,1,3.46-3.65c2.22,0,3.06,1.72,3.06,3.41a5,5,0,0,1-.07.85Zm2.5-1.46a1.23,1.23,0,0,0-1.2-1.39,1.4,1.4,0,0,0-1.32,1.39Z"/><path class="cls-4" d="M529.6,393.94c.07.88.94,1.3,1.93,1.3a6.06,6.06,0,0,0,1.89-.28l.28,1.44a6.75,6.75,0,0,1-2.48.42c-2.32,0-3.65-1.34-3.65-3.49a3.42,3.42,0,0,1,3.46-3.65c2.21,0,3.05,1.72,3.05,3.41a5,5,0,0,1-.07.85Zm2.5-1.46a1.23,1.23,0,0,0-1.2-1.39,1.4,1.4,0,0,0-1.32,1.39Z"/><path class="cls-4" d="M537.73,387.87v2h1.53v1.57h-1.53v2.48c0,.83.2,1.2.84,1.2a3.32,3.32,0,0,0,.63-.05l0,1.61a4.28,4.28,0,0,1-1.39.18,2.22,2.22,0,0,1-1.6-.59,2.83,2.83,0,0,1-.59-2v-2.8h-.91v-1.57h.91v-1.48Z"/><path class="cls-4" d="M426.63,403.54v7.9c0,.77,0,1.58.06,2H424.8l-.1-1h0a2.39,2.39,0,0,1-2.14,1.17c-1.63,0-2.93-1.39-2.93-3.52,0-2.31,1.43-3.64,3.07-3.64a2.05,2.05,0,0,1,1.8.77h0v-3.71Zm-2.13,6a2.43,2.43,0,0,0,0-.38,1.27,1.27,0,0,0-1.24-1c-1,0-1.47.87-1.47,1.95s.57,1.89,1.45,1.89a1.25,1.25,0,0,0,1.24-1,1.94,1.94,0,0,0,.05-.49Z"/><path class="cls-4" d="M435.1,410a3.44,3.44,0,0,1-3.61,3.66,3.36,3.36,0,0,1-3.55-3.53,3.42,3.42,0,0,1,3.66-3.63A3.33,3.33,0,0,1,435.1,410Zm-5,.07c0,1.18.49,2.06,1.4,2.06s1.36-.83,1.36-2.06c0-1-.39-2.06-1.36-2.06S430.14,409,430.14,410.05Z"/><path class="cls-4" d="M436.41,403.54h2.13v9.94h-2.13Z"/><path class="cls-4" d="M447,410a3.44,3.44,0,0,1-3.61,3.66,3.36,3.36,0,0,1-3.55-3.53,3.42,3.42,0,0,1,3.66-3.63A3.33,3.33,0,0,1,447,410Zm-5,.07c0,1.18.49,2.06,1.4,2.06s1.36-.83,1.36-2.06c0-1-.39-2.06-1.36-2.06S442.07,409,442.07,410.05Z"/><path class="cls-4" d="M448.34,408.89c0-1,0-1.67,0-2.26h1.83l.07,1.26h.06a2,2,0,0,1,1.85-1.41,2,2,0,0,1,.44,0v2a2.76,2.76,0,0,0-.57-.06,1.37,1.37,0,0,0-1.46,1.08,3.45,3.45,0,0,0,0,.48v3.47h-2.13Z"/><path class="cls-4" d="M455.19,410.74c.07.88.94,1.3,1.93,1.3a6.06,6.06,0,0,0,1.89-.28l.28,1.44a6.75,6.75,0,0,1-2.48.42c-2.32,0-3.65-1.34-3.65-3.49a3.43,3.43,0,0,1,3.46-3.65c2.21,0,3.05,1.72,3.05,3.42a5,5,0,0,1-.07.84Zm2.51-1.46a1.24,1.24,0,0,0-1.21-1.39,1.41,1.41,0,0,0-1.32,1.39Z"/><path class="cls-4" d="M463.77,408.82c0-.86,0-1.59-.06-2.19h1.8l.09.93h0a2.35,2.35,0,0,1,2.07-1.08,2,2,0,0,1,1.88,1.16h0a3.16,3.16,0,0,1,.89-.83,2.51,2.51,0,0,1,1.3-.33c1.32,0,2.31.92,2.31,3v4h-2.07v-3.73c0-1-.32-1.56-1-1.56a1,1,0,0,0-1,.74,1.65,1.65,0,0,0-.09.54v4H467.9v-3.84c0-.87-.31-1.45-1-1.45a1.08,1.08,0,0,0-1,.77,1.38,1.38,0,0,0-.09.53v4h-2.07Z"/><path class="cls-4" d="M479.7,413.48l-.12-.69h0a2.47,2.47,0,0,1-2,.85,2.1,2.1,0,0,1-2.21-2.11c0-1.78,1.6-2.63,4-2.61v-.1c0-.37-.19-.89-1.25-.89a3.86,3.86,0,0,0-1.89.52l-.39-1.37a5.64,5.64,0,0,1,2.66-.6c2.29,0,3,1.34,3,2.95v2.38a10.62,10.62,0,0,0,.1,1.67Zm-.25-3.23c-1.12,0-2,.25-2,1.07a.77.77,0,0,0,.84.82,1.17,1.17,0,0,0,1.11-.79,1.42,1.42,0,0,0,0-.36Z"/><path class="cls-4" d="M489.74,406.63c0,.44-.05,1-.05,2v3.83a4,4,0,0,1-1,3.08,4.26,4.26,0,0,1-2.79.84,5.32,5.32,0,0,1-2.46-.53l.42-1.61a4.23,4.23,0,0,0,2,.51,1.63,1.63,0,0,0,1.78-1.8v-.45h0a2.21,2.21,0,0,1-1.85.89c-1.7,0-2.9-1.37-2.9-3.34,0-2.2,1.43-3.6,3.11-3.6a2.06,2.06,0,0,1,1.88,1h0l.07-.81Zm-2.18,2.79a2.23,2.23,0,0,0,0-.39,1.17,1.17,0,0,0-1.15-.94c-.77,0-1.4.7-1.4,2,0,1,.5,1.82,1.4,1.82a1.17,1.17,0,0,0,1.12-.87,2,2,0,0,0,.07-.56Z"/><path class="cls-4" d="M491.39,408.82c0-.86,0-1.59-.06-2.19h1.85l.1.94h0a2.52,2.52,0,0,1,2.12-1.09c1.4,0,2.45.92,2.45,2.94v4.06h-2.13v-3.79c0-.89-.31-1.49-1.08-1.49a1.14,1.14,0,0,0-1.08.8,1.56,1.56,0,0,0-.08.53v4h-2.13Z"/><path class="cls-4" d="M503.49,413.48l-.13-.69h0a2.47,2.47,0,0,1-2,.85,2.1,2.1,0,0,1-2.21-2.11c0-1.78,1.59-2.63,4-2.61v-.1c0-.37-.2-.89-1.25-.89a3.86,3.86,0,0,0-1.89.52l-.39-1.37a5.57,5.57,0,0,1,2.66-.6c2.28,0,3,1.34,3,2.95v2.38a10.62,10.62,0,0,0,.1,1.67Zm-.25-3.23c-1.12,0-2,.25-2,1.07a.77.77,0,0,0,.84.82,1.15,1.15,0,0,0,1.1-.79,1.42,1.42,0,0,0,.05-.36Z"/><path class="cls-4" d="M513.71,413.48l-.13-.69h0a2.47,2.47,0,0,1-2,.85,2.1,2.1,0,0,1-2.21-2.11c0-1.78,1.59-2.63,4-2.61v-.1c0-.37-.2-.89-1.25-.89a3.86,3.86,0,0,0-1.89.52l-.39-1.37a5.57,5.57,0,0,1,2.66-.6c2.28,0,3,1.34,3,2.95v2.38a10.62,10.62,0,0,0,.1,1.67Zm-.25-3.23c-1.12,0-2,.25-2,1.07a.77.77,0,0,0,.84.82,1.15,1.15,0,0,0,1.1-.79,1.42,1.42,0,0,0,.05-.36Z"/><path class="cls-4" d="M517.21,403.54h2.12v9.94h-2.12Z"/><path class="cls-4" d="M523.25,404.73a1.06,1.06,0,0,1-1.14,1.06,1.07,1.07,0,1,1,0-2.14A1.06,1.06,0,0,1,523.25,404.73Zm-2.19,8.75v-6.85h2.12v6.85Z"/><path class="cls-4" d="M529.4,412.63h0a2.32,2.32,0,0,1-2,1c-1.48,0-2.84-1.31-2.84-3.49,0-2.45,1.57-3.67,3-3.67a2.05,2.05,0,0,1,1.9.95h0l0-.8h2.06c0,.66,0,1.35,0,2.06v7.56H529.4Zm0-3.13a1.39,1.39,0,0,0,0-.35,1.25,1.25,0,0,0-1.22-1c-1,0-1.47.83-1.47,1.93s.55,1.89,1.44,1.89a1.26,1.26,0,0,0,1.24-1,1.8,1.8,0,0,0,0-.46Z"/><path class="cls-4" d="M539.68,411.28c0,.9,0,1.63.06,2.2h-1.85l-.1-1h0a2.46,2.46,0,0,1-2.15,1.13c-1.38,0-2.41-.87-2.41-3v-4h2.15v3.69c0,1,.32,1.59,1.06,1.59a1.14,1.14,0,0,0,1.07-.74,1.31,1.31,0,0,0,.07-.46v-4.08h2.14Z"/><path class="cls-4" d="M545.28,413.48l-.13-.69h0a2.47,2.47,0,0,1-2,.85,2.1,2.1,0,0,1-2.21-2.11c0-1.78,1.59-2.63,4-2.61v-.1c0-.37-.2-.89-1.25-.89a3.86,3.86,0,0,0-1.89.52l-.39-1.37a5.57,5.57,0,0,1,2.66-.6c2.28,0,3,1.34,3,2.95v2.38a10.62,10.62,0,0,0,.1,1.67Zm-.25-3.23c-1.12,0-2,.25-2,1.07a.77.77,0,0,0,.84.82,1.15,1.15,0,0,0,1.1-.79,1.42,1.42,0,0,0,0-.36Z"/><path class="cls-4" d="M548.78,408.82c0-.86,0-1.59-.06-2.19h1.79l.1.93h0a2.38,2.38,0,0,1,2.08-1.08,1.93,1.93,0,0,1,1.87,1.16h0a3.13,3.13,0,0,1,.88-.83,2.52,2.52,0,0,1,1.31-.33c1.31,0,2.31.92,2.31,3v4h-2.08v-3.73c0-1-.32-1.56-1-1.56a1,1,0,0,0-1,.74,2,2,0,0,0-.08.54v4h-2.07v-3.84c0-.87-.31-1.45-1-1.45a1.09,1.09,0,0,0-1,.77,1.37,1.37,0,0,0-.08.53v4h-2.07Z"/><path class="cls-4" d="M421.63,427.54c.07.88.94,1.3,1.93,1.3a6.17,6.17,0,0,0,1.9-.28l.28,1.44a6.78,6.78,0,0,1-2.48.42c-2.33,0-3.66-1.34-3.66-3.49a3.43,3.43,0,0,1,3.46-3.65c2.21,0,3.05,1.72,3.05,3.42a5,5,0,0,1-.07.84Zm2.51-1.46a1.24,1.24,0,0,0-1.21-1.39,1.39,1.39,0,0,0-1.31,1.39Z"/><path class="cls-4" d="M427.38,425.69c0-1,0-1.67-.05-2.26h1.83l.07,1.26h.06a2,2,0,0,1,1.85-1.41,2.12,2.12,0,0,1,.45,0v2a3,3,0,0,0-.58-.06,1.38,1.38,0,0,0-1.46,1.08,3.45,3.45,0,0,0,0,.48v3.47h-2.13Z"/><path class="cls-4" d="M436.45,430.28l-.13-.69h0a2.47,2.47,0,0,1-2,.85,2.11,2.11,0,0,1-2.22-2.11c0-1.78,1.6-2.63,4-2.62v-.09c0-.37-.19-.89-1.24-.89a3.83,3.83,0,0,0-1.89.52l-.4-1.37a5.64,5.64,0,0,1,2.66-.6c2.29,0,3,1.34,3,3v2.38a10.82,10.82,0,0,0,.09,1.67Zm-.26-3.24c-1.12,0-2,.26-2,1.08a.77.77,0,0,0,.84.82,1.16,1.16,0,0,0,1.11-.79,1.42,1.42,0,0,0,0-.36Z"/><path class="cls-4" d="M442.21,421.47v2h1.53V425h-1.53v2.48c0,.83.2,1.2.84,1.2a3.32,3.32,0,0,0,.63-.05l0,1.61a4.28,4.28,0,0,1-1.39.18,2.22,2.22,0,0,1-1.6-.59,2.83,2.83,0,0,1-.59-2V425h-.91v-1.57h.91V422Z"/><path class="cls-4" d="M449.38,423.43l.92,3.18a16.1,16.1,0,0,1,.4,1.67h0c.11-.56.22-1.08.38-1.67l.88-3.18h2.24l-2.55,6.85h-2.13l-2.49-6.85Z"/><path class="cls-4" d="M461.77,426.78a3.44,3.44,0,0,1-3.61,3.66,3.36,3.36,0,0,1-3.55-3.53,3.42,3.42,0,0,1,3.66-3.63A3.33,3.33,0,0,1,461.77,426.78Zm-5,.07c0,1.18.49,2.06,1.4,2.06s1.36-.83,1.36-2.06c0-1-.39-2.06-1.36-2.06S456.81,425.84,456.81,426.85Z"/><path class="cls-4" d="M463.08,420.34h2.13v9.94h-2.13Z"/><path class="cls-4" d="M473.39,428.08c0,.9,0,1.63.06,2.2H471.6l-.1-1h0a2.46,2.46,0,0,1-2.15,1.13c-1.38,0-2.4-.87-2.4-3v-4h2.14v3.69c0,1,.32,1.59,1.06,1.59a1.14,1.14,0,0,0,1.07-.74,1.31,1.31,0,0,0,.07-.46v-4.08h2.14Z"/><path class="cls-4" d="M477.48,421.47v2H479V425h-1.52v2.48c0,.83.19,1.2.84,1.2a3.48,3.48,0,0,0,.63-.05v1.61a4.21,4.21,0,0,1-1.38.18,2.21,2.21,0,0,1-1.6-.59,2.83,2.83,0,0,1-.59-2V425h-.91v-1.57h.91V422Z"/><path class="cls-4" d="M480.23,425.73c0-.9,0-1.67-.05-2.3H482l.09.95h0a2.66,2.66,0,0,1,2.29-1.1c1.49,0,2.84,1.3,2.84,3.48,0,2.5-1.58,3.68-3.11,3.68a2.13,2.13,0,0,1-1.78-.79h0v3.4h-2.13Zm2.13,1.61a2.89,2.89,0,0,0,0,.45,1.3,1.3,0,0,0,1.25,1c.93,0,1.47-.77,1.47-1.94s-.49-1.92-1.44-1.92A1.35,1.35,0,0,0,482.4,426a2.22,2.22,0,0,0,0,.38Z"/><path class="cls-4" d="M492.5,430.28l-.13-.69h0a2.47,2.47,0,0,1-2,.85,2.1,2.1,0,0,1-2.21-2.11c0-1.78,1.59-2.63,4-2.62v-.09c0-.37-.2-.89-1.25-.89a3.86,3.86,0,0,0-1.89.52l-.39-1.37a5.57,5.57,0,0,1,2.66-.6c2.28,0,3,1.34,3,3v2.38a10.62,10.62,0,0,0,.1,1.67Zm-.25-3.24c-1.12,0-2,.26-2,1.08a.77.77,0,0,0,.84.82,1.17,1.17,0,0,0,1.11-.79,2.09,2.09,0,0,0,0-.36Z"/><path class="cls-4" d="M498.27,421.47v2h1.52V425h-1.52v2.48c0,.83.19,1.2.84,1.2a3.48,3.48,0,0,0,.63-.05v1.61a4.23,4.23,0,0,1-1.39.18,2.2,2.2,0,0,1-1.59-.59,2.83,2.83,0,0,1-.59-2V425h-.91v-1.57h.91V422Z"/><path class="cls-4" d="M500.76,429.15a1.24,1.24,0,0,1,1.26-1.31,1.3,1.3,0,1,1-1.26,1.31Z"/><path class="cls-4" d="M509.58,420.84v5.43c0,1.63.61,2.46,1.71,2.46s1.73-.79,1.73-2.46v-5.43h2.13v5.29c0,2.92-1.47,4.31-3.93,4.31s-3.79-1.32-3.79-4.33v-5.27Z"/><path class="cls-4" d="M519.31,421.47v2h1.52V425h-1.52v2.48c0,.83.19,1.2.84,1.2a3.4,3.4,0,0,0,.63-.05v1.61a4.21,4.21,0,0,1-1.38.18,2.22,2.22,0,0,1-1.6-.59,2.83,2.83,0,0,1-.59-2V425h-.91v-1.57h.91V422Z"/><path class="cls-4" d="M526.36,423.43l.55,2.8c.14.72.28,1.47.39,2.26h0c.14-.79.34-1.57.5-2.24l.73-2.82h1.68l.69,2.73c.18.77.36,1.54.5,2.33h0c.1-.79.24-1.56.39-2.34l.59-2.72h2.09l-2.1,6.85h-2l-.65-2.41c-.17-.67-.29-1.29-.43-2.13h0a16.67,16.67,0,0,1-.45,2.13l-.69,2.41h-2l-2-6.85Z"/><path class="cls-4" d="M537.72,421.53a1.07,1.07,0,0,1-1.15,1.06,1.07,1.07,0,1,1,0-2.14A1.07,1.07,0,0,1,537.72,421.53Zm-2.2,8.75v-6.85h2.13v6.85Z"/><path class="cls-4" d="M539.34,428.42a4.11,4.11,0,0,0,1.84.52c.64,0,.91-.23.91-.58s-.21-.52-1-.78c-1.42-.48-2-1.25-2-2.06,0-1.28,1.09-2.24,2.79-2.24a4.58,4.58,0,0,1,1.93.39l-.38,1.47a3.32,3.32,0,0,0-1.48-.39c-.52,0-.81.21-.81.56s.26.49,1.1.78c1.3.45,1.85,1.11,1.87,2.12,0,1.27-1,2.21-3,2.21A5,5,0,0,1,539,430Z"/><path class="cls-4" d="M547.63,421.53a1.07,1.07,0,0,1-1.15,1.06,1.07,1.07,0,1,1,0-2.14A1.06,1.06,0,0,1,547.63,421.53Zm-2.2,8.75v-6.85h2.13v6.85Z"/><path class="cls-4" d="M421.63,444.34c.07.88.94,1.3,1.93,1.3a6.17,6.17,0,0,0,1.9-.28l.28,1.44a6.78,6.78,0,0,1-2.48.42c-2.33,0-3.66-1.34-3.66-3.49a3.43,3.43,0,0,1,3.46-3.65c2.21,0,3.05,1.72,3.05,3.42a5,5,0,0,1-.07.84Zm2.51-1.46a1.24,1.24,0,0,0-1.21-1.39,1.39,1.39,0,0,0-1.31,1.39Z"/><path class="cls-4" d="M427.38,442.42c0-.86,0-1.59-.05-2.19h1.85l.09.94h.05a2.51,2.51,0,0,1,2.11-1.09c1.4,0,2.45.92,2.45,2.94v4.06h-2.13v-3.79c0-.89-.3-1.49-1.07-1.49a1.14,1.14,0,0,0-1.08.8,1.36,1.36,0,0,0-.09.53v3.95h-2.13Z"/><path class="cls-4" d="M437.79,438.33a1.07,1.07,0,0,1-1.15,1.06,1.07,1.07,0,1,1,0-2.14A1.07,1.07,0,0,1,437.79,438.33Zm-2.2,8.75v-6.85h2.13v6.85Z"/><path class="cls-4" d="M439.42,442.42c0-.86,0-1.59-.05-2.19h1.79l.1.93h0a2.36,2.36,0,0,1,2.07-1.08,1.94,1.94,0,0,1,1.88,1.16h0a3.13,3.13,0,0,1,.88-.83,2.51,2.51,0,0,1,1.3-.33c1.32,0,2.32.92,2.32,3v4H447.7v-3.72c0-1-.32-1.57-1-1.57a1,1,0,0,0-1,.74,2,2,0,0,0-.08.55v4h-2.07v-3.84c0-.86-.31-1.45-1-1.45a1.09,1.09,0,0,0-1,.77,1.37,1.37,0,0,0-.08.53v4h-2.08Z"/><path class="cls-4" d="M458.19,447.08l-.13-.69h0a2.47,2.47,0,0,1-2,.85,2.11,2.11,0,0,1-2.22-2.11c0-1.77,1.6-2.63,4-2.62v-.09c0-.37-.19-.89-1.24-.89a3.83,3.83,0,0,0-1.89.52l-.4-1.37a5.65,5.65,0,0,1,2.67-.6c2.28,0,3,1.34,3,2.95v2.38a10.62,10.62,0,0,0,.1,1.67Zm-.26-3.23c-1.12,0-2,.25-2,1.07a.77.77,0,0,0,.84.82,1.15,1.15,0,0,0,1.1-.79,1.42,1.42,0,0,0,0-.36Z"/><path class="cls-4" d="M468.32,437.14V445c0,.77,0,1.58.06,2h-1.89l-.1-1h0a2.39,2.39,0,0,1-2.14,1.17c-1.63,0-2.93-1.39-2.93-3.52,0-2.31,1.43-3.64,3.07-3.64a2.09,2.09,0,0,1,1.81.77h0v-3.71Zm-2.13,6c0-.11,0-.26,0-.38a1.29,1.29,0,0,0-1.25-1.05c-1,0-1.47.87-1.47,1.95s.57,1.89,1.46,1.89a1.25,1.25,0,0,0,1.23-1,1.94,1.94,0,0,0,.05-.49Z"/><rect class="cls-4" x="193.58" y="469.27" width="51.41" height="84.83"/><rect class="cls-4" x="239.85" y="426.7" width="51.41" height="127.41"/><rect class="cls-4" x="279.66" y="384.44" width="82.28" height="169.66"/><rect class="cls-4" x="358.08" y="469.27" width="51.41" height="84.83"/><circle class="cls-5" cx="178.17" cy="166.57" r="76.71" transform="translate(-65.59 174.77) rotate(-45)"/><g class="cls-6"><path class="cls-7" d="M152.39,122.91c.48-1.14-6.25,1-6.82,1.25a14,14,0,0,0-7.33,7.38,26.2,26.2,0,0,0-1.55,10.67c.26,11.14,8.67,25.19.69,35.12-4.12,5.13-11.33,6.4-16.78,10.09-10.38,7-12.47,22.65-6.46,33.64s18.29,17.49,30.68,19.32,25-.36,37.24-3.12c8.49-1.93,17.17-4.24,24.08-9.53,16.3-12.47,8.7-28.08,1.23-42.68-4.8-9.36,3.8-13.76,7.55-25.38,6.76-20.89-2.92-41.17-21.39-49.18C163.26,97.37,152.45,122.77,152.39,122.91Z"/><path class="cls-8" d="M237.92,243.27H118.43S124,221.76,131.93,209s37-17.08,37-17.08l9.21,1.54,9.22-1.54s29.11,4.33,37,17.08S237.92,243.27,237.92,243.27Z"/><path class="cls-9" d="M151.55,196.19c14,20,40.46,17.45,53.25,0C204.8,196.19,179.15,184.24,151.55,196.19Z"/><path class="cls-9" d="M178,203.32h0a9.05,9.05,0,0,1-9-9V177H187v17.3A9.05,9.05,0,0,1,178,203.32Z"/><path class="cls-10" d="M187,175v10.62s-3,5.28-9.05,5.28c-4.83,0-9-4.58-9-4.58V175Z"/><path class="cls-9" d="M152.62,156.38c-4.89-7.43-10.57-2.65-10.57,2.58,0,7.58,8.22,14.11,12.92,8.67S152.62,156.38,152.62,156.38Z"/><path class="cls-11" d="M151.55,159.82c-3-5.69-7.25-.38-5.65,1.73"/><path class="cls-9" d="M201.52,156.38c4.9-7.43,10.58-2.65,10.58,2.58,0,7.58-8.23,14.11-12.93,8.67S201.52,156.38,201.52,156.38Z"/><path class="cls-11" d="M202.59,159.82c3-5.69,7.26-.38,5.65,1.73"/><path class="cls-9" d="M177.05,185.59c-19.34,0-30.78-21.15-26.26-42.85,3.73-17.88,48.84-17.88,52.56,0C207.88,164.44,196.4,185.6,177.05,185.59Z"/><path class="cls-12" d="M174.48,163.86c2,.95,6.48-1.15,6.57,0s-2.38,2.18-3.28,2.18S174.48,163.86,174.48,163.86Z"/><path class="cls-11" d="M174.55,158c-2.83,6.1,1.39,7.29,2.52,7.43"/><path class="cls-7" d="M169.42,141.4c-1.2-2.7-8.29-1.46-9.29.46s2.31,2.46,4.77,2.34S170.19,143.12,169.42,141.4Z"/><path class="cls-10" d="M184.72,141.4c1.21-2.7,8.3-1.46,9.3.46s-2.32,2.46-4.78,2.34S184,143.12,184.72,141.4Z"/><path class="cls-10" d="M164.31,151.8a1.95,1.95,0,1,0,1.94-1.94A1.94,1.94,0,0,0,164.31,151.8Z"/><path class="cls-10" d="M189.84,151.8a1.95,1.95,0,1,1-1.94-1.94A1.94,1.94,0,0,1,189.84,151.8Z"/><path class="cls-4" d="M169.83,168.68c7.41.8,12.36,0,15.87.1,0,0-4.43,6.27-9.65,5S169.83,168.68,169.83,168.68Z"/><path class="cls-12" d="M175,175.62c2.71,0,6.59-1.4,7.19,0s-2.7,4.21-4.75,4S171.86,175.61,175,175.62Z"/><path class="cls-7" d="M164.31,123.67c0,18.22,34.57,27,41.29,22.67s1.48-19.77-16.2-24S164.32,118.24,164.31,123.67Z"/><path class="cls-7" d="M164.38,123.54c4.41,8.8-7.71,28.24-14.59,27s-6.89-8.9-1.52-17.93S162.29,119.36,164.38,123.54Z"/></g><circle class="cls-13" cx="122.03" cy="345.51" r="76.71" transform="translate(-238.82 409.19) rotate(-80.56)"/><g class="cls-14"><path class="cls-7" d="M152.45,331.43c.62-8.55,7.12-32.34-6.92-30.72-1.81-12.39-13.42-18.66-24.6-18.09-30.33,1.55-35,29.26-30.27,48.81,7.7,20.5,47.25,4.47,61.78,0Z"/><path class="cls-8" d="M188.85,423.81H55.21s4-22.41,13.24-35.31,43.27-17.62,43.27-17.62L122,372.47l10.31-1.59s34.1,4.71,43.28,17.62S188.85,423.81,188.85,423.81Z"/><path class="cls-4" d="M103.8,371.84a60.61,60.61,0,0,1,18-1.36h0a60.61,60.61,0,0,1,18,1.36c.87,8.13-2.49,18.37-17.88,18.42C106.45,390.31,102.92,380.07,103.8,371.84Z"/><path class="cls-9" d="M121.81,382.26h0a9.06,9.06,0,0,1-9.06-9.05V355.92h18.11v17.29A9,9,0,0,1,121.81,382.26Z"/><path class="cls-10" d="M130.86,354.9v10.62s-3,5.29-9.05,5.29c-4.83,0-9-4.59-9-4.59V354.9Z"/><path class="cls-9" d="M96.48,335.33c-4.9-7.44-10.57-2.66-10.57,2.57,0,7.59,8.22,14.12,12.92,8.67S96.48,335.33,96.48,335.33Z"/><path class="cls-11" d="M95.41,338.76c-3-5.69-7.26-.38-5.65,1.73"/><path class="cls-9" d="M145.38,335.33c4.89-7.44,10.57-2.66,10.57,2.57,0,7.59-8.22,14.12-12.92,8.67S145.38,335.33,145.38,335.33Z"/><path class="cls-11" d="M146.45,338.76c3.05-5.69,7.26-.38,5.65,1.73"/><path class="cls-9" d="M120.91,364.53c-19.35,0-30.78-21.14-26.26-42.85,3.72-17.88,48.84-17.87,52.56,0C151.73,343.39,140.26,364.54,120.91,364.53Z"/><path class="cls-7" d="M149.45,328.8s-.25,19.48-7.52,28.59-20.12,9.7-20.12,9.7-14.42-.59-21.68-9.7-7.52-28.59-7.52-28.59l1-2c.74,5.22,4.15,18.75,8.26,21.74,6.73-2.25,11.76-2.5,19.44-2.5a132,132,0,0,1,19.15,1.6c3.3-2.91,7.31-16.08,8-20.84Z"/><path class="cls-12" d="M118.34,342.81c2,.95,6.47-1.16,6.57,0s-2.38,2.18-3.29,2.18S118.34,342.81,118.34,342.81Z"/><path class="cls-11" d="M118.4,337c-2.82,6.11,1.4,7.29,2.53,7.44"/><path class="cls-4" d="M113.89,348.58c7.41.8,12.36,0,15.87.1,0,0-4.43,6.27-9.65,5S113.89,348.58,113.89,348.58Z"/><path class="cls-7" d="M113.28,320.34c-1.21-2.69-8.29-1.46-9.29.46s2.31,2.46,4.77,2.34S114.05,322.06,113.28,320.34Z"/><path class="cls-7" d="M128.58,320.34c1.21-2.69,8.29-1.46,9.29.46s-2.31,2.46-4.77,2.34S127.81,322.06,128.58,320.34Z"/><path class="cls-12" d="M119,355.52c2.71,0,6.59-1.4,7.19,0s-2.7,4.21-4.75,4S115.92,355.52,119,355.52Z"/><path class="cls-10" d="M108.16,330.75a1.95,1.95,0,1,0,2-1.95A1.94,1.94,0,0,0,108.16,330.75Z"/><circle class="cls-10" cx="131.75" cy="330.75" r="1.95"/><path class="cls-7" d="M106.11,308.62l4.51-1.1s-5.87,9.42,6.63,11.23,25.53-6.66,15.15-11l3.77-.25-9.08-7Z"/></g></g></g></g></svg>