<svg xmlns="http://www.w3.org/2000/svg" xmlns:xlink="http://www.w3.org/1999/xlink" viewBox="0 0 640 640"><defs><style>.cls-1,.cls-11{fill:none;}.cls-2{isolation:isolate;}.cls-3{fill:#050068;}.cls-4{fill:#f4e6e1;}.cls-5{clip-path:url(#clip-path);}.cls-6{fill:#d76a40;}.cls-7{fill:#5b4850;}.cls-8{fill:#fff;}.cls-12,.cls-9{fill:#f1b69a;}.cls-10{fill:#150a08;}.cls-11{stroke:#e07e61;stroke-linecap:round;stroke-miterlimit:10;}.cls-12{opacity:0.5;mix-blend-mode:multiply;}</style><clipPath id="clip-path"><circle class="cls-1" cx="164.26" cy="171.4" r="76.71" transform="translate(-31.77 305.31) rotate(-80.56)"/></clipPath></defs><g class="cls-2"><g id="Layer_2" data-name="Layer 2"><g id="Layer_1-2" data-name="Layer 1"><rect class="cls-3" width="640" height="640" rx="92.83"/><circle class="cls-4" cx="164.26" cy="171.4" r="76.71" transform="translate(-31.77 305.31) rotate(-80.56)"/><g class="cls-5"><path class="cls-6" d="M194.68,157.32c.62-8.55,7.12-32.34-6.92-30.72-1.82-12.39-13.42-18.66-24.6-18.09-30.33,1.55-35,29.26-30.27,48.81,7.7,20.5,47.25,4.47,61.78,0Z"/><path class="cls-7" d="M231.08,249.7H97.44s4-22.41,13.24-35.31S154,196.77,154,196.77l10.31,1.59,10.31-1.59s34.1,4.71,43.28,17.62S231.08,249.7,231.08,249.7Z"/><path class="cls-8" d="M146,197.73a60.61,60.61,0,0,1,18.05-1.36h0a60.61,60.61,0,0,1,18,1.36c.87,8.13-2.49,18.37-17.88,18.42C148.68,216.2,145.15,206,146,197.73Z"/><path class="cls-9" d="M164,208.15h0A9.06,9.06,0,0,1,155,199.1V181.81h18.11V199.1A9,9,0,0,1,164,208.15Z"/><path class="cls-10" d="M173.09,180.79v10.62s-3,5.29-9.05,5.29c-4.83,0-9-4.59-9-4.59V180.79Z"/><path class="cls-9" d="M138.71,161.22c-4.9-7.44-10.57-2.66-10.57,2.58,0,7.58,8.22,14.11,12.92,8.67S138.71,161.22,138.71,161.22Z"/><path class="cls-11" d="M137.64,164.66c-3-5.7-7.26-.39-5.65,1.72"/><path class="cls-9" d="M187.61,161.22c4.89-7.44,10.57-2.66,10.57,2.58,0,7.58-8.22,14.11-12.92,8.67S187.61,161.22,187.61,161.22Z"/><path class="cls-11" d="M188.68,164.66c3-5.7,7.26-.39,5.65,1.72"/><path class="cls-9" d="M163.14,190.42c-19.35,0-30.78-21.14-26.26-42.84,3.72-17.89,48.83-17.88,52.56,0C194,169.28,182.49,190.43,163.14,190.42Z"/><path class="cls-6" d="M191.68,154.69s-.25,19.48-7.52,28.59S164,193,164,193s-14.42-.59-21.68-9.7-7.52-28.59-7.52-28.59l1-2c.74,5.22,4.15,18.75,8.26,21.74,6.73-2.25,11.76-2.5,19.44-2.5a133.39,133.39,0,0,1,19.15,1.6c3.3-2.91,7.31-16.08,8-20.84Z"/><path class="cls-12" d="M160.57,168.7c2,1,6.47-1.16,6.57,0s-2.38,2.18-3.29,2.18S160.57,168.7,160.57,168.7Z"/><path class="cls-11" d="M160.63,162.87c-2.82,6.1,1.4,7.28,2.53,7.43"/><path class="cls-8" d="M156.12,174.47c7.41.8,12.36,0,15.87.11,0,0-4.43,6.26-9.65,5S156.12,174.47,156.12,174.47Z"/><path class="cls-6" d="M155.51,146.24c-1.21-2.7-8.29-1.47-9.29.45s2.31,2.46,4.77,2.34S156.28,148,155.51,146.24Z"/><path class="cls-6" d="M170.81,146.24c1.21-2.7,8.29-1.47,9.29.45s-2.31,2.46-4.77,2.34S170,148,170.81,146.24Z"/><path class="cls-12" d="M161.24,181.42c2.71,0,6.59-1.41,7.19,0s-2.7,4.2-4.75,4S158.15,181.41,161.24,181.42Z"/><path class="cls-10" d="M150.39,156.64a1.95,1.95,0,1,0,2-1.95A1.94,1.94,0,0,0,150.39,156.64Z"/><circle class="cls-10" cx="173.98" cy="156.64" r="1.95"/><path class="cls-6" d="M148.34,134.51l4.51-1.1s-5.87,9.42,6.63,11.23,25.53-6.66,15.15-11l3.77-.25-9.08-7Z"/></g><path class="cls-8" d="M316.61,139.5h2.14v7.65h3.75v1.79h-5.89Z"/><path class="cls-8" d="M330.33,145.44a3.44,3.44,0,0,1-3.61,3.66,3.36,3.36,0,0,1-3.55-3.53,3.42,3.42,0,0,1,3.66-3.63A3.33,3.33,0,0,1,330.33,145.44Zm-5,.07c0,1.18.49,2.06,1.4,2.06s1.36-.83,1.36-2.06c0-1-.39-2.06-1.36-2.06S325.37,144.5,325.37,145.51Z"/><path class="cls-8" d="M331.64,144.35c0-1,0-1.67-.05-2.26h1.83l.07,1.26h.06a2,2,0,0,1,1.85-1.41,2.12,2.12,0,0,1,.45,0v2a3,3,0,0,0-.58-.05,1.37,1.37,0,0,0-1.45,1.07,2.36,2.36,0,0,0-.05.48v3.47h-2.13Z"/><path class="cls-8" d="M338.49,146.2c.07.88.94,1.3,1.94,1.3a6.15,6.15,0,0,0,1.89-.28l.28,1.44a6.78,6.78,0,0,1-2.48.42c-2.33,0-3.66-1.34-3.66-3.48a3.43,3.43,0,0,1,3.46-3.66c2.21,0,3.05,1.72,3.05,3.42a5,5,0,0,1-.07.84Zm2.51-1.46a1.24,1.24,0,0,0-1.21-1.39,1.4,1.4,0,0,0-1.31,1.39Z"/><path class="cls-8" d="M344.25,144.28c0-.86,0-1.58-.06-2.19H346l.1.93h0a2.38,2.38,0,0,1,2.08-1.08,1.93,1.93,0,0,1,1.87,1.16h0a3,3,0,0,1,.88-.82,2.44,2.44,0,0,1,1.31-.34c1.31,0,2.31.92,2.31,3v4h-2.08v-3.72c0-1-.32-1.57-1-1.57a1,1,0,0,0-1,.74,2,2,0,0,0-.08.55v4h-2.07v-3.83c0-.87-.31-1.46-1-1.46a1.09,1.09,0,0,0-1,.77,1.4,1.4,0,0,0-.08.53v4h-2.07Z"/><path class="cls-8" d="M361.31,140.19a1.07,1.07,0,0,1-1.15,1.06,1.07,1.07,0,1,1,0-2.14A1.06,1.06,0,0,1,361.31,140.19Zm-2.2,8.75v-6.85h2.13v6.85Z"/><path class="cls-8" d="M363,144.39c0-.89,0-1.67-.06-2.3h1.85l.1,1h0a2.62,2.62,0,0,1,2.28-1.11c1.5,0,2.85,1.3,2.85,3.49,0,2.49-1.59,3.67-3.11,3.67a2.11,2.11,0,0,1-1.78-.79h0v3.41H363Zm2.13,1.61a2,2,0,0,0,0,.45,1.3,1.3,0,0,0,1.25,1c.92,0,1.47-.77,1.47-1.93s-.49-1.92-1.44-1.92a1.34,1.34,0,0,0-1.28,1.08,1.5,1.5,0,0,0,0,.37Z"/><path class="cls-8" d="M371.31,147.08a4.11,4.11,0,0,0,1.83.52c.65,0,.91-.22.91-.58s-.21-.51-1-.78c-1.41-.48-2-1.25-1.94-2.06,0-1.27,1.09-2.24,2.78-2.24a4.63,4.63,0,0,1,1.94.39l-.38,1.47a3.36,3.36,0,0,0-1.48-.39c-.52,0-.82.21-.82.56s.27.49,1.11.79c1.3.44,1.85,1.1,1.86,2.11,0,1.28-1,2.21-3,2.21a4.87,4.87,0,0,1-2.21-.47Z"/><path class="cls-8" d="M383.85,146.74c0,.9,0,1.63.06,2.2h-1.85l-.1-1h0a2.43,2.43,0,0,1-2.14,1.12c-1.39,0-2.41-.87-2.41-3v-4h2.14v3.69c0,1,.32,1.6,1.07,1.6a1.14,1.14,0,0,0,1.06-.75,1.09,1.09,0,0,0,.07-.46v-4.08h2.14Z"/><path class="cls-8" d="M385.56,144.28c0-.86,0-1.58-.06-2.19h1.8l.09.93h.05a2.35,2.35,0,0,1,2.07-1.08,2,2,0,0,1,1.88,1.16h0a2.84,2.84,0,0,1,.88-.82,2.43,2.43,0,0,1,1.3-.34c1.32,0,2.31.92,2.31,3v4h-2.07v-3.72c0-1-.32-1.57-1-1.57a1,1,0,0,0-1,.74,1.71,1.71,0,0,0-.09.55v4h-2.07v-3.83c0-.87-.31-1.46-1-1.46a1.08,1.08,0,0,0-1,.77,1.41,1.41,0,0,0-.09.53v4h-2.07Z"/><path class="cls-8" d="M407.07,139v7.9c0,.77,0,1.58.05,2h-1.89l-.1-1h0A2.4,2.4,0,0,1,403,149.1c-1.62,0-2.92-1.39-2.92-3.52,0-2.31,1.42-3.64,3.06-3.64a2.09,2.09,0,0,1,1.81.77h0V139Zm-2.13,6c0-.11,0-.26,0-.37a1.29,1.29,0,0,0-1.25-1.06c-1,0-1.47.87-1.47,1.95s.58,1.89,1.46,1.89a1.24,1.24,0,0,0,1.23-1,1.88,1.88,0,0,0,.06-.49Z"/><path class="cls-8" d="M415.54,145.44a3.44,3.44,0,0,1-3.62,3.66,3.36,3.36,0,0,1-3.54-3.53,3.42,3.42,0,0,1,3.66-3.63A3.33,3.33,0,0,1,415.54,145.44Zm-5,.07c0,1.18.49,2.06,1.4,2.06s1.36-.83,1.36-2.06c0-1-.39-2.06-1.36-2.06S410.58,144.5,410.58,145.51Z"/><path class="cls-8" d="M416.85,139H419v9.94h-2.13Z"/><path class="cls-8" d="M427.46,145.44a3.43,3.43,0,0,1-3.61,3.66,3.36,3.36,0,0,1-3.54-3.53,3.41,3.41,0,0,1,3.65-3.63A3.33,3.33,0,0,1,427.46,145.44Zm-4.95.07c0,1.18.49,2.06,1.4,2.06s1.36-.83,1.36-2.06c0-1-.4-2.06-1.36-2.06S422.51,144.5,422.51,145.51Z"/><path class="cls-8" d="M428.78,144.35c0-1,0-1.67-.06-2.26h1.84l.07,1.26h.05A2,2,0,0,1,433,142v2a2.94,2.94,0,0,0-.57-.05A1.37,1.37,0,0,0,431,145a2.39,2.39,0,0,0,0,.48v3.47h-2.13Z"/><path class="cls-8" d="M436.91,147.08a4.15,4.15,0,0,0,1.84.52c.64,0,.91-.22.91-.58s-.21-.51-1-.78c-1.42-.48-2-1.25-1.95-2.06,0-1.27,1.09-2.24,2.79-2.24a4.58,4.58,0,0,1,1.93.39L441,143.8a3.28,3.28,0,0,0-1.48-.39c-.52,0-.81.21-.81.56s.26.49,1.1.79c1.31.44,1.85,1.1,1.87,2.11,0,1.28-1,2.21-3,2.21a4.88,4.88,0,0,1-2.22-.47Z"/><path class="cls-8" d="M445.2,140.19a1.07,1.07,0,0,1-1.15,1.06,1.07,1.07,0,1,1,0-2.14A1.06,1.06,0,0,1,445.2,140.19Zm-2.2,8.75v-6.85h2.13v6.85Z"/><path class="cls-8" d="M449.22,140.13v2h1.53v1.57h-1.53v2.48c0,.83.2,1.21.84,1.21a3.18,3.18,0,0,0,.63-.06v1.61a4.21,4.21,0,0,1-1.38.18,2.22,2.22,0,0,1-1.6-.58,2.87,2.87,0,0,1-.59-2v-2.8h-.91v-1.57h.91v-1.48Z"/><path class="cls-8" d="M320.43,165.74l-.12-.68h-.05a2.46,2.46,0,0,1-2,.84,2.1,2.1,0,0,1-2.21-2.1c0-1.78,1.6-2.64,4-2.62v-.1c0-.37-.2-.88-1.25-.88a3.86,3.86,0,0,0-1.89.51l-.39-1.37a5.73,5.73,0,0,1,2.66-.6c2.28,0,3,1.34,3,3v2.38a10.48,10.48,0,0,0,.1,1.66Zm-.25-3.23c-1.12,0-2,.25-2,1.08a.77.77,0,0,0,.84.81,1.17,1.17,0,0,0,1.11-.79,1.37,1.37,0,0,0,0-.36Z"/><path class="cls-8" d="M323.93,161.08c0-.86,0-1.58-.06-2.19h1.8l.09.93h.05a2.35,2.35,0,0,1,2.07-1.08,2,2,0,0,1,1.88,1.16h0a2.84,2.84,0,0,1,.88-.82,2.43,2.43,0,0,1,1.3-.34c1.32,0,2.31.92,2.31,3v4h-2.07V162c0-1-.32-1.57-1-1.57a1,1,0,0,0-1,.74,1.71,1.71,0,0,0-.09.55v4h-2.07v-3.83c0-.87-.31-1.46-1-1.46a1.08,1.08,0,0,0-1,.77,1.41,1.41,0,0,0-.09.53v4h-2.07Z"/><path class="cls-8" d="M337.61,163c.07.88.94,1.3,1.93,1.3a6.06,6.06,0,0,0,1.89-.28l.28,1.44a6.75,6.75,0,0,1-2.48.42c-2.32,0-3.65-1.34-3.65-3.48a3.43,3.43,0,0,1,3.46-3.66c2.21,0,3,1.72,3,3.42a5,5,0,0,1-.07.84Zm2.51-1.46a1.24,1.24,0,0,0-1.21-1.39,1.41,1.41,0,0,0-1.32,1.39Z"/><path class="cls-8" d="M345.74,156.93v2h1.53v1.57h-1.53v2.48c0,.83.2,1.21.84,1.21a3.18,3.18,0,0,0,.63-.06l0,1.61a4.28,4.28,0,0,1-1.39.18,2.22,2.22,0,0,1-1.6-.58,2.88,2.88,0,0,1-.58-2v-2.8h-.91v-1.57h.91v-1.48Z"/><path class="cls-8" d="M347.56,167.41a24.44,24.44,0,0,0,1-4l2.17-.14a18.77,18.77,0,0,1-1.77,4Z"/><path class="cls-8" d="M360,165.58a5.45,5.45,0,0,1-1.91.3,3.32,3.32,0,0,1-3.63-3.5,3.57,3.57,0,0,1,3.92-3.64A4.93,4.93,0,0,1,360,159l-.34,1.58a2.94,2.94,0,0,0-1.19-.21,1.92,1.92,0,0,0,0,3.84,3.39,3.39,0,0,0,1.22-.21Z"/><path class="cls-8" d="M367.78,162.24a3.44,3.44,0,0,1-3.61,3.66,3.36,3.36,0,0,1-3.55-3.53,3.42,3.42,0,0,1,3.66-3.63A3.33,3.33,0,0,1,367.78,162.24Zm-5,.07c0,1.18.49,2.06,1.4,2.06s1.36-.83,1.36-2.06c0-1-.39-2.06-1.36-2.06S362.82,161.3,362.82,162.31Z"/><path class="cls-8" d="M369.09,161.08c0-.86,0-1.58,0-2.19h1.85l.09.94h0a2.51,2.51,0,0,1,2.11-1.09c1.4,0,2.45.92,2.45,2.94v4.06h-2.13V162c0-.89-.3-1.49-1.08-1.49a1.14,1.14,0,0,0-1.07.8,1.4,1.4,0,0,0-.09.53v4h-2.13Z"/><path class="cls-8" d="M377.28,163.88a4.15,4.15,0,0,0,1.84.52c.64,0,.91-.23.91-.58s-.21-.51-1-.78c-1.41-.48-2-1.25-1.95-2.06,0-1.27,1.1-2.24,2.79-2.24a4.58,4.58,0,0,1,1.93.39l-.37,1.47a3.36,3.36,0,0,0-1.49-.39c-.52,0-.81.21-.81.56s.26.49,1.1.79c1.31.44,1.85,1.1,1.87,2.11,0,1.28-1,2.21-3,2.21a4.88,4.88,0,0,1-2.22-.47Z"/><path class="cls-8" d="M385,163c.07.88.94,1.3,1.94,1.3a6.15,6.15,0,0,0,1.89-.28l.28,1.44a6.78,6.78,0,0,1-2.48.42c-2.33,0-3.66-1.34-3.66-3.48a3.43,3.43,0,0,1,3.46-3.66c2.21,0,3.05,1.72,3.05,3.42a5,5,0,0,1-.07.84Zm2.51-1.46a1.24,1.24,0,0,0-1.21-1.39,1.4,1.4,0,0,0-1.31,1.39Z"/><path class="cls-8" d="M395.91,165.58a5.45,5.45,0,0,1-1.91.3,3.32,3.32,0,0,1-3.63-3.5,3.58,3.58,0,0,1,3.92-3.64,4.93,4.93,0,0,1,1.63.27l-.34,1.58a2.94,2.94,0,0,0-1.19-.21,1.92,1.92,0,0,0,0,3.84,3.39,3.39,0,0,0,1.22-.21Z"/><path class="cls-8" d="M399.68,156.93v2h1.53v1.57h-1.53v2.48c0,.83.2,1.21.84,1.21a3.18,3.18,0,0,0,.63-.06l0,1.61a4.28,4.28,0,0,1-1.39.18,2.22,2.22,0,0,1-1.6-.58,2.88,2.88,0,0,1-.58-2v-2.8h-.91v-1.57h.91v-1.48Z"/><path class="cls-8" d="M404,163c.07.88.94,1.3,1.93,1.3a6.06,6.06,0,0,0,1.89-.28l.28,1.44a6.75,6.75,0,0,1-2.48.42c-2.32,0-3.65-1.34-3.65-3.48a3.43,3.43,0,0,1,3.46-3.66c2.21,0,3.05,1.72,3.05,3.42a5,5,0,0,1-.07.84Zm2.51-1.46a1.24,1.24,0,0,0-1.21-1.39,1.4,1.4,0,0,0-1.31,1.39Z"/><path class="cls-8" d="M412.14,156.93v2h1.53v1.57h-1.53v2.48c0,.83.2,1.21.84,1.21a3.18,3.18,0,0,0,.63-.06l0,1.61a4.28,4.28,0,0,1-1.39.18,2.22,2.22,0,0,1-1.6-.58,2.88,2.88,0,0,1-.58-2v-2.8h-.91v-1.57h.91v-1.48Z"/><path class="cls-8" d="M421.36,163.54c0,.9,0,1.63.05,2.2h-1.85l-.09-1h-.05a2.43,2.43,0,0,1-2.14,1.12c-1.39,0-2.41-.87-2.41-3v-4H417v3.69c0,1,.33,1.59,1.07,1.59a1.13,1.13,0,0,0,1.06-.74,1.09,1.09,0,0,0,.07-.46v-4.08h2.15Z"/><path class="cls-8" d="M424.7,163c.07.88.94,1.3,1.93,1.3a6.06,6.06,0,0,0,1.89-.28l.28,1.44a6.73,6.73,0,0,1-2.47.42c-2.33,0-3.66-1.34-3.66-3.48a3.43,3.43,0,0,1,3.46-3.66c2.21,0,3.05,1.72,3.05,3.42a5,5,0,0,1-.07.84Zm2.51-1.46a1.24,1.24,0,0,0-1.21-1.39,1.4,1.4,0,0,0-1.31,1.39Z"/><path class="cls-8" d="M430.45,161.15c0-1,0-1.67-.05-2.26h1.83l.07,1.26h.06a2,2,0,0,1,1.85-1.41,2.12,2.12,0,0,1,.45,0v2a3,3,0,0,0-.58-.06,1.38,1.38,0,0,0-1.46,1.08,3.45,3.45,0,0,0,0,.48v3.47h-2.13Z"/><path class="cls-8" d="M442.5,165.74l-.13-.68h0a2.49,2.49,0,0,1-2,.84,2.1,2.1,0,0,1-2.22-2.1c0-1.78,1.6-2.64,4-2.62v-.1c0-.37-.19-.88-1.24-.88a3.82,3.82,0,0,0-1.89.51l-.4-1.37a5.77,5.77,0,0,1,2.66-.6c2.29,0,3,1.34,3,3v2.38a9.41,9.41,0,0,0,.1,1.66Zm-.26-3.23c-1.12,0-2,.25-2,1.08a.77.77,0,0,0,.84.81,1.16,1.16,0,0,0,1.11-.79,1.37,1.37,0,0,0,0-.36Z"/><path class="cls-8" d="M452.63,155.8v7.9c0,.77,0,1.58.06,2H450.8l-.1-1h0a2.37,2.37,0,0,1-2.14,1.17c-1.63,0-2.93-1.39-2.93-3.52,0-2.31,1.43-3.64,3.07-3.64a2.09,2.09,0,0,1,1.81.77h0V155.8Zm-2.13,6c0-.11,0-.26,0-.37a1.29,1.29,0,0,0-1.25-1.06c-1,0-1.47.87-1.47,1.95s.57,1.89,1.45,1.89a1.25,1.25,0,0,0,1.24-1,1.89,1.89,0,0,0,.05-.49Z"/><path class="cls-8" d="M456.54,157a1.07,1.07,0,0,1-1.15,1.06,1.07,1.07,0,1,1,0-2.14A1.07,1.07,0,0,1,456.54,157Zm-2.2,8.75v-6.85h2.13v6.85Z"/><path class="cls-8" d="M458.17,161.19c0-.9,0-1.67-.05-2.3H460l.09,1h0a2.64,2.64,0,0,1,2.29-1.11c1.49,0,2.84,1.3,2.84,3.49,0,2.49-1.58,3.67-3.11,3.67a2.13,2.13,0,0,1-1.78-.79h0v3.41h-2.13Zm2.13,1.61a2.89,2.89,0,0,0,0,.45,1.3,1.3,0,0,0,1.25,1c.93,0,1.47-.77,1.47-1.93s-.49-1.92-1.44-1.92a1.34,1.34,0,0,0-1.28,1.08,2.21,2.21,0,0,0,0,.37Z"/><path class="cls-8" d="M469.78,161.36v1.41h-3.67v-1.41Z"/><path class="cls-8" d="M318.74,173.79a1.07,1.07,0,0,1-1.15,1.06,1.07,1.07,0,1,1,0-2.14A1.07,1.07,0,0,1,318.74,173.79Zm-2.2,8.75v-6.85h2.13v6.85Z"/><path class="cls-8" d="M320.36,180.68a4.11,4.11,0,0,0,1.84.52c.64,0,.91-.22.91-.58s-.21-.51-1-.78c-1.42-.48-2-1.25-2-2.06,0-1.27,1.09-2.24,2.79-2.24a4.58,4.58,0,0,1,1.93.39l-.38,1.47A3.32,3.32,0,0,0,323,177c-.52,0-.81.21-.81.56s.26.49,1.1.79c1.3.44,1.85,1.1,1.87,2.11,0,1.28-1,2.21-3,2.21a4.88,4.88,0,0,1-2.22-.47Z"/><path class="cls-8" d="M331.59,182.38a5.39,5.39,0,0,1-1.9.3,3.32,3.32,0,0,1-3.63-3.5,3.57,3.57,0,0,1,3.92-3.64,4.82,4.82,0,0,1,1.62.27l-.33,1.58a2.94,2.94,0,0,0-1.19-.21,1.92,1.92,0,0,0,0,3.84,3.43,3.43,0,0,0,1.22-.21Z"/><path class="cls-8" d="M335,173.79a1.07,1.07,0,0,1-1.15,1.06,1.07,1.07,0,1,1,0-2.14A1.06,1.06,0,0,1,335,173.79Zm-2.2,8.75v-6.85h2.13v6.85Z"/><path class="cls-8" d="M336.6,177.88c0-.86,0-1.58-.06-2.19h1.85l.1.94h0a2.52,2.52,0,0,1,2.12-1.09c1.4,0,2.45.92,2.45,2.94v4.06H341v-3.79c0-.88-.31-1.49-1.08-1.49a1.14,1.14,0,0,0-1.08.8,1.64,1.64,0,0,0-.08.53v3.95H336.6Z"/><path class="cls-8" d="M351.35,175.69c0,.44-.06,1-.06,2v3.82a3.94,3.94,0,0,1-1,3.08,4.19,4.19,0,0,1-2.79.84,5.35,5.35,0,0,1-2.46-.53l.42-1.61a4.22,4.22,0,0,0,2,.52,1.64,1.64,0,0,0,1.78-1.81v-.45h0a2.18,2.18,0,0,1-1.85.9c-1.69,0-2.9-1.37-2.9-3.35,0-2.2,1.43-3.6,3.11-3.6a2.07,2.07,0,0,1,1.88,1h0l.07-.82Zm-2.19,2.79a1.56,1.56,0,0,0,0-.39,1.17,1.17,0,0,0-1.15-.94c-.77,0-1.4.7-1.4,1.95,0,1,.5,1.82,1.4,1.82a1.16,1.16,0,0,0,1.12-.87,1.69,1.69,0,0,0,.07-.56Z"/><path class="cls-8" d="M357.46,179.8c.07.88.94,1.3,1.93,1.3a6.06,6.06,0,0,0,1.89-.28l.28,1.44a6.75,6.75,0,0,1-2.48.42c-2.32,0-3.65-1.34-3.65-3.48a3.43,3.43,0,0,1,3.46-3.66c2.21,0,3.05,1.72,3.05,3.42a5,5,0,0,1-.07.84Zm2.51-1.46a1.23,1.23,0,0,0-1.21-1.38,1.39,1.39,0,0,0-1.31,1.38Z"/><path class="cls-8" d="M363.21,172.6h2.13v9.94h-2.13Z"/><path class="cls-8" d="M369.26,173.79a1.07,1.07,0,0,1-1.15,1.06,1.07,1.07,0,1,1,0-2.14A1.06,1.06,0,0,1,369.26,173.79Zm-2.2,8.75v-6.85h2.13v6.85Z"/><path class="cls-8" d="M373.28,173.73v2h1.53v1.57h-1.53v2.48c0,.83.2,1.21.84,1.21a3.18,3.18,0,0,0,.63-.06v1.61a4.21,4.21,0,0,1-1.38.18,2.22,2.22,0,0,1-1.6-.58,2.87,2.87,0,0,1-.59-2v-2.8h-.91v-1.57h.91v-1.48Z"/><path class="cls-8" d="M375.1,184.21a24.44,24.44,0,0,0,1-4l2.17-.14a19.83,19.83,0,0,1-1.77,4Z"/><path class="cls-8" d="M382.38,180.68a4.11,4.11,0,0,0,1.83.52c.65,0,.91-.22.91-.58s-.21-.51-1-.78c-1.41-.48-2-1.25-1.94-2.06,0-1.27,1.09-2.24,2.79-2.24a4.61,4.61,0,0,1,1.93.39l-.38,1.47A3.36,3.36,0,0,0,385,177c-.52,0-.82.21-.82.56s.27.49,1.11.79c1.3.44,1.85,1.1,1.86,2.11,0,1.28-1,2.21-3,2.21a4.87,4.87,0,0,1-2.21-.47Z"/><path class="cls-8" d="M390.11,179.8c.07.88.93,1.3,1.93,1.3a6.06,6.06,0,0,0,1.89-.28l.28,1.44a6.75,6.75,0,0,1-2.48.42c-2.32,0-3.65-1.34-3.65-3.48a3.43,3.43,0,0,1,3.46-3.66c2.21,0,3,1.72,3,3.42a5,5,0,0,1-.07.84Zm2.5-1.46a1.23,1.23,0,0,0-1.2-1.38,1.4,1.4,0,0,0-1.32,1.38Z"/><path class="cls-8" d="M402.5,172.6v7.9c0,.77,0,1.58.05,2h-1.89l-.09-1h0a2.4,2.4,0,0,1-2.15,1.16c-1.62,0-2.92-1.39-2.92-3.52,0-2.31,1.43-3.64,3.07-3.64a2.07,2.07,0,0,1,1.8.77h0V172.6Zm-2.13,6a2.31,2.31,0,0,0,0-.37,1.27,1.27,0,0,0-1.25-1.05c-1,0-1.47.86-1.47,1.94s.58,1.89,1.46,1.89a1.24,1.24,0,0,0,1.23-1,1.53,1.53,0,0,0,.06-.49Z"/><path class="cls-8" d="M413.67,172.6v7.9c0,.77,0,1.58.06,2h-1.89l-.1-1h0a2.38,2.38,0,0,1-2.14,1.16c-1.63,0-2.93-1.39-2.93-3.52,0-2.31,1.43-3.64,3.07-3.64a2.05,2.05,0,0,1,1.8.77h0V172.6Zm-2.13,6a2.31,2.31,0,0,0,0-.37,1.26,1.26,0,0,0-1.24-1.05c-1,0-1.47.86-1.47,1.94s.57,1.89,1.45,1.89a1.25,1.25,0,0,0,1.24-1,1.89,1.89,0,0,0,.05-.49Z"/><path class="cls-8" d="M417.57,173.79a1.06,1.06,0,0,1-1.14,1.06,1.07,1.07,0,1,1,0-2.14A1.06,1.06,0,0,1,417.57,173.79Zm-2.19,8.75v-6.85h2.12v6.85Z"/><path class="cls-8" d="M423.11,182.54l-.13-.68h0a2.49,2.49,0,0,1-2,.84,2.1,2.1,0,0,1-2.22-2.1c0-1.78,1.6-2.64,4-2.62v-.1c0-.36-.19-.88-1.24-.88a3.72,3.72,0,0,0-1.89.52l-.4-1.38a5.77,5.77,0,0,1,2.66-.6c2.29,0,3,1.34,3,3v2.38a10.6,10.6,0,0,0,.09,1.66Zm-.26-3.23c-1.12,0-2,.25-2,1.08a.77.77,0,0,0,.84.81,1.16,1.16,0,0,0,1.11-.79,1.37,1.37,0,0,0,0-.36Z"/><path class="cls-8" d="M426.6,177.88c0-.86,0-1.58-.05-2.19h1.79l.1.93h0a2.36,2.36,0,0,1,2.07-1.08,1.94,1.94,0,0,1,1.88,1.16h0a3,3,0,0,1,.88-.82,2.43,2.43,0,0,1,1.3-.34c1.32,0,2.31.92,2.31,3v4h-2.07v-3.72c0-1-.32-1.57-1-1.57a1,1,0,0,0-1,.74,2,2,0,0,0-.08.55v4h-2.08v-3.83c0-.87-.3-1.46-1-1.46a1.09,1.09,0,0,0-1,.77,1.4,1.4,0,0,0-.08.53v4H426.6Z"/><path class="cls-8" d="M316.54,194.68c0-.86,0-1.58-.06-2.19h1.85l.1.94h0a2.52,2.52,0,0,1,2.12-1.09c1.4,0,2.45.92,2.45,2.94v4.06h-2.13v-3.79c0-.88-.31-1.49-1.08-1.49a1.14,1.14,0,0,0-1.08.8,1.64,1.64,0,0,0-.08.53v4h-2.13Z"/><path class="cls-8" d="M331.51,195.84a3.44,3.44,0,0,1-3.62,3.66,3.36,3.36,0,0,1-3.54-3.53,3.42,3.42,0,0,1,3.66-3.63A3.33,3.33,0,0,1,331.51,195.84Zm-5,.07c0,1.18.49,2.06,1.4,2.06s1.36-.83,1.36-2.06c0-1-.39-2.06-1.36-2.06S326.55,194.9,326.55,195.91Z"/><path class="cls-8" d="M332.82,194.68c0-.86,0-1.58-.06-2.19h1.85l.1.94h0a2.52,2.52,0,0,1,2.12-1.09c1.4,0,2.45.92,2.45,2.94v4.06h-2.13v-3.79c0-.88-.31-1.49-1.08-1.49a1.14,1.14,0,0,0-1.08.8,1.64,1.64,0,0,0-.08.53v4h-2.13Z"/><path class="cls-8" d="M347.48,197.14c0,.9,0,1.63.06,2.2h-1.85l-.1-1h0a2.45,2.45,0,0,1-2.14,1.12c-1.39,0-2.41-.87-2.41-3v-4h2.14v3.69c0,1,.32,1.59,1.06,1.59a1.14,1.14,0,0,0,1.07-.74,1.27,1.27,0,0,0,.07-.46v-4.08h2.14Z"/><path class="cls-8" d="M349.19,194.68c0-.86,0-1.58-.06-2.19h1.79l.1.93h0a2.38,2.38,0,0,1,2.08-1.08A1.93,1.93,0,0,1,355,193.5h0a3,3,0,0,1,.88-.82,2.44,2.44,0,0,1,1.31-.34c1.31,0,2.31.92,2.31,3v4h-2.08v-3.72c0-1-.32-1.57-1-1.57a1,1,0,0,0-1,.74,1.71,1.71,0,0,0-.09.55v4h-2.07v-3.83c0-.87-.31-1.46-1-1.46a1.09,1.09,0,0,0-1,.77,1.4,1.4,0,0,0-.08.53v4h-2.07Z"/><path class="cls-8" d="M361.23,194.68c0-.86,0-1.58-.06-2.19H363l.1.93h0a2.38,2.38,0,0,1,2.08-1.08,1.93,1.93,0,0,1,1.87,1.16h0a3,3,0,0,1,.88-.82,2.44,2.44,0,0,1,1.31-.34c1.31,0,2.31.92,2.31,3v4H369.5v-3.72c0-1-.32-1.57-1-1.57a1,1,0,0,0-1,.74,1.71,1.71,0,0,0-.09.55v4h-2.07v-3.83c0-.87-.31-1.46-1-1.46a1.09,1.09,0,0,0-1,.77,1.4,1.4,0,0,0-.08.53v4h-2.07Z"/><path class="cls-8" d="M374.6,192.49l1,3.37c.11.4.25.91.34,1.27h0c.1-.36.21-.88.31-1.27l.84-3.37h2.28l-1.6,4.51c-1,2.72-1.64,3.81-2.41,4.5a3.86,3.86,0,0,1-2.05.94l-.45-1.81a2.76,2.76,0,0,0,.92-.36,2.49,2.49,0,0,0,.88-.86.55.55,0,0,0,.12-.3.81.81,0,0,0-.1-.35l-2.51-6.27Z"/><path class="cls-8" d="M383.15,194.68c0-.86,0-1.58,0-2.19h1.84l.1.94h0a2.52,2.52,0,0,1,2.12-1.09c1.4,0,2.45.92,2.45,2.94v4.06h-2.13v-3.79c0-.88-.31-1.49-1.08-1.49a1.14,1.14,0,0,0-1.08.8,1.64,1.64,0,0,0-.08.53v4h-2.13Z"/><path class="cls-8" d="M393.55,190.59a1.06,1.06,0,0,1-1.14,1.06,1.07,1.07,0,1,1,0-2.14A1.06,1.06,0,0,1,393.55,190.59Zm-2.19,8.75v-6.85h2.12v6.85Z"/><path class="cls-8" d="M395.14,199.34c0-.44.05-1.27.05-2v-7.9h2.13v3.91h0a2.4,2.4,0,0,1,2.07-1c1.64,0,2.85,1.36,2.83,3.46,0,2.47-1.57,3.7-3.14,3.7a2.29,2.29,0,0,1-2.06-1.11h0l-.09,1Zm2.18-2.91a1.48,1.48,0,0,0,0,.38,1.3,1.3,0,0,0,1.25,1c.91,0,1.47-.7,1.47-1.94,0-1.06-.48-1.9-1.47-1.9a1.32,1.32,0,0,0-1.25,1.05,1.67,1.67,0,0,0,0,.39Z"/><path class="cls-8" d="M403.56,189.4h2.13v3.91h0a2.47,2.47,0,0,1,1.95-1c1.36,0,2.39.94,2.39,3v4h-2.13v-3.76c0-.9-.3-1.52-1.1-1.52a1.15,1.15,0,0,0-1.07.75,1.49,1.49,0,0,0-.07.47v4.06h-2.13Z"/><path class="cls-8" d="M416.23,196.6c.07.88.94,1.3,1.94,1.3a6.11,6.11,0,0,0,1.89-.28l.28,1.44a6.78,6.78,0,0,1-2.48.42c-2.33,0-3.66-1.34-3.66-3.48a3.43,3.43,0,0,1,3.46-3.66c2.22,0,3.06,1.72,3.06,3.42a6.29,6.29,0,0,1-.07.84Zm2.51-1.46a1.23,1.23,0,0,0-1.2-1.39,1.41,1.41,0,0,0-1.32,1.39Z"/><path class="cls-8" d="M428.44,197.14c0,.9,0,1.63.06,2.2h-1.85l-.1-1h0a2.43,2.43,0,0,1-2.14,1.12c-1.39,0-2.41-.87-2.41-3v-4h2.14v3.69c0,1,.32,1.59,1.07,1.59a1.14,1.14,0,0,0,1.06-.74,1.09,1.09,0,0,0,.07-.46v-4.08h2.14Z"/><path class="cls-8" d="M432.35,190.59a1.07,1.07,0,0,1-1.15,1.06,1.07,1.07,0,1,1,0-2.14A1.07,1.07,0,0,1,432.35,190.59Zm-2.2,8.75v-6.85h2.13v6.85Z"/><path class="cls-8" d="M434,197.48a4.15,4.15,0,0,0,1.84.52c.64,0,.91-.23.91-.58s-.21-.51-1-.78c-1.42-.48-2-1.25-1.95-2.06,0-1.27,1.09-2.24,2.79-2.24a4.58,4.58,0,0,1,1.93.39l-.38,1.47a3.32,3.32,0,0,0-1.48-.39c-.52,0-.81.21-.81.56s.26.49,1.1.79c1.31.44,1.85,1.1,1.87,2.11,0,1.28-1,2.21-3,2.21a4.88,4.88,0,0,1-2.22-.47Z"/><path class="cls-8" d="M440.06,194.68c0-.86,0-1.58-.05-2.19h1.79l.1.93h0a2.35,2.35,0,0,1,2.07-1.08,2,2,0,0,1,1.88,1.16h0a3,3,0,0,1,.88-.82,2.43,2.43,0,0,1,1.3-.34c1.32,0,2.31.92,2.31,3v4h-2.07v-3.72c0-1-.32-1.57-1-1.57a1,1,0,0,0-1,.74,1.7,1.7,0,0,0-.08.55v4h-2.08v-3.83c0-.87-.3-1.46-1-1.46a1.08,1.08,0,0,0-1,.77,1.41,1.41,0,0,0-.09.53v4h-2.07Z"/><path class="cls-8" d="M458.87,195.84a3.44,3.44,0,0,1-3.62,3.66,3.36,3.36,0,0,1-3.54-3.53,3.42,3.42,0,0,1,3.66-3.63A3.33,3.33,0,0,1,458.87,195.84Zm-5,.07c0,1.18.49,2.06,1.4,2.06s1.36-.83,1.36-2.06c0-1-.39-2.06-1.36-2.06S453.91,194.9,453.91,195.91Z"/><path class="cls-8" d="M466.86,189.4v7.9c0,.77,0,1.58.06,2H465l-.1-1h0a2.38,2.38,0,0,1-2.14,1.16c-1.63,0-2.93-1.39-2.93-3.52,0-2.31,1.43-3.64,3.07-3.64a2.05,2.05,0,0,1,1.8.77h0V189.4Zm-2.13,6a2.31,2.31,0,0,0,0-.37,1.27,1.27,0,0,0-1.24-1.06c-1,0-1.47.87-1.47,1.95s.57,1.89,1.45,1.89a1.25,1.25,0,0,0,1.24-1,1.89,1.89,0,0,0,.05-.49Z"/><path class="cls-8" d="M318.92,207.33v2h1.53v1.57h-1.53v2.48c0,.83.2,1.21.84,1.21a3.18,3.18,0,0,0,.63-.06v1.61a4.21,4.21,0,0,1-1.38.18,2.22,2.22,0,0,1-1.6-.58,2.87,2.87,0,0,1-.59-2v-2.8h-.91v-1.57h.91v-1.48Z"/><path class="cls-8" d="M323.88,207.39a1.07,1.07,0,0,1-1.15,1.06,1.07,1.07,0,1,1,0-2.14A1.07,1.07,0,0,1,323.88,207.39Zm-2.2,8.75v-6.85h2.12v6.85Z"/><path class="cls-8" d="M325.51,211.48c0-.86,0-1.58-.05-2.19h1.84l.1.94h0a2.52,2.52,0,0,1,2.12-1.09c1.4,0,2.45.92,2.45,2.94v4.06h-2.13v-3.79c0-.89-.31-1.49-1.08-1.49a1.15,1.15,0,0,0-1.08.8,1.64,1.64,0,0,0-.08.53v3.95h-2.13Z"/><path class="cls-8" d="M338.86,216a5.45,5.45,0,0,1-1.91.3,3.32,3.32,0,0,1-3.63-3.5,3.58,3.58,0,0,1,3.93-3.64,4.87,4.87,0,0,1,1.62.27l-.34,1.58a2.94,2.94,0,0,0-1.19-.21,1.92,1.92,0,0,0,.05,3.84,3.37,3.37,0,0,0,1.21-.21Z"/><path class="cls-8" d="M342.23,207.39a1.07,1.07,0,0,1-1.15,1.06,1.07,1.07,0,1,1,0-2.14A1.07,1.07,0,0,1,342.23,207.39Zm-2.2,8.75v-6.85h2.13v6.85Z"/><path class="cls-8" d="M350.5,206.2v7.9c0,.77,0,1.58.06,2h-1.89l-.1-1h0a2.38,2.38,0,0,1-2.14,1.16c-1.62,0-2.93-1.39-2.93-3.52,0-2.31,1.43-3.64,3.07-3.64a2.09,2.09,0,0,1,1.81.77h0V206.2Zm-2.12,6c0-.11,0-.26,0-.37a1.29,1.29,0,0,0-1.25-1.06c-1,0-1.47.87-1.47,2s.57,1.89,1.46,1.89a1.25,1.25,0,0,0,1.23-1,1.88,1.88,0,0,0,.06-.49Z"/><path class="cls-8" d="M358.67,213.94c0,.9,0,1.63.05,2.2h-1.85l-.09-1h0a2.43,2.43,0,0,1-2.14,1.12c-1.39,0-2.41-.87-2.41-3v-4h2.14V213c0,1,.33,1.59,1.07,1.59a1.13,1.13,0,0,0,1.06-.74,1.09,1.09,0,0,0,.07-.46v-4.08h2.15Z"/><path class="cls-8" d="M360.37,211.48c0-.86,0-1.58-.05-2.19h1.84l.1.94h0a2.52,2.52,0,0,1,2.12-1.09c1.4,0,2.45.92,2.45,2.94v4.06h-2.13v-3.79c0-.89-.31-1.49-1.08-1.49a1.14,1.14,0,0,0-1.08.8,1.64,1.64,0,0,0-.08.53v3.95h-2.13Z"/><path class="cls-8" d="M370.87,207.33v2h1.53v1.57h-1.53v2.48c0,.83.2,1.21.84,1.21a3.18,3.18,0,0,0,.63-.06l0,1.61a4.28,4.28,0,0,1-1.39.18,2.22,2.22,0,0,1-1.6-.58,2.88,2.88,0,0,1-.58-2v-2.8h-.91v-1.57h.91v-1.48Z"/><path class="cls-8" d="M382.91,213.94c0,.9,0,1.63.06,2.2h-1.85l-.1-1h0a2.45,2.45,0,0,1-2.14,1.12c-1.39,0-2.41-.87-2.41-3v-4h2.14V213c0,1,.32,1.59,1.07,1.59a1.14,1.14,0,0,0,1.06-.74,1.09,1.09,0,0,0,.07-.46v-4.08h2.14Z"/><path class="cls-8" d="M387,207.33v2h1.53v1.57H387v2.48c0,.83.2,1.21.84,1.21a3.18,3.18,0,0,0,.63-.06l0,1.61a4.28,4.28,0,0,1-1.39.18,2.22,2.22,0,0,1-1.6-.58,2.87,2.87,0,0,1-.59-2v-2.8H384v-1.57h.91v-1.48Z"/><path class="cls-8" d="M392.58,206.2h2.13v9.94h-2.13Z"/><path class="cls-8" d="M400.33,216.14l-.13-.68h0a2.49,2.49,0,0,1-2,.84,2.1,2.1,0,0,1-2.21-2.1c0-1.78,1.59-2.64,4-2.62v-.1c0-.37-.2-.88-1.25-.88a3.86,3.86,0,0,0-1.89.51l-.39-1.37a5.7,5.7,0,0,1,2.66-.6c2.28,0,3,1.34,3,3v2.38a10.4,10.4,0,0,0,.1,1.66Zm-.25-3.23c-1.12,0-2,.25-2,1.08a.76.76,0,0,0,.84.81A1.15,1.15,0,0,0,400,214a1.36,1.36,0,0,0,.05-.36Z"/><path class="cls-8" d="M410.59,212.64A3.44,3.44,0,0,1,407,216.3a3.36,3.36,0,0,1-3.55-3.53,3.42,3.42,0,0,1,3.66-3.63A3.33,3.33,0,0,1,410.59,212.64Zm-5,.07c0,1.18.49,2.06,1.4,2.06s1.36-.83,1.36-2.06c0-1-.39-2.06-1.36-2.06S405.63,211.7,405.63,212.71Z"/><path class="cls-8" d="M411.9,211.55c0-1,0-1.67,0-2.26h1.83l.07,1.26h.06a2,2,0,0,1,1.85-1.41,2.12,2.12,0,0,1,.45,0v2a3,3,0,0,0-.58-.06,1.37,1.37,0,0,0-1.45,1.08,2.36,2.36,0,0,0-.05.48v3.47H411.9Z"/><path class="cls-8" d="M418.75,213.4c.07.88.94,1.3,1.93,1.3a6.17,6.17,0,0,0,1.9-.28l.28,1.44a6.78,6.78,0,0,1-2.48.42c-2.33,0-3.66-1.34-3.66-3.48a3.43,3.43,0,0,1,3.46-3.66c2.21,0,3.05,1.72,3.05,3.42a5,5,0,0,1-.07.84Zm2.51-1.46a1.24,1.24,0,0,0-1.21-1.39,1.4,1.4,0,0,0-1.31,1.39Z"/><path class="cls-8" d="M426.14,213.4c.07.88.94,1.3,1.94,1.3a6.15,6.15,0,0,0,1.89-.28l.28,1.44a6.78,6.78,0,0,1-2.48.42c-2.33,0-3.66-1.34-3.66-3.48a3.43,3.43,0,0,1,3.46-3.66c2.22,0,3.05,1.72,3.05,3.42a5,5,0,0,1-.07.84Zm2.51-1.46a1.23,1.23,0,0,0-1.2-1.39,1.4,1.4,0,0,0-1.32,1.39Z"/><path class="cls-8" d="M434.28,207.33v2h1.52v1.57h-1.52v2.48c0,.83.19,1.21.84,1.21a3.36,3.36,0,0,0,.63-.06v1.61a4.21,4.21,0,0,1-1.38.18,2.2,2.2,0,0,1-1.6-.58,2.87,2.87,0,0,1-.59-2v-2.8h-.91v-1.57h.91v-1.48Z"/><path class="cls-8" d="M323.18,223v7.9c0,.77,0,1.58.05,2h-1.89l-.1-1h0a2.4,2.4,0,0,1-2.15,1.16c-1.62,0-2.92-1.39-2.92-3.52,0-2.31,1.42-3.64,3.06-3.64a2.09,2.09,0,0,1,1.81.77h0V223Zm-2.13,6c0-.11,0-.26,0-.37a1.29,1.29,0,0,0-1.25-1.06c-1,0-1.47.87-1.47,1.95s.58,1.89,1.46,1.89a1.24,1.24,0,0,0,1.23-1,1.88,1.88,0,0,0,.06-.49Z"/><path class="cls-8" d="M331.65,229.44A3.44,3.44,0,0,1,328,233.1a3.36,3.36,0,0,1-3.54-3.53,3.42,3.42,0,0,1,3.66-3.63A3.33,3.33,0,0,1,331.65,229.44Zm-5,.07c0,1.18.49,2.06,1.4,2.06s1.36-.83,1.36-2.06c0-1-.39-2.06-1.36-2.06S326.69,228.5,326.69,229.51Z"/><path class="cls-8" d="M333,223h2.13v9.94H333Z"/><path class="cls-8" d="M343.58,229.44A3.44,3.44,0,0,1,340,233.1a3.36,3.36,0,0,1-3.54-3.53,3.41,3.41,0,0,1,3.65-3.63A3.34,3.34,0,0,1,343.58,229.44Zm-5,.07c0,1.18.49,2.06,1.4,2.06s1.36-.83,1.36-2.06c0-1-.4-2.06-1.36-2.06S338.62,228.5,338.62,229.51Z"/><path class="cls-8" d="M344.89,228.35c0-1,0-1.67-.06-2.26h1.84l.07,1.26h.05a2,2,0,0,1,2.3-1.38v2a2.94,2.94,0,0,0-.57-.05,1.37,1.37,0,0,0-1.46,1.07,2.39,2.39,0,0,0,0,.48v3.47h-2.13Z"/><path class="cls-8" d="M351.73,230.2c.07.88.94,1.3,1.94,1.3a6.11,6.11,0,0,0,1.89-.28l.28,1.44a6.78,6.78,0,0,1-2.48.42c-2.33,0-3.66-1.34-3.66-3.48a3.43,3.43,0,0,1,3.46-3.66c2.22,0,3.06,1.72,3.06,3.42a6.29,6.29,0,0,1-.07.84Zm2.51-1.46a1.23,1.23,0,0,0-1.2-1.39,1.41,1.41,0,0,0-1.32,1.39Z"/><path class="cls-8" d="M360.32,228.28c0-.86,0-1.58-.06-2.19h1.79l.1.93h0a2.38,2.38,0,0,1,2.08-1.08,1.93,1.93,0,0,1,1.87,1.16h0a3,3,0,0,1,.88-.82,2.44,2.44,0,0,1,1.31-.34c1.31,0,2.31.92,2.31,3v4h-2.08v-3.72c0-1-.32-1.57-1-1.57a1.06,1.06,0,0,0-1,.74,2,2,0,0,0-.08.55v4h-2.07v-3.83c0-.87-.31-1.46-1-1.46a1.09,1.09,0,0,0-1,.77,1.4,1.4,0,0,0-.08.53v4h-2.07Z"/><path class="cls-8" d="M376.25,232.94l-.13-.68h0a2.49,2.49,0,0,1-2,.84,2.1,2.1,0,0,1-2.21-2.1c0-1.78,1.59-2.64,4-2.62v-.1c0-.36-.2-.88-1.25-.88a3.75,3.75,0,0,0-1.89.52l-.39-1.38a5.7,5.7,0,0,1,2.66-.6c2.28,0,3,1.34,3,3v2.38a10.4,10.4,0,0,0,.1,1.66Zm-.25-3.23c-1.12,0-2,.25-2,1.08a.76.76,0,0,0,.84.81,1.17,1.17,0,0,0,1.11-.79,2,2,0,0,0,0-.36Z"/><path class="cls-8" d="M386.29,226.09c0,.44-.06,1-.06,2V232a3.93,3.93,0,0,1-1,3.08,4.2,4.2,0,0,1-2.79.84,5.36,5.36,0,0,1-2.47-.53l.42-1.61a4.25,4.25,0,0,0,2,.52,1.64,1.64,0,0,0,1.78-1.81V232h0a2.17,2.17,0,0,1-1.85.9c-1.69,0-2.9-1.37-2.9-3.35,0-2.2,1.43-3.6,3.11-3.6a2.07,2.07,0,0,1,1.88,1h0l.07-.82Zm-2.19,2.79a1.56,1.56,0,0,0,0-.39,1.17,1.17,0,0,0-1.15-.94c-.77,0-1.4.7-1.4,1.95,0,1,.51,1.82,1.4,1.82a1.16,1.16,0,0,0,1.12-.87,1.69,1.69,0,0,0,.07-.56Z"/><path class="cls-8" d="M387.94,228.28c0-.86,0-1.58-.06-2.19h1.85l.1.94h0a2.51,2.51,0,0,1,2.11-1.09c1.41,0,2.46.92,2.46,2.94v4.06h-2.13v-3.79c0-.88-.31-1.49-1.08-1.49a1.14,1.14,0,0,0-1.08.8,1.41,1.41,0,0,0-.08.53v3.95h-2.13Z"/><path class="cls-8" d="M400,232.94l-.13-.68h0a2.49,2.49,0,0,1-2,.84,2.1,2.1,0,0,1-2.22-2.1c0-1.78,1.6-2.64,4-2.62v-.1c0-.36-.19-.88-1.24-.88a3.72,3.72,0,0,0-1.89.52l-.4-1.38a5.77,5.77,0,0,1,2.66-.6c2.29,0,3,1.34,3,3v2.38a10.6,10.6,0,0,0,.09,1.66Zm-.26-3.23c-1.12,0-2,.25-2,1.08a.77.77,0,0,0,.84.81,1.16,1.16,0,0,0,1.11-.79,1.37,1.37,0,0,0,0-.36Z"/><path class="cls-8" d="M410.25,232.94l-.12-.68h0a2.5,2.5,0,0,1-2,.84,2.1,2.1,0,0,1-2.21-2.1c0-1.78,1.6-2.64,4-2.62v-.1c0-.36-.19-.88-1.24-.88a3.79,3.79,0,0,0-1.9.52l-.39-1.38a5.77,5.77,0,0,1,2.66-.6c2.29,0,3,1.34,3,3v2.38a10.6,10.6,0,0,0,.09,1.66Zm-.25-3.23c-1.12,0-2,.25-2,1.08a.77.77,0,0,0,.84.81,1.16,1.16,0,0,0,1.11-.79,1.37,1.37,0,0,0,0-.36Z"/><path class="cls-8" d="M413.75,223h2.13v9.94h-2.13Z"/><path class="cls-8" d="M419.8,224.19a1.07,1.07,0,0,1-1.15,1.06,1.07,1.07,0,1,1,0-2.14A1.06,1.06,0,0,1,419.8,224.19Zm-2.2,8.75v-6.85h2.13v6.85Z"/><path class="cls-8" d="M426,232.09h0a2.32,2.32,0,0,1-2,1c-1.49,0-2.85-1.3-2.85-3.49,0-2.45,1.57-3.67,3-3.67a2.07,2.07,0,0,1,1.91.95h0l.06-.8h2.06c0,.66,0,1.35,0,2.06v7.57H426Zm0-3.12a2,2,0,0,0,0-.35,1.27,1.27,0,0,0-1.22-1c-1,0-1.47.83-1.47,1.94s.54,1.89,1.44,1.89a1.26,1.26,0,0,0,1.23-1A1.82,1.82,0,0,0,426,230Z"/><path class="cls-8" d="M436.22,230.74c0,.9,0,1.63.06,2.2h-1.85l-.1-1h0a2.43,2.43,0,0,1-2.14,1.12c-1.39,0-2.41-.87-2.41-3v-4h2.14v3.69c0,1,.33,1.6,1.07,1.6a1.14,1.14,0,0,0,1.06-.75,1.09,1.09,0,0,0,.07-.46v-4.08h2.14Z"/><path class="cls-8" d="M441.82,232.94l-.12-.68h0a2.5,2.5,0,0,1-2,.84,2.1,2.1,0,0,1-2.21-2.1c0-1.78,1.6-2.64,4-2.62v-.1c0-.36-.19-.88-1.25-.88a3.75,3.75,0,0,0-1.89.52l-.39-1.38a5.77,5.77,0,0,1,2.66-.6c2.29,0,3,1.34,3,3v2.38a10.4,10.4,0,0,0,.1,1.66Zm-.25-3.23c-1.12,0-2,.25-2,1.08a.77.77,0,0,0,.84.81,1.16,1.16,0,0,0,1.11-.79,1.37,1.37,0,0,0,0-.36Z"/><path class="cls-8" d="M445.32,228.28c0-.86,0-1.58-.05-2.19h1.79l.1.93h0a2.35,2.35,0,0,1,2.07-1.08,2,2,0,0,1,1.88,1.16h0a3,3,0,0,1,.88-.82,2.43,2.43,0,0,1,1.3-.34c1.32,0,2.31.92,2.31,3v4H453.6v-3.72c0-1-.32-1.57-1-1.57a1,1,0,0,0-1,.74,1.7,1.7,0,0,0-.08.55v4h-2.08v-3.83c0-.87-.3-1.46-1-1.46a1.08,1.08,0,0,0-1,.77,1.41,1.41,0,0,0-.09.53v4h-2.07Z"/><path class="cls-8" d="M318.18,247c.07.88.94,1.3,1.93,1.3A6.06,6.06,0,0,0,322,248l.28,1.44a6.75,6.75,0,0,1-2.48.42c-2.32,0-3.65-1.34-3.65-3.48a3.43,3.43,0,0,1,3.46-3.66c2.21,0,3.05,1.72,3.05,3.42a5,5,0,0,1-.07.84Zm2.5-1.46a1.23,1.23,0,0,0-1.2-1.39,1.41,1.41,0,0,0-1.32,1.39Z"/><path class="cls-8" d="M323.93,245.15c0-1,0-1.67-.06-2.26h1.84l.07,1.26h.05a2,2,0,0,1,2.3-1.38v2a2.76,2.76,0,0,0-.57-.06,1.38,1.38,0,0,0-1.46,1.08,2.39,2.39,0,0,0,0,.48v3.47h-2.13Z"/><path class="cls-8" d="M333,249.74l-.13-.68h0a2.49,2.49,0,0,1-2,.84,2.1,2.1,0,0,1-2.21-2.1c0-1.78,1.6-2.64,4-2.62v-.1c0-.37-.2-.88-1.25-.88a3.86,3.86,0,0,0-1.89.51l-.39-1.37a5.73,5.73,0,0,1,2.66-.6c2.28,0,3,1.34,3,3v2.38a10.48,10.48,0,0,0,.1,1.66Zm-.25-3.23c-1.12,0-2,.25-2,1.08a.76.76,0,0,0,.84.81,1.17,1.17,0,0,0,1.11-.79,2,2,0,0,0,0-.36Z"/><path class="cls-8" d="M338.76,240.93v2h1.52v1.57h-1.52v2.48c0,.83.19,1.21.84,1.21a3.36,3.36,0,0,0,.63-.06v1.61a4.21,4.21,0,0,1-1.38.18,2.2,2.2,0,0,1-1.6-.58,2.87,2.87,0,0,1-.59-2v-2.8h-.91v-1.57h.91v-1.48Z"/><path class="cls-8" d="M345.92,242.89l.93,3.18a16,16,0,0,1,.39,1.67h0c.12-.56.23-1.08.38-1.67l.88-3.18h2.25l-2.55,6.85h-2.13l-2.5-6.85Z"/><path class="cls-8" d="M358.32,246.24a3.44,3.44,0,0,1-3.62,3.66,3.36,3.36,0,0,1-3.54-3.53,3.42,3.42,0,0,1,3.66-3.63A3.33,3.33,0,0,1,358.32,246.24Zm-5,.07c0,1.18.49,2.06,1.4,2.06s1.36-.83,1.36-2.06c0-1-.39-2.06-1.36-2.06S353.36,245.3,353.36,246.31Z"/><path class="cls-8" d="M359.63,239.8h2.13v9.94h-2.13Z"/><path class="cls-8" d="M369.94,247.54c0,.9,0,1.63.05,2.2h-1.85l-.09-1H368a2.43,2.43,0,0,1-2.14,1.12c-1.39,0-2.41-.87-2.41-3v-4h2.14v3.69c0,1,.33,1.59,1.07,1.59a1.13,1.13,0,0,0,1.06-.74,1.09,1.09,0,0,0,.07-.46v-4.08h2.15Z"/><path class="cls-8" d="M374,240.93v2h1.53v1.57H374v2.48c0,.83.2,1.21.84,1.21a3.18,3.18,0,0,0,.63-.06l0,1.61a4.28,4.28,0,0,1-1.39.18,2.22,2.22,0,0,1-1.6-.58,2.88,2.88,0,0,1-.58-2v-2.8H371v-1.57h.91v-1.48Z"/><path class="cls-8" d="M376.78,245.19c0-.9,0-1.67-.06-2.3h1.85l.1,1h0a2.62,2.62,0,0,1,2.28-1.11c1.5,0,2.85,1.3,2.85,3.49,0,2.49-1.59,3.67-3.11,3.67a2.11,2.11,0,0,1-1.78-.79h0v3.41h-2.13Zm2.13,1.61a2,2,0,0,0,0,.45,1.3,1.3,0,0,0,1.25,1c.92,0,1.47-.77,1.47-1.93s-.49-1.92-1.44-1.92a1.33,1.33,0,0,0-1.28,1.08,1.5,1.5,0,0,0,0,.37Z"/><path class="cls-8" d="M389.05,249.74l-.13-.68h0a2.49,2.49,0,0,1-2,.84,2.1,2.1,0,0,1-2.22-2.1c0-1.78,1.6-2.64,4-2.62v-.1c0-.37-.19-.88-1.24-.88a3.82,3.82,0,0,0-1.89.51l-.4-1.37a5.77,5.77,0,0,1,2.66-.6c2.29,0,3,1.34,3,3v2.38a10.68,10.68,0,0,0,.09,1.66Zm-.26-3.23c-1.12,0-2,.25-2,1.08a.77.77,0,0,0,.84.81,1.16,1.16,0,0,0,1.11-.79,1.37,1.37,0,0,0,0-.36Z"/><path class="cls-8" d="M394.81,240.93v2h1.53v1.57h-1.53v2.48c0,.83.2,1.21.84,1.21a3.18,3.18,0,0,0,.63-.06l0,1.61a4.28,4.28,0,0,1-1.39.18,2.22,2.22,0,0,1-1.6-.58,2.87,2.87,0,0,1-.59-2v-2.8h-.91v-1.57h.91v-1.48Z"/><path class="cls-8" d="M397.3,248.61a1.23,1.23,0,0,1,1.26-1.3,1.3,1.3,0,0,1,0,2.59A1.23,1.23,0,0,1,397.3,248.61Z"/><path class="cls-8" d="M406.12,240.3v5.44c0,1.62.62,2.45,1.71,2.45s1.74-.79,1.74-2.45V240.3h2.13v5.3c0,2.91-1.47,4.3-3.94,4.3s-3.78-1.32-3.78-4.33V240.3Z"/><path class="cls-8" d="M415.85,240.93v2h1.53v1.57h-1.53v2.48c0,.83.2,1.21.84,1.21a3.18,3.18,0,0,0,.63-.06l0,1.61a4.28,4.28,0,0,1-1.39.18,2.2,2.2,0,0,1-1.59-.58,2.83,2.83,0,0,1-.59-2v-2.8h-.91v-1.57h.91v-1.48Z"/><path class="cls-8" d="M422.91,242.89l.55,2.81c.14.71.28,1.47.39,2.25h0c.14-.78.33-1.57.5-2.24l.73-2.82h1.68l.69,2.74c.18.77.36,1.54.5,2.32h0c.1-.78.24-1.55.39-2.34l.59-2.72h2.09L429,249.74h-2l-.64-2.41c-.17-.67-.3-1.28-.44-2.12h0a16.86,16.86,0,0,1-.45,2.12l-.69,2.41h-2l-2-6.85Z"/><path class="cls-8" d="M434.26,241a1.06,1.06,0,0,1-1.14,1.06,1.07,1.07,0,1,1,0-2.14A1.06,1.06,0,0,1,434.26,241Zm-2.2,8.75v-6.85h2.13v6.85Z"/><path class="cls-8" d="M435.89,247.88a4.11,4.11,0,0,0,1.83.52c.65,0,.91-.23.91-.58s-.21-.51-1-.78c-1.41-.48-2-1.25-1.94-2.06,0-1.27,1.09-2.24,2.78-2.24a4.63,4.63,0,0,1,1.94.39L440,244.6a3.36,3.36,0,0,0-1.49-.39c-.51,0-.81.21-.81.56s.27.49,1.11.79c1.3.44,1.85,1.1,1.86,2.11,0,1.28-1,2.21-3,2.21a4.87,4.87,0,0,1-2.21-.47Z"/><path class="cls-8" d="M444.18,241a1.07,1.07,0,0,1-1.15,1.06,1.07,1.07,0,1,1,0-2.14A1.07,1.07,0,0,1,444.18,241Zm-2.2,8.75v-6.85h2.13v6.85Z"/><path class="cls-8" d="M318.18,263.8c.07.88.94,1.3,1.93,1.3a6.06,6.06,0,0,0,1.89-.28l.28,1.44a6.75,6.75,0,0,1-2.48.42c-2.32,0-3.65-1.34-3.65-3.48a3.43,3.43,0,0,1,3.46-3.66c2.21,0,3.05,1.72,3.05,3.42a5,5,0,0,1-.07.84Zm2.5-1.46a1.23,1.23,0,0,0-1.2-1.38,1.4,1.4,0,0,0-1.32,1.38Z"/><path class="cls-8" d="M323.93,261.88c0-.86,0-1.58-.06-2.19h1.85l.1.94h0a2.52,2.52,0,0,1,2.12-1.09c1.4,0,2.45.92,2.45,2.94v4.06H328.3v-3.79c0-.88-.31-1.49-1.08-1.49a1.14,1.14,0,0,0-1.08.8,1.64,1.64,0,0,0-.08.53v4h-2.13Z"/><path class="cls-8" d="M334.33,257.79a1.07,1.07,0,0,1-1.15,1.06,1.07,1.07,0,1,1,0-2.14A1.06,1.06,0,0,1,334.33,257.79Zm-2.2,8.75v-6.85h2.13v6.85Z"/><path class="cls-8" d="M336,261.88c0-.86,0-1.58-.06-2.19h1.8l.09.93h.05a2.35,2.35,0,0,1,2.07-1.08,2,2,0,0,1,1.88,1.16h0a2.84,2.84,0,0,1,.88-.82,2.43,2.43,0,0,1,1.3-.34c1.32,0,2.31.92,2.31,3v4h-2.07v-3.72c0-1-.32-1.57-1-1.57a1,1,0,0,0-1,.74,1.71,1.71,0,0,0-.09.55v4H340.1v-3.83c0-.87-.31-1.46-1-1.46a1.08,1.08,0,0,0-1,.77,1.41,1.41,0,0,0-.09.53v4H336Z"/><path class="cls-8" d="M354.73,266.54l-.12-.68h-.05a2.46,2.46,0,0,1-2,.84,2.1,2.1,0,0,1-2.21-2.1c0-1.78,1.6-2.64,4-2.62v-.1c0-.36-.2-.88-1.25-.88a3.75,3.75,0,0,0-1.89.52l-.39-1.38a5.73,5.73,0,0,1,2.66-.6c2.28,0,3,1.34,3,3v2.38a10.4,10.4,0,0,0,.1,1.66Zm-.25-3.23c-1.12,0-2,.25-2,1.08a.76.76,0,0,0,.84.81,1.17,1.17,0,0,0,1.11-.79,1.37,1.37,0,0,0,0-.36Z"/><path class="cls-8" d="M364.87,256.6v7.9c0,.77,0,1.58.05,2H363l-.09-1h0a2.4,2.4,0,0,1-2.15,1.16c-1.62,0-2.92-1.39-2.92-3.52,0-2.31,1.43-3.64,3.07-3.64a2.07,2.07,0,0,1,1.8.77h0V256.6Zm-2.13,6a2.31,2.31,0,0,0,0-.37,1.27,1.27,0,0,0-1.25-1.05c-1,0-1.47.86-1.47,1.94s.58,1.89,1.46,1.89a1.24,1.24,0,0,0,1.23-1,1.53,1.53,0,0,0,.06-.49Z"/><path class="cls-8" d="M411.07,376.61h2.14v7.65H417v1.79h-5.89Z"/><path class="cls-8" d="M424.79,382.55a3.44,3.44,0,0,1-3.61,3.66,3.36,3.36,0,0,1-3.55-3.53,3.42,3.42,0,0,1,3.66-3.63A3.33,3.33,0,0,1,424.79,382.55Zm-5,.07c0,1.18.49,2.06,1.4,2.06s1.36-.83,1.36-2.06c0-1-.39-2.06-1.36-2.06S419.83,381.61,419.83,382.62Z"/><path class="cls-8" d="M426.1,381.46c0-1,0-1.67-.05-2.26h1.83l.07,1.26H428a2,2,0,0,1,1.85-1.41,2,2,0,0,1,.44,0v2a2.76,2.76,0,0,0-.57-.06,1.37,1.37,0,0,0-1.46,1.08,3.45,3.45,0,0,0,0,.48v3.47H426.1Z"/><path class="cls-8" d="M433,383.31c.07.88.94,1.3,1.93,1.3a6.06,6.06,0,0,0,1.89-.28l.28,1.44a6.73,6.73,0,0,1-2.47.42c-2.33,0-3.66-1.34-3.66-3.48a3.43,3.43,0,0,1,3.46-3.66c2.21,0,3.05,1.72,3.05,3.42a5,5,0,0,1-.07.84Zm2.51-1.46a1.24,1.24,0,0,0-1.21-1.39,1.4,1.4,0,0,0-1.31,1.39Z"/><path class="cls-8" d="M438.7,381.39c0-.86,0-1.58-.05-2.19h1.79l.1.93h0a2.36,2.36,0,0,1,2.07-1.08,1.94,1.94,0,0,1,1.88,1.16h0a3,3,0,0,1,.88-.82,2.43,2.43,0,0,1,1.3-.34c1.32,0,2.31.92,2.31,3v4H447v-3.72c0-1-.32-1.57-1-1.57a1,1,0,0,0-1,.74,2,2,0,0,0-.08.55v4h-2.08v-3.84c0-.86-.3-1.45-1-1.45a1.09,1.09,0,0,0-1,.77,1.4,1.4,0,0,0-.08.53v4H438.7Z"/><path class="cls-8" d="M455.77,377.3a1.07,1.07,0,0,1-1.15,1.06,1.07,1.07,0,1,1,0-2.14A1.06,1.06,0,0,1,455.77,377.3Zm-2.2,8.75V379.2h2.13v6.85Z"/><path class="cls-8" d="M457.41,381.5c0-.9,0-1.67-.06-2.3h1.85l.1,1h0a2.62,2.62,0,0,1,2.28-1.11c1.5,0,2.84,1.3,2.84,3.49,0,2.49-1.58,3.67-3.11,3.67a2.14,2.14,0,0,1-1.78-.79h0v3.41h-2.13Zm2.13,1.61a2,2,0,0,0,0,.45,1.3,1.3,0,0,0,1.25,1c.92,0,1.47-.77,1.47-1.94s-.49-1.91-1.45-1.91a1.33,1.33,0,0,0-1.27,1.07,1.64,1.64,0,0,0,0,.38Z"/><path class="cls-8" d="M465.77,384.19a4.11,4.11,0,0,0,1.83.52c.64,0,.91-.23.91-.58s-.21-.51-1-.78c-1.41-.48-2-1.25-1.95-2.06,0-1.27,1.1-2.24,2.79-2.24a4.63,4.63,0,0,1,1.94.39l-.38,1.47a3.36,3.36,0,0,0-1.49-.39c-.52,0-.81.21-.81.56s.27.49,1.11.78c1.3.45,1.85,1.11,1.86,2.12,0,1.27-1,2.21-3,2.21a4.84,4.84,0,0,1-2.21-.47Z"/><path class="cls-8" d="M478.31,383.85c0,.9,0,1.63.06,2.2h-1.85l-.1-1h0a2.45,2.45,0,0,1-2.14,1.12c-1.39,0-2.41-.87-2.41-3v-4H474v3.69c0,1,.32,1.59,1.07,1.59a1.14,1.14,0,0,0,1.06-.74,1.09,1.09,0,0,0,.07-.46V379.2h2.14Z"/><path class="cls-8" d="M480,381.39c0-.86,0-1.58-.06-2.19h1.79l.1.93h0a2.38,2.38,0,0,1,2.08-1.08,1.93,1.93,0,0,1,1.87,1.16h0a3,3,0,0,1,.88-.82,2.44,2.44,0,0,1,1.31-.34c1.32,0,2.31.92,2.31,3v4H488.3v-3.72c0-1-.33-1.57-1-1.57a1,1,0,0,0-1,.74,1.67,1.67,0,0,0-.09.55v4h-2.07v-3.84c0-.86-.31-1.45-1-1.45a1.09,1.09,0,0,0-1,.77,1.4,1.4,0,0,0-.08.53v4H480Z"/><path class="cls-8" d="M501.53,376.11V384c0,.77,0,1.58.05,2h-1.89l-.1-1h0a2.39,2.39,0,0,1-2.14,1.17c-1.62,0-2.93-1.39-2.93-3.52,0-2.31,1.43-3.64,3.07-3.64a2.09,2.09,0,0,1,1.81.77h0v-3.71Zm-2.13,6c0-.11,0-.26,0-.38a1.29,1.29,0,0,0-1.25-1.05c-1,0-1.47.87-1.47,1.95s.57,1.89,1.46,1.89a1.25,1.25,0,0,0,1.23-1,1.88,1.88,0,0,0,.06-.49Z"/><path class="cls-8" d="M510,382.55a3.44,3.44,0,0,1-3.62,3.66,3.36,3.36,0,0,1-3.54-3.53,3.41,3.41,0,0,1,3.65-3.63A3.34,3.34,0,0,1,510,382.55Zm-5,.07c0,1.18.49,2.06,1.4,2.06s1.36-.83,1.36-2.06c0-1-.4-2.06-1.36-2.06S505,381.61,505,382.62Z"/><path class="cls-8" d="M511.31,376.11h2.13v9.94h-2.13Z"/><path class="cls-8" d="M521.92,382.55a3.44,3.44,0,0,1-3.61,3.66,3.36,3.36,0,0,1-3.55-3.53,3.42,3.42,0,0,1,3.66-3.63A3.33,3.33,0,0,1,521.92,382.55Zm-5,.07c0,1.18.49,2.06,1.41,2.06s1.35-.83,1.35-2.06c0-1-.39-2.06-1.35-2.06S517,381.61,517,382.62Z"/><path class="cls-8" d="M523.24,381.46c0-1,0-1.67-.06-2.26H525l.07,1.26h.06a2,2,0,0,1,1.85-1.41,2.08,2.08,0,0,1,.45,0v2a3,3,0,0,0-.58-.06,1.36,1.36,0,0,0-1.45,1.08,2.36,2.36,0,0,0,0,.48v3.47h-2.12Z"/><path class="cls-8" d="M531.37,384.19a4.11,4.11,0,0,0,1.84.52c.64,0,.91-.23.91-.58s-.21-.51-1-.78c-1.42-.48-2-1.25-2-2.06,0-1.27,1.09-2.24,2.79-2.24a4.58,4.58,0,0,1,1.93.39l-.38,1.47a3.32,3.32,0,0,0-1.48-.39c-.52,0-.81.21-.81.56s.26.49,1.1.78c1.3.45,1.85,1.11,1.86,2.12,0,1.27-1,2.21-3,2.21a4.88,4.88,0,0,1-2.22-.47Z"/><path class="cls-8" d="M539.66,377.3a1.07,1.07,0,0,1-1.15,1.06,1.07,1.07,0,1,1,0-2.14A1.07,1.07,0,0,1,539.66,377.3Zm-2.2,8.75V379.2h2.13v6.85Z"/><path class="cls-8" d="M543.68,377.24v2h1.52v1.57h-1.52v2.48c0,.83.19,1.21.84,1.21a3.36,3.36,0,0,0,.63-.06V386a4.21,4.21,0,0,1-1.38.18,2.17,2.17,0,0,1-1.6-.59,2.83,2.83,0,0,1-.59-2v-2.8h-.91V379.2h.91v-1.48Z"/><path class="cls-8" d="M414.89,402.85l-.13-.68h0a2.49,2.49,0,0,1-2,.84,2.1,2.1,0,0,1-2.21-2.1c0-1.78,1.59-2.64,4-2.62v-.1c0-.37-.2-.88-1.25-.88a3.86,3.86,0,0,0-1.89.51l-.39-1.37a5.7,5.7,0,0,1,2.66-.6c2.28,0,3,1.34,3,2.95v2.39a10.57,10.57,0,0,0,.1,1.66Zm-.25-3.23c-1.12,0-2,.25-2,1.08a.76.76,0,0,0,.84.81,1.17,1.17,0,0,0,1.11-.79,2,2,0,0,0,0-.36Z"/><path class="cls-8" d="M418.39,398.19c0-.86,0-1.58-.06-2.19h1.79l.1.93h0a2.38,2.38,0,0,1,2.08-1.08,1.93,1.93,0,0,1,1.87,1.16h0a3.08,3.08,0,0,1,.88-.82,2.44,2.44,0,0,1,1.31-.34c1.32,0,2.31.92,2.31,3v4h-2.07v-3.72c0-1-.33-1.57-1-1.57a1,1,0,0,0-1,.74,1.67,1.67,0,0,0-.09.55v4h-2.07V399c0-.86-.31-1.45-1-1.45a1.09,1.09,0,0,0-1,.77,1.4,1.4,0,0,0-.08.53v4h-2.07Z"/><path class="cls-8" d="M432.07,400.11c.07.88.93,1.3,1.93,1.3a6.06,6.06,0,0,0,1.89-.28l.28,1.44a6.75,6.75,0,0,1-2.48.42c-2.32,0-3.65-1.34-3.65-3.49a3.42,3.42,0,0,1,3.46-3.65c2.21,0,3.05,1.72,3.05,3.42a5,5,0,0,1-.07.84Zm2.5-1.46a1.23,1.23,0,0,0-1.2-1.39,1.41,1.41,0,0,0-1.32,1.39Z"/><path class="cls-8" d="M440.2,394v2h1.53v1.57H440.2v2.48c0,.83.2,1.21.84,1.21a3.18,3.18,0,0,0,.63-.06l0,1.61a4.28,4.28,0,0,1-1.39.18,2.22,2.22,0,0,1-1.6-.59,2.83,2.83,0,0,1-.59-2v-2.8h-.91V396h.91v-1.48Z"/><path class="cls-8" d="M442,404.52a24.44,24.44,0,0,0,1-4l2.17-.14a18.77,18.77,0,0,1-1.77,4Z"/><path class="cls-8" d="M454.45,402.68a5.09,5.09,0,0,1-1.9.31,3.32,3.32,0,0,1-3.63-3.5,3.57,3.57,0,0,1,3.92-3.64,4.93,4.93,0,0,1,1.63.27l-.34,1.58a2.94,2.94,0,0,0-1.19-.21,1.92,1.92,0,0,0,0,3.84,3.39,3.39,0,0,0,1.22-.21Z"/><path class="cls-8" d="M462.24,399.35a3.44,3.44,0,0,1-3.62,3.66,3.36,3.36,0,0,1-3.54-3.53,3.42,3.42,0,0,1,3.66-3.63A3.33,3.33,0,0,1,462.24,399.35Zm-5,.07c0,1.18.49,2.06,1.4,2.06s1.36-.83,1.36-2.06c0-1-.39-2.06-1.36-2.06S457.28,398.41,457.28,399.42Z"/><path class="cls-8" d="M463.55,398.19c0-.86,0-1.58-.05-2.19h1.84l.1.94h0a2.52,2.52,0,0,1,2.12-1.09c1.4,0,2.45.92,2.45,2.94v4.06h-2.13v-3.79c0-.89-.31-1.49-1.08-1.49a1.14,1.14,0,0,0-1.08.8,1.64,1.64,0,0,0-.08.53v4h-2.13Z"/><path class="cls-8" d="M471.74,401a4.15,4.15,0,0,0,1.84.52c.64,0,.91-.23.91-.58s-.21-.51-1-.78c-1.42-.48-2-1.25-2-2.06,0-1.27,1.09-2.24,2.79-2.24a4.58,4.58,0,0,1,1.93.39l-.38,1.47a3.32,3.32,0,0,0-1.48-.39c-.52,0-.81.21-.81.56s.26.49,1.1.78c1.31.45,1.85,1.11,1.87,2.12,0,1.27-1,2.21-3,2.21a4.88,4.88,0,0,1-2.22-.47Z"/><path class="cls-8" d="M479.47,400.11c.07.88.94,1.3,1.93,1.3a6.06,6.06,0,0,0,1.89-.28l.28,1.44a6.75,6.75,0,0,1-2.48.42c-2.32,0-3.65-1.34-3.65-3.49a3.43,3.43,0,0,1,3.46-3.65c2.21,0,3.05,1.72,3.05,3.42a5,5,0,0,1-.07.84Zm2.51-1.46a1.24,1.24,0,0,0-1.21-1.39,1.4,1.4,0,0,0-1.31,1.39Z"/><path class="cls-8" d="M490.36,402.68a5.09,5.09,0,0,1-1.9.31,3.32,3.32,0,0,1-3.63-3.5,3.57,3.57,0,0,1,3.92-3.64,4.93,4.93,0,0,1,1.63.27L490,397.7a2.94,2.94,0,0,0-1.19-.21,1.92,1.92,0,0,0,0,3.84,3.39,3.39,0,0,0,1.22-.21Z"/><path class="cls-8" d="M494.14,394v2h1.53v1.57h-1.53v2.48c0,.83.2,1.21.84,1.21a3.18,3.18,0,0,0,.63-.06l0,1.61a4.28,4.28,0,0,1-1.39.18,2.22,2.22,0,0,1-1.6-.59,2.83,2.83,0,0,1-.59-2v-2.8h-.91V396h.91v-1.48Z"/><path class="cls-8" d="M498.47,400.11c.07.88.94,1.3,1.93,1.3a6.06,6.06,0,0,0,1.89-.28l.28,1.44a6.75,6.75,0,0,1-2.48.42c-2.32,0-3.65-1.34-3.65-3.49a3.42,3.42,0,0,1,3.46-3.65c2.21,0,3.05,1.72,3.05,3.42a5,5,0,0,1-.07.84Zm2.5-1.46a1.23,1.23,0,0,0-1.2-1.39,1.41,1.41,0,0,0-1.32,1.39Z"/><path class="cls-8" d="M506.6,394v2h1.53v1.57H506.6v2.48c0,.83.2,1.21.84,1.21a3.18,3.18,0,0,0,.63-.06l0,1.61a4.28,4.28,0,0,1-1.39.18,2.22,2.22,0,0,1-1.6-.59,2.83,2.83,0,0,1-.59-2v-2.8h-.91V396h.91v-1.48Z"/><path class="cls-8" d="M515.81,400.65c0,.9,0,1.63.06,2.2H514l-.1-1h0a2.43,2.43,0,0,1-2.14,1.12c-1.39,0-2.41-.87-2.41-3v-4h2.14v3.69c0,1,.32,1.59,1.07,1.59a1.14,1.14,0,0,0,1.06-.74,1.09,1.09,0,0,0,.07-.46V396h2.14Z"/><path class="cls-8" d="M519.16,400.11c.07.88.94,1.3,1.93,1.3a6.06,6.06,0,0,0,1.89-.28l.28,1.44a6.75,6.75,0,0,1-2.48.42c-2.32,0-3.65-1.34-3.65-3.49a3.43,3.43,0,0,1,3.46-3.65c2.21,0,3,1.72,3,3.42a5,5,0,0,1-.07.84Zm2.51-1.46a1.24,1.24,0,0,0-1.21-1.39,1.41,1.41,0,0,0-1.32,1.39Z"/><path class="cls-8" d="M524.91,398.26c0-1,0-1.67,0-2.26h1.83l.07,1.26h.06a2,2,0,0,1,1.85-1.41,2,2,0,0,1,.44,0v2a2.76,2.76,0,0,0-.57-.06,1.37,1.37,0,0,0-1.46,1.08,2.39,2.39,0,0,0,0,.48v3.47h-2.13Z"/><path class="cls-8" d="M537,402.85l-.12-.68h0a2.5,2.5,0,0,1-2,.84,2.1,2.1,0,0,1-2.21-2.1c0-1.78,1.6-2.64,4-2.62v-.1c0-.37-.19-.88-1.25-.88a3.86,3.86,0,0,0-1.89.51l-.39-1.37a5.77,5.77,0,0,1,2.66-.6c2.29,0,3,1.34,3,2.95v2.39a10.57,10.57,0,0,0,.1,1.66Zm-.25-3.23c-1.12,0-2,.25-2,1.08a.77.77,0,0,0,.84.81,1.17,1.17,0,0,0,1.11-.79,1.37,1.37,0,0,0,0-.36Z"/><path class="cls-8" d="M547.09,392.91v7.9c0,.77,0,1.58.06,2h-1.89l-.1-1h0A2.39,2.39,0,0,1,543,403c-1.63,0-2.93-1.39-2.93-3.52,0-2.31,1.43-3.64,3.07-3.64a2.07,2.07,0,0,1,1.8.77h0v-3.71Zm-2.13,6a2.53,2.53,0,0,0,0-.38,1.27,1.27,0,0,0-1.24-1c-1,0-1.47.87-1.47,1.95s.57,1.89,1.45,1.89a1.25,1.25,0,0,0,1.24-1,1.89,1.89,0,0,0,.05-.49Z"/><path class="cls-8" d="M551,394.1a1.06,1.06,0,0,1-1.14,1.06,1.07,1.07,0,1,1,0-2.14A1.06,1.06,0,0,1,551,394.1Zm-2.2,8.75V396h2.13v6.85Z"/><path class="cls-8" d="M552.63,398.3c0-.9,0-1.67,0-2.3h1.84l.1,1h0a2.62,2.62,0,0,1,2.28-1.11c1.5,0,2.85,1.3,2.85,3.49,0,2.49-1.59,3.67-3.11,3.67a2.13,2.13,0,0,1-1.78-.79h0v3.41h-2.13Zm2.13,1.61a2,2,0,0,0,0,.45,1.3,1.3,0,0,0,1.25,1c.92,0,1.47-.77,1.47-1.94s-.49-1.91-1.44-1.91a1.33,1.33,0,0,0-1.28,1.07,1.64,1.64,0,0,0,0,.38Z"/><path class="cls-8" d="M564.24,398.47v1.41h-3.67v-1.41Z"/><path class="cls-8" d="M413.2,410.9a1.07,1.07,0,0,1-1.15,1.06,1.07,1.07,0,1,1,0-2.14A1.07,1.07,0,0,1,413.2,410.9Zm-2.2,8.75V412.8h2.12v6.85Z"/><path class="cls-8" d="M414.82,417.79a4.11,4.11,0,0,0,1.83.52c.65,0,.91-.23.91-.58s-.21-.51-1-.78c-1.41-.48-2-1.25-1.94-2.06,0-1.27,1.09-2.24,2.79-2.24a4.61,4.61,0,0,1,1.93.39l-.38,1.47a3.36,3.36,0,0,0-1.48-.39c-.52,0-.82.21-.82.56s.27.49,1.11.78c1.3.45,1.85,1.11,1.86,2.12,0,1.27-1,2.21-3,2.21a4.87,4.87,0,0,1-2.21-.47Z"/><path class="cls-8" d="M426.05,419.49a5.41,5.41,0,0,1-1.91.3,3.31,3.31,0,0,1-3.62-3.5,3.57,3.57,0,0,1,3.92-3.64,4.87,4.87,0,0,1,1.62.27l-.33,1.58a3,3,0,0,0-1.19-.21,1.92,1.92,0,0,0,0,3.84,3.47,3.47,0,0,0,1.22-.21Z"/><path class="cls-8" d="M429.42,410.9a1.07,1.07,0,0,1-1.15,1.06,1.07,1.07,0,1,1,0-2.14A1.06,1.06,0,0,1,429.42,410.9Zm-2.2,8.75V412.8h2.13v6.85Z"/><path class="cls-8" d="M431.06,415c0-.86,0-1.58-.06-2.19h1.85l.1.94h0a2.52,2.52,0,0,1,2.12-1.09c1.4,0,2.45.92,2.45,2.94v4.06h-2.13v-3.79c0-.89-.31-1.49-1.08-1.49a1.14,1.14,0,0,0-1.08.8,1.41,1.41,0,0,0-.08.53v3.95h-2.13Z"/><path class="cls-8" d="M445.8,412.8c0,.44-.05,1-.05,2v3.83a3.94,3.94,0,0,1-1,3.08,4.26,4.26,0,0,1-2.79.84,5.32,5.32,0,0,1-2.46-.53l.42-1.61a4.22,4.22,0,0,0,2,.52,1.64,1.64,0,0,0,1.78-1.81v-.45h0a2.22,2.22,0,0,1-1.85.9c-1.7,0-2.9-1.38-2.9-3.35,0-2.2,1.43-3.6,3.11-3.6a2.07,2.07,0,0,1,1.88,1h0l.07-.82Zm-2.18,2.79a2.23,2.23,0,0,0,0-.39,1.17,1.17,0,0,0-1.15-.94c-.77,0-1.4.7-1.4,1.95,0,1,.5,1.82,1.4,1.82a1.17,1.17,0,0,0,1.12-.87,2,2,0,0,0,.07-.56Z"/><path class="cls-8" d="M451.92,416.91c.07.88.94,1.3,1.93,1.3a6.06,6.06,0,0,0,1.89-.28l.28,1.44a6.75,6.75,0,0,1-2.48.42c-2.32,0-3.65-1.34-3.65-3.48a3.43,3.43,0,0,1,3.46-3.66c2.21,0,3,1.72,3,3.42a5,5,0,0,1-.07.84Zm2.51-1.46a1.24,1.24,0,0,0-1.21-1.39,1.41,1.41,0,0,0-1.32,1.39Z"/><path class="cls-8" d="M457.67,409.71h2.13v9.94h-2.13Z"/><path class="cls-8" d="M463.72,410.9a1.07,1.07,0,0,1-1.15,1.06,1.07,1.07,0,1,1,0-2.14A1.07,1.07,0,0,1,463.72,410.9Zm-2.2,8.75V412.8h2.13v6.85Z"/><path class="cls-8" d="M467.74,410.84v2h1.52v1.57h-1.52v2.48c0,.83.19,1.21.84,1.21a3.36,3.36,0,0,0,.63-.06v1.61a4.21,4.21,0,0,1-1.38.18,2.26,2.26,0,0,1-1.6-.58,2.87,2.87,0,0,1-.59-2v-2.8h-.91V412.8h.91v-1.48Z"/><path class="cls-8" d="M469.56,421.32a23.43,23.43,0,0,0,1-4l2.18-.14a19.83,19.83,0,0,1-1.77,4Z"/><path class="cls-8" d="M476.84,417.79a4.11,4.11,0,0,0,1.83.52c.64,0,.91-.23.91-.58s-.21-.51-1-.78c-1.41-.48-2-1.25-1.95-2.06,0-1.27,1.1-2.24,2.79-2.24a4.63,4.63,0,0,1,1.94.39l-.38,1.47a3.36,3.36,0,0,0-1.49-.39c-.52,0-.81.21-.81.56s.27.49,1.11.78c1.3.45,1.85,1.11,1.86,2.12,0,1.27-1,2.21-3,2.21a4.84,4.84,0,0,1-2.21-.47Z"/><path class="cls-8" d="M484.56,416.91c.07.88.94,1.3,1.94,1.3a6.11,6.11,0,0,0,1.89-.28l.28,1.44a6.78,6.78,0,0,1-2.48.42c-2.33,0-3.66-1.34-3.66-3.48a3.43,3.43,0,0,1,3.46-3.66c2.22,0,3.06,1.72,3.06,3.42a6.29,6.29,0,0,1-.07.84Zm2.51-1.46a1.23,1.23,0,0,0-1.2-1.39,1.41,1.41,0,0,0-1.32,1.39Z"/><path class="cls-8" d="M497,409.71v7.9c0,.77,0,1.58.05,2h-1.89l-.1-1h0a2.39,2.39,0,0,1-2.15,1.17c-1.62,0-2.93-1.39-2.93-3.52,0-2.31,1.43-3.64,3.07-3.64a2.09,2.09,0,0,1,1.81.77h0v-3.71Zm-2.13,6c0-.11,0-.26,0-.37a1.29,1.29,0,0,0-1.25-1.06c-1,0-1.47.87-1.47,2s.58,1.89,1.46,1.89a1.24,1.24,0,0,0,1.23-1,1.88,1.88,0,0,0,.06-.49Z"/><path class="cls-8" d="M508.13,409.71v7.9c0,.77,0,1.58.05,2h-1.89l-.09-1h0a2.39,2.39,0,0,1-2.15,1.17c-1.62,0-2.92-1.39-2.92-3.52,0-2.31,1.43-3.64,3.07-3.64a2.08,2.08,0,0,1,1.8.77h0v-3.71Zm-2.13,6a2.31,2.31,0,0,0,0-.37,1.28,1.28,0,0,0-1.25-1.06c-1,0-1.47.87-1.47,2s.58,1.89,1.46,1.89a1.24,1.24,0,0,0,1.23-1,1.53,1.53,0,0,0,.06-.49Z"/><path class="cls-8" d="M512,410.9a1.07,1.07,0,0,1-1.15,1.06,1.07,1.07,0,1,1,0-2.14A1.06,1.06,0,0,1,512,410.9Zm-2.2,8.75V412.8H512v6.85Z"/><path class="cls-8" d="M517.56,419.65l-.12-.68h-.05a2.46,2.46,0,0,1-2,.84,2.1,2.1,0,0,1-2.21-2.1c0-1.78,1.6-2.64,4-2.62V415c0-.37-.2-.88-1.25-.88a3.86,3.86,0,0,0-1.89.51l-.39-1.37a5.77,5.77,0,0,1,2.66-.6c2.29,0,3,1.34,3,3V418a10.57,10.57,0,0,0,.1,1.66Zm-.25-3.23c-1.12,0-2,.25-2,1.08a.77.77,0,0,0,.84.81,1.17,1.17,0,0,0,1.11-.79,1.37,1.37,0,0,0,0-.36Z"/><path class="cls-8" d="M521.06,415c0-.86,0-1.58-.06-2.19h1.8l.1.93h0a2.35,2.35,0,0,1,2.07-1.08,2,2,0,0,1,1.88,1.16h0a3,3,0,0,1,.88-.82,2.43,2.43,0,0,1,1.3-.34c1.32,0,2.31.92,2.31,3v4h-2.07v-3.72c0-1-.32-1.57-1-1.57a1,1,0,0,0-1,.74,1.67,1.67,0,0,0-.08.55v4h-2.08v-3.83c0-.87-.31-1.46-1-1.46a1.08,1.08,0,0,0-1,.77,1.41,1.41,0,0,0-.09.53v4h-2.07Z"/><path class="cls-8" d="M411,431.79c0-.86,0-1.58-.06-2.19h1.85l.1.94h0a2.51,2.51,0,0,1,2.11-1.09c1.41,0,2.46.92,2.46,2.94v4.06h-2.13v-3.79c0-.89-.31-1.49-1.08-1.49a1.14,1.14,0,0,0-1.08.8,1.4,1.4,0,0,0-.09.53v3.95H411Z"/><path class="cls-8" d="M426,433a3.44,3.44,0,0,1-3.62,3.66,3.36,3.36,0,0,1-3.54-3.53,3.41,3.41,0,0,1,3.65-3.63A3.33,3.33,0,0,1,426,433Zm-5,.07c0,1.18.49,2.06,1.4,2.06s1.36-.83,1.36-2.06c0-1-.4-2.06-1.36-2.06S421,432,421,433Z"/><path class="cls-8" d="M427.28,431.79c0-.86,0-1.58-.06-2.19h1.85l.1.94h0a2.52,2.52,0,0,1,2.12-1.09c1.4,0,2.45.92,2.45,2.94v4.06h-2.13v-3.79c0-.89-.31-1.49-1.08-1.49a1.14,1.14,0,0,0-1.08.8,1.64,1.64,0,0,0-.08.53v3.95h-2.13Z"/><path class="cls-8" d="M441.94,434.25c0,.9,0,1.63.06,2.2h-1.85l-.1-1h0a2.45,2.45,0,0,1-2.15,1.12c-1.38,0-2.41-.87-2.41-3v-4h2.15v3.69c0,1,.32,1.59,1.06,1.59a1.14,1.14,0,0,0,1.07-.74,1.27,1.27,0,0,0,.07-.46V429.6h2.14Z"/><path class="cls-8" d="M443.64,431.79c0-.86,0-1.58-.05-2.19h1.79l.1.93h0a2.37,2.37,0,0,1,2.07-1.08,1.94,1.94,0,0,1,1.88,1.16h0a3,3,0,0,1,.88-.82,2.43,2.43,0,0,1,1.3-.34c1.32,0,2.32.92,2.32,3v4h-2.08v-3.72c0-1-.32-1.57-1-1.57a1,1,0,0,0-1,.74,2,2,0,0,0-.08.55v4h-2.07v-3.83c0-.87-.31-1.46-1-1.46a1.09,1.09,0,0,0-1,.77,1.4,1.4,0,0,0-.08.53v4h-2.08Z"/><path class="cls-8" d="M455.68,431.79c0-.86,0-1.58-.05-2.19h1.79l.1.93h0a2.37,2.37,0,0,1,2.07-1.08,1.94,1.94,0,0,1,1.88,1.16h0a3,3,0,0,1,.88-.82,2.43,2.43,0,0,1,1.3-.34c1.32,0,2.32.92,2.32,3v4H464v-3.72c0-1-.32-1.57-1-1.57a1,1,0,0,0-1,.74,2,2,0,0,0-.08.55v4h-2.07v-3.83c0-.87-.31-1.46-1-1.46a1.09,1.09,0,0,0-1,.77,1.4,1.4,0,0,0-.08.53v4h-2.08Z"/><path class="cls-8" d="M469.06,429.6l1,3.36c.11.41.25.92.34,1.28h0c.09-.36.21-.88.3-1.28l.85-3.36h2.28l-1.6,4.51c-1,2.72-1.64,3.81-2.41,4.5a3.93,3.93,0,0,1-2.06.94l-.44-1.81a2.76,2.76,0,0,0,.92-.36,2.49,2.49,0,0,0,.88-.86.56.56,0,0,0,.11-.31.79.79,0,0,0-.09-.35l-2.51-6.26Z"/><path class="cls-8" d="M477.61,431.79c0-.86,0-1.58-.06-2.19h1.85l.1.94h0a2.52,2.52,0,0,1,2.12-1.09c1.4,0,2.45.92,2.45,2.94v4.06H482v-3.79c0-.89-.31-1.49-1.08-1.49a1.14,1.14,0,0,0-1.08.8,1.64,1.64,0,0,0-.08.53v3.95h-2.13Z"/><path class="cls-8" d="M488,427.7a1.07,1.07,0,0,1-1.15,1.06,1.07,1.07,0,1,1,0-2.14A1.06,1.06,0,0,1,488,427.7Zm-2.2,8.75V429.6h2.13v6.85Z"/><path class="cls-8" d="M489.59,436.45c0-.45.06-1.27.06-2v-7.9h2.13v3.91h0a2.4,2.4,0,0,1,2.07-1c1.64,0,2.84,1.36,2.83,3.46,0,2.46-1.57,3.7-3.14,3.7a2.28,2.28,0,0,1-2.06-1.11h0l-.08.95Zm2.19-2.91a1.48,1.48,0,0,0,0,.38,1.3,1.3,0,0,0,1.25,1c.91,0,1.47-.7,1.47-1.94,0-1.06-.48-1.9-1.47-1.9a1.31,1.31,0,0,0-1.25,1.05,1.61,1.61,0,0,0,0,.39Z"/><path class="cls-8" d="M498,426.51h2.13v3.91h0a2.53,2.53,0,0,1,.84-.71,2.49,2.49,0,0,1,1.11-.26c1.35,0,2.39.94,2.39,3v4h-2.13v-3.77c0-.89-.31-1.51-1.1-1.51a1.15,1.15,0,0,0-1.07.74,1.55,1.55,0,0,0-.07.48v4.06H498Z"/><path class="cls-8" d="M510.69,433.71c.07.88.94,1.3,1.94,1.3a6.15,6.15,0,0,0,1.89-.28l.28,1.44a6.78,6.78,0,0,1-2.48.42c-2.33,0-3.66-1.34-3.66-3.48a3.43,3.43,0,0,1,3.46-3.66c2.21,0,3,1.72,3,3.42a5,5,0,0,1-.07.84Zm2.51-1.46a1.23,1.23,0,0,0-1.2-1.39,1.4,1.4,0,0,0-1.32,1.39Z"/><path class="cls-8" d="M522.9,434.25c0,.9,0,1.63.06,2.2h-1.85l-.1-1h0a2.45,2.45,0,0,1-2.14,1.12c-1.39,0-2.41-.87-2.41-3v-4h2.14v3.69c0,1,.32,1.59,1.06,1.59a1.14,1.14,0,0,0,1.07-.74,1.09,1.09,0,0,0,.07-.46V429.6h2.14Z"/><path class="cls-8" d="M526.81,427.7a1.07,1.07,0,0,1-1.15,1.06,1.07,1.07,0,1,1,0-2.14A1.07,1.07,0,0,1,526.81,427.7Zm-2.2,8.75V429.6h2.13v6.85Z"/><path class="cls-8" d="M528.43,434.59a4.11,4.11,0,0,0,1.83.52c.65,0,.91-.23.91-.58s-.21-.51-1-.78c-1.42-.48-2-1.25-1.95-2.06,0-1.27,1.09-2.24,2.79-2.24a4.61,4.61,0,0,1,1.93.39l-.38,1.47a3.32,3.32,0,0,0-1.48-.39c-.52,0-.82.21-.82.56s.27.49,1.11.78c1.3.45,1.85,1.11,1.86,2.12,0,1.27-1,2.21-3,2.21a4.87,4.87,0,0,1-2.21-.47Z"/><path class="cls-8" d="M534.52,431.79c0-.86,0-1.58-.06-2.19h1.8l.09.93h0a2.35,2.35,0,0,1,2.07-1.08,2,2,0,0,1,1.88,1.16h0a2.84,2.84,0,0,1,.88-.82,2.43,2.43,0,0,1,1.3-.34c1.32,0,2.31.92,2.31,3v4H542.8v-3.72c0-1-.32-1.57-1-1.57a1,1,0,0,0-1,.74,1.67,1.67,0,0,0-.09.55v4h-2.07v-3.83c0-.87-.31-1.46-1-1.46a1.07,1.07,0,0,0-1,.77,1.41,1.41,0,0,0-.09.53v4h-2.07Z"/><path class="cls-8" d="M553.33,433a3.44,3.44,0,0,1-3.62,3.66,3.36,3.36,0,0,1-3.54-3.53,3.41,3.41,0,0,1,3.65-3.63A3.34,3.34,0,0,1,553.33,433Zm-5,.07c0,1.18.49,2.06,1.4,2.06s1.36-.83,1.36-2.06c0-1-.4-2.06-1.36-2.06S548.37,432,548.37,433Z"/><path class="cls-8" d="M561.32,426.51v7.9c0,.77,0,1.58.06,2h-1.9l-.09-1h0a2.41,2.41,0,0,1-2.15,1.17c-1.62,0-2.92-1.39-2.92-3.52,0-2.31,1.43-3.64,3.07-3.64a2.07,2.07,0,0,1,1.8.77h0v-3.71Zm-2.13,6a2.53,2.53,0,0,0,0-.38,1.28,1.28,0,0,0-1.24-1.05c-1,0-1.48.87-1.48,1.95s.58,1.89,1.46,1.89a1.24,1.24,0,0,0,1.23-1,1.53,1.53,0,0,0,.06-.49Z"/><path class="cls-8" d="M413.38,444.44v2h1.52V448h-1.52v2.48c0,.83.19,1.21.84,1.21a3.36,3.36,0,0,0,.63-.06v1.61a4.21,4.21,0,0,1-1.38.18,2.21,2.21,0,0,1-1.6-.59,2.83,2.83,0,0,1-.59-2V448h-.91V446.4h.91v-1.48Z"/><path class="cls-8" d="M418.33,444.5a1.07,1.07,0,0,1-1.15,1.06,1.07,1.07,0,1,1,0-2.14A1.06,1.06,0,0,1,418.33,444.5Zm-2.2,8.75V446.4h2.13v6.85Z"/><path class="cls-8" d="M420,448.59c0-.86,0-1.59-.06-2.19h1.85l.1.94h0a2.52,2.52,0,0,1,2.12-1.09c1.4,0,2.45.92,2.45,2.94v4.06h-2.13v-3.79c0-.89-.31-1.49-1.08-1.49a1.14,1.14,0,0,0-1.08.8,1.64,1.64,0,0,0-.08.53v3.95H420Z"/><path class="cls-8" d="M433.31,453.08a5.09,5.09,0,0,1-1.9.31,3.32,3.32,0,0,1-3.63-3.5,3.57,3.57,0,0,1,3.92-3.64,5.21,5.21,0,0,1,1.63.26L433,448.1a2.94,2.94,0,0,0-1.19-.21,1.92,1.92,0,0,0,0,3.84,3.39,3.39,0,0,0,1.22-.21Z"/><path class="cls-8" d="M436.69,444.5a1.07,1.07,0,0,1-1.15,1.06,1.07,1.07,0,1,1,0-2.14A1.07,1.07,0,0,1,436.69,444.5Zm-2.2,8.75V446.4h2.13v6.85Z"/><path class="cls-8" d="M445,443.31v7.9c0,.77,0,1.58.06,2h-1.89l-.1-1h0a2.39,2.39,0,0,1-2.14,1.17c-1.63,0-2.93-1.39-2.93-3.52,0-2.31,1.43-3.64,3.07-3.64a2.09,2.09,0,0,1,1.81.77h0v-3.71Zm-2.13,6c0-.11,0-.26,0-.38a1.29,1.29,0,0,0-1.25-1.05c-1,0-1.47.87-1.47,1.95s.57,1.89,1.45,1.89a1.25,1.25,0,0,0,1.24-1,1.89,1.89,0,0,0,.05-.49Z"/><path class="cls-8" d="M453.12,451.05c0,.9,0,1.63.06,2.2h-1.85l-.1-1h0a2.45,2.45,0,0,1-2.14,1.12c-1.39,0-2.41-.87-2.41-3v-4h2.14v3.69c0,1,.32,1.59,1.07,1.59a1.14,1.14,0,0,0,1.06-.74,1.09,1.09,0,0,0,.07-.46V446.4h2.14Z"/><path class="cls-8" d="M454.83,448.59c0-.86,0-1.59-.06-2.19h1.85l.1.94h0a2.52,2.52,0,0,1,2.12-1.09c1.4,0,2.45.92,2.45,2.94v4.06H459.2v-3.79c0-.89-.31-1.49-1.08-1.49a1.14,1.14,0,0,0-1.08.8,1.64,1.64,0,0,0-.08.53v3.95h-2.13Z"/><path class="cls-8" d="M465.33,444.44v2h1.53V448h-1.53v2.48c0,.83.2,1.21.84,1.21a3.18,3.18,0,0,0,.63-.06l0,1.61a4.28,4.28,0,0,1-1.39.18,2.22,2.22,0,0,1-1.6-.59,2.83,2.83,0,0,1-.59-2V448h-.91V446.4h.91v-1.48Z"/><path class="cls-8" d="M477.37,451.05c0,.9,0,1.63.06,2.2h-1.85l-.1-1h0a2.45,2.45,0,0,1-2.14,1.12c-1.39,0-2.41-.87-2.41-3v-4H473v3.69c0,1,.32,1.59,1.06,1.59a1.14,1.14,0,0,0,1.07-.74,1.09,1.09,0,0,0,.07-.46V446.4h2.14Z"/><path class="cls-8" d="M481.46,444.44v2H483V448h-1.53v2.48c0,.83.19,1.21.84,1.21a3.18,3.18,0,0,0,.63-.06v1.61a4.21,4.21,0,0,1-1.38.18,2.22,2.22,0,0,1-1.6-.59,2.83,2.83,0,0,1-.59-2V448h-.91V446.4h.91v-1.48Z"/><path class="cls-8" d="M487,443.31h2.13v9.94H487Z"/><path class="cls-8" d="M494.79,453.25l-.13-.68h0a2.49,2.49,0,0,1-2,.84,2.1,2.1,0,0,1-2.22-2.1c0-1.78,1.6-2.64,4-2.62v-.1c0-.37-.19-.88-1.24-.88a3.86,3.86,0,0,0-1.89.51l-.4-1.37a5.65,5.65,0,0,1,2.67-.6c2.28,0,3,1.34,3,2.95v2.39a10.57,10.57,0,0,0,.1,1.66Zm-.26-3.23c-1.12,0-2,.25-2,1.08a.76.76,0,0,0,.84.81,1.15,1.15,0,0,0,1.1-.79,1.37,1.37,0,0,0,0-.36Z"/><path class="cls-8" d="M505.05,449.75a3.44,3.44,0,0,1-3.61,3.66,3.36,3.36,0,0,1-3.55-3.53,3.42,3.42,0,0,1,3.66-3.63A3.33,3.33,0,0,1,505.05,449.75Zm-5,.07c0,1.18.49,2.06,1.4,2.06s1.36-.83,1.36-2.06c0-1-.39-2.06-1.36-2.06S500.09,448.81,500.09,449.82Z"/><path class="cls-8" d="M506.36,448.66c0-1,0-1.67-.05-2.26h1.83l.07,1.26h.06a2,2,0,0,1,1.85-1.41,2,2,0,0,1,.44,0v2a2.76,2.76,0,0,0-.57-.06,1.37,1.37,0,0,0-1.46,1.08,3.45,3.45,0,0,0,0,.48v3.47h-2.13Z"/><path class="cls-8" d="M513.21,450.51c.07.88.94,1.3,1.93,1.3a6.06,6.06,0,0,0,1.89-.28l.28,1.44a6.75,6.75,0,0,1-2.48.42c-2.32,0-3.65-1.34-3.65-3.48a3.43,3.43,0,0,1,3.46-3.66c2.21,0,3.05,1.72,3.05,3.42a5,5,0,0,1-.07.84Zm2.51-1.46a1.24,1.24,0,0,0-1.21-1.39,1.4,1.4,0,0,0-1.31,1.39Z"/><path class="cls-8" d="M520.6,450.51c.07.88.94,1.3,1.93,1.3a6.06,6.06,0,0,0,1.89-.28l.29,1.44a6.82,6.82,0,0,1-2.48.42c-2.33,0-3.66-1.34-3.66-3.48a3.43,3.43,0,0,1,3.46-3.66c2.21,0,3.05,1.72,3.05,3.42a5,5,0,0,1-.07.84Zm2.51-1.46a1.24,1.24,0,0,0-1.21-1.39,1.4,1.4,0,0,0-1.31,1.39Z"/><path class="cls-8" d="M528.73,444.44v2h1.53V448h-1.53v2.48c0,.83.2,1.21.85,1.21a3.36,3.36,0,0,0,.63-.06v1.61a4.23,4.23,0,0,1-1.39.18,2.2,2.2,0,0,1-1.59-.59,2.78,2.78,0,0,1-.59-2V448h-.91V446.4h.91v-1.48Z"/><path class="cls-8" d="M417.64,460.11V468c0,.77,0,1.58.05,2H415.8l-.1-1h0a2.39,2.39,0,0,1-2.14,1.17c-1.62,0-2.93-1.39-2.93-3.52,0-2.31,1.43-3.64,3.07-3.64a2.09,2.09,0,0,1,1.81.77h0v-3.71Zm-2.13,6c0-.11,0-.26,0-.38a1.29,1.29,0,0,0-1.25-1.05c-1,0-1.47.87-1.47,1.95s.58,1.89,1.46,1.89a1.25,1.25,0,0,0,1.23-1,1.88,1.88,0,0,0,.06-.49Z"/><path class="cls-8" d="M426.11,466.55a3.44,3.44,0,0,1-3.62,3.66,3.36,3.36,0,0,1-3.54-3.53,3.41,3.41,0,0,1,3.65-3.63A3.33,3.33,0,0,1,426.11,466.55Zm-5,.07c0,1.18.49,2.06,1.4,2.06s1.36-.83,1.36-2.06c0-1-.4-2.06-1.36-2.06S421.15,465.61,421.15,466.62Z"/><path class="cls-8" d="M427.42,460.11h2.13v9.94h-2.13Z"/><path class="cls-8" d="M438,466.55a3.44,3.44,0,0,1-3.61,3.66,3.36,3.36,0,0,1-3.54-3.53,3.41,3.41,0,0,1,3.65-3.63A3.33,3.33,0,0,1,438,466.55Zm-5,.07c0,1.18.49,2.06,1.41,2.06s1.35-.83,1.35-2.06c0-1-.39-2.06-1.35-2.06S433.07,465.61,433.07,466.62Z"/><path class="cls-8" d="M439.35,465.46c0-1,0-1.67-.06-2.26h1.83l.07,1.26h.06a2,2,0,0,1,1.85-1.41,2.08,2.08,0,0,1,.45,0v2A3,3,0,0,0,443,465a1.36,1.36,0,0,0-1.45,1.08,2.36,2.36,0,0,0,0,.48v3.47h-2.12Z"/><path class="cls-8" d="M446.19,467.31c.07.88.94,1.3,1.94,1.3a6.15,6.15,0,0,0,1.89-.28l.28,1.44a6.78,6.78,0,0,1-2.48.42c-2.33,0-3.66-1.34-3.66-3.48a3.43,3.43,0,0,1,3.46-3.66c2.21,0,3.05,1.72,3.05,3.42a5,5,0,0,1-.07.84Zm2.51-1.46a1.23,1.23,0,0,0-1.2-1.39,1.4,1.4,0,0,0-1.32,1.39Z"/><path class="cls-8" d="M454.77,465.39c0-.86,0-1.58,0-2.19h1.79l.1.93h0a2.36,2.36,0,0,1,2.07-1.08,1.94,1.94,0,0,1,1.88,1.16h0a3,3,0,0,1,.88-.82,2.43,2.43,0,0,1,1.3-.34c1.32,0,2.31.92,2.31,3v4h-2.07v-3.72c0-1-.32-1.57-1-1.57a1,1,0,0,0-1,.74,2,2,0,0,0-.08.55v4h-2.07v-3.84c0-.86-.31-1.45-1-1.45a1.09,1.09,0,0,0-1,.77,1.4,1.4,0,0,0-.08.53v4h-2.08Z"/><path class="cls-8" d="M470.71,470.05l-.13-.68h0a2.49,2.49,0,0,1-2,.84,2.1,2.1,0,0,1-2.21-2.1c0-1.78,1.59-2.64,4-2.62v-.1c0-.37-.2-.88-1.25-.88a3.86,3.86,0,0,0-1.89.51l-.39-1.37a5.7,5.7,0,0,1,2.66-.6c2.28,0,3,1.34,3,2.95v2.39a10.57,10.57,0,0,0,.1,1.66Zm-.25-3.23c-1.13,0-2,.25-2,1.08a.76.76,0,0,0,.84.81,1.15,1.15,0,0,0,1.1-.79,1.36,1.36,0,0,0,0-.36Z"/><path class="cls-8" d="M480.75,463.2c0,.44-.06,1-.06,2v3.83a3.94,3.94,0,0,1-1,3.08,4.22,4.22,0,0,1-2.78.84,5.36,5.36,0,0,1-2.47-.53l.42-1.61a4.25,4.25,0,0,0,2,.52,1.64,1.64,0,0,0,1.78-1.81v-.45h0a2.19,2.19,0,0,1-1.85.9c-1.69,0-2.9-1.38-2.9-3.35,0-2.2,1.43-3.6,3.11-3.6a2.07,2.07,0,0,1,1.88,1h0l.07-.82ZM478.56,466a1.56,1.56,0,0,0,0-.39,1.17,1.17,0,0,0-1.15-.94c-.77,0-1.4.7-1.4,1.95,0,1,.5,1.82,1.4,1.82a1.16,1.16,0,0,0,1.12-.87,1.69,1.69,0,0,0,.07-.56Z"/><path class="cls-8" d="M482.39,465.39c0-.86,0-1.58-.05-2.19h1.85l.1.94h0a2.51,2.51,0,0,1,2.11-1.09c1.4,0,2.45.92,2.45,2.94v4.06h-2.13v-3.79c0-.89-.3-1.49-1.07-1.49a1.14,1.14,0,0,0-1.08.8,1.4,1.4,0,0,0-.09.53v3.95h-2.13Z"/><path class="cls-8" d="M494.49,470.05l-.12-.68h-.05a2.46,2.46,0,0,1-2,.84,2.1,2.1,0,0,1-2.21-2.1c0-1.78,1.6-2.64,4-2.62v-.1c0-.37-.2-.88-1.25-.88A3.86,3.86,0,0,0,491,465l-.39-1.37a5.77,5.77,0,0,1,2.66-.6c2.28,0,3,1.34,3,2.95v2.39a10.57,10.57,0,0,0,.1,1.66Zm-.25-3.23c-1.12,0-2,.25-2,1.08a.77.77,0,0,0,.84.81,1.17,1.17,0,0,0,1.11-.79,1.37,1.37,0,0,0,0-.36Z"/><path class="cls-8" d="M504.71,470.05l-.12-.68h0a2.46,2.46,0,0,1-2,.84,2.1,2.1,0,0,1-2.21-2.1c0-1.78,1.6-2.64,4-2.62v-.1c0-.37-.2-.88-1.25-.88a3.86,3.86,0,0,0-1.89.51l-.39-1.37a5.77,5.77,0,0,1,2.66-.6c2.28,0,3,1.34,3,2.95v2.39a10.57,10.57,0,0,0,.1,1.66Zm-.25-3.23c-1.12,0-2,.25-2,1.08a.76.76,0,0,0,.84.81,1.17,1.17,0,0,0,1.11-.79,1.37,1.37,0,0,0,0-.36Z"/><path class="cls-8" d="M508.21,460.11h2.13v9.94h-2.13Z"/><path class="cls-8" d="M514.26,461.3a1.07,1.07,0,0,1-1.15,1.06,1.07,1.07,0,1,1,0-2.14A1.07,1.07,0,0,1,514.26,461.3Zm-2.2,8.75V463.2h2.13v6.85Z"/><path class="cls-8" d="M520.41,469.2h0a2.33,2.33,0,0,1-2,1c-1.49,0-2.85-1.31-2.85-3.49,0-2.45,1.57-3.67,3-3.67a2,2,0,0,1,1.9.95h0l.06-.8h2.06c0,.66,0,1.35,0,2.06v7.57h-2.13Zm0-3.12a1.49,1.49,0,0,0,0-.36,1.25,1.25,0,0,0-1.21-1c-1,0-1.48.83-1.48,1.93s.55,1.9,1.45,1.9a1.26,1.26,0,0,0,1.23-1,1.82,1.82,0,0,0,.06-.46Z"/><path class="cls-8" d="M530.68,467.85c0,.9,0,1.63.06,2.2h-1.85l-.1-1h0a2.45,2.45,0,0,1-2.14,1.12c-1.39,0-2.41-.87-2.41-3v-4h2.14v3.69c0,1,.32,1.59,1.07,1.59a1.14,1.14,0,0,0,1.06-.74,1.09,1.09,0,0,0,.07-.46V463.2h2.14Z"/><path class="cls-8" d="M536.28,470.05l-.12-.68h0a2.48,2.48,0,0,1-2,.84,2.1,2.1,0,0,1-2.21-2.1c0-1.78,1.6-2.64,4-2.62v-.1c0-.37-.2-.88-1.25-.88a3.86,3.86,0,0,0-1.89.51l-.39-1.37a5.73,5.73,0,0,1,2.66-.6c2.28,0,3,1.34,3,2.95v2.39a10.57,10.57,0,0,0,.1,1.66Zm-.25-3.23c-1.12,0-2,.25-2,1.08a.76.76,0,0,0,.84.81,1.17,1.17,0,0,0,1.11-.79,1.37,1.37,0,0,0,0-.36Z"/><path class="cls-8" d="M539.78,465.39c0-.86,0-1.58-.06-2.19h1.8l.09.93h0a2.35,2.35,0,0,1,2.07-1.08,2,2,0,0,1,1.88,1.16h0a3,3,0,0,1,.89-.82,2.43,2.43,0,0,1,1.3-.34c1.32,0,2.31.92,2.31,3v4h-2.07v-3.72c0-1-.32-1.57-1-1.57a1,1,0,0,0-1,.74,1.67,1.67,0,0,0-.09.55v4h-2.07v-3.84c0-.86-.31-1.45-1-1.45a1.07,1.07,0,0,0-1,.77,1.41,1.41,0,0,0-.09.53v4h-2.07Z"/><path class="cls-8" d="M412.63,484.11c.08.88.94,1.3,1.94,1.3a6.11,6.11,0,0,0,1.89-.28l.28,1.44a6.78,6.78,0,0,1-2.48.42c-2.33,0-3.66-1.34-3.66-3.49a3.43,3.43,0,0,1,3.46-3.65c2.22,0,3.06,1.72,3.06,3.42a5,5,0,0,1-.07.84Zm2.51-1.46a1.23,1.23,0,0,0-1.2-1.39,1.41,1.41,0,0,0-1.32,1.39Z"/><path class="cls-8" d="M418.39,482.26c0-1,0-1.67-.06-2.26h1.84l.07,1.26h.05a2,2,0,0,1,2.3-1.38v2a2.84,2.84,0,0,0-.57-.06,1.37,1.37,0,0,0-1.46,1.08,2.39,2.39,0,0,0,0,.48v3.47h-2.13Z"/><path class="cls-8" d="M427.45,486.85l-.13-.68h0a2.49,2.49,0,0,1-2,.84,2.1,2.1,0,0,1-2.21-2.1c0-1.78,1.59-2.64,4-2.62v-.1c0-.37-.2-.88-1.25-.88a3.86,3.86,0,0,0-1.89.51l-.39-1.37a5.7,5.7,0,0,1,2.66-.6c2.28,0,3,1.34,3,2.95v2.39a10.57,10.57,0,0,0,.1,1.66Zm-.25-3.23c-1.12,0-2,.25-2,1.08a.76.76,0,0,0,.84.81,1.15,1.15,0,0,0,1.1-.79,1.36,1.36,0,0,0,.05-.36Z"/><path class="cls-8" d="M433.21,478v2h1.53v1.57h-1.53v2.48c0,.83.2,1.21.85,1.21a3.36,3.36,0,0,0,.63-.06v1.61a4.23,4.23,0,0,1-1.39.18,2.2,2.2,0,0,1-1.59-.59,2.78,2.78,0,0,1-.59-2v-2.8h-.91V480h.91v-1.48Z"/><path class="cls-8" d="M440.38,480l.93,3.18a16,16,0,0,1,.39,1.67h0c.11-.56.23-1.08.38-1.67L443,480h2.24l-2.55,6.85h-2.13L438.07,480Z"/><path class="cls-8" d="M452.78,483.35a3.44,3.44,0,0,1-3.62,3.66,3.36,3.36,0,0,1-3.54-3.53,3.41,3.41,0,0,1,3.65-3.63A3.33,3.33,0,0,1,452.78,483.35Zm-5,.07c0,1.18.49,2.06,1.4,2.06s1.36-.83,1.36-2.06c0-1-.4-2.06-1.36-2.06S447.82,482.41,447.82,483.42Z"/><path class="cls-8" d="M454.09,476.91h2.13v9.94h-2.13Z"/><path class="cls-8" d="M464.39,484.65c0,.9,0,1.63.06,2.2H462.6l-.1-1h0a2.43,2.43,0,0,1-2.14,1.12c-1.39,0-2.41-.87-2.41-3v-4h2.14v3.69c0,1,.33,1.59,1.07,1.59a1.13,1.13,0,0,0,1.06-.74,1.09,1.09,0,0,0,.07-.46V480h2.14Z"/><path class="cls-8" d="M468.48,478v2H470v1.57h-1.53v2.48c0,.83.2,1.21.84,1.21a3.18,3.18,0,0,0,.63-.06l0,1.61a4.28,4.28,0,0,1-1.39.18,2.22,2.22,0,0,1-1.6-.59,2.83,2.83,0,0,1-.59-2v-2.8h-.91V480h.91v-1.48Z"/><path class="cls-8" d="M471.24,482.3c0-.9,0-1.67-.06-2.3H473l.1,1h0a2.62,2.62,0,0,1,2.28-1.11c1.5,0,2.84,1.3,2.84,3.49,0,2.49-1.58,3.67-3.11,3.67a2.14,2.14,0,0,1-1.78-.79h0v3.41h-2.13Zm2.13,1.61a2,2,0,0,0,0,.45,1.3,1.3,0,0,0,1.25,1c.92,0,1.47-.77,1.47-1.94s-.49-1.91-1.45-1.91a1.33,1.33,0,0,0-1.27,1.07,1.64,1.64,0,0,0,0,.38Z"/><path class="cls-8" d="M483.5,486.85l-.12-.68h-.05a2.46,2.46,0,0,1-2,.84,2.1,2.1,0,0,1-2.21-2.1c0-1.78,1.6-2.64,4-2.62v-.1c0-.37-.19-.88-1.25-.88a3.86,3.86,0,0,0-1.89.51l-.39-1.37a5.77,5.77,0,0,1,2.66-.6c2.29,0,3,1.34,3,2.95v2.39a10.57,10.57,0,0,0,.1,1.66Zm-.25-3.23c-1.12,0-2,.25-2,1.08a.77.77,0,0,0,.84.81,1.17,1.17,0,0,0,1.11-.79,1.37,1.37,0,0,0,0-.36Z"/><path class="cls-8" d="M489.27,478v2h1.53v1.57h-1.53v2.48c0,.83.2,1.21.84,1.21a3.18,3.18,0,0,0,.63-.06v1.61a4.21,4.21,0,0,1-1.38.18,2.22,2.22,0,0,1-1.6-.59,2.83,2.83,0,0,1-.59-2v-2.8h-.91V480h.91v-1.48Z"/><path class="cls-8" d="M491.76,485.72a1.23,1.23,0,0,1,1.26-1.3,1.3,1.3,0,0,1,0,2.59A1.23,1.23,0,0,1,491.76,485.72Z"/><path class="cls-8" d="M500.58,477.41v5.44c0,1.62.62,2.45,1.71,2.45s1.74-.79,1.74-2.45v-5.44h2.13v5.3c0,2.91-1.47,4.3-3.94,4.3s-3.78-1.32-3.78-4.33v-5.27Z"/><path class="cls-8" d="M510.31,478v2h1.53v1.57h-1.53v2.48c0,.83.2,1.21.84,1.21a3.18,3.18,0,0,0,.63-.06l0,1.61a4.28,4.28,0,0,1-1.39.18,2.22,2.22,0,0,1-1.6-.59,2.83,2.83,0,0,1-.59-2v-2.8h-.91V480h.91v-1.48Z"/><path class="cls-8" d="M517.37,480l.54,2.8c.14.72.28,1.48.4,2.26h0c.14-.78.34-1.57.51-2.24l.73-2.82h1.68l.68,2.73c.19.77.37,1.55.51,2.33h0c.09-.78.23-1.56.39-2.34l.59-2.72h2.08l-2.1,6.85h-2l-.64-2.41c-.17-.67-.3-1.29-.44-2.13h0a15.21,15.21,0,0,1-.44,2.13l-.69,2.41h-2l-2-6.85Z"/><path class="cls-8" d="M528.72,478.1a1.07,1.07,0,0,1-1.15,1.06,1.07,1.07,0,1,1,0-2.14A1.06,1.06,0,0,1,528.72,478.1Zm-2.2,8.75V480h2.13v6.85Z"/><path class="cls-8" d="M530.34,485a4.19,4.19,0,0,0,1.84.52c.64,0,.91-.23.91-.58s-.21-.51-1-.78c-1.41-.48-2-1.25-2-2.06,0-1.27,1.1-2.24,2.79-2.24a4.58,4.58,0,0,1,1.93.39l-.37,1.47a3.36,3.36,0,0,0-1.49-.39c-.52,0-.81.21-.81.56s.27.49,1.11.78c1.3.45,1.84,1.11,1.86,2.12,0,1.27-1,2.21-3,2.21a4.81,4.81,0,0,1-2.21-.47Z"/><path class="cls-8" d="M538.63,478.1a1.06,1.06,0,0,1-1.14,1.06,1.07,1.07,0,1,1,0-2.14A1.06,1.06,0,0,1,538.63,478.1Zm-2.2,8.75V480h2.13v6.85Z"/><path class="cls-8" d="M412.63,500.91c.08.88.94,1.3,1.94,1.3a6.11,6.11,0,0,0,1.89-.28l.28,1.44a6.78,6.78,0,0,1-2.48.42c-2.33,0-3.66-1.34-3.66-3.48a3.43,3.43,0,0,1,3.46-3.66c2.22,0,3.06,1.72,3.06,3.42a5,5,0,0,1-.07.84Zm2.51-1.46a1.23,1.23,0,0,0-1.2-1.39,1.41,1.41,0,0,0-1.32,1.39Z"/><path class="cls-8" d="M418.39,499c0-.86,0-1.58-.06-2.19h1.85l.1.94h0a2.52,2.52,0,0,1,2.12-1.09c1.4,0,2.45.92,2.45,2.94v4.06h-2.13v-3.79c0-.89-.31-1.49-1.08-1.49a1.14,1.14,0,0,0-1.08.8,1.41,1.41,0,0,0-.08.53v3.95h-2.13Z"/><path class="cls-8" d="M428.79,494.9a1.07,1.07,0,0,1-1.15,1.06,1.07,1.07,0,1,1,0-2.14A1.06,1.06,0,0,1,428.79,494.9Zm-2.2,8.75V496.8h2.13v6.85Z"/><path class="cls-8" d="M430.43,499c0-.86,0-1.58-.06-2.19h1.8l.09.93h0a2.38,2.38,0,0,1,2.08-1.08,1.93,1.93,0,0,1,1.87,1.16h0a3,3,0,0,1,.89-.82,2.38,2.38,0,0,1,1.3-.34c1.32,0,2.31.92,2.31,3v4h-2.07v-3.72c0-1-.33-1.57-1-1.57a1,1,0,0,0-1,.74,1.67,1.67,0,0,0-.09.55v4h-2.07v-3.83c0-.87-.31-1.46-1-1.46a1.09,1.09,0,0,0-1,.77,1.4,1.4,0,0,0-.08.53v4h-2.07Z"/><path class="cls-8" d="M449.19,503.65l-.13-.68h0a2.49,2.49,0,0,1-2,.84,2.1,2.1,0,0,1-2.21-2.1c0-1.78,1.59-2.64,4-2.62V499c0-.37-.2-.88-1.25-.88a3.86,3.86,0,0,0-1.89.51l-.39-1.37a5.7,5.7,0,0,1,2.66-.6c2.28,0,3,1.34,3,3V502a10.57,10.57,0,0,0,.1,1.66Zm-.25-3.23c-1.12,0-2,.25-2,1.08a.76.76,0,0,0,.84.81,1.17,1.17,0,0,0,1.11-.79,2,2,0,0,0,0-.36Z"/><path class="cls-8" d="M459.33,493.71v7.9c0,.77,0,1.58.05,2h-1.89l-.1-1h0a2.39,2.39,0,0,1-2.15,1.17c-1.62,0-2.93-1.39-2.93-3.52,0-2.31,1.43-3.64,3.07-3.64a2.09,2.09,0,0,1,1.81.77h0v-3.71Zm-2.13,6c0-.11,0-.26,0-.37a1.29,1.29,0,0,0-1.25-1.06c-1,0-1.47.87-1.47,2s.58,1.89,1.46,1.89a1.24,1.24,0,0,0,1.23-1,1.88,1.88,0,0,0,.06-.49Z"/><rect class="cls-8" x="126.77" y="367.76" width="51.41" height="186.35"/><rect class="cls-8" x="173.03" y="426.7" width="51.41" height="127.41"/><rect class="cls-8" x="212.84" y="384.44" width="82.28" height="169.66"/><rect class="cls-8" x="291.27" y="469.27" width="51.41" height="84.83"/></g></g></g></svg>