<svg xmlns="http://www.w3.org/2000/svg" viewBox="0 0 229.95 234.57"><defs><style>.cls-1{fill:#fff;}</style></defs><g id="Layer_2" data-name="Layer 2"><g id="Layer_1-2" data-name="Layer 1"><path class="cls-1" d="M19.77,23a14.3,14.3,0,0,1-.87,5.13,17.88,17.88,0,0,1-2.19,4.11Q15.39,34,14,35.58c-.64.74-1.23,1.48-1.77,2.2A11.76,11.76,0,0,0,11,40a5.56,5.56,0,0,0-.48,2.26,3.91,3.91,0,0,0,1.05,2.94,4.17,4.17,0,0,0,3,1,4.32,4.32,0,0,0,3.54-1.61,7.7,7.7,0,0,0,1.32-5H30a15.17,15.17,0,0,1-2.1,8.43,12.2,12.2,0,0,1-5.58,4.67,19.66,19.66,0,0,1-7.59,1.45A19.31,19.31,0,0,1,7.31,52.8,11.82,11.82,0,0,1,2,48.61a11.92,11.92,0,0,1-2-7.06,10.48,10.48,0,0,1,.89-4.46,13.7,13.7,0,0,1,2.26-3.48c.92-1,1.86-2,2.82-2.89a36.41,36.41,0,0,0,3.33-3.6A6.48,6.48,0,0,0,10.74,23Zm-5-14.31a5.89,5.89,0,0,1,5.91,5.91,5.89,5.89,0,0,1-5.91,5.88,5.87,5.87,0,0,1-5.88-5.88,5.87,5.87,0,0,1,5.88-5.91Z"/><path class="cls-1" d="M75.15,36.9A17.3,17.3,0,0,1,64.52,52.81,21.39,21.39,0,0,1,56,54.39a20.36,20.36,0,0,1-11.14-2.93,18.82,18.82,0,0,1-7.08-8.08,27.37,27.37,0,0,1-2.45-11.91,27.33,27.33,0,0,1,2.45-11.9,18.8,18.8,0,0,1,7.08-8A20.52,20.52,0,0,1,56,8.61a21.28,21.28,0,0,1,9.23,1.83,17,17,0,0,1,6.15,4.8,17.57,17.57,0,0,1,3.22,6.36,17.76,17.76,0,0,1,.6,4.47H63a10.34,10.34,0,0,0-.12-1.68A8.52,8.52,0,0,0,61.71,21a6.26,6.26,0,0,0-2.36-2.24A7.08,7.08,0,0,0,56,18a7,7,0,0,0-4.23,1.38,9.25,9.25,0,0,0-3,4.35,22.32,22.32,0,0,0-1.13,7.77,22.48,22.48,0,0,0,1.13,7.77,9.46,9.46,0,0,0,3,4.41A6.9,6.9,0,0,0,56,45.06a7,7,0,0,0,3-.62,6.07,6.07,0,0,0,2.2-1.72,8,8,0,0,0,1.38-2.6A10.4,10.4,0,0,0,63,36.9Z"/><path class="cls-1" d="M101.31,54.39a22.6,22.6,0,0,1-8.14-1.47,19.6,19.6,0,0,1-6.83-4.38,20.6,20.6,0,0,1-4.68-7.2A26.6,26.6,0,0,1,80,31.44a26.66,26.66,0,0,1,1.7-9.9,20.12,20.12,0,0,1,4.64-7.14,19.79,19.79,0,0,1,6.81-4.34,24,24,0,0,1,16.43,0,19.78,19.78,0,0,1,6.83,4.34A20.24,20.24,0,0,1,121,21.54a26.87,26.87,0,0,1,1.68,9.9,26.6,26.6,0,0,1-1.71,9.9,20.48,20.48,0,0,1-4.69,7.2,19.92,19.92,0,0,1-6.84,4.38A22.61,22.61,0,0,1,101.31,54.39Zm0-9.36a8.49,8.49,0,0,0,4.31-1.22A8.83,8.83,0,0,0,109,39.63a20.6,20.6,0,0,0,1.33-8.19A20,20,0,0,0,109,23.26a8.78,8.78,0,0,0-3.42-4.11,8.27,8.27,0,0,0-12,4.11,20,20,0,0,0-1.35,8.18,20.22,20.22,0,0,0,1.35,8.21A8.8,8.8,0,0,0,97,43.81,8.38,8.38,0,0,0,101.31,45ZM95.4,6.72l8-6.72h9l-9.33,6.72Z"/><path class="cls-1" d="M160.56,9.36h20.37V53.61H169.44V15.81l.21.12-6.87,37.68H147.36l-7.08-37.77.21-.12V53.61H129V9.36h20.37L155.52,49h-1.23Z"/><path class="cls-1" d="M208.59,54.39a22.69,22.69,0,0,1-8.15-1.47,19.65,19.65,0,0,1-6.82-4.38,20.6,20.6,0,0,1-4.68-7.2,26.6,26.6,0,0,1-1.71-9.9,26.66,26.66,0,0,1,1.69-9.9,20.28,20.28,0,0,1,4.65-7.14,19.7,19.7,0,0,1,6.81-4.34,24,24,0,0,1,16.43,0,19.65,19.65,0,0,1,6.82,4.34,20.12,20.12,0,0,1,4.64,7.14,26.87,26.87,0,0,1,1.68,9.9,26.6,26.6,0,0,1-1.71,9.9,20.5,20.5,0,0,1-4.7,7.2,19.82,19.82,0,0,1-6.84,4.38A22.55,22.55,0,0,1,208.59,54.39Zm0-9.36a8.43,8.43,0,0,0,4.3-1.22,8.78,8.78,0,0,0,3.42-4.18,20.41,20.41,0,0,0,1.34-8.19,20,20,0,0,0-1.35-8.18,8.78,8.78,0,0,0-3.42-4.11,8.37,8.37,0,0,0-8.57,0,8.74,8.74,0,0,0-3.43,4.11,20,20,0,0,0-1.35,8.18,20.22,20.22,0,0,0,1.35,8.21,8.84,8.84,0,0,0,3.43,4.16A8.42,8.42,0,0,0,208.59,45Z"/><path class="cls-1" d="M1.44,143.61,11.73,99.36H31l10.23,44.25H28.8l-7.47-37h.06l-7.56,37Zm9-9.3v-9.09H32.28v9.09Z"/><path class="cls-1" d="M52.89,108.36l5.46-5.46v17.58l-3.69-2.85H72.9v9H54.66l3.69-3.09v20H46.29V99.36H75.57v9Z"/><path class="cls-1" d="M88.89,108.36l5.46-5.46v17.25l-2.7-3.24h15.9v9H91.65l2.7-3.21v17.37l-5.46-5.46h22v9H82.17V99.36h28.71v9Z"/><path class="cls-1" d="M154.65,126.9A17.32,17.32,0,0,1,144,142.81a21.3,21.3,0,0,1-8.56,1.58,20.39,20.39,0,0,1-11.15-2.93,18.88,18.88,0,0,1-7.08-8.08,30.26,30.26,0,0,1,0-23.81,18.86,18.86,0,0,1,7.08-8,20.55,20.55,0,0,1,11.15-2.91,21.2,21.2,0,0,1,9.22,1.83,16.92,16.92,0,0,1,6.15,4.8,17.4,17.4,0,0,1,3.83,10.83H142.5a10.34,10.34,0,0,0-.12-1.68,8.52,8.52,0,0,0-1.17-3.39,6.33,6.33,0,0,0-2.36-2.24,7.08,7.08,0,0,0-3.4-.79,7,7,0,0,0-4.23,1.38,9.27,9.27,0,0,0-3,4.35,22.34,22.34,0,0,0-1.12,7.77,22.5,22.5,0,0,0,1.12,7.77,9.47,9.47,0,0,0,3,4.41,7.21,7.21,0,0,0,7.21.79,6.1,6.1,0,0,0,2.21-1.72,8,8,0,0,0,1.38-2.6,10.4,10.4,0,0,0,.48-3.22Z"/><path class="cls-1" d="M189.57,108.36H173.73l5.46-5.46v40.71H167.1V102.9l5.46,5.46H156.75v-9h32.82Z"/><path class="cls-1" d="M188.67,143.61,199,99.36h19.23l10.23,44.25H216l-7.47-37h.06l-7.56,37Zm9-9.3v-9.09h21.84v9.09Z"/><path class="cls-1" d="M46.11,198.36l5.46-5.46v17.25l-2.7-3.24h15.9v9H48.87l2.7-3.21v17.37l-5.46-5.46h22v9H39.39V189.36H68.1v9Z"/><path class="cls-1" d="M91.35,234.39a23.38,23.38,0,0,1-8.82-1.58,13.73,13.73,0,0,1-6.17-4.69,12.82,12.82,0,0,1-2.26-7.74v-1.56H86.19v1.32a5,5,0,0,0,1.3,3.51,5.17,5.17,0,0,0,4,1.41,8.89,8.89,0,0,0,4.07-.77,2.6,2.6,0,0,0,1.48-2.5,3.12,3.12,0,0,0-1.4-2.4,15.83,15.83,0,0,0-3.75-2.1q-2.36-1-5.23-1.89a28,28,0,0,1-5.93-2.67,14,14,0,0,1-4.57-4.37,11.86,11.86,0,0,1-1.77-6.67,11.11,11.11,0,0,1,2.28-7,14.51,14.51,0,0,1,6.13-4.48,22.67,22.67,0,0,1,8.57-1.56,23.52,23.52,0,0,1,8.74,1.53,13.89,13.89,0,0,1,6.11,4.5,11.82,11.82,0,0,1,2.25,7.35v1.5H96.36v-.93a5.07,5.07,0,0,0-1.1-3.3c-.72-.9-2-1.35-3.76-1.35a7.27,7.27,0,0,0-4.07,1A3.15,3.15,0,0,0,86,201.66a2.89,2.89,0,0,0,1.2,2.27,13,13,0,0,0,3.31,1.81q2.12.84,4.79,1.8a44.92,44.92,0,0,1,7,3.11,13.17,13.17,0,0,1,4.72,4.24,11.59,11.59,0,0,1,1.7,6.54,11.15,11.15,0,0,1-2.25,7.06,13.81,13.81,0,0,1-6.2,4.4A25.09,25.09,0,0,1,91.35,234.39Z"/><path class="cls-1" d="M134.94,234.39a22.69,22.69,0,0,1-8.15-1.47,19.65,19.65,0,0,1-6.82-4.38,20.6,20.6,0,0,1-4.68-7.2,29.68,29.68,0,0,1,0-19.8,20.28,20.28,0,0,1,4.65-7.14,19.7,19.7,0,0,1,6.81-4.34,24,24,0,0,1,16.43,0A19.65,19.65,0,0,1,150,194.4a20.12,20.12,0,0,1,4.64,7.14,26.87,26.87,0,0,1,1.68,9.9,26.6,26.6,0,0,1-1.71,9.9,20.5,20.5,0,0,1-4.7,7.2,19.82,19.82,0,0,1-6.84,4.38A22.55,22.55,0,0,1,134.94,234.39Zm0-9.36a8.43,8.43,0,0,0,4.3-1.22,8.78,8.78,0,0,0,3.42-4.18,20.41,20.41,0,0,0,1.34-8.19,20,20,0,0,0-1.35-8.17,8.76,8.76,0,0,0-3.42-4.12,8.37,8.37,0,0,0-8.57,0,8.72,8.72,0,0,0-3.43,4.12,20,20,0,0,0-1.35,8.17,20.22,20.22,0,0,0,1.35,8.21,8.89,8.89,0,0,0,3.43,4.16A8.42,8.42,0,0,0,134.94,225Z"/><path class="cls-1" d="M172,220.26a14.33,14.33,0,0,1,.87-5.15A17.59,17.59,0,0,1,175,211q1.33-1.83,2.66-3.39,1-1.14,1.77-2.22a10.81,10.81,0,0,0,1.29-2.19,5.62,5.62,0,0,0,.48-2.25,3.91,3.91,0,0,0-1-2.94,4.17,4.17,0,0,0-3-1,4.37,4.37,0,0,0-3.54,1.6,7.77,7.77,0,0,0-1.32,5H161.7a15.11,15.11,0,0,1,2.1-8.44,12.18,12.18,0,0,1,5.58-4.66A19.66,19.66,0,0,1,177,189a19.35,19.35,0,0,1,7.45,1.38,11.32,11.32,0,0,1,7.31,11.25,10.58,10.58,0,0,1-.89,4.45,13.56,13.56,0,0,1-2.26,3.47q-1.38,1.53-2.82,2.91a38.67,38.67,0,0,0-3.33,3.58,6.5,6.5,0,0,0-1.44,4.19Zm5,14.31a5.87,5.87,0,0,1-5.91-5.91,5.9,5.9,0,0,1,11.79,0,5.89,5.89,0,0,1-5.88,5.91Z"/></g></g></svg>