<svg xmlns="http://www.w3.org/2000/svg" viewBox="0 0 375 650"><defs><style>.cls-1,.cls-2{fill:#fff;}.cls-1{opacity:0.05;}</style></defs><g id="Layer_2" data-name="Layer 2"><g id="Layer_1-2" data-name="Layer 1"><rect class="cls-1" width="375" height="650" rx="20"/><path class="cls-2" d="M92.34,167.29a14.3,14.3,0,0,1-.87,5.13,17.88,17.88,0,0,1-2.19,4.11q-1.32,1.83-2.67,3.39c-.64.74-1.23,1.47-1.77,2.2a11.38,11.38,0,0,0-1.29,2.19,5.61,5.61,0,0,0-.48,2.27,3.91,3.91,0,0,0,1.05,2.94,4.17,4.17,0,0,0,3,1,4.35,4.35,0,0,0,3.54-1.61A7.72,7.72,0,0,0,92,184H102.6a15.17,15.17,0,0,1-2.1,8.43,12.12,12.12,0,0,1-5.58,4.66,20.63,20.63,0,0,1-15,.08,11.37,11.37,0,0,1-7.31-11.25,10.63,10.63,0,0,1,.89-4.46A13.53,13.53,0,0,1,75.72,178c.92-1,1.86-2,2.82-2.89a36.41,36.41,0,0,0,3.33-3.6,6.48,6.48,0,0,0,1.44-4.17Zm-5-14.31a5.87,5.87,0,0,1,5.91,5.91A5.65,5.65,0,0,1,91.52,163a5.71,5.71,0,0,1-4.19,1.73,5.9,5.9,0,0,1,0-11.79Z"/><path class="cls-2" d="M147.72,181.24a17.3,17.3,0,0,1-10.63,15.91,21.35,21.35,0,0,1-8.57,1.58,20.44,20.44,0,0,1-11.14-2.93,18.88,18.88,0,0,1-7.08-8.08,30.15,30.15,0,0,1,0-23.81,18.8,18.8,0,0,1,7.08-8A20.52,20.52,0,0,1,128.52,153a21.25,21.25,0,0,1,9.23,1.83,16.92,16.92,0,0,1,6.15,4.8,17.57,17.57,0,0,1,3.22,6.36,17.76,17.76,0,0,1,.6,4.47H135.57a10.34,10.34,0,0,0-.12-1.68,8.52,8.52,0,0,0-1.17-3.39,6.31,6.31,0,0,0-2.35-2.24,7.41,7.41,0,0,0-7.64.59,9.25,9.25,0,0,0-3,4.35,27.28,27.28,0,0,0,0,15.54,9.46,9.46,0,0,0,3,4.41,7.23,7.23,0,0,0,7.22.79,6.18,6.18,0,0,0,2.2-1.72,8,8,0,0,0,1.38-2.6,10.4,10.4,0,0,0,.48-3.22Z"/><path class="cls-2" d="M173.88,198.73a22.6,22.6,0,0,1-8.14-1.47,19.69,19.69,0,0,1-6.83-4.38,20.6,20.6,0,0,1-4.68-7.2,29.59,29.59,0,0,1,0-19.8,20.28,20.28,0,0,1,4.65-7.14,19.47,19.47,0,0,1,6.81-4.34,24,24,0,0,1,16.42,0,19.55,19.55,0,0,1,6.83,4.34,20.24,20.24,0,0,1,4.63,7.14,26.87,26.87,0,0,1,1.68,9.9,26.6,26.6,0,0,1-1.71,9.9,20.48,20.48,0,0,1-4.69,7.2,19.92,19.92,0,0,1-6.84,4.38A22.61,22.61,0,0,1,173.88,198.73Zm0-9.36a8.49,8.49,0,0,0,4.31-1.22,8.83,8.83,0,0,0,3.42-4.18,20.6,20.6,0,0,0,1.33-8.19,20,20,0,0,0-1.35-8.18,8.73,8.73,0,0,0-3.42-4.11,8.35,8.35,0,0,0-8.56,0,8.65,8.65,0,0,0-3.44,4.11,20,20,0,0,0-1.35,8.18,20.17,20.17,0,0,0,1.35,8.2,8.83,8.83,0,0,0,3.44,4.17A8.38,8.38,0,0,0,173.88,189.37ZM168,151.06l8-6.72h9l-9.33,6.72Z"/><path class="cls-2" d="M233.13,153.7H253.5V198H242v-37.8l.21.12L235.35,198H219.93l-7.08-37.77.21-.12V198H201.54V153.7h20.37l6.18,39.63h-1.23Z"/><path class="cls-2" d="M281.16,198.73a22.69,22.69,0,0,1-8.15-1.47,19.65,19.65,0,0,1-6.82-4.38,20.6,20.6,0,0,1-4.68-7.2,29.68,29.68,0,0,1,0-19.8,20.28,20.28,0,0,1,4.65-7.14A19.56,19.56,0,0,1,273,154.4a24,24,0,0,1,16.43,0,19.51,19.51,0,0,1,6.82,4.34,20.12,20.12,0,0,1,4.64,7.14,26.87,26.87,0,0,1,1.68,9.9,26.6,26.6,0,0,1-1.71,9.9,20.5,20.5,0,0,1-4.7,7.2,19.82,19.82,0,0,1-6.84,4.38A22.55,22.55,0,0,1,281.16,198.73Zm0-9.36a8.43,8.43,0,0,0,4.3-1.22,8.78,8.78,0,0,0,3.42-4.18,20.41,20.41,0,0,0,1.34-8.19,20,20,0,0,0-1.35-8.18,8.73,8.73,0,0,0-3.42-4.11,8.37,8.37,0,0,0-8.57,0,8.69,8.69,0,0,0-3.43,4.11,20,20,0,0,0-1.35,8.18,20.17,20.17,0,0,0,1.35,8.2,8.87,8.87,0,0,0,3.43,4.17A8.42,8.42,0,0,0,281.16,189.37Z"/><path class="cls-2" d="M74,288,84.3,243.7h19.23L113.76,288H101.37l-7.47-37H94L86.4,288Zm9-9.3v-9.09h21.84v9.09Z"/><path class="cls-2" d="M125.46,252.7l5.46-5.46v17.58L127.23,262h18.24v9H127.23l3.69-3.09v20H118.86V243.7h29.28v9Z"/><path class="cls-2" d="M161.46,252.7l5.46-5.46v17.25l-2.7-3.24h15.9v9h-15.9l2.7-3.21v17.37L161.46,279h22v9H154.74V243.7h28.71v9Z"/><path class="cls-2" d="M227.22,271.24a17.25,17.25,0,0,1-1.16,6.1,17.47,17.47,0,0,1-3.51,5.66,17.29,17.29,0,0,1-6,4.15,21.3,21.3,0,0,1-8.56,1.58,20.48,20.48,0,0,1-11.15-2.93,18.88,18.88,0,0,1-7.08-8.08,30.26,30.26,0,0,1,0-23.81,18.8,18.8,0,0,1,7.08-8A20.55,20.55,0,0,1,208,243a21.2,21.2,0,0,1,9.22,1.83,16.92,16.92,0,0,1,6.15,4.8,17.4,17.4,0,0,1,3.83,10.83H215.07a10.34,10.34,0,0,0-.12-1.68,8.52,8.52,0,0,0-1.17-3.39,6.33,6.33,0,0,0-2.36-2.24,7.4,7.4,0,0,0-7.63.59,9.27,9.27,0,0,0-3,4.35,27.51,27.51,0,0,0,0,15.54,9.47,9.47,0,0,0,3,4.41,7.21,7.21,0,0,0,7.21.79,6.21,6.21,0,0,0,2.21-1.72,8,8,0,0,0,1.38-2.6,10.4,10.4,0,0,0,.48-3.22Z"/><path class="cls-2" d="M262.14,252.7H246.3l5.46-5.46V288H239.67V247.24l5.46,5.46H229.32v-9h32.82Z"/><path class="cls-2" d="M261.24,288l10.29-44.25h19.23L301,288H288.6l-7.47-37h.06l-7.56,37Zm9-9.3v-9.09h21.84v9.09Z"/><path class="cls-2" d="M118.68,342.7l5.46-5.46v17.25l-2.7-3.24h15.9v9h-15.9l2.7-3.21v17.37L118.68,369h22v9H112V333.7h28.71v9Z"/><path class="cls-2" d="M163.92,378.73a23.38,23.38,0,0,1-8.82-1.58,13.72,13.72,0,0,1-6.16-4.69,12.76,12.76,0,0,1-2.27-7.74v-1.56h12.09v1.32a5,5,0,0,0,1.3,3.51,5.19,5.19,0,0,0,4,1.41,9,9,0,0,0,4.07-.77,2.6,2.6,0,0,0,1.48-2.5,3.13,3.13,0,0,0-1.39-2.4,16.13,16.13,0,0,0-3.76-2.1q-2.35-1-5.23-1.89a28,28,0,0,1-5.93-2.67,14,14,0,0,1-4.57-4.37,11.86,11.86,0,0,1-1.77-6.67,11.11,11.11,0,0,1,2.28-7,14.43,14.43,0,0,1,6.13-4.48,22.67,22.67,0,0,1,8.57-1.56,23.52,23.52,0,0,1,8.74,1.53,13.89,13.89,0,0,1,6.11,4.5,11.82,11.82,0,0,1,2.25,7.35v1.5H168.93v-.93a5.07,5.07,0,0,0-1.1-3.3c-.72-.9-2-1.35-3.76-1.35a7.27,7.27,0,0,0-4.07,1,3.15,3.15,0,0,0-1.42,2.79,2.85,2.85,0,0,0,1.2,2.26,12.88,12.88,0,0,0,3.31,1.82q2.11.84,4.79,1.8a44.94,44.94,0,0,1,7.05,3.1,13.29,13.29,0,0,1,4.72,4.25,11.51,11.51,0,0,1,1.7,6.54,11.15,11.15,0,0,1-2.25,7.06,13.83,13.83,0,0,1-6.2,4.4A25.09,25.09,0,0,1,163.92,378.73Z"/><path class="cls-2" d="M207.51,378.73a22.6,22.6,0,0,1-8.14-1.47,19.6,19.6,0,0,1-6.83-4.38,20.6,20.6,0,0,1-4.68-7.2,29.68,29.68,0,0,1,0-19.8,20.16,20.16,0,0,1,4.66-7.14,19.57,19.57,0,0,1,6.8-4.34,24,24,0,0,1,16.43,0,19.65,19.65,0,0,1,6.82,4.34,20.12,20.12,0,0,1,4.64,7.14,26.87,26.87,0,0,1,1.68,9.9,26.6,26.6,0,0,1-1.71,9.9,20.37,20.37,0,0,1-4.7,7.2,19.88,19.88,0,0,1-6.83,4.38A22.65,22.65,0,0,1,207.51,378.73Zm0-9.36a8.43,8.43,0,0,0,4.3-1.22,8.72,8.72,0,0,0,3.42-4.18,20.41,20.41,0,0,0,1.34-8.19,20,20,0,0,0-1.35-8.18,8.78,8.78,0,0,0-3.42-4.11,8.37,8.37,0,0,0-8.57,0,8.74,8.74,0,0,0-3.43,4.11,25.52,25.52,0,0,0,0,16.38,8.87,8.87,0,0,0,3.43,4.17A8.44,8.44,0,0,0,207.51,369.37Z"/><path class="cls-2" d="M244.53,364.6a14.3,14.3,0,0,1,.87-5.15,17.59,17.59,0,0,1,2.2-4.09q1.34-1.83,2.66-3.39,1-1.14,1.77-2.22a10.81,10.81,0,0,0,1.29-2.19,5.62,5.62,0,0,0,.48-2.25,3.91,3.91,0,0,0-1.05-2.94,4.17,4.17,0,0,0-3-1,4.34,4.34,0,0,0-3.54,1.6,7.75,7.75,0,0,0-1.32,5H234.27a15.17,15.17,0,0,1,2.1-8.45,12.16,12.16,0,0,1,5.58-4.65,20.69,20.69,0,0,1,15-.07A11.32,11.32,0,0,1,264.3,346a10.58,10.58,0,0,1-.89,4.45,13.56,13.56,0,0,1-2.26,3.47q-1.38,1.53-2.82,2.91a37.44,37.44,0,0,0-3.33,3.58,6.48,6.48,0,0,0-1.44,4.19Zm5,14.31a5.9,5.9,0,1,1,0-11.79,5.9,5.9,0,0,1,0,11.79Z"/></g></g></svg>